G75*
G70*
%OFA0B0*%
%FSLAX24Y24*%
%IPPOS*%
%LPD*%
%AMOC8*
5,1,8,0,0,1.08239X$1,22.5*
%
%ADD10C,0.0050*%
%ADD11C,0.0060*%
D10*
X007416Y011666D02*
X007416Y013280D01*
X007770Y013634D01*
X007888Y013752D01*
X007731Y013910D01*
X007416Y013634D01*
X007770Y013634D01*
X009384Y013634D01*
X009384Y011666D01*
X007416Y011666D01*
X007723Y012650D02*
X007725Y012702D01*
X007731Y012753D01*
X007741Y012804D01*
X007755Y012854D01*
X007772Y012903D01*
X007793Y012950D01*
X007818Y012996D01*
X007846Y013039D01*
X007878Y013081D01*
X007912Y013119D01*
X007950Y013155D01*
X007990Y013188D01*
X008032Y013218D01*
X008077Y013245D01*
X008123Y013268D01*
X008171Y013287D01*
X008221Y013303D01*
X008271Y013315D01*
X008322Y013323D01*
X008374Y013327D01*
X008426Y013327D01*
X008478Y013323D01*
X008529Y013315D01*
X008579Y013303D01*
X008629Y013287D01*
X008677Y013268D01*
X008723Y013245D01*
X008768Y013218D01*
X008810Y013188D01*
X008850Y013155D01*
X008888Y013119D01*
X008922Y013081D01*
X008954Y013039D01*
X008982Y012996D01*
X009007Y012950D01*
X009028Y012903D01*
X009045Y012854D01*
X009059Y012804D01*
X009069Y012753D01*
X009075Y012702D01*
X009077Y012650D01*
X009075Y012598D01*
X009069Y012547D01*
X009059Y012496D01*
X009045Y012446D01*
X009028Y012397D01*
X009007Y012350D01*
X008982Y012304D01*
X008954Y012261D01*
X008922Y012219D01*
X008888Y012181D01*
X008850Y012145D01*
X008810Y012112D01*
X008768Y012082D01*
X008723Y012055D01*
X008677Y012032D01*
X008629Y012013D01*
X008579Y011997D01*
X008529Y011985D01*
X008478Y011977D01*
X008426Y011973D01*
X008374Y011973D01*
X008322Y011977D01*
X008271Y011985D01*
X008221Y011997D01*
X008171Y012013D01*
X008123Y012032D01*
X008077Y012055D01*
X008032Y012082D01*
X007990Y012112D01*
X007950Y012145D01*
X007912Y012181D01*
X007878Y012219D01*
X007846Y012261D01*
X007818Y012304D01*
X007793Y012350D01*
X007772Y012397D01*
X007755Y012446D01*
X007741Y012496D01*
X007731Y012547D01*
X007725Y012598D01*
X007723Y012650D01*
X007416Y013280D02*
X007416Y013634D01*
X010291Y022916D02*
X010291Y024530D01*
X010645Y024884D01*
X010763Y025002D01*
X010606Y025160D01*
X010291Y024884D01*
X010645Y024884D01*
X012259Y024884D01*
X012259Y022916D01*
X010291Y022916D01*
X010598Y023900D02*
X010600Y023952D01*
X010606Y024003D01*
X010616Y024054D01*
X010630Y024104D01*
X010647Y024153D01*
X010668Y024200D01*
X010693Y024246D01*
X010721Y024289D01*
X010753Y024331D01*
X010787Y024369D01*
X010825Y024405D01*
X010865Y024438D01*
X010907Y024468D01*
X010952Y024495D01*
X010998Y024518D01*
X011046Y024537D01*
X011096Y024553D01*
X011146Y024565D01*
X011197Y024573D01*
X011249Y024577D01*
X011301Y024577D01*
X011353Y024573D01*
X011404Y024565D01*
X011454Y024553D01*
X011504Y024537D01*
X011552Y024518D01*
X011598Y024495D01*
X011643Y024468D01*
X011685Y024438D01*
X011725Y024405D01*
X011763Y024369D01*
X011797Y024331D01*
X011829Y024289D01*
X011857Y024246D01*
X011882Y024200D01*
X011903Y024153D01*
X011920Y024104D01*
X011934Y024054D01*
X011944Y024003D01*
X011950Y023952D01*
X011952Y023900D01*
X011950Y023848D01*
X011944Y023797D01*
X011934Y023746D01*
X011920Y023696D01*
X011903Y023647D01*
X011882Y023600D01*
X011857Y023554D01*
X011829Y023511D01*
X011797Y023469D01*
X011763Y023431D01*
X011725Y023395D01*
X011685Y023362D01*
X011643Y023332D01*
X011598Y023305D01*
X011552Y023282D01*
X011504Y023263D01*
X011454Y023247D01*
X011404Y023235D01*
X011353Y023227D01*
X011301Y023223D01*
X011249Y023223D01*
X011197Y023227D01*
X011146Y023235D01*
X011096Y023247D01*
X011046Y023263D01*
X010998Y023282D01*
X010952Y023305D01*
X010907Y023332D01*
X010865Y023362D01*
X010825Y023395D01*
X010787Y023431D01*
X010753Y023469D01*
X010721Y023511D01*
X010693Y023554D01*
X010668Y023600D01*
X010647Y023647D01*
X010630Y023696D01*
X010616Y023746D01*
X010606Y023797D01*
X010600Y023848D01*
X010598Y023900D01*
X010291Y024530D02*
X010291Y024884D01*
X013291Y034166D02*
X013291Y035780D01*
X013645Y036134D01*
X013763Y036252D01*
X013606Y036410D01*
X013291Y036134D01*
X013645Y036134D01*
X015259Y036134D01*
X015259Y034166D01*
X013291Y034166D01*
X013598Y035150D02*
X013600Y035202D01*
X013606Y035253D01*
X013616Y035304D01*
X013630Y035354D01*
X013647Y035403D01*
X013668Y035450D01*
X013693Y035496D01*
X013721Y035539D01*
X013753Y035581D01*
X013787Y035619D01*
X013825Y035655D01*
X013865Y035688D01*
X013907Y035718D01*
X013952Y035745D01*
X013998Y035768D01*
X014046Y035787D01*
X014096Y035803D01*
X014146Y035815D01*
X014197Y035823D01*
X014249Y035827D01*
X014301Y035827D01*
X014353Y035823D01*
X014404Y035815D01*
X014454Y035803D01*
X014504Y035787D01*
X014552Y035768D01*
X014598Y035745D01*
X014643Y035718D01*
X014685Y035688D01*
X014725Y035655D01*
X014763Y035619D01*
X014797Y035581D01*
X014829Y035539D01*
X014857Y035496D01*
X014882Y035450D01*
X014903Y035403D01*
X014920Y035354D01*
X014934Y035304D01*
X014944Y035253D01*
X014950Y035202D01*
X014952Y035150D01*
X014950Y035098D01*
X014944Y035047D01*
X014934Y034996D01*
X014920Y034946D01*
X014903Y034897D01*
X014882Y034850D01*
X014857Y034804D01*
X014829Y034761D01*
X014797Y034719D01*
X014763Y034681D01*
X014725Y034645D01*
X014685Y034612D01*
X014643Y034582D01*
X014598Y034555D01*
X014552Y034532D01*
X014504Y034513D01*
X014454Y034497D01*
X014404Y034485D01*
X014353Y034477D01*
X014301Y034473D01*
X014249Y034473D01*
X014197Y034477D01*
X014146Y034485D01*
X014096Y034497D01*
X014046Y034513D01*
X013998Y034532D01*
X013952Y034555D01*
X013907Y034582D01*
X013865Y034612D01*
X013825Y034645D01*
X013787Y034681D01*
X013753Y034719D01*
X013721Y034761D01*
X013693Y034804D01*
X013668Y034850D01*
X013647Y034897D01*
X013630Y034946D01*
X013616Y034996D01*
X013606Y035047D01*
X013600Y035098D01*
X013598Y035150D01*
X013291Y035780D02*
X013291Y036134D01*
X016291Y045666D02*
X016291Y047280D01*
X016645Y047634D01*
X016763Y047752D01*
X016606Y047910D01*
X016291Y047634D01*
X016645Y047634D01*
X018259Y047634D01*
X018259Y045666D01*
X016291Y045666D01*
X016598Y046650D02*
X016600Y046702D01*
X016606Y046753D01*
X016616Y046804D01*
X016630Y046854D01*
X016647Y046903D01*
X016668Y046950D01*
X016693Y046996D01*
X016721Y047039D01*
X016753Y047081D01*
X016787Y047119D01*
X016825Y047155D01*
X016865Y047188D01*
X016907Y047218D01*
X016952Y047245D01*
X016998Y047268D01*
X017046Y047287D01*
X017096Y047303D01*
X017146Y047315D01*
X017197Y047323D01*
X017249Y047327D01*
X017301Y047327D01*
X017353Y047323D01*
X017404Y047315D01*
X017454Y047303D01*
X017504Y047287D01*
X017552Y047268D01*
X017598Y047245D01*
X017643Y047218D01*
X017685Y047188D01*
X017725Y047155D01*
X017763Y047119D01*
X017797Y047081D01*
X017829Y047039D01*
X017857Y046996D01*
X017882Y046950D01*
X017903Y046903D01*
X017920Y046854D01*
X017934Y046804D01*
X017944Y046753D01*
X017950Y046702D01*
X017952Y046650D01*
X017950Y046598D01*
X017944Y046547D01*
X017934Y046496D01*
X017920Y046446D01*
X017903Y046397D01*
X017882Y046350D01*
X017857Y046304D01*
X017829Y046261D01*
X017797Y046219D01*
X017763Y046181D01*
X017725Y046145D01*
X017685Y046112D01*
X017643Y046082D01*
X017598Y046055D01*
X017552Y046032D01*
X017504Y046013D01*
X017454Y045997D01*
X017404Y045985D01*
X017353Y045977D01*
X017301Y045973D01*
X017249Y045973D01*
X017197Y045977D01*
X017146Y045985D01*
X017096Y045997D01*
X017046Y046013D01*
X016998Y046032D01*
X016952Y046055D01*
X016907Y046082D01*
X016865Y046112D01*
X016825Y046145D01*
X016787Y046181D01*
X016753Y046219D01*
X016721Y046261D01*
X016693Y046304D01*
X016668Y046350D01*
X016647Y046397D01*
X016630Y046446D01*
X016616Y046496D01*
X016606Y046547D01*
X016600Y046598D01*
X016598Y046650D01*
X016291Y047280D02*
X016291Y047634D01*
X025916Y037009D02*
X026231Y037285D01*
X026388Y037127D01*
X026270Y037009D01*
X025916Y036655D01*
X025916Y037009D01*
X026270Y037009D01*
X027884Y037009D01*
X027884Y035041D01*
X025916Y035041D01*
X025916Y036655D01*
X026223Y036025D02*
X026225Y036077D01*
X026231Y036128D01*
X026241Y036179D01*
X026255Y036229D01*
X026272Y036278D01*
X026293Y036325D01*
X026318Y036371D01*
X026346Y036414D01*
X026378Y036456D01*
X026412Y036494D01*
X026450Y036530D01*
X026490Y036563D01*
X026532Y036593D01*
X026577Y036620D01*
X026623Y036643D01*
X026671Y036662D01*
X026721Y036678D01*
X026771Y036690D01*
X026822Y036698D01*
X026874Y036702D01*
X026926Y036702D01*
X026978Y036698D01*
X027029Y036690D01*
X027079Y036678D01*
X027129Y036662D01*
X027177Y036643D01*
X027223Y036620D01*
X027268Y036593D01*
X027310Y036563D01*
X027350Y036530D01*
X027388Y036494D01*
X027422Y036456D01*
X027454Y036414D01*
X027482Y036371D01*
X027507Y036325D01*
X027528Y036278D01*
X027545Y036229D01*
X027559Y036179D01*
X027569Y036128D01*
X027575Y036077D01*
X027577Y036025D01*
X027575Y035973D01*
X027569Y035922D01*
X027559Y035871D01*
X027545Y035821D01*
X027528Y035772D01*
X027507Y035725D01*
X027482Y035679D01*
X027454Y035636D01*
X027422Y035594D01*
X027388Y035556D01*
X027350Y035520D01*
X027310Y035487D01*
X027268Y035457D01*
X027223Y035430D01*
X027177Y035407D01*
X027129Y035388D01*
X027079Y035372D01*
X027029Y035360D01*
X026978Y035352D01*
X026926Y035348D01*
X026874Y035348D01*
X026822Y035352D01*
X026771Y035360D01*
X026721Y035372D01*
X026671Y035388D01*
X026623Y035407D01*
X026577Y035430D01*
X026532Y035457D01*
X026490Y035487D01*
X026450Y035520D01*
X026412Y035556D01*
X026378Y035594D01*
X026346Y035636D01*
X026318Y035679D01*
X026293Y035725D01*
X026272Y035772D01*
X026255Y035821D01*
X026241Y035871D01*
X026231Y035922D01*
X026225Y035973D01*
X026223Y036025D01*
X024481Y024785D02*
X024166Y024509D01*
X024520Y024509D01*
X024638Y024627D01*
X024481Y024785D01*
X024520Y024509D02*
X024166Y024155D01*
X024166Y024509D01*
X024166Y024155D02*
X024166Y022541D01*
X026134Y022541D01*
X026134Y024509D01*
X024520Y024509D01*
X024473Y023525D02*
X024475Y023577D01*
X024481Y023628D01*
X024491Y023679D01*
X024505Y023729D01*
X024522Y023778D01*
X024543Y023825D01*
X024568Y023871D01*
X024596Y023914D01*
X024628Y023956D01*
X024662Y023994D01*
X024700Y024030D01*
X024740Y024063D01*
X024782Y024093D01*
X024827Y024120D01*
X024873Y024143D01*
X024921Y024162D01*
X024971Y024178D01*
X025021Y024190D01*
X025072Y024198D01*
X025124Y024202D01*
X025176Y024202D01*
X025228Y024198D01*
X025279Y024190D01*
X025329Y024178D01*
X025379Y024162D01*
X025427Y024143D01*
X025473Y024120D01*
X025518Y024093D01*
X025560Y024063D01*
X025600Y024030D01*
X025638Y023994D01*
X025672Y023956D01*
X025704Y023914D01*
X025732Y023871D01*
X025757Y023825D01*
X025778Y023778D01*
X025795Y023729D01*
X025809Y023679D01*
X025819Y023628D01*
X025825Y023577D01*
X025827Y023525D01*
X025825Y023473D01*
X025819Y023422D01*
X025809Y023371D01*
X025795Y023321D01*
X025778Y023272D01*
X025757Y023225D01*
X025732Y023179D01*
X025704Y023136D01*
X025672Y023094D01*
X025638Y023056D01*
X025600Y023020D01*
X025560Y022987D01*
X025518Y022957D01*
X025473Y022930D01*
X025427Y022907D01*
X025379Y022888D01*
X025329Y022872D01*
X025279Y022860D01*
X025228Y022852D01*
X025176Y022848D01*
X025124Y022848D01*
X025072Y022852D01*
X025021Y022860D01*
X024971Y022872D01*
X024921Y022888D01*
X024873Y022907D01*
X024827Y022930D01*
X024782Y022957D01*
X024740Y022987D01*
X024700Y023020D01*
X024662Y023056D01*
X024628Y023094D01*
X024596Y023136D01*
X024568Y023179D01*
X024543Y023225D01*
X024522Y023272D01*
X024505Y023321D01*
X024491Y023371D01*
X024481Y023422D01*
X024475Y023473D01*
X024473Y023525D01*
X022731Y012160D02*
X022416Y011884D01*
X022770Y011884D01*
X022888Y012002D01*
X022731Y012160D01*
X022770Y011884D02*
X022416Y011530D01*
X022416Y011884D01*
X022416Y011530D02*
X022416Y009916D01*
X024384Y009916D01*
X024384Y011884D01*
X022770Y011884D01*
X022723Y010900D02*
X022725Y010952D01*
X022731Y011003D01*
X022741Y011054D01*
X022755Y011104D01*
X022772Y011153D01*
X022793Y011200D01*
X022818Y011246D01*
X022846Y011289D01*
X022878Y011331D01*
X022912Y011369D01*
X022950Y011405D01*
X022990Y011438D01*
X023032Y011468D01*
X023077Y011495D01*
X023123Y011518D01*
X023171Y011537D01*
X023221Y011553D01*
X023271Y011565D01*
X023322Y011573D01*
X023374Y011577D01*
X023426Y011577D01*
X023478Y011573D01*
X023529Y011565D01*
X023579Y011553D01*
X023629Y011537D01*
X023677Y011518D01*
X023723Y011495D01*
X023768Y011468D01*
X023810Y011438D01*
X023850Y011405D01*
X023888Y011369D01*
X023922Y011331D01*
X023954Y011289D01*
X023982Y011246D01*
X024007Y011200D01*
X024028Y011153D01*
X024045Y011104D01*
X024059Y011054D01*
X024069Y011003D01*
X024075Y010952D01*
X024077Y010900D01*
X024075Y010848D01*
X024069Y010797D01*
X024059Y010746D01*
X024045Y010696D01*
X024028Y010647D01*
X024007Y010600D01*
X023982Y010554D01*
X023954Y010511D01*
X023922Y010469D01*
X023888Y010431D01*
X023850Y010395D01*
X023810Y010362D01*
X023768Y010332D01*
X023723Y010305D01*
X023677Y010282D01*
X023629Y010263D01*
X023579Y010247D01*
X023529Y010235D01*
X023478Y010227D01*
X023426Y010223D01*
X023374Y010223D01*
X023322Y010227D01*
X023271Y010235D01*
X023221Y010247D01*
X023171Y010263D01*
X023123Y010282D01*
X023077Y010305D01*
X023032Y010332D01*
X022990Y010362D01*
X022950Y010395D01*
X022912Y010431D01*
X022878Y010469D01*
X022846Y010511D01*
X022818Y010554D01*
X022793Y010600D01*
X022772Y010647D01*
X022755Y010696D01*
X022741Y010746D01*
X022731Y010797D01*
X022725Y010848D01*
X022723Y010900D01*
X037291Y010384D02*
X037291Y010030D01*
X037645Y010384D01*
X037763Y010502D01*
X037606Y010660D01*
X037291Y010384D01*
X037645Y010384D01*
X039259Y010384D01*
X039259Y008416D01*
X037291Y008416D01*
X037291Y010030D01*
X037598Y009400D02*
X037600Y009452D01*
X037606Y009503D01*
X037616Y009554D01*
X037630Y009604D01*
X037647Y009653D01*
X037668Y009700D01*
X037693Y009746D01*
X037721Y009789D01*
X037753Y009831D01*
X037787Y009869D01*
X037825Y009905D01*
X037865Y009938D01*
X037907Y009968D01*
X037952Y009995D01*
X037998Y010018D01*
X038046Y010037D01*
X038096Y010053D01*
X038146Y010065D01*
X038197Y010073D01*
X038249Y010077D01*
X038301Y010077D01*
X038353Y010073D01*
X038404Y010065D01*
X038454Y010053D01*
X038504Y010037D01*
X038552Y010018D01*
X038598Y009995D01*
X038643Y009968D01*
X038685Y009938D01*
X038725Y009905D01*
X038763Y009869D01*
X038797Y009831D01*
X038829Y009789D01*
X038857Y009746D01*
X038882Y009700D01*
X038903Y009653D01*
X038920Y009604D01*
X038934Y009554D01*
X038944Y009503D01*
X038950Y009452D01*
X038952Y009400D01*
X038950Y009348D01*
X038944Y009297D01*
X038934Y009246D01*
X038920Y009196D01*
X038903Y009147D01*
X038882Y009100D01*
X038857Y009054D01*
X038829Y009011D01*
X038797Y008969D01*
X038763Y008931D01*
X038725Y008895D01*
X038685Y008862D01*
X038643Y008832D01*
X038598Y008805D01*
X038552Y008782D01*
X038504Y008763D01*
X038454Y008747D01*
X038404Y008735D01*
X038353Y008727D01*
X038301Y008723D01*
X038249Y008723D01*
X038197Y008727D01*
X038146Y008735D01*
X038096Y008747D01*
X038046Y008763D01*
X037998Y008782D01*
X037952Y008805D01*
X037907Y008832D01*
X037865Y008862D01*
X037825Y008895D01*
X037787Y008931D01*
X037753Y008969D01*
X037721Y009011D01*
X037693Y009054D01*
X037668Y009100D01*
X037647Y009147D01*
X037630Y009196D01*
X037616Y009246D01*
X037606Y009297D01*
X037600Y009348D01*
X037598Y009400D01*
X037916Y022166D02*
X037916Y023780D01*
X038270Y024134D01*
X038388Y024252D01*
X038231Y024410D01*
X037916Y024134D01*
X038270Y024134D01*
X039884Y024134D01*
X039884Y022166D01*
X037916Y022166D01*
X038223Y023150D02*
X038225Y023202D01*
X038231Y023253D01*
X038241Y023304D01*
X038255Y023354D01*
X038272Y023403D01*
X038293Y023450D01*
X038318Y023496D01*
X038346Y023539D01*
X038378Y023581D01*
X038412Y023619D01*
X038450Y023655D01*
X038490Y023688D01*
X038532Y023718D01*
X038577Y023745D01*
X038623Y023768D01*
X038671Y023787D01*
X038721Y023803D01*
X038771Y023815D01*
X038822Y023823D01*
X038874Y023827D01*
X038926Y023827D01*
X038978Y023823D01*
X039029Y023815D01*
X039079Y023803D01*
X039129Y023787D01*
X039177Y023768D01*
X039223Y023745D01*
X039268Y023718D01*
X039310Y023688D01*
X039350Y023655D01*
X039388Y023619D01*
X039422Y023581D01*
X039454Y023539D01*
X039482Y023496D01*
X039507Y023450D01*
X039528Y023403D01*
X039545Y023354D01*
X039559Y023304D01*
X039569Y023253D01*
X039575Y023202D01*
X039577Y023150D01*
X039575Y023098D01*
X039569Y023047D01*
X039559Y022996D01*
X039545Y022946D01*
X039528Y022897D01*
X039507Y022850D01*
X039482Y022804D01*
X039454Y022761D01*
X039422Y022719D01*
X039388Y022681D01*
X039350Y022645D01*
X039310Y022612D01*
X039268Y022582D01*
X039223Y022555D01*
X039177Y022532D01*
X039129Y022513D01*
X039079Y022497D01*
X039029Y022485D01*
X038978Y022477D01*
X038926Y022473D01*
X038874Y022473D01*
X038822Y022477D01*
X038771Y022485D01*
X038721Y022497D01*
X038671Y022513D01*
X038623Y022532D01*
X038577Y022555D01*
X038532Y022582D01*
X038490Y022612D01*
X038450Y022645D01*
X038412Y022681D01*
X038378Y022719D01*
X038346Y022761D01*
X038318Y022804D01*
X038293Y022850D01*
X038272Y022897D01*
X038255Y022946D01*
X038241Y022996D01*
X038231Y023047D01*
X038225Y023098D01*
X038223Y023150D01*
X037916Y023780D02*
X037916Y024134D01*
X038541Y036041D02*
X038541Y037655D01*
X038895Y038009D01*
X039013Y038127D01*
X038856Y038285D01*
X038541Y038009D01*
X038895Y038009D01*
X040509Y038009D01*
X040509Y036041D01*
X038541Y036041D01*
X038848Y037025D02*
X038850Y037077D01*
X038856Y037128D01*
X038866Y037179D01*
X038880Y037229D01*
X038897Y037278D01*
X038918Y037325D01*
X038943Y037371D01*
X038971Y037414D01*
X039003Y037456D01*
X039037Y037494D01*
X039075Y037530D01*
X039115Y037563D01*
X039157Y037593D01*
X039202Y037620D01*
X039248Y037643D01*
X039296Y037662D01*
X039346Y037678D01*
X039396Y037690D01*
X039447Y037698D01*
X039499Y037702D01*
X039551Y037702D01*
X039603Y037698D01*
X039654Y037690D01*
X039704Y037678D01*
X039754Y037662D01*
X039802Y037643D01*
X039848Y037620D01*
X039893Y037593D01*
X039935Y037563D01*
X039975Y037530D01*
X040013Y037494D01*
X040047Y037456D01*
X040079Y037414D01*
X040107Y037371D01*
X040132Y037325D01*
X040153Y037278D01*
X040170Y037229D01*
X040184Y037179D01*
X040194Y037128D01*
X040200Y037077D01*
X040202Y037025D01*
X040200Y036973D01*
X040194Y036922D01*
X040184Y036871D01*
X040170Y036821D01*
X040153Y036772D01*
X040132Y036725D01*
X040107Y036679D01*
X040079Y036636D01*
X040047Y036594D01*
X040013Y036556D01*
X039975Y036520D01*
X039935Y036487D01*
X039893Y036457D01*
X039848Y036430D01*
X039802Y036407D01*
X039754Y036388D01*
X039704Y036372D01*
X039654Y036360D01*
X039603Y036352D01*
X039551Y036348D01*
X039499Y036348D01*
X039447Y036352D01*
X039396Y036360D01*
X039346Y036372D01*
X039296Y036388D01*
X039248Y036407D01*
X039202Y036430D01*
X039157Y036457D01*
X039115Y036487D01*
X039075Y036520D01*
X039037Y036556D01*
X039003Y036594D01*
X038971Y036636D01*
X038943Y036679D01*
X038918Y036725D01*
X038897Y036772D01*
X038880Y036821D01*
X038866Y036871D01*
X038856Y036922D01*
X038850Y036973D01*
X038848Y037025D01*
X038541Y037655D02*
X038541Y038009D01*
X029634Y047666D02*
X029634Y049634D01*
X028020Y049634D01*
X028138Y049752D01*
X027981Y049910D01*
X027666Y049634D01*
X028020Y049634D01*
X027666Y049280D01*
X027666Y049634D01*
X027666Y049280D02*
X027666Y047666D01*
X029634Y047666D01*
X027973Y048650D02*
X027975Y048702D01*
X027981Y048753D01*
X027991Y048804D01*
X028005Y048854D01*
X028022Y048903D01*
X028043Y048950D01*
X028068Y048996D01*
X028096Y049039D01*
X028128Y049081D01*
X028162Y049119D01*
X028200Y049155D01*
X028240Y049188D01*
X028282Y049218D01*
X028327Y049245D01*
X028373Y049268D01*
X028421Y049287D01*
X028471Y049303D01*
X028521Y049315D01*
X028572Y049323D01*
X028624Y049327D01*
X028676Y049327D01*
X028728Y049323D01*
X028779Y049315D01*
X028829Y049303D01*
X028879Y049287D01*
X028927Y049268D01*
X028973Y049245D01*
X029018Y049218D01*
X029060Y049188D01*
X029100Y049155D01*
X029138Y049119D01*
X029172Y049081D01*
X029204Y049039D01*
X029232Y048996D01*
X029257Y048950D01*
X029278Y048903D01*
X029295Y048854D01*
X029309Y048804D01*
X029319Y048753D01*
X029325Y048702D01*
X029327Y048650D01*
X029325Y048598D01*
X029319Y048547D01*
X029309Y048496D01*
X029295Y048446D01*
X029278Y048397D01*
X029257Y048350D01*
X029232Y048304D01*
X029204Y048261D01*
X029172Y048219D01*
X029138Y048181D01*
X029100Y048145D01*
X029060Y048112D01*
X029018Y048082D01*
X028973Y048055D01*
X028927Y048032D01*
X028879Y048013D01*
X028829Y047997D01*
X028779Y047985D01*
X028728Y047977D01*
X028676Y047973D01*
X028624Y047973D01*
X028572Y047977D01*
X028521Y047985D01*
X028471Y047997D01*
X028421Y048013D01*
X028373Y048032D01*
X028327Y048055D01*
X028282Y048082D01*
X028240Y048112D01*
X028200Y048145D01*
X028162Y048181D01*
X028128Y048219D01*
X028096Y048261D01*
X028068Y048304D01*
X028043Y048350D01*
X028022Y048397D01*
X028005Y048446D01*
X027991Y048496D01*
X027981Y048547D01*
X027975Y048598D01*
X027973Y048650D01*
X039166Y049916D02*
X039166Y051530D01*
X039520Y051884D01*
X039638Y052002D01*
X039481Y052160D01*
X039166Y051884D01*
X039520Y051884D01*
X041134Y051884D01*
X041134Y049916D01*
X039166Y049916D01*
X039473Y050900D02*
X039475Y050952D01*
X039481Y051003D01*
X039491Y051054D01*
X039505Y051104D01*
X039522Y051153D01*
X039543Y051200D01*
X039568Y051246D01*
X039596Y051289D01*
X039628Y051331D01*
X039662Y051369D01*
X039700Y051405D01*
X039740Y051438D01*
X039782Y051468D01*
X039827Y051495D01*
X039873Y051518D01*
X039921Y051537D01*
X039971Y051553D01*
X040021Y051565D01*
X040072Y051573D01*
X040124Y051577D01*
X040176Y051577D01*
X040228Y051573D01*
X040279Y051565D01*
X040329Y051553D01*
X040379Y051537D01*
X040427Y051518D01*
X040473Y051495D01*
X040518Y051468D01*
X040560Y051438D01*
X040600Y051405D01*
X040638Y051369D01*
X040672Y051331D01*
X040704Y051289D01*
X040732Y051246D01*
X040757Y051200D01*
X040778Y051153D01*
X040795Y051104D01*
X040809Y051054D01*
X040819Y051003D01*
X040825Y050952D01*
X040827Y050900D01*
X040825Y050848D01*
X040819Y050797D01*
X040809Y050746D01*
X040795Y050696D01*
X040778Y050647D01*
X040757Y050600D01*
X040732Y050554D01*
X040704Y050511D01*
X040672Y050469D01*
X040638Y050431D01*
X040600Y050395D01*
X040560Y050362D01*
X040518Y050332D01*
X040473Y050305D01*
X040427Y050282D01*
X040379Y050263D01*
X040329Y050247D01*
X040279Y050235D01*
X040228Y050227D01*
X040176Y050223D01*
X040124Y050223D01*
X040072Y050227D01*
X040021Y050235D01*
X039971Y050247D01*
X039921Y050263D01*
X039873Y050282D01*
X039827Y050305D01*
X039782Y050332D01*
X039740Y050362D01*
X039700Y050395D01*
X039662Y050431D01*
X039628Y050469D01*
X039596Y050511D01*
X039568Y050554D01*
X039543Y050600D01*
X039522Y050647D01*
X039505Y050696D01*
X039491Y050746D01*
X039481Y050797D01*
X039475Y050848D01*
X039473Y050900D01*
X039166Y051530D02*
X039166Y051884D01*
X050666Y052041D02*
X050666Y053655D01*
X051020Y054009D01*
X051138Y054127D01*
X050981Y054285D01*
X050666Y054009D01*
X051020Y054009D01*
X052634Y054009D01*
X052634Y052041D01*
X050666Y052041D01*
X050973Y053025D02*
X050975Y053077D01*
X050981Y053128D01*
X050991Y053179D01*
X051005Y053229D01*
X051022Y053278D01*
X051043Y053325D01*
X051068Y053371D01*
X051096Y053414D01*
X051128Y053456D01*
X051162Y053494D01*
X051200Y053530D01*
X051240Y053563D01*
X051282Y053593D01*
X051327Y053620D01*
X051373Y053643D01*
X051421Y053662D01*
X051471Y053678D01*
X051521Y053690D01*
X051572Y053698D01*
X051624Y053702D01*
X051676Y053702D01*
X051728Y053698D01*
X051779Y053690D01*
X051829Y053678D01*
X051879Y053662D01*
X051927Y053643D01*
X051973Y053620D01*
X052018Y053593D01*
X052060Y053563D01*
X052100Y053530D01*
X052138Y053494D01*
X052172Y053456D01*
X052204Y053414D01*
X052232Y053371D01*
X052257Y053325D01*
X052278Y053278D01*
X052295Y053229D01*
X052309Y053179D01*
X052319Y053128D01*
X052325Y053077D01*
X052327Y053025D01*
X052325Y052973D01*
X052319Y052922D01*
X052309Y052871D01*
X052295Y052821D01*
X052278Y052772D01*
X052257Y052725D01*
X052232Y052679D01*
X052204Y052636D01*
X052172Y052594D01*
X052138Y052556D01*
X052100Y052520D01*
X052060Y052487D01*
X052018Y052457D01*
X051973Y052430D01*
X051927Y052407D01*
X051879Y052388D01*
X051829Y052372D01*
X051779Y052360D01*
X051728Y052352D01*
X051676Y052348D01*
X051624Y052348D01*
X051572Y052352D01*
X051521Y052360D01*
X051471Y052372D01*
X051421Y052388D01*
X051373Y052407D01*
X051327Y052430D01*
X051282Y052457D01*
X051240Y052487D01*
X051200Y052520D01*
X051162Y052556D01*
X051128Y052594D01*
X051096Y052636D01*
X051068Y052679D01*
X051043Y052725D01*
X051022Y052772D01*
X051005Y052821D01*
X050991Y052871D01*
X050981Y052922D01*
X050975Y052973D01*
X050973Y053025D01*
X050666Y053655D02*
X050666Y054009D01*
X051606Y039160D02*
X051291Y038884D01*
X051645Y038884D01*
X051763Y039002D01*
X051606Y039160D01*
X051645Y038884D02*
X051291Y038530D01*
X051291Y038884D01*
X051645Y038884D02*
X053259Y038884D01*
X053259Y036916D01*
X051291Y036916D01*
X051291Y038530D01*
X051598Y037900D02*
X051600Y037952D01*
X051606Y038003D01*
X051616Y038054D01*
X051630Y038104D01*
X051647Y038153D01*
X051668Y038200D01*
X051693Y038246D01*
X051721Y038289D01*
X051753Y038331D01*
X051787Y038369D01*
X051825Y038405D01*
X051865Y038438D01*
X051907Y038468D01*
X051952Y038495D01*
X051998Y038518D01*
X052046Y038537D01*
X052096Y038553D01*
X052146Y038565D01*
X052197Y038573D01*
X052249Y038577D01*
X052301Y038577D01*
X052353Y038573D01*
X052404Y038565D01*
X052454Y038553D01*
X052504Y038537D01*
X052552Y038518D01*
X052598Y038495D01*
X052643Y038468D01*
X052685Y038438D01*
X052725Y038405D01*
X052763Y038369D01*
X052797Y038331D01*
X052829Y038289D01*
X052857Y038246D01*
X052882Y038200D01*
X052903Y038153D01*
X052920Y038104D01*
X052934Y038054D01*
X052944Y038003D01*
X052950Y037952D01*
X052952Y037900D01*
X052950Y037848D01*
X052944Y037797D01*
X052934Y037746D01*
X052920Y037696D01*
X052903Y037647D01*
X052882Y037600D01*
X052857Y037554D01*
X052829Y037511D01*
X052797Y037469D01*
X052763Y037431D01*
X052725Y037395D01*
X052685Y037362D01*
X052643Y037332D01*
X052598Y037305D01*
X052552Y037282D01*
X052504Y037263D01*
X052454Y037247D01*
X052404Y037235D01*
X052353Y037227D01*
X052301Y037223D01*
X052249Y037223D01*
X052197Y037227D01*
X052146Y037235D01*
X052096Y037247D01*
X052046Y037263D01*
X051998Y037282D01*
X051952Y037305D01*
X051907Y037332D01*
X051865Y037362D01*
X051825Y037395D01*
X051787Y037431D01*
X051753Y037469D01*
X051721Y037511D01*
X051693Y037554D01*
X051668Y037600D01*
X051647Y037647D01*
X051630Y037696D01*
X051616Y037746D01*
X051606Y037797D01*
X051600Y037848D01*
X051598Y037900D01*
X052106Y024035D02*
X051791Y023759D01*
X052145Y023759D01*
X052263Y023877D01*
X052106Y024035D01*
X052145Y023759D02*
X051791Y023405D01*
X051791Y023759D01*
X052145Y023759D02*
X053759Y023759D01*
X053759Y021791D01*
X051791Y021791D01*
X051791Y023405D01*
X052098Y022775D02*
X052100Y022827D01*
X052106Y022878D01*
X052116Y022929D01*
X052130Y022979D01*
X052147Y023028D01*
X052168Y023075D01*
X052193Y023121D01*
X052221Y023164D01*
X052253Y023206D01*
X052287Y023244D01*
X052325Y023280D01*
X052365Y023313D01*
X052407Y023343D01*
X052452Y023370D01*
X052498Y023393D01*
X052546Y023412D01*
X052596Y023428D01*
X052646Y023440D01*
X052697Y023448D01*
X052749Y023452D01*
X052801Y023452D01*
X052853Y023448D01*
X052904Y023440D01*
X052954Y023428D01*
X053004Y023412D01*
X053052Y023393D01*
X053098Y023370D01*
X053143Y023343D01*
X053185Y023313D01*
X053225Y023280D01*
X053263Y023244D01*
X053297Y023206D01*
X053329Y023164D01*
X053357Y023121D01*
X053382Y023075D01*
X053403Y023028D01*
X053420Y022979D01*
X053434Y022929D01*
X053444Y022878D01*
X053450Y022827D01*
X053452Y022775D01*
X053450Y022723D01*
X053444Y022672D01*
X053434Y022621D01*
X053420Y022571D01*
X053403Y022522D01*
X053382Y022475D01*
X053357Y022429D01*
X053329Y022386D01*
X053297Y022344D01*
X053263Y022306D01*
X053225Y022270D01*
X053185Y022237D01*
X053143Y022207D01*
X053098Y022180D01*
X053052Y022157D01*
X053004Y022138D01*
X052954Y022122D01*
X052904Y022110D01*
X052853Y022102D01*
X052801Y022098D01*
X052749Y022098D01*
X052697Y022102D01*
X052646Y022110D01*
X052596Y022122D01*
X052546Y022138D01*
X052498Y022157D01*
X052452Y022180D01*
X052407Y022207D01*
X052365Y022237D01*
X052325Y022270D01*
X052287Y022306D01*
X052253Y022344D01*
X052221Y022386D01*
X052193Y022429D01*
X052168Y022475D01*
X052147Y022522D01*
X052130Y022571D01*
X052116Y022621D01*
X052106Y022672D01*
X052100Y022723D01*
X052098Y022775D01*
X052731Y009035D02*
X052416Y008759D01*
X052770Y008759D01*
X052888Y008877D01*
X052731Y009035D01*
X052770Y008759D02*
X052416Y008405D01*
X052416Y008759D01*
X052770Y008759D02*
X054384Y008759D01*
X054384Y006791D01*
X052416Y006791D01*
X052416Y008405D01*
X052723Y007775D02*
X052725Y007827D01*
X052731Y007878D01*
X052741Y007929D01*
X052755Y007979D01*
X052772Y008028D01*
X052793Y008075D01*
X052818Y008121D01*
X052846Y008164D01*
X052878Y008206D01*
X052912Y008244D01*
X052950Y008280D01*
X052990Y008313D01*
X053032Y008343D01*
X053077Y008370D01*
X053123Y008393D01*
X053171Y008412D01*
X053221Y008428D01*
X053271Y008440D01*
X053322Y008448D01*
X053374Y008452D01*
X053426Y008452D01*
X053478Y008448D01*
X053529Y008440D01*
X053579Y008428D01*
X053629Y008412D01*
X053677Y008393D01*
X053723Y008370D01*
X053768Y008343D01*
X053810Y008313D01*
X053850Y008280D01*
X053888Y008244D01*
X053922Y008206D01*
X053954Y008164D01*
X053982Y008121D01*
X054007Y008075D01*
X054028Y008028D01*
X054045Y007979D01*
X054059Y007929D01*
X054069Y007878D01*
X054075Y007827D01*
X054077Y007775D01*
X054075Y007723D01*
X054069Y007672D01*
X054059Y007621D01*
X054045Y007571D01*
X054028Y007522D01*
X054007Y007475D01*
X053982Y007429D01*
X053954Y007386D01*
X053922Y007344D01*
X053888Y007306D01*
X053850Y007270D01*
X053810Y007237D01*
X053768Y007207D01*
X053723Y007180D01*
X053677Y007157D01*
X053629Y007138D01*
X053579Y007122D01*
X053529Y007110D01*
X053478Y007102D01*
X053426Y007098D01*
X053374Y007098D01*
X053322Y007102D01*
X053271Y007110D01*
X053221Y007122D01*
X053171Y007138D01*
X053123Y007157D01*
X053077Y007180D01*
X053032Y007207D01*
X052990Y007237D01*
X052950Y007270D01*
X052912Y007306D01*
X052878Y007344D01*
X052846Y007386D01*
X052818Y007429D01*
X052793Y007475D01*
X052772Y007522D01*
X052755Y007571D01*
X052741Y007621D01*
X052731Y007672D01*
X052725Y007723D01*
X052723Y007775D01*
D11*
X054050Y011190D02*
X056250Y011190D01*
X056250Y012110D01*
X054050Y012110D01*
X054050Y011190D01*
X054050Y012690D02*
X056250Y012690D01*
X056250Y013610D01*
X054050Y013610D01*
X054050Y012690D01*
X054050Y014190D02*
X056250Y014190D01*
X056250Y015110D01*
X054050Y015110D01*
X054050Y014190D01*
X009250Y016690D02*
X009250Y017610D01*
X007050Y017610D01*
X007050Y016690D01*
X009250Y016690D01*
X009250Y018690D02*
X007050Y018690D01*
X007050Y019610D01*
X009250Y019610D01*
X009250Y018690D01*
X009250Y020690D02*
X007050Y020690D01*
X007050Y021610D01*
X009250Y021610D01*
X009250Y020690D01*
M02*
