G75*
G70*
%OFA0B0*%
%FSLAX24Y24*%
%IPPOS*%
%LPD*%
%AMOC8*
5,1,8,0,0,1.08239X$1,22.5*
%
%ADD10C,0.1080*%
%ADD11C,0.0100*%
%ADD12R,0.0160X0.0010*%
%ADD13R,0.0210X0.0010*%
%ADD14R,0.0170X0.0010*%
%ADD15R,0.2040X0.0010*%
%ADD16R,0.0120X0.0010*%
%ADD17R,0.0130X0.0010*%
%ADD18R,0.0500X0.0010*%
%ADD19R,0.0540X0.0010*%
%ADD20R,0.0880X0.0010*%
%ADD21R,0.0590X0.0010*%
%ADD22R,0.0370X0.0010*%
%ADD23R,0.0920X0.0010*%
%ADD24R,0.0580X0.0010*%
%ADD25R,0.0380X0.0010*%
%ADD26R,0.0550X0.0010*%
%ADD27R,0.0340X0.0010*%
%ADD28R,0.0050X0.0010*%
%ADD29R,0.0060X0.0010*%
%ADD30R,0.0040X0.0010*%
%ADD31R,0.0190X0.0010*%
%ADD32R,0.0110X0.0010*%
%ADD33R,0.0150X0.0010*%
%ADD34R,0.0070X0.0010*%
%ADD35R,0.0080X0.0010*%
%ADD36R,0.0030X0.0010*%
%ADD37R,0.0010X0.0010*%
%ADD38R,0.0090X0.0010*%
%ADD39R,0.0100X0.0010*%
%ADD40R,0.0180X0.0010*%
%ADD41R,0.0020X0.0010*%
%ADD42R,0.0200X0.0010*%
%ADD43R,0.0671X0.0434*%
%ADD44R,0.0592X0.0710*%
%ADD45R,0.2080X0.0800*%
%ADD46R,0.0671X0.0592*%
%ADD47R,0.0710X0.1143*%
%ADD48R,0.1143X0.0710*%
%ADD49OC8,0.0358*%
%ADD50OC8,0.0437*%
%ADD51OC8,0.0476*%
D10*
X026281Y004583D03*
X034113Y003716D03*
X058744Y026747D03*
X058444Y034613D03*
X038680Y056844D03*
X030947Y055378D03*
X007416Y033380D03*
X005450Y025781D03*
D11*
X002650Y019650D02*
X002650Y001150D01*
X059525Y001150D01*
X059525Y013400D01*
X056900Y013400D01*
X056417Y007118D01*
X056396Y006976D01*
X056354Y006839D01*
X056294Y006709D01*
X055463Y005213D01*
X055385Y005093D01*
X055290Y004986D01*
X055181Y004893D01*
X055061Y004817D01*
X054930Y004759D01*
X054793Y004720D01*
X054651Y004700D01*
X054508Y004702D01*
X039650Y005900D01*
X028497Y005536D01*
X028364Y005541D01*
X028232Y005563D01*
X028104Y005603D01*
X027983Y005660D01*
X027870Y005732D01*
X025727Y007316D01*
X025544Y007436D01*
X025349Y007536D01*
X025144Y007613D01*
X024932Y007668D01*
X024714Y007699D01*
X008812Y009103D01*
X008604Y009132D01*
X008399Y009183D01*
X008202Y009256D01*
X008013Y009349D01*
X007835Y009461D01*
X006982Y010063D01*
X006798Y010209D01*
X006633Y010377D01*
X006488Y010563D01*
X006366Y010764D01*
X006269Y010978D01*
X006198Y011203D01*
X006153Y011434D01*
X006136Y011669D01*
X006025Y019650D01*
X002650Y019650D01*
X002650Y019577D02*
X006026Y019577D01*
X006027Y019479D02*
X002650Y019479D01*
X002650Y019380D02*
X006029Y019380D01*
X006030Y019282D02*
X002650Y019282D01*
X002650Y019183D02*
X006031Y019183D01*
X006033Y019085D02*
X002650Y019085D01*
X002650Y018986D02*
X006034Y018986D01*
X006036Y018888D02*
X002650Y018888D01*
X002650Y018789D02*
X006037Y018789D01*
X006038Y018691D02*
X002650Y018691D01*
X002650Y018592D02*
X006040Y018592D01*
X006041Y018494D02*
X002650Y018494D01*
X002650Y018395D02*
X006042Y018395D01*
X006044Y018297D02*
X002650Y018297D01*
X002650Y018198D02*
X006045Y018198D01*
X006047Y018100D02*
X002650Y018100D01*
X002650Y018001D02*
X006048Y018001D01*
X006049Y017903D02*
X002650Y017903D01*
X002650Y017804D02*
X006051Y017804D01*
X006052Y017706D02*
X002650Y017706D01*
X002650Y017607D02*
X006053Y017607D01*
X006055Y017509D02*
X002650Y017509D01*
X002650Y017410D02*
X006056Y017410D01*
X006057Y017312D02*
X002650Y017312D01*
X002650Y017213D02*
X006059Y017213D01*
X006060Y017115D02*
X002650Y017115D01*
X002650Y017016D02*
X006062Y017016D01*
X006063Y016918D02*
X002650Y016918D01*
X002650Y016819D02*
X006064Y016819D01*
X006066Y016721D02*
X002650Y016721D01*
X002650Y016622D02*
X006067Y016622D01*
X006068Y016524D02*
X002650Y016524D01*
X002650Y016425D02*
X006070Y016425D01*
X006071Y016327D02*
X002650Y016327D01*
X002650Y016228D02*
X006073Y016228D01*
X006074Y016130D02*
X002650Y016130D01*
X002650Y016031D02*
X006075Y016031D01*
X006077Y015933D02*
X002650Y015933D01*
X002650Y015834D02*
X006078Y015834D01*
X006079Y015736D02*
X002650Y015736D01*
X002650Y015637D02*
X006081Y015637D01*
X006082Y015539D02*
X002650Y015539D01*
X002650Y015440D02*
X006083Y015440D01*
X006085Y015342D02*
X002650Y015342D01*
X002650Y015243D02*
X006086Y015243D01*
X006088Y015145D02*
X002650Y015145D01*
X002650Y015046D02*
X006089Y015046D01*
X006090Y014948D02*
X002650Y014948D01*
X002650Y014849D02*
X006092Y014849D01*
X006093Y014751D02*
X002650Y014751D01*
X002650Y014652D02*
X006094Y014652D01*
X006096Y014554D02*
X002650Y014554D01*
X002650Y014455D02*
X006097Y014455D01*
X006099Y014357D02*
X002650Y014357D01*
X002650Y014258D02*
X006100Y014258D01*
X006101Y014160D02*
X002650Y014160D01*
X002650Y014061D02*
X006103Y014061D01*
X006104Y013963D02*
X002650Y013963D01*
X002650Y013864D02*
X006105Y013864D01*
X006107Y013766D02*
X002650Y013766D01*
X002650Y013667D02*
X006108Y013667D01*
X006109Y013569D02*
X002650Y013569D01*
X002650Y013470D02*
X006111Y013470D01*
X006112Y013372D02*
X002650Y013372D01*
X002650Y013273D02*
X006114Y013273D01*
X006115Y013175D02*
X002650Y013175D01*
X002650Y013076D02*
X006116Y013076D01*
X006118Y012978D02*
X002650Y012978D01*
X002650Y012879D02*
X006119Y012879D01*
X006120Y012781D02*
X002650Y012781D01*
X002650Y012682D02*
X006122Y012682D01*
X006123Y012584D02*
X002650Y012584D01*
X002650Y012485D02*
X006125Y012485D01*
X006126Y012387D02*
X002650Y012387D01*
X002650Y012288D02*
X006127Y012288D01*
X006129Y012190D02*
X002650Y012190D01*
X002650Y012091D02*
X006130Y012091D01*
X006131Y011993D02*
X002650Y011993D01*
X002650Y011894D02*
X006133Y011894D01*
X006134Y011796D02*
X002650Y011796D01*
X002650Y011697D02*
X006135Y011697D01*
X006141Y011599D02*
X002650Y011599D01*
X002650Y011500D02*
X006148Y011500D01*
X006159Y011402D02*
X002650Y011402D01*
X002650Y011303D02*
X006178Y011303D01*
X006197Y011205D02*
X002650Y011205D01*
X002650Y011106D02*
X006228Y011106D01*
X006260Y011008D02*
X002650Y011008D01*
X002650Y010909D02*
X006300Y010909D01*
X006345Y010811D02*
X002650Y010811D01*
X002650Y010712D02*
X006398Y010712D01*
X006457Y010614D02*
X002650Y010614D01*
X002650Y010515D02*
X006525Y010515D01*
X006602Y010417D02*
X002650Y010417D01*
X002650Y010318D02*
X006691Y010318D01*
X006788Y010220D02*
X002650Y010220D01*
X002650Y010121D02*
X006909Y010121D01*
X007039Y010023D02*
X002650Y010023D01*
X002650Y009924D02*
X007178Y009924D01*
X007318Y009826D02*
X002650Y009826D01*
X002650Y009727D02*
X007458Y009727D01*
X007597Y009629D02*
X002650Y009629D01*
X002650Y009530D02*
X007737Y009530D01*
X007881Y009432D02*
X002650Y009432D01*
X002650Y009333D02*
X008045Y009333D01*
X008260Y009235D02*
X002650Y009235D01*
X002650Y009136D02*
X008588Y009136D01*
X009550Y009038D02*
X002650Y009038D01*
X002650Y008939D02*
X010666Y008939D01*
X011782Y008841D02*
X002650Y008841D01*
X002650Y008742D02*
X012899Y008742D01*
X014015Y008644D02*
X002650Y008644D01*
X002650Y008545D02*
X015131Y008545D01*
X016248Y008447D02*
X002650Y008447D01*
X002650Y008348D02*
X017364Y008348D01*
X018480Y008250D02*
X002650Y008250D01*
X002650Y008151D02*
X019597Y008151D01*
X020713Y008053D02*
X002650Y008053D01*
X002650Y007954D02*
X021829Y007954D01*
X022946Y007856D02*
X002650Y007856D01*
X002650Y007757D02*
X024062Y007757D01*
X024969Y007659D02*
X002650Y007659D01*
X002650Y007560D02*
X025285Y007560D01*
X025494Y007462D02*
X002650Y007462D01*
X002650Y007363D02*
X025655Y007363D01*
X025797Y007265D02*
X002650Y007265D01*
X002650Y007166D02*
X025930Y007166D01*
X026063Y007068D02*
X002650Y007068D01*
X002650Y006969D02*
X026196Y006969D01*
X026330Y006871D02*
X002650Y006871D01*
X002650Y006772D02*
X026463Y006772D01*
X026596Y006674D02*
X002650Y006674D01*
X002650Y006575D02*
X026729Y006575D01*
X026863Y006477D02*
X002650Y006477D01*
X002650Y006378D02*
X026996Y006378D01*
X027129Y006280D02*
X002650Y006280D01*
X002650Y006181D02*
X027262Y006181D01*
X027396Y006083D02*
X002650Y006083D01*
X002650Y005984D02*
X027529Y005984D01*
X027662Y005886D02*
X002650Y005886D01*
X002650Y005787D02*
X027796Y005787D01*
X027938Y005689D02*
X002650Y005689D01*
X002650Y005590D02*
X028146Y005590D01*
X030144Y005590D02*
X043494Y005590D01*
X044715Y005492D02*
X002650Y005492D01*
X002650Y005393D02*
X045937Y005393D01*
X047158Y005295D02*
X002650Y005295D01*
X002650Y005196D02*
X048379Y005196D01*
X049601Y005098D02*
X002650Y005098D01*
X002650Y004999D02*
X050822Y004999D01*
X052044Y004901D02*
X002650Y004901D01*
X002650Y004802D02*
X053265Y004802D01*
X054487Y004704D02*
X002650Y004704D01*
X002650Y004605D02*
X059525Y004605D01*
X059525Y004507D02*
X002650Y004507D01*
X002650Y004408D02*
X059525Y004408D01*
X059525Y004310D02*
X002650Y004310D01*
X002650Y004211D02*
X059525Y004211D01*
X059525Y004113D02*
X002650Y004113D01*
X002650Y004014D02*
X059525Y004014D01*
X059525Y003916D02*
X002650Y003916D01*
X002650Y003817D02*
X059525Y003817D01*
X059525Y003719D02*
X002650Y003719D01*
X002650Y003620D02*
X059525Y003620D01*
X059525Y003522D02*
X002650Y003522D01*
X002650Y003423D02*
X059525Y003423D01*
X059525Y003325D02*
X002650Y003325D01*
X002650Y003226D02*
X059525Y003226D01*
X059525Y003128D02*
X002650Y003128D01*
X002650Y003029D02*
X059525Y003029D01*
X059525Y002931D02*
X002650Y002931D01*
X002650Y002832D02*
X059525Y002832D01*
X059525Y002734D02*
X002650Y002734D01*
X002650Y002635D02*
X059525Y002635D01*
X059525Y002537D02*
X002650Y002537D01*
X002650Y002438D02*
X059525Y002438D01*
X059525Y002340D02*
X002650Y002340D01*
X002650Y002241D02*
X059525Y002241D01*
X059525Y002143D02*
X002650Y002143D01*
X002650Y002044D02*
X059525Y002044D01*
X059525Y001946D02*
X002650Y001946D01*
X002650Y001847D02*
X059525Y001847D01*
X059525Y001749D02*
X002650Y001749D01*
X002650Y001650D02*
X059525Y001650D01*
X059525Y001551D02*
X002650Y001551D01*
X002650Y001453D02*
X059525Y001453D01*
X059525Y001354D02*
X002650Y001354D01*
X002650Y001256D02*
X059525Y001256D01*
X059525Y001157D02*
X002650Y001157D01*
X033164Y005689D02*
X042272Y005689D01*
X041051Y005787D02*
X036185Y005787D01*
X039206Y005886D02*
X039830Y005886D01*
X054674Y004704D02*
X059525Y004704D01*
X059525Y004802D02*
X055027Y004802D01*
X055190Y004901D02*
X059525Y004901D01*
X059525Y004999D02*
X055302Y004999D01*
X055387Y005098D02*
X059525Y005098D01*
X059525Y005196D02*
X055452Y005196D01*
X055508Y005295D02*
X059525Y005295D01*
X059525Y005393D02*
X055563Y005393D01*
X055618Y005492D02*
X059525Y005492D01*
X059525Y005590D02*
X055672Y005590D01*
X055727Y005689D02*
X059525Y005689D01*
X059525Y005787D02*
X055782Y005787D01*
X055836Y005886D02*
X059525Y005886D01*
X059525Y005984D02*
X055891Y005984D01*
X055946Y006083D02*
X059525Y006083D01*
X059525Y006181D02*
X056001Y006181D01*
X056055Y006280D02*
X059525Y006280D01*
X059525Y006378D02*
X056110Y006378D01*
X056165Y006477D02*
X059525Y006477D01*
X059525Y006575D02*
X056219Y006575D01*
X056274Y006674D02*
X059525Y006674D01*
X059525Y006772D02*
X056323Y006772D01*
X056364Y006871D02*
X059525Y006871D01*
X059525Y006969D02*
X056393Y006969D01*
X056409Y007068D02*
X059525Y007068D01*
X059525Y007166D02*
X056420Y007166D01*
X056428Y007265D02*
X059525Y007265D01*
X059525Y007363D02*
X056436Y007363D01*
X056443Y007462D02*
X059525Y007462D01*
X059525Y007560D02*
X056451Y007560D01*
X056458Y007659D02*
X059525Y007659D01*
X059525Y007757D02*
X056466Y007757D01*
X056474Y007856D02*
X059525Y007856D01*
X059525Y007954D02*
X056481Y007954D01*
X056489Y008053D02*
X059525Y008053D01*
X059525Y008151D02*
X056496Y008151D01*
X056504Y008250D02*
X059525Y008250D01*
X059525Y008348D02*
X056511Y008348D01*
X056519Y008447D02*
X059525Y008447D01*
X059525Y008545D02*
X056527Y008545D01*
X056534Y008644D02*
X059525Y008644D01*
X059525Y008742D02*
X056542Y008742D01*
X056549Y008841D02*
X059525Y008841D01*
X059525Y008939D02*
X056557Y008939D01*
X056564Y009038D02*
X059525Y009038D01*
X059525Y009136D02*
X056572Y009136D01*
X056580Y009235D02*
X059525Y009235D01*
X059525Y009333D02*
X056587Y009333D01*
X056595Y009432D02*
X059525Y009432D01*
X059525Y009530D02*
X056602Y009530D01*
X056610Y009629D02*
X059525Y009629D01*
X059525Y009727D02*
X056617Y009727D01*
X056625Y009826D02*
X059525Y009826D01*
X059525Y009924D02*
X056633Y009924D01*
X056640Y010023D02*
X059525Y010023D01*
X059525Y010121D02*
X056648Y010121D01*
X056655Y010220D02*
X059525Y010220D01*
X059525Y010318D02*
X056663Y010318D01*
X056671Y010417D02*
X059525Y010417D01*
X059525Y010515D02*
X056678Y010515D01*
X056686Y010614D02*
X059525Y010614D01*
X059525Y010712D02*
X056693Y010712D01*
X056701Y010811D02*
X059525Y010811D01*
X059525Y010909D02*
X056708Y010909D01*
X056716Y011008D02*
X059525Y011008D01*
X059525Y011106D02*
X056724Y011106D01*
X056731Y011205D02*
X059525Y011205D01*
X059525Y011303D02*
X056739Y011303D01*
X056746Y011402D02*
X059525Y011402D01*
X059525Y011500D02*
X056754Y011500D01*
X056761Y011599D02*
X059525Y011599D01*
X059525Y011697D02*
X056769Y011697D01*
X056777Y011796D02*
X059525Y011796D01*
X059525Y011894D02*
X056784Y011894D01*
X056792Y011993D02*
X059525Y011993D01*
X059525Y012091D02*
X056799Y012091D01*
X056807Y012190D02*
X059525Y012190D01*
X059525Y012288D02*
X056814Y012288D01*
X056822Y012387D02*
X059525Y012387D01*
X059525Y012485D02*
X056830Y012485D01*
X056837Y012584D02*
X059525Y012584D01*
X059525Y012682D02*
X056845Y012682D01*
X056852Y012781D02*
X059525Y012781D01*
X059525Y012879D02*
X056860Y012879D01*
X056868Y012978D02*
X059525Y012978D01*
X059525Y013076D02*
X056875Y013076D01*
X056883Y013175D02*
X059525Y013175D01*
X059525Y013273D02*
X056890Y013273D01*
X056898Y013372D02*
X059525Y013372D01*
D12*
X030680Y013065D03*
X030680Y013055D03*
X030680Y013045D03*
X030670Y012905D03*
X029940Y013035D03*
G36*
X032303Y052627D02*
X032147Y052599D01*
X032145Y052609D01*
X032301Y052637D01*
X032303Y052627D01*
G37*
G36*
X032301Y052637D02*
X032145Y052609D01*
X032143Y052619D01*
X032299Y052647D01*
X032301Y052637D01*
G37*
G36*
X032299Y052647D02*
X032143Y052619D01*
X032141Y052629D01*
X032297Y052657D01*
X032299Y052647D01*
G37*
G36*
X032298Y052657D02*
X032142Y052629D01*
X032140Y052639D01*
X032296Y052667D01*
X032298Y052657D01*
G37*
G36*
X032296Y052666D02*
X032140Y052638D01*
X032138Y052648D01*
X032294Y052676D01*
X032296Y052666D01*
G37*
G36*
X032294Y052676D02*
X032138Y052648D01*
X032136Y052658D01*
X032292Y052686D01*
X032294Y052676D01*
G37*
G36*
X032292Y052686D02*
X032136Y052658D01*
X032134Y052668D01*
X032290Y052696D01*
X032292Y052686D01*
G37*
G36*
X032290Y052696D02*
X032134Y052668D01*
X032132Y052678D01*
X032288Y052706D01*
X032290Y052696D01*
G37*
G36*
X032289Y052706D02*
X032133Y052678D01*
X032131Y052688D01*
X032287Y052716D01*
X032289Y052706D01*
G37*
G36*
X032287Y052716D02*
X032131Y052688D01*
X032129Y052698D01*
X032285Y052726D01*
X032287Y052716D01*
G37*
G36*
X032285Y052725D02*
X032129Y052697D01*
X032127Y052707D01*
X032283Y052735D01*
X032285Y052725D01*
G37*
G36*
X032283Y052735D02*
X032127Y052707D01*
X032125Y052717D01*
X032281Y052745D01*
X032283Y052735D01*
G37*
G36*
X032281Y052745D02*
X032125Y052717D01*
X032123Y052727D01*
X032279Y052755D01*
X032281Y052745D01*
G37*
G36*
X032279Y052755D02*
X032123Y052727D01*
X032121Y052737D01*
X032277Y052765D01*
X032279Y052755D01*
G37*
G36*
X032278Y052765D02*
X032122Y052737D01*
X032120Y052747D01*
X032276Y052775D01*
X032278Y052765D01*
G37*
G36*
X032276Y052775D02*
X032120Y052747D01*
X032118Y052757D01*
X032274Y052785D01*
X032276Y052775D01*
G37*
G36*
X032236Y052991D02*
X032080Y052963D01*
X032078Y052973D01*
X032234Y053001D01*
X032236Y052991D01*
G37*
G36*
X032234Y053001D02*
X032078Y052973D01*
X032076Y052983D01*
X032232Y053011D01*
X032234Y053001D01*
G37*
G36*
X032232Y053011D02*
X032076Y052983D01*
X032074Y052993D01*
X032230Y053021D01*
X032232Y053011D01*
G37*
G36*
X032230Y053020D02*
X032074Y052992D01*
X032072Y053002D01*
X032228Y053030D01*
X032230Y053020D01*
G37*
G36*
X032228Y053030D02*
X032072Y053002D01*
X032070Y053012D01*
X032226Y053040D01*
X032228Y053030D01*
G37*
G36*
X032227Y053040D02*
X032071Y053012D01*
X032069Y053022D01*
X032225Y053050D01*
X032227Y053040D01*
G37*
G36*
X032225Y053050D02*
X032069Y053022D01*
X032067Y053032D01*
X032223Y053060D01*
X032225Y053050D01*
G37*
G36*
X032223Y053060D02*
X032067Y053032D01*
X032065Y053042D01*
X032221Y053070D01*
X032223Y053060D01*
G37*
G36*
X032221Y053070D02*
X032065Y053042D01*
X032063Y053052D01*
X032219Y053080D01*
X032221Y053070D01*
G37*
G36*
X032219Y053079D02*
X032063Y053051D01*
X032061Y053061D01*
X032217Y053089D01*
X032219Y053079D01*
G37*
G36*
X032217Y053089D02*
X032061Y053061D01*
X032059Y053071D01*
X032215Y053099D01*
X032217Y053089D01*
G37*
G36*
X032216Y053099D02*
X032060Y053071D01*
X032058Y053081D01*
X032214Y053109D01*
X032216Y053099D01*
G37*
G36*
X032214Y053109D02*
X032058Y053081D01*
X032056Y053091D01*
X032212Y053119D01*
X032214Y053109D01*
G37*
G36*
X032212Y053119D02*
X032056Y053091D01*
X032054Y053101D01*
X032210Y053129D01*
X032212Y053119D01*
G37*
G36*
X032210Y053129D02*
X032054Y053101D01*
X032052Y053111D01*
X032208Y053139D01*
X032210Y053129D01*
G37*
G36*
X032208Y053138D02*
X032052Y053110D01*
X032050Y053120D01*
X032206Y053148D01*
X032208Y053138D01*
G37*
G36*
X032207Y053148D02*
X032051Y053120D01*
X032049Y053130D01*
X032205Y053158D01*
X032207Y053148D01*
G37*
G36*
X032166Y053365D02*
X032010Y053337D01*
X032008Y053347D01*
X032164Y053375D01*
X032166Y053365D01*
G37*
G36*
X032165Y053374D02*
X032009Y053346D01*
X032007Y053356D01*
X032163Y053384D01*
X032165Y053374D01*
G37*
G36*
X032163Y053384D02*
X032007Y053356D01*
X032005Y053366D01*
X032161Y053394D01*
X032163Y053384D01*
G37*
G36*
X032161Y053394D02*
X032005Y053366D01*
X032003Y053376D01*
X032159Y053404D01*
X032161Y053394D01*
G37*
G36*
X032159Y053404D02*
X032003Y053376D01*
X032001Y053386D01*
X032157Y053414D01*
X032159Y053404D01*
G37*
G36*
X032157Y053414D02*
X032001Y053386D01*
X031999Y053396D01*
X032155Y053424D01*
X032157Y053414D01*
G37*
G36*
X032155Y053424D02*
X031999Y053396D01*
X031997Y053406D01*
X032153Y053434D01*
X032155Y053424D01*
G37*
G36*
X032154Y053433D02*
X031998Y053405D01*
X031996Y053415D01*
X032152Y053443D01*
X032154Y053433D01*
G37*
G36*
X032152Y053443D02*
X031996Y053415D01*
X031994Y053425D01*
X032150Y053453D01*
X032152Y053443D01*
G37*
G36*
X032150Y053453D02*
X031994Y053425D01*
X031992Y053435D01*
X032148Y053463D01*
X032150Y053453D01*
G37*
G36*
X032148Y053463D02*
X031992Y053435D01*
X031990Y053445D01*
X032146Y053473D01*
X032148Y053463D01*
G37*
G36*
X032146Y053473D02*
X031990Y053445D01*
X031988Y053455D01*
X032144Y053483D01*
X032146Y053473D01*
G37*
G36*
X032145Y053483D02*
X031989Y053455D01*
X031987Y053465D01*
X032143Y053493D01*
X032145Y053483D01*
G37*
G36*
X032143Y053492D02*
X031987Y053464D01*
X031985Y053474D01*
X032141Y053502D01*
X032143Y053492D01*
G37*
G36*
X032141Y053502D02*
X031985Y053474D01*
X031983Y053484D01*
X032139Y053512D01*
X032141Y053502D01*
G37*
G36*
X032139Y053512D02*
X031983Y053484D01*
X031981Y053494D01*
X032137Y053522D01*
X032139Y053512D01*
G37*
G36*
X032878Y053639D02*
X032722Y053611D01*
X032720Y053621D01*
X032876Y053649D01*
X032878Y053639D01*
G37*
G36*
X032880Y053629D02*
X032724Y053601D01*
X032722Y053611D01*
X032878Y053639D01*
X032880Y053629D01*
G37*
G36*
X032882Y053619D02*
X032726Y053591D01*
X032724Y053601D01*
X032880Y053629D01*
X032882Y053619D01*
G37*
G36*
X032884Y053609D02*
X032728Y053581D01*
X032726Y053591D01*
X032882Y053619D01*
X032884Y053609D01*
G37*
G36*
X032886Y053600D02*
X032730Y053572D01*
X032728Y053582D01*
X032884Y053610D01*
X032886Y053600D01*
G37*
G36*
X032887Y053590D02*
X032731Y053562D01*
X032729Y053572D01*
X032885Y053600D01*
X032887Y053590D01*
G37*
G36*
X032889Y053580D02*
X032733Y053552D01*
X032731Y053562D01*
X032887Y053590D01*
X032889Y053580D01*
G37*
G36*
X032891Y053570D02*
X032735Y053542D01*
X032733Y053552D01*
X032889Y053580D01*
X032891Y053570D01*
G37*
G36*
X032893Y053560D02*
X032737Y053532D01*
X032735Y053542D01*
X032891Y053570D01*
X032893Y053560D01*
G37*
G36*
X032895Y053550D02*
X032739Y053522D01*
X032737Y053532D01*
X032893Y053560D01*
X032895Y053550D01*
G37*
G36*
X032897Y053541D02*
X032741Y053513D01*
X032739Y053523D01*
X032895Y053551D01*
X032897Y053541D01*
G37*
G36*
X032898Y053531D02*
X032742Y053503D01*
X032740Y053513D01*
X032896Y053541D01*
X032898Y053531D01*
G37*
G36*
X032900Y053521D02*
X032744Y053493D01*
X032742Y053503D01*
X032898Y053531D01*
X032900Y053521D01*
G37*
G36*
X032902Y053511D02*
X032746Y053483D01*
X032744Y053493D01*
X032900Y053521D01*
X032902Y053511D01*
G37*
G36*
X032904Y053501D02*
X032748Y053473D01*
X032746Y053483D01*
X032902Y053511D01*
X032904Y053501D01*
G37*
G36*
X032877Y053649D02*
X032721Y053621D01*
X032719Y053631D01*
X032875Y053659D01*
X032877Y053649D01*
G37*
G36*
X032944Y053285D02*
X032788Y053257D01*
X032786Y053267D01*
X032942Y053295D01*
X032944Y053285D01*
G37*
G36*
X032946Y053275D02*
X032790Y053247D01*
X032788Y053257D01*
X032944Y053285D01*
X032946Y053275D01*
G37*
G36*
X032948Y053265D02*
X032792Y053237D01*
X032790Y053247D01*
X032946Y053275D01*
X032948Y053265D01*
G37*
G36*
X032949Y053255D02*
X032793Y053227D01*
X032791Y053237D01*
X032947Y053265D01*
X032949Y053255D01*
G37*
G36*
X032951Y053246D02*
X032795Y053218D01*
X032793Y053228D01*
X032949Y053256D01*
X032951Y053246D01*
G37*
G36*
X032953Y053236D02*
X032797Y053208D01*
X032795Y053218D01*
X032951Y053246D01*
X032953Y053236D01*
G37*
G36*
X032955Y053226D02*
X032799Y053198D01*
X032797Y053208D01*
X032953Y053236D01*
X032955Y053226D01*
G37*
G36*
X032957Y053216D02*
X032801Y053188D01*
X032799Y053198D01*
X032955Y053226D01*
X032957Y053216D01*
G37*
G36*
X032959Y053206D02*
X032803Y053178D01*
X032801Y053188D01*
X032957Y053216D01*
X032959Y053206D01*
G37*
G36*
X032960Y053196D02*
X032804Y053168D01*
X032802Y053178D01*
X032958Y053206D01*
X032960Y053196D01*
G37*
G36*
X032962Y053187D02*
X032806Y053159D01*
X032804Y053169D01*
X032960Y053197D01*
X032962Y053187D01*
G37*
G36*
X032964Y053177D02*
X032808Y053149D01*
X032806Y053159D01*
X032962Y053187D01*
X032964Y053177D01*
G37*
G36*
X032966Y053167D02*
X032810Y053139D01*
X032808Y053149D01*
X032964Y053177D01*
X032966Y053167D01*
G37*
G36*
X032968Y053157D02*
X032812Y053129D01*
X032810Y053139D01*
X032966Y053167D01*
X032968Y053157D01*
G37*
G36*
X032969Y053147D02*
X032813Y053119D01*
X032811Y053129D01*
X032967Y053157D01*
X032969Y053147D01*
G37*
G36*
X032971Y053137D02*
X032815Y053109D01*
X032813Y053119D01*
X032969Y053147D01*
X032971Y053137D01*
G37*
G36*
X032973Y053128D02*
X032817Y053100D01*
X032815Y053110D01*
X032971Y053138D01*
X032973Y053128D01*
G37*
G36*
X033773Y052930D02*
X033617Y052902D01*
X033615Y052912D01*
X033771Y052940D01*
X033773Y052930D01*
G37*
G36*
X033774Y052920D02*
X033618Y052892D01*
X033616Y052902D01*
X033772Y052930D01*
X033774Y052920D01*
G37*
G36*
X033776Y052910D02*
X033620Y052882D01*
X033618Y052892D01*
X033774Y052920D01*
X033776Y052910D01*
G37*
G36*
X033778Y052900D02*
X033622Y052872D01*
X033620Y052882D01*
X033776Y052910D01*
X033778Y052900D01*
G37*
G36*
X034134Y053943D02*
X033978Y053915D01*
X033976Y053925D01*
X034132Y053953D01*
X034134Y053943D01*
G37*
G36*
X034132Y053953D02*
X033976Y053925D01*
X033974Y053935D01*
X034130Y053963D01*
X034132Y053953D01*
G37*
G36*
X034130Y053962D02*
X033974Y053934D01*
X033972Y053944D01*
X034128Y053972D01*
X034130Y053962D01*
G37*
G36*
X034129Y053972D02*
X033973Y053944D01*
X033971Y053954D01*
X034127Y053982D01*
X034129Y053972D01*
G37*
G36*
X034127Y053982D02*
X033971Y053954D01*
X033969Y053964D01*
X034125Y053992D01*
X034127Y053982D01*
G37*
G36*
X034125Y053992D02*
X033969Y053964D01*
X033967Y053974D01*
X034123Y054002D01*
X034125Y053992D01*
G37*
G36*
X034123Y054002D02*
X033967Y053974D01*
X033965Y053984D01*
X034121Y054012D01*
X034123Y054002D01*
G37*
G36*
X034121Y054012D02*
X033965Y053984D01*
X033963Y053994D01*
X034119Y054022D01*
X034121Y054012D01*
G37*
G36*
X034119Y054021D02*
X033963Y053993D01*
X033961Y054003D01*
X034117Y054031D01*
X034119Y054021D01*
G37*
G36*
X034118Y054031D02*
X033962Y054003D01*
X033960Y054013D01*
X034116Y054041D01*
X034118Y054031D01*
G37*
G36*
X034116Y054041D02*
X033960Y054013D01*
X033958Y054023D01*
X034114Y054051D01*
X034116Y054041D01*
G37*
G36*
X034114Y054051D02*
X033958Y054023D01*
X033956Y054033D01*
X034112Y054061D01*
X034114Y054051D01*
G37*
G36*
X034112Y054061D02*
X033956Y054033D01*
X033954Y054043D01*
X034110Y054071D01*
X034112Y054061D01*
G37*
G36*
X034110Y054071D02*
X033954Y054043D01*
X033952Y054053D01*
X034108Y054081D01*
X034110Y054071D01*
G37*
G36*
X034108Y054080D02*
X033952Y054052D01*
X033950Y054062D01*
X034106Y054090D01*
X034108Y054080D01*
G37*
G36*
X034107Y054090D02*
X033951Y054062D01*
X033949Y054072D01*
X034105Y054100D01*
X034107Y054090D01*
G37*
G36*
X034105Y054100D02*
X033949Y054072D01*
X033947Y054082D01*
X034103Y054110D01*
X034105Y054100D01*
G37*
G36*
X034103Y054110D02*
X033947Y054082D01*
X033945Y054092D01*
X034101Y054120D01*
X034103Y054110D01*
G37*
G36*
X034101Y054120D02*
X033945Y054092D01*
X033943Y054102D01*
X034099Y054130D01*
X034101Y054120D01*
G37*
G36*
X034099Y054130D02*
X033943Y054102D01*
X033941Y054112D01*
X034097Y054140D01*
X034099Y054130D01*
G37*
G36*
X034098Y054139D02*
X033942Y054111D01*
X033940Y054121D01*
X034096Y054149D01*
X034098Y054139D01*
G37*
G36*
X034096Y054149D02*
X033940Y054121D01*
X033938Y054131D01*
X034094Y054159D01*
X034096Y054149D01*
G37*
G36*
X034094Y054159D02*
X033938Y054131D01*
X033936Y054141D01*
X034092Y054169D01*
X034094Y054159D01*
G37*
G36*
X034092Y054169D02*
X033936Y054141D01*
X033934Y054151D01*
X034090Y054179D01*
X034092Y054169D01*
G37*
G36*
X034090Y054179D02*
X033934Y054151D01*
X033932Y054161D01*
X034088Y054189D01*
X034090Y054179D01*
G37*
G36*
X034088Y054189D02*
X033932Y054161D01*
X033930Y054171D01*
X034086Y054199D01*
X034088Y054189D01*
G37*
G36*
X034087Y054198D02*
X033931Y054170D01*
X033929Y054180D01*
X034085Y054208D01*
X034087Y054198D01*
G37*
G36*
X034085Y054208D02*
X033929Y054180D01*
X033927Y054190D01*
X034083Y054218D01*
X034085Y054208D01*
G37*
G36*
X034083Y054218D02*
X033927Y054190D01*
X033925Y054200D01*
X034081Y054228D01*
X034083Y054218D01*
G37*
G36*
X034081Y054228D02*
X033925Y054200D01*
X033923Y054210D01*
X034079Y054238D01*
X034081Y054228D01*
G37*
G36*
X034079Y054238D02*
X033923Y054210D01*
X033921Y054220D01*
X034077Y054248D01*
X034079Y054238D01*
G37*
G36*
X034078Y054248D02*
X033922Y054220D01*
X033920Y054230D01*
X034076Y054258D01*
X034078Y054248D01*
G37*
G36*
X034076Y054257D02*
X033920Y054229D01*
X033918Y054239D01*
X034074Y054267D01*
X034076Y054257D01*
G37*
G36*
X034036Y054474D02*
X033880Y054446D01*
X033878Y054456D01*
X034034Y054484D01*
X034036Y054474D01*
G37*
G36*
X034034Y054484D02*
X033878Y054456D01*
X033876Y054466D01*
X034032Y054494D01*
X034034Y054484D01*
G37*
G36*
X034032Y054493D02*
X033876Y054465D01*
X033874Y054475D01*
X034030Y054503D01*
X034032Y054493D01*
G37*
G36*
X034030Y054503D02*
X033874Y054475D01*
X033872Y054485D01*
X034028Y054513D01*
X034030Y054503D01*
G37*
G36*
X034028Y054513D02*
X033872Y054485D01*
X033870Y054495D01*
X034026Y054523D01*
X034028Y054513D01*
G37*
G36*
X034026Y054523D02*
X033870Y054495D01*
X033868Y054505D01*
X034024Y054533D01*
X034026Y054523D01*
G37*
G36*
X034025Y054533D02*
X033869Y054505D01*
X033867Y054515D01*
X034023Y054543D01*
X034025Y054533D01*
G37*
G36*
X034023Y054543D02*
X033867Y054515D01*
X033865Y054525D01*
X034021Y054553D01*
X034023Y054543D01*
G37*
G36*
X034021Y054552D02*
X033865Y054524D01*
X033863Y054534D01*
X034019Y054562D01*
X034021Y054552D01*
G37*
G36*
X034019Y054562D02*
X033863Y054534D01*
X033861Y054544D01*
X034017Y054572D01*
X034019Y054562D01*
G37*
G36*
X034017Y054572D02*
X033861Y054544D01*
X033859Y054554D01*
X034015Y054582D01*
X034017Y054572D01*
G37*
G36*
X034016Y054582D02*
X033860Y054554D01*
X033858Y054564D01*
X034014Y054592D01*
X034016Y054582D01*
G37*
G36*
X034014Y054592D02*
X033858Y054564D01*
X033856Y054574D01*
X034012Y054602D01*
X034014Y054592D01*
G37*
G36*
X034012Y054602D02*
X033856Y054574D01*
X033854Y054584D01*
X034010Y054612D01*
X034012Y054602D01*
G37*
G36*
X034010Y054611D02*
X033854Y054583D01*
X033852Y054593D01*
X034008Y054621D01*
X034010Y054611D01*
G37*
G36*
X034008Y054621D02*
X033852Y054593D01*
X033850Y054603D01*
X034006Y054631D01*
X034008Y054621D01*
G37*
G36*
X034006Y054631D02*
X033850Y054603D01*
X033848Y054613D01*
X034004Y054641D01*
X034006Y054631D01*
G37*
G36*
X034005Y054641D02*
X033849Y054613D01*
X033847Y054623D01*
X034003Y054651D01*
X034005Y054641D01*
G37*
G36*
X034003Y054651D02*
X033847Y054623D01*
X033845Y054633D01*
X034001Y054661D01*
X034003Y054651D01*
G37*
G36*
X034001Y054661D02*
X033845Y054633D01*
X033843Y054643D01*
X033999Y054671D01*
X034001Y054661D01*
G37*
G36*
X033999Y054670D02*
X033843Y054642D01*
X033841Y054652D01*
X033997Y054680D01*
X033999Y054670D01*
G37*
G36*
X033997Y054680D02*
X033841Y054652D01*
X033839Y054662D01*
X033995Y054690D01*
X033997Y054680D01*
G37*
G36*
X033996Y054690D02*
X033840Y054662D01*
X033838Y054672D01*
X033994Y054700D01*
X033996Y054690D01*
G37*
G36*
X033994Y054700D02*
X033838Y054672D01*
X033836Y054682D01*
X033992Y054710D01*
X033994Y054700D01*
G37*
G36*
X033992Y054710D02*
X033836Y054682D01*
X033834Y054692D01*
X033990Y054720D01*
X033992Y054710D01*
G37*
G36*
X033990Y054720D02*
X033834Y054692D01*
X033832Y054702D01*
X033988Y054730D01*
X033990Y054720D01*
G37*
G36*
X033988Y054729D02*
X033832Y054701D01*
X033830Y054711D01*
X033986Y054739D01*
X033988Y054729D01*
G37*
G36*
X033986Y054739D02*
X033830Y054711D01*
X033828Y054721D01*
X033984Y054749D01*
X033986Y054739D01*
G37*
G36*
X033985Y054749D02*
X033829Y054721D01*
X033827Y054731D01*
X033983Y054759D01*
X033985Y054749D01*
G37*
G36*
X033983Y054759D02*
X033827Y054731D01*
X033825Y054741D01*
X033981Y054769D01*
X033983Y054759D01*
G37*
G36*
X033981Y054769D02*
X033825Y054741D01*
X033823Y054751D01*
X033979Y054779D01*
X033981Y054769D01*
G37*
G36*
X033979Y054779D02*
X033823Y054751D01*
X033821Y054761D01*
X033977Y054789D01*
X033979Y054779D01*
G37*
G36*
X033977Y054788D02*
X033821Y054760D01*
X033819Y054770D01*
X033975Y054798D01*
X033977Y054788D01*
G37*
G36*
X033975Y054798D02*
X033819Y054770D01*
X033817Y054780D01*
X033973Y054808D01*
X033975Y054798D01*
G37*
G36*
X033974Y054808D02*
X033818Y054780D01*
X033816Y054790D01*
X033972Y054818D01*
X033974Y054808D01*
G37*
G36*
X033972Y054818D02*
X033816Y054790D01*
X033814Y054800D01*
X033970Y054828D01*
X033972Y054818D01*
G37*
G36*
X033970Y054828D02*
X033814Y054800D01*
X033812Y054810D01*
X033968Y054838D01*
X033970Y054828D01*
G37*
G36*
X036082Y054629D02*
X035926Y054601D01*
X035924Y054611D01*
X036080Y054639D01*
X036082Y054629D01*
G37*
G36*
X036083Y054619D02*
X035927Y054591D01*
X035925Y054601D01*
X036081Y054629D01*
X036083Y054619D01*
G37*
G36*
X036085Y054610D02*
X035929Y054582D01*
X035927Y054592D01*
X036083Y054620D01*
X036085Y054610D01*
G37*
G36*
X036087Y054600D02*
X035931Y054572D01*
X035929Y054582D01*
X036085Y054610D01*
X036087Y054600D01*
G37*
G36*
X036089Y054590D02*
X035933Y054562D01*
X035931Y054572D01*
X036087Y054600D01*
X036089Y054590D01*
G37*
G36*
X036091Y054580D02*
X035935Y054552D01*
X035933Y054562D01*
X036089Y054590D01*
X036091Y054580D01*
G37*
G36*
X036092Y054570D02*
X035936Y054542D01*
X035934Y054552D01*
X036090Y054580D01*
X036092Y054570D01*
G37*
G36*
X036094Y054560D02*
X035938Y054532D01*
X035936Y054542D01*
X036092Y054570D01*
X036094Y054560D01*
G37*
G36*
X036096Y054551D02*
X035940Y054523D01*
X035938Y054533D01*
X036094Y054561D01*
X036096Y054551D01*
G37*
G36*
X036098Y054541D02*
X035942Y054513D01*
X035940Y054523D01*
X036096Y054551D01*
X036098Y054541D01*
G37*
G36*
X036100Y054531D02*
X035944Y054503D01*
X035942Y054513D01*
X036098Y054541D01*
X036100Y054531D01*
G37*
G36*
X036102Y054521D02*
X035946Y054493D01*
X035944Y054503D01*
X036100Y054531D01*
X036102Y054521D01*
G37*
G36*
X036103Y054511D02*
X035947Y054483D01*
X035945Y054493D01*
X036101Y054521D01*
X036103Y054511D01*
G37*
G36*
X036105Y054501D02*
X035949Y054473D01*
X035947Y054483D01*
X036103Y054511D01*
X036105Y054501D01*
G37*
G36*
X036107Y054492D02*
X035951Y054464D01*
X035949Y054474D01*
X036105Y054502D01*
X036107Y054492D01*
G37*
G36*
X036109Y054482D02*
X035953Y054454D01*
X035951Y054464D01*
X036107Y054492D01*
X036109Y054482D01*
G37*
G36*
X036111Y054472D02*
X035955Y054444D01*
X035953Y054454D01*
X036109Y054482D01*
X036111Y054472D01*
G37*
G36*
X036779Y054982D02*
X036623Y054954D01*
X036621Y054964D01*
X036777Y054992D01*
X036779Y054982D01*
G37*
G36*
X036777Y054992D02*
X036621Y054964D01*
X036619Y054974D01*
X036775Y055002D01*
X036777Y054992D01*
G37*
G36*
X036775Y055002D02*
X036619Y054974D01*
X036617Y054984D01*
X036773Y055012D01*
X036775Y055002D01*
G37*
G36*
X036773Y055012D02*
X036617Y054984D01*
X036615Y054994D01*
X036771Y055022D01*
X036773Y055012D01*
G37*
G36*
X036772Y055021D02*
X036616Y054993D01*
X036614Y055003D01*
X036770Y055031D01*
X036772Y055021D01*
G37*
G36*
X036770Y055031D02*
X036614Y055003D01*
X036612Y055013D01*
X036768Y055041D01*
X036770Y055031D01*
G37*
G36*
X036768Y055041D02*
X036612Y055013D01*
X036610Y055023D01*
X036766Y055051D01*
X036768Y055041D01*
G37*
G36*
X036766Y055051D02*
X036610Y055023D01*
X036608Y055033D01*
X036764Y055061D01*
X036766Y055051D01*
G37*
G36*
X036764Y055061D02*
X036608Y055033D01*
X036606Y055043D01*
X036762Y055071D01*
X036764Y055061D01*
G37*
G36*
X036762Y055071D02*
X036606Y055043D01*
X036604Y055053D01*
X036760Y055081D01*
X036762Y055071D01*
G37*
G36*
X036761Y055080D02*
X036605Y055052D01*
X036603Y055062D01*
X036759Y055090D01*
X036761Y055080D01*
G37*
G36*
X036759Y055090D02*
X036603Y055062D01*
X036601Y055072D01*
X036757Y055100D01*
X036759Y055090D01*
G37*
G36*
X036757Y055100D02*
X036601Y055072D01*
X036599Y055082D01*
X036755Y055110D01*
X036757Y055100D01*
G37*
G36*
X036755Y055110D02*
X036599Y055082D01*
X036597Y055092D01*
X036753Y055120D01*
X036755Y055110D01*
G37*
G36*
X036753Y055120D02*
X036597Y055092D01*
X036595Y055102D01*
X036751Y055130D01*
X036753Y055120D01*
G37*
G36*
X036752Y055130D02*
X036596Y055102D01*
X036594Y055112D01*
X036750Y055140D01*
X036752Y055130D01*
G37*
G36*
X037491Y055256D02*
X037335Y055228D01*
X037333Y055238D01*
X037489Y055266D01*
X037491Y055256D01*
G37*
G36*
X037493Y055247D02*
X037337Y055219D01*
X037335Y055229D01*
X037491Y055257D01*
X037493Y055247D01*
G37*
G36*
X037494Y055237D02*
X037338Y055209D01*
X037336Y055219D01*
X037492Y055247D01*
X037494Y055237D01*
G37*
G36*
X037496Y055227D02*
X037340Y055199D01*
X037338Y055209D01*
X037494Y055237D01*
X037496Y055227D01*
G37*
G36*
X037498Y055217D02*
X037342Y055189D01*
X037340Y055199D01*
X037496Y055227D01*
X037498Y055217D01*
G37*
G36*
X037500Y055207D02*
X037344Y055179D01*
X037342Y055189D01*
X037498Y055217D01*
X037500Y055207D01*
G37*
G36*
X037502Y055197D02*
X037346Y055169D01*
X037344Y055179D01*
X037500Y055207D01*
X037502Y055197D01*
G37*
G36*
X037504Y055188D02*
X037348Y055160D01*
X037346Y055170D01*
X037502Y055198D01*
X037504Y055188D01*
G37*
G36*
X037505Y055178D02*
X037349Y055150D01*
X037347Y055160D01*
X037503Y055188D01*
X037505Y055178D01*
G37*
G36*
X037507Y055168D02*
X037351Y055140D01*
X037349Y055150D01*
X037505Y055178D01*
X037507Y055168D01*
G37*
G36*
X037509Y055158D02*
X037353Y055130D01*
X037351Y055140D01*
X037507Y055168D01*
X037509Y055158D01*
G37*
G36*
X037511Y055148D02*
X037355Y055120D01*
X037353Y055130D01*
X037509Y055158D01*
X037511Y055148D01*
G37*
G36*
X037513Y055139D02*
X037357Y055111D01*
X037355Y055121D01*
X037511Y055149D01*
X037513Y055139D01*
G37*
G36*
X037514Y055129D02*
X037358Y055101D01*
X037356Y055111D01*
X037512Y055139D01*
X037514Y055129D01*
G37*
G36*
X037516Y055119D02*
X037360Y055091D01*
X037358Y055101D01*
X037514Y055129D01*
X037516Y055119D01*
G37*
G36*
X037518Y055109D02*
X037362Y055081D01*
X037360Y055091D01*
X037516Y055119D01*
X037518Y055109D01*
G37*
G36*
X037520Y055099D02*
X037364Y055071D01*
X037362Y055081D01*
X037518Y055109D01*
X037520Y055099D01*
G37*
G36*
X037522Y055089D02*
X037366Y055061D01*
X037364Y055071D01*
X037520Y055099D01*
X037522Y055089D01*
G37*
G36*
X037524Y055080D02*
X037368Y055052D01*
X037366Y055062D01*
X037522Y055090D01*
X037524Y055080D01*
G37*
G36*
X037525Y055070D02*
X037369Y055042D01*
X037367Y055052D01*
X037523Y055080D01*
X037525Y055070D01*
G37*
G36*
X037527Y055060D02*
X037371Y055032D01*
X037369Y055042D01*
X037525Y055070D01*
X037527Y055060D01*
G37*
G36*
X037529Y055050D02*
X037373Y055022D01*
X037371Y055032D01*
X037527Y055060D01*
X037529Y055050D01*
G37*
G36*
X037531Y055040D02*
X037375Y055012D01*
X037373Y055022D01*
X037529Y055050D01*
X037531Y055040D01*
G37*
G36*
X037533Y055030D02*
X037377Y055002D01*
X037375Y055012D01*
X037531Y055040D01*
X037533Y055030D01*
G37*
G36*
X037535Y055021D02*
X037379Y054993D01*
X037377Y055003D01*
X037533Y055031D01*
X037535Y055021D01*
G37*
G36*
X037536Y055011D02*
X037380Y054983D01*
X037378Y054993D01*
X037534Y055021D01*
X037536Y055011D01*
G37*
G36*
X037538Y055001D02*
X037382Y054973D01*
X037380Y054983D01*
X037536Y055011D01*
X037538Y055001D01*
G37*
G36*
X037540Y054991D02*
X037384Y054963D01*
X037382Y054973D01*
X037538Y055001D01*
X037540Y054991D01*
G37*
G36*
X037542Y054981D02*
X037386Y054953D01*
X037384Y054963D01*
X037540Y054991D01*
X037542Y054981D01*
G37*
G36*
X037544Y054971D02*
X037388Y054943D01*
X037386Y054953D01*
X037542Y054981D01*
X037544Y054971D01*
G37*
G36*
X037545Y054962D02*
X037389Y054934D01*
X037387Y054944D01*
X037543Y054972D01*
X037545Y054962D01*
G37*
G36*
X037547Y054952D02*
X037391Y054924D01*
X037389Y054934D01*
X037545Y054962D01*
X037547Y054952D01*
G37*
G36*
X037549Y054942D02*
X037393Y054914D01*
X037391Y054924D01*
X037547Y054952D01*
X037549Y054942D01*
G37*
G36*
X037551Y054932D02*
X037395Y054904D01*
X037393Y054914D01*
X037549Y054942D01*
X037551Y054932D01*
G37*
G36*
X037553Y054922D02*
X037397Y054894D01*
X037395Y054904D01*
X037551Y054932D01*
X037553Y054922D01*
G37*
G36*
X037555Y054912D02*
X037399Y054884D01*
X037397Y054894D01*
X037553Y054922D01*
X037555Y054912D01*
G37*
G36*
X037489Y055266D02*
X037333Y055238D01*
X037331Y055248D01*
X037487Y055276D01*
X037489Y055266D01*
G37*
D13*
G36*
X036957Y055178D02*
X036751Y055140D01*
X036749Y055150D01*
X036955Y055188D01*
X036957Y055178D01*
G37*
G36*
X036955Y055188D02*
X036749Y055150D01*
X036747Y055160D01*
X036953Y055198D01*
X036955Y055188D01*
G37*
G36*
X036953Y055198D02*
X036747Y055160D01*
X036745Y055170D01*
X036951Y055208D01*
X036953Y055198D01*
G37*
G36*
X036951Y055208D02*
X036745Y055170D01*
X036743Y055180D01*
X036949Y055218D01*
X036951Y055208D01*
G37*
G36*
X036949Y055218D02*
X036743Y055180D01*
X036741Y055190D01*
X036947Y055228D01*
X036949Y055218D01*
G37*
G36*
X036948Y055227D02*
X036742Y055189D01*
X036740Y055199D01*
X036946Y055237D01*
X036948Y055227D01*
G37*
G36*
X036946Y055237D02*
X036740Y055199D01*
X036738Y055209D01*
X036944Y055247D01*
X036946Y055237D01*
G37*
G36*
X036944Y055247D02*
X036738Y055209D01*
X036736Y055219D01*
X036942Y055257D01*
X036944Y055247D01*
G37*
G36*
X036942Y055257D02*
X036736Y055219D01*
X036734Y055229D01*
X036940Y055267D01*
X036942Y055257D01*
G37*
G36*
X036940Y055267D02*
X036734Y055229D01*
X036732Y055239D01*
X036938Y055277D01*
X036940Y055267D01*
G37*
G36*
X036938Y055277D02*
X036732Y055239D01*
X036730Y055249D01*
X036936Y055287D01*
X036938Y055277D01*
G37*
G36*
X036937Y055286D02*
X036731Y055248D01*
X036729Y055258D01*
X036935Y055296D01*
X036937Y055286D01*
G37*
G36*
X036935Y055296D02*
X036729Y055258D01*
X036727Y055268D01*
X036933Y055306D01*
X036935Y055296D01*
G37*
G36*
X036933Y055306D02*
X036727Y055268D01*
X036725Y055278D01*
X036931Y055316D01*
X036933Y055306D01*
G37*
G36*
X036931Y055316D02*
X036725Y055278D01*
X036723Y055288D01*
X036929Y055326D01*
X036931Y055316D01*
G37*
G36*
X036929Y055326D02*
X036723Y055288D01*
X036721Y055298D01*
X036927Y055336D01*
X036929Y055326D01*
G37*
G36*
X036927Y055336D02*
X036721Y055298D01*
X036719Y055308D01*
X036925Y055346D01*
X036927Y055336D01*
G37*
G36*
X035690Y054933D02*
X035484Y054895D01*
X035482Y054905D01*
X035688Y054943D01*
X035690Y054933D01*
G37*
G36*
X035692Y054923D02*
X035486Y054885D01*
X035484Y054895D01*
X035690Y054933D01*
X035692Y054923D01*
G37*
G36*
X035694Y054914D02*
X035488Y054876D01*
X035486Y054886D01*
X035692Y054924D01*
X035694Y054914D01*
G37*
G36*
X035696Y054904D02*
X035490Y054866D01*
X035488Y054876D01*
X035694Y054914D01*
X035696Y054904D01*
G37*
G36*
X035697Y054894D02*
X035491Y054856D01*
X035489Y054866D01*
X035695Y054904D01*
X035697Y054894D01*
G37*
G36*
X035699Y054884D02*
X035493Y054846D01*
X035491Y054856D01*
X035697Y054894D01*
X035699Y054884D01*
G37*
G36*
X035701Y054874D02*
X035495Y054836D01*
X035493Y054846D01*
X035699Y054884D01*
X035701Y054874D01*
G37*
G36*
X035703Y054864D02*
X035497Y054826D01*
X035495Y054836D01*
X035701Y054874D01*
X035703Y054864D01*
G37*
G36*
X035705Y054855D02*
X035499Y054817D01*
X035497Y054827D01*
X035703Y054865D01*
X035705Y054855D01*
G37*
G36*
X035706Y054845D02*
X035500Y054807D01*
X035498Y054817D01*
X035704Y054855D01*
X035706Y054845D01*
G37*
G36*
X035708Y054835D02*
X035502Y054797D01*
X035500Y054807D01*
X035706Y054845D01*
X035708Y054835D01*
G37*
G36*
X035710Y054825D02*
X035504Y054787D01*
X035502Y054797D01*
X035708Y054835D01*
X035710Y054825D01*
G37*
G36*
X035712Y054815D02*
X035506Y054777D01*
X035504Y054787D01*
X035710Y054825D01*
X035712Y054815D01*
G37*
G36*
X035714Y054805D02*
X035508Y054767D01*
X035506Y054777D01*
X035712Y054815D01*
X035714Y054805D01*
G37*
G36*
X035716Y054796D02*
X035510Y054758D01*
X035508Y054768D01*
X035714Y054806D01*
X035716Y054796D01*
G37*
G36*
X035717Y054786D02*
X035511Y054748D01*
X035509Y054758D01*
X035715Y054796D01*
X035717Y054786D01*
G37*
G36*
X035354Y054718D02*
X035148Y054680D01*
X035146Y054690D01*
X035352Y054728D01*
X035354Y054718D01*
G37*
G36*
X035355Y054709D02*
X035149Y054671D01*
X035147Y054681D01*
X035353Y054719D01*
X035355Y054709D01*
G37*
G36*
X035357Y054699D02*
X035151Y054661D01*
X035149Y054671D01*
X035355Y054709D01*
X035357Y054699D01*
G37*
G36*
X035359Y054689D02*
X035153Y054651D01*
X035151Y054661D01*
X035357Y054699D01*
X035359Y054689D01*
G37*
G36*
X035361Y054679D02*
X035155Y054641D01*
X035153Y054651D01*
X035359Y054689D01*
X035361Y054679D01*
G37*
G36*
X035363Y054669D02*
X035157Y054631D01*
X035155Y054641D01*
X035361Y054679D01*
X035363Y054669D01*
G37*
G36*
X035365Y054659D02*
X035159Y054621D01*
X035157Y054631D01*
X035363Y054669D01*
X035365Y054659D01*
G37*
G36*
X035366Y054650D02*
X035160Y054612D01*
X035158Y054622D01*
X035364Y054660D01*
X035366Y054650D01*
G37*
G36*
X035368Y054640D02*
X035162Y054602D01*
X035160Y054612D01*
X035366Y054650D01*
X035368Y054640D01*
G37*
G36*
X035370Y054630D02*
X035164Y054592D01*
X035162Y054602D01*
X035368Y054640D01*
X035370Y054630D01*
G37*
G36*
X035372Y054620D02*
X035166Y054582D01*
X035164Y054592D01*
X035370Y054630D01*
X035372Y054620D01*
G37*
G36*
X035374Y054610D02*
X035168Y054572D01*
X035166Y054582D01*
X035372Y054620D01*
X035374Y054610D01*
G37*
G36*
X035375Y054600D02*
X035169Y054562D01*
X035167Y054572D01*
X035373Y054610D01*
X035375Y054600D01*
G37*
G36*
X035377Y054591D02*
X035171Y054553D01*
X035169Y054563D01*
X035375Y054601D01*
X035377Y054591D01*
G37*
G36*
X035379Y054581D02*
X035173Y054543D01*
X035171Y054553D01*
X035377Y054591D01*
X035379Y054581D01*
G37*
G36*
X035381Y054571D02*
X035175Y054533D01*
X035173Y054543D01*
X035379Y054581D01*
X035381Y054571D01*
G37*
G36*
X035383Y054561D02*
X035177Y054523D01*
X035175Y054533D01*
X035381Y054571D01*
X035383Y054561D01*
G37*
G36*
X035385Y054551D02*
X035179Y054513D01*
X035177Y054523D01*
X035383Y054561D01*
X035385Y054551D01*
G37*
G36*
X035386Y054541D02*
X035180Y054503D01*
X035178Y054513D01*
X035384Y054551D01*
X035386Y054541D01*
G37*
G36*
X035388Y054532D02*
X035182Y054494D01*
X035180Y054504D01*
X035386Y054542D01*
X035388Y054532D01*
G37*
G36*
X035390Y054522D02*
X035184Y054484D01*
X035182Y054494D01*
X035388Y054532D01*
X035390Y054522D01*
G37*
G36*
X035392Y054512D02*
X035186Y054474D01*
X035184Y054484D01*
X035390Y054522D01*
X035392Y054512D01*
G37*
G36*
X035394Y054502D02*
X035188Y054464D01*
X035186Y054474D01*
X035392Y054512D01*
X035394Y054502D01*
G37*
G36*
X035395Y054492D02*
X035189Y054454D01*
X035187Y054464D01*
X035393Y054502D01*
X035395Y054492D01*
G37*
G36*
X035397Y054482D02*
X035191Y054444D01*
X035189Y054454D01*
X035395Y054492D01*
X035397Y054482D01*
G37*
G36*
X035399Y054473D02*
X035193Y054435D01*
X035191Y054445D01*
X035397Y054483D01*
X035399Y054473D01*
G37*
G36*
X035401Y054463D02*
X035195Y054425D01*
X035193Y054435D01*
X035399Y054473D01*
X035401Y054463D01*
G37*
G36*
X035403Y054453D02*
X035197Y054415D01*
X035195Y054425D01*
X035401Y054463D01*
X035403Y054453D01*
G37*
G36*
X035405Y054443D02*
X035199Y054405D01*
X035197Y054415D01*
X035403Y054453D01*
X035405Y054443D01*
G37*
G36*
X035406Y054433D02*
X035200Y054395D01*
X035198Y054405D01*
X035404Y054443D01*
X035406Y054433D01*
G37*
G36*
X035408Y054423D02*
X035202Y054385D01*
X035200Y054395D01*
X035406Y054433D01*
X035408Y054423D01*
G37*
G36*
X035410Y054414D02*
X035204Y054376D01*
X035202Y054386D01*
X035408Y054424D01*
X035410Y054414D01*
G37*
G36*
X035412Y054404D02*
X035206Y054366D01*
X035204Y054376D01*
X035410Y054414D01*
X035412Y054404D01*
G37*
G36*
X035414Y054394D02*
X035208Y054356D01*
X035206Y054366D01*
X035412Y054404D01*
X035414Y054394D01*
G37*
G36*
X035416Y054384D02*
X035210Y054346D01*
X035208Y054356D01*
X035414Y054394D01*
X035416Y054384D01*
G37*
G36*
X035417Y054374D02*
X035211Y054336D01*
X035209Y054346D01*
X035415Y054384D01*
X035417Y054374D01*
G37*
G36*
X035419Y054364D02*
X035213Y054326D01*
X035211Y054336D01*
X035417Y054374D01*
X035419Y054364D01*
G37*
G36*
X035421Y054355D02*
X035215Y054317D01*
X035213Y054327D01*
X035419Y054365D01*
X035421Y054355D01*
G37*
G36*
X035423Y054345D02*
X035217Y054307D01*
X035215Y054317D01*
X035421Y054355D01*
X035423Y054345D01*
G37*
G36*
X035352Y054728D02*
X035146Y054690D01*
X035144Y054700D01*
X035350Y054738D01*
X035352Y054728D01*
G37*
G36*
X035350Y054738D02*
X035144Y054700D01*
X035142Y054710D01*
X035348Y054748D01*
X035350Y054738D01*
G37*
G36*
X035348Y054748D02*
X035142Y054710D01*
X035140Y054720D01*
X035346Y054758D01*
X035348Y054748D01*
G37*
G36*
X035346Y054758D02*
X035140Y054720D01*
X035138Y054730D01*
X035344Y054768D01*
X035346Y054758D01*
G37*
G36*
X035344Y054768D02*
X035138Y054730D01*
X035136Y054740D01*
X035342Y054778D01*
X035344Y054768D01*
G37*
G36*
X035343Y054777D02*
X035137Y054739D01*
X035135Y054749D01*
X035341Y054787D01*
X035343Y054777D01*
G37*
G36*
X035341Y054787D02*
X035135Y054749D01*
X035133Y054759D01*
X035339Y054797D01*
X035341Y054787D01*
G37*
G36*
X035339Y054797D02*
X035133Y054759D01*
X035131Y054769D01*
X035337Y054807D01*
X035339Y054797D01*
G37*
G36*
X035337Y054807D02*
X035131Y054769D01*
X035129Y054779D01*
X035335Y054817D01*
X035337Y054807D01*
G37*
G36*
X035335Y054817D02*
X035129Y054779D01*
X035127Y054789D01*
X035333Y054827D01*
X035335Y054817D01*
G37*
G36*
X035334Y054827D02*
X035128Y054789D01*
X035126Y054799D01*
X035332Y054837D01*
X035334Y054827D01*
G37*
G36*
X035332Y054836D02*
X035126Y054798D01*
X035124Y054808D01*
X035330Y054846D01*
X035332Y054836D01*
G37*
G36*
X035330Y054846D02*
X035124Y054808D01*
X035122Y054818D01*
X035328Y054856D01*
X035330Y054846D01*
G37*
G36*
X035328Y054856D02*
X035122Y054818D01*
X035120Y054828D01*
X035326Y054866D01*
X035328Y054856D01*
G37*
G36*
X035326Y054866D02*
X035120Y054828D01*
X035118Y054838D01*
X035324Y054876D01*
X035326Y054866D01*
G37*
G36*
X034989Y054600D02*
X034783Y054562D01*
X034781Y054572D01*
X034987Y054610D01*
X034989Y054600D01*
G37*
G36*
X034991Y054590D02*
X034785Y054552D01*
X034783Y054562D01*
X034989Y054600D01*
X034991Y054590D01*
G37*
G36*
X034993Y054580D02*
X034787Y054542D01*
X034785Y054552D01*
X034991Y054590D01*
X034993Y054580D01*
G37*
G36*
X034995Y054570D02*
X034789Y054532D01*
X034787Y054542D01*
X034993Y054580D01*
X034995Y054570D01*
G37*
G36*
X034996Y054561D02*
X034790Y054523D01*
X034788Y054533D01*
X034994Y054571D01*
X034996Y054561D01*
G37*
G36*
X034998Y054551D02*
X034792Y054513D01*
X034790Y054523D01*
X034996Y054561D01*
X034998Y054551D01*
G37*
G36*
X035000Y054541D02*
X034794Y054503D01*
X034792Y054513D01*
X034998Y054551D01*
X035000Y054541D01*
G37*
G36*
X035002Y054531D02*
X034796Y054493D01*
X034794Y054503D01*
X035000Y054541D01*
X035002Y054531D01*
G37*
G36*
X035004Y054521D02*
X034798Y054483D01*
X034796Y054493D01*
X035002Y054531D01*
X035004Y054521D01*
G37*
G36*
X035005Y054511D02*
X034799Y054473D01*
X034797Y054483D01*
X035003Y054521D01*
X035005Y054511D01*
G37*
G36*
X035007Y054502D02*
X034801Y054464D01*
X034799Y054474D01*
X035005Y054512D01*
X035007Y054502D01*
G37*
G36*
X035009Y054492D02*
X034803Y054454D01*
X034801Y054464D01*
X035007Y054502D01*
X035009Y054492D01*
G37*
G36*
X035011Y054482D02*
X034805Y054444D01*
X034803Y054454D01*
X035009Y054492D01*
X035011Y054482D01*
G37*
G36*
X035013Y054472D02*
X034807Y054434D01*
X034805Y054444D01*
X035011Y054482D01*
X035013Y054472D01*
G37*
G36*
X035015Y054462D02*
X034809Y054424D01*
X034807Y054434D01*
X035013Y054472D01*
X035015Y054462D01*
G37*
G36*
X035016Y054452D02*
X034810Y054414D01*
X034808Y054424D01*
X035014Y054462D01*
X035016Y054452D01*
G37*
G36*
X035018Y054443D02*
X034812Y054405D01*
X034810Y054415D01*
X035016Y054453D01*
X035018Y054443D01*
G37*
G36*
X035020Y054433D02*
X034814Y054395D01*
X034812Y054405D01*
X035018Y054443D01*
X035020Y054433D01*
G37*
G36*
X035022Y054423D02*
X034816Y054385D01*
X034814Y054395D01*
X035020Y054433D01*
X035022Y054423D01*
G37*
G36*
X035024Y054413D02*
X034818Y054375D01*
X034816Y054385D01*
X035022Y054423D01*
X035024Y054413D01*
G37*
G36*
X035025Y054403D02*
X034819Y054365D01*
X034817Y054375D01*
X035023Y054413D01*
X035025Y054403D01*
G37*
G36*
X035027Y054393D02*
X034821Y054355D01*
X034819Y054365D01*
X035025Y054403D01*
X035027Y054393D01*
G37*
G36*
X035029Y054384D02*
X034823Y054346D01*
X034821Y054356D01*
X035027Y054394D01*
X035029Y054384D01*
G37*
G36*
X035031Y054374D02*
X034825Y054336D01*
X034823Y054346D01*
X035029Y054384D01*
X035031Y054374D01*
G37*
G36*
X035033Y054364D02*
X034827Y054326D01*
X034825Y054336D01*
X035031Y054374D01*
X035033Y054364D01*
G37*
G36*
X035035Y054354D02*
X034829Y054316D01*
X034827Y054326D01*
X035033Y054364D01*
X035035Y054354D01*
G37*
G36*
X035036Y054344D02*
X034830Y054306D01*
X034828Y054316D01*
X035034Y054354D01*
X035036Y054344D01*
G37*
G36*
X035038Y054334D02*
X034832Y054296D01*
X034830Y054306D01*
X035036Y054344D01*
X035038Y054334D01*
G37*
G36*
X035040Y054325D02*
X034834Y054287D01*
X034832Y054297D01*
X035038Y054335D01*
X035040Y054325D01*
G37*
G36*
X035042Y054315D02*
X034836Y054277D01*
X034834Y054287D01*
X035040Y054325D01*
X035042Y054315D01*
G37*
G36*
X035044Y054305D02*
X034838Y054267D01*
X034836Y054277D01*
X035042Y054315D01*
X035044Y054305D01*
G37*
G36*
X035046Y054295D02*
X034840Y054257D01*
X034838Y054267D01*
X035044Y054305D01*
X035046Y054295D01*
G37*
G36*
X035047Y054285D02*
X034841Y054247D01*
X034839Y054257D01*
X035045Y054295D01*
X035047Y054285D01*
G37*
G36*
X035049Y054275D02*
X034843Y054237D01*
X034841Y054247D01*
X035047Y054285D01*
X035049Y054275D01*
G37*
G36*
X034687Y054198D02*
X034481Y054160D01*
X034479Y054170D01*
X034685Y054208D01*
X034687Y054198D01*
G37*
G36*
X034689Y054188D02*
X034483Y054150D01*
X034481Y054160D01*
X034687Y054198D01*
X034689Y054188D01*
G37*
G36*
X034691Y054179D02*
X034485Y054141D01*
X034483Y054151D01*
X034689Y054189D01*
X034691Y054179D01*
G37*
G36*
X034693Y054169D02*
X034487Y054131D01*
X034485Y054141D01*
X034691Y054179D01*
X034693Y054169D01*
G37*
G36*
X034694Y054159D02*
X034488Y054121D01*
X034486Y054131D01*
X034692Y054169D01*
X034694Y054159D01*
G37*
G36*
X034696Y054149D02*
X034490Y054111D01*
X034488Y054121D01*
X034694Y054159D01*
X034696Y054149D01*
G37*
G36*
X034698Y054139D02*
X034492Y054101D01*
X034490Y054111D01*
X034696Y054149D01*
X034698Y054139D01*
G37*
G36*
X034700Y054129D02*
X034494Y054091D01*
X034492Y054101D01*
X034698Y054139D01*
X034700Y054129D01*
G37*
G36*
X034702Y054120D02*
X034496Y054082D01*
X034494Y054092D01*
X034700Y054130D01*
X034702Y054120D01*
G37*
G36*
X034704Y054110D02*
X034498Y054072D01*
X034496Y054082D01*
X034702Y054120D01*
X034704Y054110D01*
G37*
G36*
X034705Y054100D02*
X034499Y054062D01*
X034497Y054072D01*
X034703Y054110D01*
X034705Y054100D01*
G37*
G36*
X034707Y054090D02*
X034501Y054052D01*
X034499Y054062D01*
X034705Y054100D01*
X034707Y054090D01*
G37*
G36*
X034709Y054080D02*
X034503Y054042D01*
X034501Y054052D01*
X034707Y054090D01*
X034709Y054080D01*
G37*
G36*
X034711Y054070D02*
X034505Y054032D01*
X034503Y054042D01*
X034709Y054080D01*
X034711Y054070D01*
G37*
G36*
X034713Y054061D02*
X034507Y054023D01*
X034505Y054033D01*
X034711Y054071D01*
X034713Y054061D01*
G37*
G36*
X034715Y054051D02*
X034509Y054013D01*
X034507Y054023D01*
X034713Y054061D01*
X034715Y054051D01*
G37*
G36*
X034587Y054739D02*
X034381Y054701D01*
X034379Y054711D01*
X034585Y054749D01*
X034587Y054739D01*
G37*
G36*
X034585Y054749D02*
X034379Y054711D01*
X034377Y054721D01*
X034583Y054759D01*
X034585Y054749D01*
G37*
G36*
X034583Y054759D02*
X034377Y054721D01*
X034375Y054731D01*
X034581Y054769D01*
X034583Y054759D01*
G37*
G36*
X034582Y054769D02*
X034376Y054731D01*
X034374Y054741D01*
X034580Y054779D01*
X034582Y054769D01*
G37*
G36*
X034580Y054778D02*
X034374Y054740D01*
X034372Y054750D01*
X034578Y054788D01*
X034580Y054778D01*
G37*
G36*
X034578Y054788D02*
X034372Y054750D01*
X034370Y054760D01*
X034576Y054798D01*
X034578Y054788D01*
G37*
G36*
X034576Y054798D02*
X034370Y054760D01*
X034368Y054770D01*
X034574Y054808D01*
X034576Y054798D01*
G37*
G36*
X034574Y054808D02*
X034368Y054770D01*
X034366Y054780D01*
X034572Y054818D01*
X034574Y054808D01*
G37*
G36*
X034572Y054818D02*
X034366Y054780D01*
X034364Y054790D01*
X034570Y054828D01*
X034572Y054818D01*
G37*
G36*
X034571Y054827D02*
X034365Y054789D01*
X034363Y054799D01*
X034569Y054837D01*
X034571Y054827D01*
G37*
G36*
X034569Y054837D02*
X034363Y054799D01*
X034361Y054809D01*
X034567Y054847D01*
X034569Y054837D01*
G37*
G36*
X034567Y054847D02*
X034361Y054809D01*
X034359Y054819D01*
X034565Y054857D01*
X034567Y054847D01*
G37*
G36*
X034565Y054857D02*
X034359Y054819D01*
X034357Y054829D01*
X034563Y054867D01*
X034565Y054857D01*
G37*
G36*
X034563Y054867D02*
X034357Y054829D01*
X034355Y054839D01*
X034561Y054877D01*
X034563Y054867D01*
G37*
G36*
X034561Y054877D02*
X034355Y054839D01*
X034353Y054849D01*
X034559Y054887D01*
X034561Y054877D01*
G37*
G36*
X034560Y054886D02*
X034354Y054848D01*
X034352Y054858D01*
X034558Y054896D01*
X034560Y054886D01*
G37*
G36*
X034558Y054896D02*
X034352Y054858D01*
X034350Y054868D01*
X034556Y054906D01*
X034558Y054896D01*
G37*
G36*
X033614Y053786D02*
X033408Y053748D01*
X033406Y053758D01*
X033612Y053796D01*
X033614Y053786D01*
G37*
G36*
X033616Y053776D02*
X033410Y053738D01*
X033408Y053748D01*
X033614Y053786D01*
X033616Y053776D01*
G37*
G36*
X033618Y053766D02*
X033412Y053728D01*
X033410Y053738D01*
X033616Y053776D01*
X033618Y053766D01*
G37*
G36*
X033620Y053756D02*
X033414Y053718D01*
X033412Y053728D01*
X033618Y053766D01*
X033620Y053756D01*
G37*
G36*
X033622Y053746D02*
X033416Y053708D01*
X033414Y053718D01*
X033620Y053756D01*
X033622Y053746D01*
G37*
G36*
X033624Y053737D02*
X033418Y053699D01*
X033416Y053709D01*
X033622Y053747D01*
X033624Y053737D01*
G37*
G36*
X033625Y053727D02*
X033419Y053689D01*
X033417Y053699D01*
X033623Y053737D01*
X033625Y053727D01*
G37*
G36*
X033627Y053717D02*
X033421Y053679D01*
X033419Y053689D01*
X033625Y053727D01*
X033627Y053717D01*
G37*
G36*
X033629Y053707D02*
X033423Y053669D01*
X033421Y053679D01*
X033627Y053717D01*
X033629Y053707D01*
G37*
G36*
X033631Y053697D02*
X033425Y053659D01*
X033423Y053669D01*
X033629Y053707D01*
X033631Y053697D01*
G37*
G36*
X033633Y053687D02*
X033427Y053649D01*
X033425Y053659D01*
X033631Y053697D01*
X033633Y053687D01*
G37*
G36*
X033634Y053678D02*
X033428Y053640D01*
X033426Y053650D01*
X033632Y053688D01*
X033634Y053678D01*
G37*
G36*
X033636Y053668D02*
X033430Y053630D01*
X033428Y053640D01*
X033634Y053678D01*
X033636Y053668D01*
G37*
G36*
X033638Y053658D02*
X033432Y053620D01*
X033430Y053630D01*
X033636Y053668D01*
X033638Y053658D01*
G37*
G36*
X033640Y053648D02*
X033434Y053610D01*
X033432Y053620D01*
X033638Y053658D01*
X033640Y053648D01*
G37*
G36*
X033642Y053638D02*
X033436Y053600D01*
X033434Y053610D01*
X033640Y053648D01*
X033642Y053638D01*
G37*
G36*
X033682Y053422D02*
X033476Y053384D01*
X033474Y053394D01*
X033680Y053432D01*
X033682Y053422D01*
G37*
G36*
X033684Y053412D02*
X033478Y053374D01*
X033476Y053384D01*
X033682Y053422D01*
X033684Y053412D01*
G37*
G36*
X033685Y053402D02*
X033479Y053364D01*
X033477Y053374D01*
X033683Y053412D01*
X033685Y053402D01*
G37*
G36*
X033687Y053393D02*
X033481Y053355D01*
X033479Y053365D01*
X033685Y053403D01*
X033687Y053393D01*
G37*
G36*
X033689Y053383D02*
X033483Y053345D01*
X033481Y053355D01*
X033687Y053393D01*
X033689Y053383D01*
G37*
G36*
X033691Y053373D02*
X033485Y053335D01*
X033483Y053345D01*
X033689Y053383D01*
X033691Y053373D01*
G37*
G36*
X033693Y053363D02*
X033487Y053325D01*
X033485Y053335D01*
X033691Y053373D01*
X033693Y053363D01*
G37*
G36*
X033695Y053353D02*
X033489Y053315D01*
X033487Y053325D01*
X033693Y053363D01*
X033695Y053353D01*
G37*
G36*
X033696Y053343D02*
X033490Y053305D01*
X033488Y053315D01*
X033694Y053353D01*
X033696Y053343D01*
G37*
G36*
X033698Y053334D02*
X033492Y053296D01*
X033490Y053306D01*
X033696Y053344D01*
X033698Y053334D01*
G37*
G36*
X033700Y053324D02*
X033494Y053286D01*
X033492Y053296D01*
X033698Y053334D01*
X033700Y053324D01*
G37*
G36*
X033702Y053314D02*
X033496Y053276D01*
X033494Y053286D01*
X033700Y053324D01*
X033702Y053314D01*
G37*
G36*
X033704Y053304D02*
X033498Y053266D01*
X033496Y053276D01*
X033702Y053314D01*
X033704Y053304D01*
G37*
G36*
X033706Y053294D02*
X033500Y053256D01*
X033498Y053266D01*
X033704Y053304D01*
X033706Y053294D01*
G37*
G36*
X033707Y053284D02*
X033501Y053246D01*
X033499Y053256D01*
X033705Y053294D01*
X033707Y053284D01*
G37*
G36*
X033709Y053275D02*
X033503Y053237D01*
X033501Y053247D01*
X033707Y053285D01*
X033709Y053275D01*
G37*
G36*
X033711Y053265D02*
X033505Y053227D01*
X033503Y053237D01*
X033709Y053275D01*
X033711Y053265D01*
G37*
G36*
X033751Y053048D02*
X033545Y053010D01*
X033543Y053020D01*
X033749Y053058D01*
X033751Y053048D01*
G37*
G36*
X033753Y053039D02*
X033547Y053001D01*
X033545Y053011D01*
X033751Y053049D01*
X033753Y053039D01*
G37*
G36*
X033755Y053029D02*
X033549Y052991D01*
X033547Y053001D01*
X033753Y053039D01*
X033755Y053029D01*
G37*
G36*
X033757Y053019D02*
X033551Y052981D01*
X033549Y052991D01*
X033755Y053029D01*
X033757Y053019D01*
G37*
G36*
X033758Y053009D02*
X033552Y052971D01*
X033550Y052981D01*
X033756Y053019D01*
X033758Y053009D01*
G37*
G36*
X033760Y052999D02*
X033554Y052961D01*
X033552Y052971D01*
X033758Y053009D01*
X033760Y052999D01*
G37*
G36*
X033762Y052989D02*
X033556Y052951D01*
X033554Y052961D01*
X033760Y052999D01*
X033762Y052989D01*
G37*
G36*
X033764Y052980D02*
X033558Y052942D01*
X033556Y052952D01*
X033762Y052990D01*
X033764Y052980D01*
G37*
G36*
X033766Y052970D02*
X033560Y052932D01*
X033558Y052942D01*
X033764Y052980D01*
X033766Y052970D01*
G37*
G36*
X033767Y052960D02*
X033561Y052922D01*
X033559Y052932D01*
X033765Y052970D01*
X033767Y052960D01*
G37*
G36*
X033769Y052950D02*
X033563Y052912D01*
X033561Y052922D01*
X033767Y052960D01*
X033769Y052950D01*
G37*
G36*
X033771Y052940D02*
X033565Y052902D01*
X033563Y052912D01*
X033769Y052950D01*
X033771Y052940D01*
G37*
X031255Y013655D03*
X031255Y013635D03*
X031005Y013645D03*
X031005Y013665D03*
X031005Y013345D03*
X031005Y013325D03*
X031255Y013335D03*
X031255Y013315D03*
X030145Y013315D03*
X030145Y013325D03*
X030145Y013345D03*
X030145Y013645D03*
X029405Y013645D03*
X029405Y013665D03*
X029405Y013345D03*
X029405Y013325D03*
X029395Y012815D03*
X029405Y012805D03*
X029945Y012745D03*
X029945Y012725D03*
D14*
X029655Y012875D03*
X029645Y012885D03*
X029655Y013335D03*
X029655Y013635D03*
X029395Y013495D03*
X030135Y013495D03*
X030675Y013035D03*
X030995Y013495D03*
X031245Y013505D03*
X031245Y013485D03*
G36*
X032609Y053060D02*
X032443Y053030D01*
X032441Y053040D01*
X032607Y053070D01*
X032609Y053060D01*
G37*
G36*
X032608Y053070D02*
X032442Y053040D01*
X032440Y053050D01*
X032606Y053080D01*
X032608Y053070D01*
G37*
G36*
X032606Y053080D02*
X032440Y053050D01*
X032438Y053060D01*
X032604Y053090D01*
X032606Y053080D01*
G37*
G36*
X032604Y053090D02*
X032438Y053060D01*
X032436Y053070D01*
X032602Y053100D01*
X032604Y053090D01*
G37*
G36*
X032602Y053100D02*
X032436Y053070D01*
X032434Y053080D01*
X032600Y053110D01*
X032602Y053100D01*
G37*
G36*
X032600Y053109D02*
X032434Y053079D01*
X032432Y053089D01*
X032598Y053119D01*
X032600Y053109D01*
G37*
G36*
X032598Y053119D02*
X032432Y053089D01*
X032430Y053099D01*
X032596Y053129D01*
X032598Y053119D01*
G37*
G36*
X032597Y053129D02*
X032431Y053099D01*
X032429Y053109D01*
X032595Y053139D01*
X032597Y053129D01*
G37*
G36*
X032595Y053139D02*
X032429Y053109D01*
X032427Y053119D01*
X032593Y053149D01*
X032595Y053139D01*
G37*
G36*
X032593Y053149D02*
X032427Y053119D01*
X032425Y053129D01*
X032591Y053159D01*
X032593Y053149D01*
G37*
G36*
X032591Y053159D02*
X032425Y053129D01*
X032423Y053139D01*
X032589Y053169D01*
X032591Y053159D01*
G37*
G36*
X032589Y053168D02*
X032423Y053138D01*
X032421Y053148D01*
X032587Y053178D01*
X032589Y053168D01*
G37*
G36*
X032588Y053178D02*
X032422Y053148D01*
X032420Y053158D01*
X032586Y053188D01*
X032588Y053178D01*
G37*
G36*
X032586Y053188D02*
X032420Y053158D01*
X032418Y053168D01*
X032584Y053198D01*
X032586Y053188D01*
G37*
G36*
X032584Y053198D02*
X032418Y053168D01*
X032416Y053178D01*
X032582Y053208D01*
X032584Y053198D01*
G37*
G36*
X032582Y053208D02*
X032416Y053178D01*
X032414Y053188D01*
X032580Y053218D01*
X032582Y053208D01*
G37*
G36*
X032580Y053218D02*
X032414Y053188D01*
X032412Y053198D01*
X032578Y053228D01*
X032580Y053218D01*
G37*
G36*
X032540Y053434D02*
X032374Y053404D01*
X032372Y053414D01*
X032538Y053444D01*
X032540Y053434D01*
G37*
G36*
X032538Y053444D02*
X032372Y053414D01*
X032370Y053424D01*
X032536Y053454D01*
X032538Y053444D01*
G37*
G36*
X032537Y053454D02*
X032371Y053424D01*
X032369Y053434D01*
X032535Y053464D01*
X032537Y053454D01*
G37*
G36*
X032535Y053463D02*
X032369Y053433D01*
X032367Y053443D01*
X032533Y053473D01*
X032535Y053463D01*
G37*
G36*
X032533Y053473D02*
X032367Y053443D01*
X032365Y053453D01*
X032531Y053483D01*
X032533Y053473D01*
G37*
G36*
X032531Y053483D02*
X032365Y053453D01*
X032363Y053463D01*
X032529Y053493D01*
X032531Y053483D01*
G37*
G36*
X032529Y053493D02*
X032363Y053463D01*
X032361Y053473D01*
X032527Y053503D01*
X032529Y053493D01*
G37*
G36*
X032527Y053503D02*
X032361Y053473D01*
X032359Y053483D01*
X032525Y053513D01*
X032527Y053503D01*
G37*
G36*
X032526Y053513D02*
X032360Y053483D01*
X032358Y053493D01*
X032524Y053523D01*
X032526Y053513D01*
G37*
G36*
X032524Y053522D02*
X032358Y053492D01*
X032356Y053502D01*
X032522Y053532D01*
X032524Y053522D01*
G37*
G36*
X032522Y053532D02*
X032356Y053502D01*
X032354Y053512D01*
X032520Y053542D01*
X032522Y053532D01*
G37*
G36*
X032520Y053542D02*
X032354Y053512D01*
X032352Y053522D01*
X032518Y053552D01*
X032520Y053542D01*
G37*
G36*
X032518Y053552D02*
X032352Y053522D01*
X032350Y053532D01*
X032516Y053562D01*
X032518Y053552D01*
G37*
G36*
X032516Y053562D02*
X032350Y053532D01*
X032348Y053542D01*
X032514Y053572D01*
X032516Y053562D01*
G37*
G36*
X032515Y053572D02*
X032349Y053542D01*
X032347Y053552D01*
X032513Y053582D01*
X032515Y053572D01*
G37*
G36*
X032513Y053581D02*
X032347Y053551D01*
X032345Y053561D01*
X032511Y053591D01*
X032513Y053581D01*
G37*
G36*
X032403Y054171D02*
X032237Y054141D01*
X032235Y054151D01*
X032401Y054181D01*
X032403Y054171D01*
G37*
G36*
X032402Y054181D02*
X032236Y054151D01*
X032234Y054161D01*
X032400Y054191D01*
X032402Y054181D01*
G37*
G36*
X032400Y054191D02*
X032234Y054161D01*
X032232Y054171D01*
X032398Y054201D01*
X032400Y054191D01*
G37*
G36*
X032398Y054201D02*
X032232Y054171D01*
X032230Y054181D01*
X032396Y054211D01*
X032398Y054201D01*
G37*
G36*
X032396Y054211D02*
X032230Y054181D01*
X032228Y054191D01*
X032394Y054221D01*
X032396Y054211D01*
G37*
G36*
X032394Y054220D02*
X032228Y054190D01*
X032226Y054200D01*
X032392Y054230D01*
X032394Y054220D01*
G37*
G36*
X032393Y054230D02*
X032227Y054200D01*
X032225Y054210D01*
X032391Y054240D01*
X032393Y054230D01*
G37*
G36*
X032391Y054240D02*
X032225Y054210D01*
X032223Y054220D01*
X032389Y054250D01*
X032391Y054240D01*
G37*
G36*
X032389Y054250D02*
X032223Y054220D01*
X032221Y054230D01*
X032387Y054260D01*
X032389Y054250D01*
G37*
G36*
X032387Y054260D02*
X032221Y054230D01*
X032219Y054240D01*
X032385Y054270D01*
X032387Y054260D01*
G37*
G36*
X032385Y054270D02*
X032219Y054240D01*
X032217Y054250D01*
X032383Y054280D01*
X032385Y054270D01*
G37*
G36*
X032383Y054279D02*
X032217Y054249D01*
X032215Y054259D01*
X032381Y054289D01*
X032383Y054279D01*
G37*
G36*
X032382Y054289D02*
X032216Y054259D01*
X032214Y054269D01*
X032380Y054299D01*
X032382Y054289D01*
G37*
G36*
X032380Y054299D02*
X032214Y054269D01*
X032212Y054279D01*
X032378Y054309D01*
X032380Y054299D01*
G37*
G36*
X032378Y054309D02*
X032212Y054279D01*
X032210Y054289D01*
X032376Y054319D01*
X032378Y054309D01*
G37*
G36*
X032376Y054319D02*
X032210Y054289D01*
X032208Y054299D01*
X032374Y054329D01*
X032376Y054319D01*
G37*
G36*
X033115Y054446D02*
X032949Y054416D01*
X032947Y054426D01*
X033113Y054456D01*
X033115Y054446D01*
G37*
G36*
X033117Y054436D02*
X032951Y054406D01*
X032949Y054416D01*
X033115Y054446D01*
X033117Y054436D01*
G37*
G36*
X033119Y054426D02*
X032953Y054396D01*
X032951Y054406D01*
X033117Y054436D01*
X033119Y054426D01*
G37*
G36*
X033121Y054416D02*
X032955Y054386D01*
X032953Y054396D01*
X033119Y054426D01*
X033121Y054416D01*
G37*
G36*
X033123Y054406D02*
X032957Y054376D01*
X032955Y054386D01*
X033121Y054416D01*
X033123Y054406D01*
G37*
G36*
X033125Y054396D02*
X032959Y054366D01*
X032957Y054376D01*
X033123Y054406D01*
X033125Y054396D01*
G37*
G36*
X033126Y054387D02*
X032960Y054357D01*
X032958Y054367D01*
X033124Y054397D01*
X033126Y054387D01*
G37*
G36*
X033128Y054377D02*
X032962Y054347D01*
X032960Y054357D01*
X033126Y054387D01*
X033128Y054377D01*
G37*
G36*
X033130Y054367D02*
X032964Y054337D01*
X032962Y054347D01*
X033128Y054377D01*
X033130Y054367D01*
G37*
G36*
X033132Y054357D02*
X032966Y054327D01*
X032964Y054337D01*
X033130Y054367D01*
X033132Y054357D01*
G37*
G36*
X033134Y054347D02*
X032968Y054317D01*
X032966Y054327D01*
X033132Y054357D01*
X033134Y054347D01*
G37*
G36*
X033135Y054337D02*
X032969Y054307D01*
X032967Y054317D01*
X033133Y054347D01*
X033135Y054337D01*
G37*
G36*
X033137Y054328D02*
X032971Y054298D01*
X032969Y054308D01*
X033135Y054338D01*
X033137Y054328D01*
G37*
G36*
X033139Y054318D02*
X032973Y054288D01*
X032971Y054298D01*
X033137Y054328D01*
X033139Y054318D01*
G37*
G36*
X033141Y054308D02*
X032975Y054278D01*
X032973Y054288D01*
X033139Y054318D01*
X033141Y054308D01*
G37*
G36*
X033114Y054455D02*
X032948Y054425D01*
X032946Y054435D01*
X033112Y054465D01*
X033114Y054455D01*
G37*
G36*
X033250Y053718D02*
X033084Y053688D01*
X033082Y053698D01*
X033248Y053728D01*
X033250Y053718D01*
G37*
G36*
X033252Y053708D02*
X033086Y053678D01*
X033084Y053688D01*
X033250Y053718D01*
X033252Y053708D01*
G37*
G36*
X033254Y053698D02*
X033088Y053668D01*
X033086Y053678D01*
X033252Y053708D01*
X033254Y053698D01*
G37*
G36*
X033256Y053689D02*
X033090Y053659D01*
X033088Y053669D01*
X033254Y053699D01*
X033256Y053689D01*
G37*
G36*
X033258Y053679D02*
X033092Y053649D01*
X033090Y053659D01*
X033256Y053689D01*
X033258Y053679D01*
G37*
G36*
X033259Y053669D02*
X033093Y053639D01*
X033091Y053649D01*
X033257Y053679D01*
X033259Y053669D01*
G37*
G36*
X033261Y053659D02*
X033095Y053629D01*
X033093Y053639D01*
X033259Y053669D01*
X033261Y053659D01*
G37*
G36*
X033263Y053649D02*
X033097Y053619D01*
X033095Y053629D01*
X033261Y053659D01*
X033263Y053649D01*
G37*
G36*
X033265Y053639D02*
X033099Y053609D01*
X033097Y053619D01*
X033263Y053649D01*
X033265Y053639D01*
G37*
G36*
X033267Y053630D02*
X033101Y053600D01*
X033099Y053610D01*
X033265Y053640D01*
X033267Y053630D01*
G37*
G36*
X033268Y053620D02*
X033102Y053590D01*
X033100Y053600D01*
X033266Y053630D01*
X033268Y053620D01*
G37*
G36*
X033270Y053610D02*
X033104Y053580D01*
X033102Y053590D01*
X033268Y053620D01*
X033270Y053610D01*
G37*
G36*
X033272Y053600D02*
X033106Y053570D01*
X033104Y053580D01*
X033270Y053610D01*
X033272Y053600D01*
G37*
G36*
X033274Y053590D02*
X033108Y053560D01*
X033106Y053570D01*
X033272Y053600D01*
X033274Y053590D01*
G37*
G36*
X033276Y053580D02*
X033110Y053550D01*
X033108Y053560D01*
X033274Y053590D01*
X033276Y053580D01*
G37*
G36*
X033278Y053571D02*
X033112Y053541D01*
X033110Y053551D01*
X033276Y053581D01*
X033278Y053571D01*
G37*
G36*
X033318Y053354D02*
X033152Y053324D01*
X033150Y053334D01*
X033316Y053364D01*
X033318Y053354D01*
G37*
G36*
X033320Y053344D02*
X033154Y053314D01*
X033152Y053324D01*
X033318Y053354D01*
X033320Y053344D01*
G37*
G36*
X033321Y053335D02*
X033155Y053305D01*
X033153Y053315D01*
X033319Y053345D01*
X033321Y053335D01*
G37*
G36*
X033323Y053325D02*
X033157Y053295D01*
X033155Y053305D01*
X033321Y053335D01*
X033323Y053325D01*
G37*
G36*
X033325Y053315D02*
X033159Y053285D01*
X033157Y053295D01*
X033323Y053325D01*
X033325Y053315D01*
G37*
G36*
X033327Y053305D02*
X033161Y053275D01*
X033159Y053285D01*
X033325Y053315D01*
X033327Y053305D01*
G37*
G36*
X033329Y053295D02*
X033163Y053265D01*
X033161Y053275D01*
X033327Y053305D01*
X033329Y053295D01*
G37*
G36*
X033330Y053285D02*
X033164Y053255D01*
X033162Y053265D01*
X033328Y053295D01*
X033330Y053285D01*
G37*
G36*
X033332Y053276D02*
X033166Y053246D01*
X033164Y053256D01*
X033330Y053286D01*
X033332Y053276D01*
G37*
G36*
X033334Y053266D02*
X033168Y053236D01*
X033166Y053246D01*
X033332Y053276D01*
X033334Y053266D01*
G37*
G36*
X033336Y053256D02*
X033170Y053226D01*
X033168Y053236D01*
X033334Y053266D01*
X033336Y053256D01*
G37*
G36*
X033338Y053246D02*
X033172Y053216D01*
X033170Y053226D01*
X033336Y053256D01*
X033338Y053246D01*
G37*
G36*
X033340Y053236D02*
X033174Y053206D01*
X033172Y053216D01*
X033338Y053246D01*
X033340Y053236D01*
G37*
G36*
X033341Y053226D02*
X033175Y053196D01*
X033173Y053206D01*
X033339Y053236D01*
X033341Y053226D01*
G37*
G36*
X033343Y053217D02*
X033177Y053187D01*
X033175Y053197D01*
X033341Y053227D01*
X033343Y053217D01*
G37*
G36*
X033345Y053207D02*
X033179Y053177D01*
X033177Y053187D01*
X033343Y053217D01*
X033345Y053207D01*
G37*
G36*
X033347Y053197D02*
X033181Y053167D01*
X033179Y053177D01*
X033345Y053207D01*
X033347Y053197D01*
G37*
G36*
X034479Y054169D02*
X034313Y054139D01*
X034311Y054149D01*
X034477Y054179D01*
X034479Y054169D01*
G37*
G36*
X034477Y054179D02*
X034311Y054149D01*
X034309Y054159D01*
X034475Y054189D01*
X034477Y054179D01*
G37*
G36*
X034475Y054189D02*
X034309Y054159D01*
X034307Y054169D01*
X034473Y054199D01*
X034475Y054189D01*
G37*
G36*
X034473Y054199D02*
X034307Y054169D01*
X034305Y054179D01*
X034471Y054209D01*
X034473Y054199D01*
G37*
G36*
X034471Y054209D02*
X034305Y054179D01*
X034303Y054189D01*
X034469Y054219D01*
X034471Y054209D01*
G37*
G36*
X034469Y054219D02*
X034303Y054189D01*
X034301Y054199D01*
X034467Y054229D01*
X034469Y054219D01*
G37*
G36*
X034468Y054228D02*
X034302Y054198D01*
X034300Y054208D01*
X034466Y054238D01*
X034468Y054228D01*
G37*
G36*
X034466Y054238D02*
X034300Y054208D01*
X034298Y054218D01*
X034464Y054248D01*
X034466Y054238D01*
G37*
G36*
X034464Y054248D02*
X034298Y054218D01*
X034296Y054228D01*
X034462Y054258D01*
X034464Y054248D01*
G37*
G36*
X034462Y054258D02*
X034296Y054228D01*
X034294Y054238D01*
X034460Y054268D01*
X034462Y054258D01*
G37*
G36*
X034460Y054268D02*
X034294Y054238D01*
X034292Y054248D01*
X034458Y054278D01*
X034460Y054268D01*
G37*
G36*
X034459Y054278D02*
X034293Y054248D01*
X034291Y054258D01*
X034457Y054288D01*
X034459Y054278D01*
G37*
G36*
X034457Y054287D02*
X034291Y054257D01*
X034289Y054267D01*
X034455Y054297D01*
X034457Y054287D01*
G37*
G36*
X034455Y054297D02*
X034289Y054267D01*
X034287Y054277D01*
X034453Y054307D01*
X034455Y054297D01*
G37*
G36*
X034453Y054307D02*
X034287Y054277D01*
X034285Y054287D01*
X034451Y054317D01*
X034453Y054307D01*
G37*
G36*
X034451Y054317D02*
X034285Y054287D01*
X034283Y054297D01*
X034449Y054327D01*
X034451Y054317D01*
G37*
G36*
X034449Y054327D02*
X034283Y054297D01*
X034281Y054307D01*
X034447Y054337D01*
X034449Y054327D01*
G37*
G36*
X034409Y054543D02*
X034243Y054513D01*
X034241Y054523D01*
X034407Y054553D01*
X034409Y054543D01*
G37*
G36*
X034407Y054553D02*
X034241Y054523D01*
X034239Y054533D01*
X034405Y054563D01*
X034407Y054553D01*
G37*
G36*
X034406Y054563D02*
X034240Y054533D01*
X034238Y054543D01*
X034404Y054573D01*
X034406Y054563D01*
G37*
G36*
X034404Y054573D02*
X034238Y054543D01*
X034236Y054553D01*
X034402Y054583D01*
X034404Y054573D01*
G37*
G36*
X034402Y054582D02*
X034236Y054552D01*
X034234Y054562D01*
X034400Y054592D01*
X034402Y054582D01*
G37*
G36*
X034400Y054592D02*
X034234Y054562D01*
X034232Y054572D01*
X034398Y054602D01*
X034400Y054592D01*
G37*
G36*
X034398Y054602D02*
X034232Y054572D01*
X034230Y054582D01*
X034396Y054612D01*
X034398Y054602D01*
G37*
G36*
X034397Y054612D02*
X034231Y054582D01*
X034229Y054592D01*
X034395Y054622D01*
X034397Y054612D01*
G37*
G36*
X034395Y054622D02*
X034229Y054592D01*
X034227Y054602D01*
X034393Y054632D01*
X034395Y054622D01*
G37*
G36*
X034393Y054632D02*
X034227Y054602D01*
X034225Y054612D01*
X034391Y054642D01*
X034393Y054632D01*
G37*
G36*
X034391Y054641D02*
X034225Y054611D01*
X034223Y054621D01*
X034389Y054651D01*
X034391Y054641D01*
G37*
G36*
X034389Y054651D02*
X034223Y054621D01*
X034221Y054631D01*
X034387Y054661D01*
X034389Y054651D01*
G37*
G36*
X034387Y054661D02*
X034221Y054631D01*
X034219Y054641D01*
X034385Y054671D01*
X034387Y054661D01*
G37*
G36*
X034386Y054671D02*
X034220Y054641D01*
X034218Y054651D01*
X034384Y054681D01*
X034386Y054671D01*
G37*
G36*
X034384Y054681D02*
X034218Y054651D01*
X034216Y054661D01*
X034382Y054691D01*
X034384Y054681D01*
G37*
G36*
X034382Y054691D02*
X034216Y054661D01*
X034214Y054671D01*
X034380Y054701D01*
X034382Y054691D01*
G37*
G36*
X034516Y054899D02*
X034350Y054869D01*
X034348Y054879D01*
X034514Y054909D01*
X034516Y054899D01*
G37*
G36*
X034515Y054908D02*
X034349Y054878D01*
X034347Y054888D01*
X034513Y054918D01*
X034515Y054908D01*
G37*
G36*
X034513Y054918D02*
X034347Y054888D01*
X034345Y054898D01*
X034511Y054928D01*
X034513Y054918D01*
G37*
G36*
X034511Y054928D02*
X034345Y054898D01*
X034343Y054908D01*
X034509Y054938D01*
X034511Y054928D01*
G37*
G36*
X034942Y054632D02*
X034776Y054602D01*
X034774Y054612D01*
X034940Y054642D01*
X034942Y054632D01*
G37*
G36*
X034944Y054622D02*
X034778Y054592D01*
X034776Y054602D01*
X034942Y054632D01*
X034944Y054622D01*
G37*
G36*
X034946Y054612D02*
X034780Y054582D01*
X034778Y054592D01*
X034944Y054622D01*
X034946Y054612D01*
G37*
G36*
X034948Y054602D02*
X034782Y054572D01*
X034780Y054582D01*
X034946Y054612D01*
X034948Y054602D01*
G37*
G36*
X035893Y054767D02*
X035727Y054737D01*
X035725Y054747D01*
X035891Y054777D01*
X035893Y054767D01*
G37*
G36*
X035895Y054757D02*
X035729Y054727D01*
X035727Y054737D01*
X035893Y054767D01*
X035895Y054757D01*
G37*
G36*
X035897Y054748D02*
X035731Y054718D01*
X035729Y054728D01*
X035895Y054758D01*
X035897Y054748D01*
G37*
G36*
X035899Y054738D02*
X035733Y054708D01*
X035731Y054718D01*
X035897Y054748D01*
X035899Y054738D01*
G37*
G36*
X035901Y054728D02*
X035735Y054698D01*
X035733Y054708D01*
X035899Y054738D01*
X035901Y054728D01*
G37*
G36*
X035902Y054718D02*
X035736Y054688D01*
X035734Y054698D01*
X035900Y054728D01*
X035902Y054718D01*
G37*
G36*
X035904Y054708D02*
X035738Y054678D01*
X035736Y054688D01*
X035902Y054718D01*
X035904Y054708D01*
G37*
G36*
X035906Y054698D02*
X035740Y054668D01*
X035738Y054678D01*
X035904Y054708D01*
X035906Y054698D01*
G37*
G36*
X035908Y054689D02*
X035742Y054659D01*
X035740Y054669D01*
X035906Y054699D01*
X035908Y054689D01*
G37*
G36*
X035910Y054679D02*
X035744Y054649D01*
X035742Y054659D01*
X035908Y054689D01*
X035910Y054679D01*
G37*
G36*
X035912Y054669D02*
X035746Y054639D01*
X035744Y054649D01*
X035910Y054679D01*
X035912Y054669D01*
G37*
G36*
X035913Y054659D02*
X035747Y054629D01*
X035745Y054639D01*
X035911Y054669D01*
X035913Y054659D01*
G37*
G36*
X035915Y054649D02*
X035749Y054619D01*
X035747Y054629D01*
X035913Y054659D01*
X035915Y054649D01*
G37*
G36*
X035917Y054639D02*
X035751Y054609D01*
X035749Y054619D01*
X035915Y054649D01*
X035917Y054639D01*
G37*
G36*
X035919Y054630D02*
X035753Y054600D01*
X035751Y054610D01*
X035917Y054640D01*
X035919Y054630D01*
G37*
G36*
X035921Y054620D02*
X035755Y054590D01*
X035753Y054600D01*
X035919Y054630D01*
X035921Y054620D01*
G37*
G36*
X035922Y054610D02*
X035756Y054580D01*
X035754Y054590D01*
X035920Y054620D01*
X035922Y054610D01*
G37*
G36*
X035891Y054777D02*
X035725Y054747D01*
X035723Y054757D01*
X035889Y054787D01*
X035891Y054777D01*
G37*
G36*
X035890Y054787D02*
X035724Y054757D01*
X035722Y054767D01*
X035888Y054797D01*
X035890Y054787D01*
G37*
G36*
X035888Y054797D02*
X035722Y054767D01*
X035720Y054777D01*
X035886Y054807D01*
X035888Y054797D01*
G37*
G36*
X035886Y054807D02*
X035720Y054777D01*
X035718Y054787D01*
X035884Y054817D01*
X035886Y054807D01*
G37*
G36*
X036419Y054895D02*
X036253Y054865D01*
X036251Y054875D01*
X036417Y054905D01*
X036419Y054895D01*
G37*
G36*
X036421Y054885D02*
X036255Y054855D01*
X036253Y054865D01*
X036419Y054895D01*
X036421Y054885D01*
G37*
G36*
X036422Y054875D02*
X036256Y054845D01*
X036254Y054855D01*
X036420Y054885D01*
X036422Y054875D01*
G37*
G36*
X036424Y054866D02*
X036258Y054836D01*
X036256Y054846D01*
X036422Y054876D01*
X036424Y054866D01*
G37*
G36*
X036426Y054856D02*
X036260Y054826D01*
X036258Y054836D01*
X036424Y054866D01*
X036426Y054856D01*
G37*
G36*
X036428Y054846D02*
X036262Y054816D01*
X036260Y054826D01*
X036426Y054856D01*
X036428Y054846D01*
G37*
G36*
X036430Y054836D02*
X036264Y054806D01*
X036262Y054816D01*
X036428Y054846D01*
X036430Y054836D01*
G37*
G36*
X036432Y054826D02*
X036266Y054796D01*
X036264Y054806D01*
X036430Y054836D01*
X036432Y054826D01*
G37*
G36*
X036433Y054816D02*
X036267Y054786D01*
X036265Y054796D01*
X036431Y054826D01*
X036433Y054816D01*
G37*
G36*
X036435Y054807D02*
X036269Y054777D01*
X036267Y054787D01*
X036433Y054817D01*
X036435Y054807D01*
G37*
G36*
X036437Y054797D02*
X036271Y054767D01*
X036269Y054777D01*
X036435Y054807D01*
X036437Y054797D01*
G37*
G36*
X036439Y054787D02*
X036273Y054757D01*
X036271Y054767D01*
X036437Y054797D01*
X036439Y054787D01*
G37*
G36*
X036441Y054777D02*
X036275Y054747D01*
X036273Y054757D01*
X036439Y054787D01*
X036441Y054777D01*
G37*
G36*
X036442Y054767D02*
X036276Y054737D01*
X036274Y054747D01*
X036440Y054777D01*
X036442Y054767D01*
G37*
G36*
X036444Y054757D02*
X036278Y054727D01*
X036276Y054737D01*
X036442Y054767D01*
X036444Y054757D01*
G37*
G36*
X036446Y054748D02*
X036280Y054718D01*
X036278Y054728D01*
X036444Y054758D01*
X036446Y054748D01*
G37*
G36*
X036448Y054738D02*
X036282Y054708D01*
X036280Y054718D01*
X036446Y054748D01*
X036448Y054738D01*
G37*
G36*
X036450Y054728D02*
X036284Y054698D01*
X036282Y054708D01*
X036448Y054738D01*
X036450Y054728D01*
G37*
G36*
X036452Y054718D02*
X036286Y054688D01*
X036284Y054698D01*
X036450Y054728D01*
X036452Y054718D01*
G37*
G36*
X036453Y054708D02*
X036287Y054678D01*
X036285Y054688D01*
X036451Y054718D01*
X036453Y054708D01*
G37*
G36*
X036455Y054699D02*
X036289Y054669D01*
X036287Y054679D01*
X036453Y054709D01*
X036455Y054699D01*
G37*
G36*
X036457Y054689D02*
X036291Y054659D01*
X036289Y054669D01*
X036455Y054699D01*
X036457Y054689D01*
G37*
G36*
X036459Y054679D02*
X036293Y054649D01*
X036291Y054659D01*
X036457Y054689D01*
X036459Y054679D01*
G37*
G36*
X036461Y054669D02*
X036295Y054639D01*
X036293Y054649D01*
X036459Y054679D01*
X036461Y054669D01*
G37*
G36*
X036463Y054659D02*
X036297Y054629D01*
X036295Y054639D01*
X036461Y054669D01*
X036463Y054659D01*
G37*
G36*
X036464Y054649D02*
X036298Y054619D01*
X036296Y054629D01*
X036462Y054659D01*
X036464Y054649D01*
G37*
G36*
X036466Y054640D02*
X036300Y054610D01*
X036298Y054620D01*
X036464Y054650D01*
X036466Y054640D01*
G37*
G36*
X036468Y054630D02*
X036302Y054600D01*
X036300Y054610D01*
X036466Y054640D01*
X036468Y054630D01*
G37*
G36*
X036470Y054620D02*
X036304Y054590D01*
X036302Y054600D01*
X036468Y054630D01*
X036470Y054620D01*
G37*
G36*
X036472Y054610D02*
X036306Y054580D01*
X036304Y054590D01*
X036470Y054620D01*
X036472Y054610D01*
G37*
G36*
X036473Y054600D02*
X036307Y054570D01*
X036305Y054580D01*
X036471Y054610D01*
X036473Y054600D01*
G37*
G36*
X036475Y054590D02*
X036309Y054560D01*
X036307Y054570D01*
X036473Y054600D01*
X036475Y054590D01*
G37*
G36*
X036477Y054581D02*
X036311Y054551D01*
X036309Y054561D01*
X036475Y054591D01*
X036477Y054581D01*
G37*
G36*
X036479Y054571D02*
X036313Y054541D01*
X036311Y054551D01*
X036477Y054581D01*
X036479Y054571D01*
G37*
G36*
X036481Y054561D02*
X036315Y054531D01*
X036313Y054541D01*
X036479Y054571D01*
X036481Y054561D01*
G37*
G36*
X036483Y054551D02*
X036317Y054521D01*
X036315Y054531D01*
X036481Y054561D01*
X036483Y054551D01*
G37*
G36*
X036484Y054541D02*
X036318Y054511D01*
X036316Y054521D01*
X036482Y054551D01*
X036484Y054541D01*
G37*
G36*
X036486Y054531D02*
X036320Y054501D01*
X036318Y054511D01*
X036484Y054541D01*
X036486Y054531D01*
G37*
G36*
X036488Y054522D02*
X036322Y054492D01*
X036320Y054502D01*
X036486Y054532D01*
X036488Y054522D01*
G37*
G36*
X036490Y054512D02*
X036324Y054482D01*
X036322Y054492D01*
X036488Y054522D01*
X036490Y054512D01*
G37*
G36*
X036492Y054502D02*
X036326Y054472D01*
X036324Y054482D01*
X036490Y054512D01*
X036492Y054502D01*
G37*
G36*
X036494Y054492D02*
X036328Y054462D01*
X036326Y054472D01*
X036492Y054502D01*
X036494Y054492D01*
G37*
G36*
X036495Y054482D02*
X036329Y054452D01*
X036327Y054462D01*
X036493Y054492D01*
X036495Y054482D01*
G37*
G36*
X036497Y054472D02*
X036331Y054442D01*
X036329Y054452D01*
X036495Y054482D01*
X036497Y054472D01*
G37*
G36*
X036499Y054463D02*
X036333Y054433D01*
X036331Y054443D01*
X036497Y054473D01*
X036499Y054463D01*
G37*
G36*
X036501Y054453D02*
X036335Y054423D01*
X036333Y054433D01*
X036499Y054463D01*
X036501Y054453D01*
G37*
G36*
X036503Y054443D02*
X036337Y054413D01*
X036335Y054423D01*
X036501Y054453D01*
X036503Y054443D01*
G37*
G36*
X036504Y054433D02*
X036338Y054403D01*
X036336Y054413D01*
X036502Y054443D01*
X036504Y054433D01*
G37*
G36*
X036506Y054423D02*
X036340Y054393D01*
X036338Y054403D01*
X036504Y054433D01*
X036506Y054423D01*
G37*
G36*
X036508Y054413D02*
X036342Y054383D01*
X036340Y054393D01*
X036506Y054423D01*
X036508Y054413D01*
G37*
G36*
X036510Y054404D02*
X036344Y054374D01*
X036342Y054384D01*
X036508Y054414D01*
X036510Y054404D01*
G37*
G36*
X036512Y054394D02*
X036346Y054364D01*
X036344Y054374D01*
X036510Y054404D01*
X036512Y054394D01*
G37*
G36*
X036514Y054384D02*
X036348Y054354D01*
X036346Y054364D01*
X036512Y054394D01*
X036514Y054384D01*
G37*
G36*
X036515Y054374D02*
X036349Y054344D01*
X036347Y054354D01*
X036513Y054384D01*
X036515Y054374D01*
G37*
G36*
X036517Y054364D02*
X036351Y054334D01*
X036349Y054344D01*
X036515Y054374D01*
X036517Y054364D01*
G37*
G36*
X036519Y054354D02*
X036353Y054324D01*
X036351Y054334D01*
X036517Y054364D01*
X036519Y054354D01*
G37*
G36*
X036521Y054345D02*
X036355Y054315D01*
X036353Y054325D01*
X036519Y054355D01*
X036521Y054345D01*
G37*
G36*
X036523Y054335D02*
X036357Y054305D01*
X036355Y054315D01*
X036521Y054345D01*
X036523Y054335D01*
G37*
G36*
X036417Y054905D02*
X036251Y054875D01*
X036249Y054885D01*
X036415Y054915D01*
X036417Y054905D01*
G37*
G36*
X036415Y054915D02*
X036249Y054885D01*
X036247Y054895D01*
X036413Y054925D01*
X036415Y054915D01*
G37*
G36*
X036413Y054925D02*
X036247Y054895D01*
X036245Y054905D01*
X036411Y054935D01*
X036413Y054925D01*
G37*
G36*
X036412Y054934D02*
X036246Y054904D01*
X036244Y054914D01*
X036410Y054944D01*
X036412Y054934D01*
G37*
G36*
X036410Y054944D02*
X036244Y054914D01*
X036242Y054924D01*
X036408Y054954D01*
X036410Y054944D01*
G37*
G36*
X036408Y054954D02*
X036242Y054924D01*
X036240Y054934D01*
X036406Y054964D01*
X036408Y054954D01*
G37*
G36*
X036406Y054964D02*
X036240Y054934D01*
X036238Y054944D01*
X036404Y054974D01*
X036406Y054964D01*
G37*
G36*
X036404Y054974D02*
X036238Y054944D01*
X036236Y054954D01*
X036402Y054984D01*
X036404Y054974D01*
G37*
G36*
X036402Y054984D02*
X036236Y054954D01*
X036234Y054964D01*
X036400Y054994D01*
X036402Y054984D01*
G37*
G36*
X036401Y054993D02*
X036235Y054963D01*
X036233Y054973D01*
X036399Y055003D01*
X036401Y054993D01*
G37*
G36*
X036399Y055003D02*
X036233Y054973D01*
X036231Y054983D01*
X036397Y055013D01*
X036399Y055003D01*
G37*
G36*
X036397Y055013D02*
X036231Y054983D01*
X036229Y054993D01*
X036395Y055023D01*
X036397Y055013D01*
G37*
G36*
X036395Y055023D02*
X036229Y054993D01*
X036227Y055003D01*
X036393Y055033D01*
X036395Y055023D01*
G37*
G36*
X036393Y055033D02*
X036227Y055003D01*
X036225Y055013D01*
X036391Y055043D01*
X036393Y055033D01*
G37*
G36*
X036391Y055043D02*
X036225Y055013D01*
X036223Y055023D01*
X036389Y055053D01*
X036391Y055043D01*
G37*
G36*
X036390Y055052D02*
X036224Y055022D01*
X036222Y055032D01*
X036388Y055062D01*
X036390Y055052D01*
G37*
G36*
X036388Y055062D02*
X036222Y055032D01*
X036220Y055042D01*
X036386Y055072D01*
X036388Y055062D01*
G37*
G36*
X037127Y055189D02*
X036961Y055159D01*
X036959Y055169D01*
X037125Y055199D01*
X037127Y055189D01*
G37*
G36*
X037129Y055179D02*
X036963Y055149D01*
X036961Y055159D01*
X037127Y055189D01*
X037129Y055179D01*
G37*
G36*
X037131Y055169D02*
X036965Y055139D01*
X036963Y055149D01*
X037129Y055179D01*
X037131Y055169D01*
G37*
G36*
X037133Y055160D02*
X036967Y055130D01*
X036965Y055140D01*
X037131Y055170D01*
X037133Y055160D01*
G37*
G36*
X037134Y055150D02*
X036968Y055120D01*
X036966Y055130D01*
X037132Y055160D01*
X037134Y055150D01*
G37*
G36*
X037136Y055140D02*
X036970Y055110D01*
X036968Y055120D01*
X037134Y055150D01*
X037136Y055140D01*
G37*
G36*
X037138Y055130D02*
X036972Y055100D01*
X036970Y055110D01*
X037136Y055140D01*
X037138Y055130D01*
G37*
G36*
X037140Y055120D02*
X036974Y055090D01*
X036972Y055100D01*
X037138Y055130D01*
X037140Y055120D01*
G37*
G36*
X037142Y055110D02*
X036976Y055080D01*
X036974Y055090D01*
X037140Y055120D01*
X037142Y055110D01*
G37*
G36*
X037143Y055101D02*
X036977Y055071D01*
X036975Y055081D01*
X037141Y055111D01*
X037143Y055101D01*
G37*
G36*
X037145Y055091D02*
X036979Y055061D01*
X036977Y055071D01*
X037143Y055101D01*
X037145Y055091D01*
G37*
G36*
X037147Y055081D02*
X036981Y055051D01*
X036979Y055061D01*
X037145Y055091D01*
X037147Y055081D01*
G37*
G36*
X037149Y055071D02*
X036983Y055041D01*
X036981Y055051D01*
X037147Y055081D01*
X037149Y055071D01*
G37*
G36*
X037151Y055061D02*
X036985Y055031D01*
X036983Y055041D01*
X037149Y055071D01*
X037151Y055061D01*
G37*
G36*
X037153Y055051D02*
X036987Y055021D01*
X036985Y055031D01*
X037151Y055061D01*
X037153Y055051D01*
G37*
G36*
X037154Y055042D02*
X036988Y055012D01*
X036986Y055022D01*
X037152Y055052D01*
X037154Y055042D01*
G37*
G36*
X037156Y055032D02*
X036990Y055002D01*
X036988Y055012D01*
X037154Y055042D01*
X037156Y055032D01*
G37*
G36*
X037158Y055022D02*
X036992Y054992D01*
X036990Y055002D01*
X037156Y055032D01*
X037158Y055022D01*
G37*
G36*
X037160Y055012D02*
X036994Y054982D01*
X036992Y054992D01*
X037158Y055022D01*
X037160Y055012D01*
G37*
G36*
X037162Y055002D02*
X036996Y054972D01*
X036994Y054982D01*
X037160Y055012D01*
X037162Y055002D01*
G37*
G36*
X037164Y054993D02*
X036998Y054963D01*
X036996Y054973D01*
X037162Y055003D01*
X037164Y054993D01*
G37*
G36*
X037165Y054983D02*
X036999Y054953D01*
X036997Y054963D01*
X037163Y054993D01*
X037165Y054983D01*
G37*
G36*
X037167Y054973D02*
X037001Y054943D01*
X036999Y054953D01*
X037165Y054983D01*
X037167Y054973D01*
G37*
G36*
X037169Y054963D02*
X037003Y054933D01*
X037001Y054943D01*
X037167Y054973D01*
X037169Y054963D01*
G37*
G36*
X037171Y054953D02*
X037005Y054923D01*
X037003Y054933D01*
X037169Y054963D01*
X037171Y054953D01*
G37*
G36*
X037173Y054943D02*
X037007Y054913D01*
X037005Y054923D01*
X037171Y054953D01*
X037173Y054943D01*
G37*
G36*
X037174Y054934D02*
X037008Y054904D01*
X037006Y054914D01*
X037172Y054944D01*
X037174Y054934D01*
G37*
G36*
X037176Y054924D02*
X037010Y054894D01*
X037008Y054904D01*
X037174Y054934D01*
X037176Y054924D01*
G37*
G36*
X037178Y054914D02*
X037012Y054884D01*
X037010Y054894D01*
X037176Y054924D01*
X037178Y054914D01*
G37*
G36*
X037180Y054904D02*
X037014Y054874D01*
X037012Y054884D01*
X037178Y054914D01*
X037180Y054904D01*
G37*
G36*
X037182Y054894D02*
X037016Y054864D01*
X037014Y054874D01*
X037180Y054904D01*
X037182Y054894D01*
G37*
G36*
X037184Y054884D02*
X037018Y054854D01*
X037016Y054864D01*
X037182Y054894D01*
X037184Y054884D01*
G37*
G36*
X037185Y054875D02*
X037019Y054845D01*
X037017Y054855D01*
X037183Y054885D01*
X037185Y054875D01*
G37*
G36*
X037187Y054865D02*
X037021Y054835D01*
X037019Y054845D01*
X037185Y054875D01*
X037187Y054865D01*
G37*
G36*
X037189Y054855D02*
X037023Y054825D01*
X037021Y054835D01*
X037187Y054865D01*
X037189Y054855D01*
G37*
G36*
X037191Y054845D02*
X037025Y054815D01*
X037023Y054825D01*
X037189Y054855D01*
X037191Y054845D01*
G37*
G36*
X037193Y054835D02*
X037027Y054805D01*
X037025Y054815D01*
X037191Y054845D01*
X037193Y054835D01*
G37*
G36*
X037195Y054825D02*
X037029Y054795D01*
X037027Y054805D01*
X037193Y054835D01*
X037195Y054825D01*
G37*
G36*
X037196Y054816D02*
X037030Y054786D01*
X037028Y054796D01*
X037194Y054826D01*
X037196Y054816D01*
G37*
G36*
X037198Y054806D02*
X037032Y054776D01*
X037030Y054786D01*
X037196Y054816D01*
X037198Y054806D01*
G37*
G36*
X037200Y054796D02*
X037034Y054766D01*
X037032Y054776D01*
X037198Y054806D01*
X037200Y054796D01*
G37*
G36*
X037202Y054786D02*
X037036Y054756D01*
X037034Y054766D01*
X037200Y054796D01*
X037202Y054786D01*
G37*
G36*
X037204Y054776D02*
X037038Y054746D01*
X037036Y054756D01*
X037202Y054786D01*
X037204Y054776D01*
G37*
G36*
X037205Y054766D02*
X037039Y054736D01*
X037037Y054746D01*
X037203Y054776D01*
X037205Y054766D01*
G37*
G36*
X037207Y054757D02*
X037041Y054727D01*
X037039Y054737D01*
X037205Y054767D01*
X037207Y054757D01*
G37*
G36*
X037209Y054747D02*
X037043Y054717D01*
X037041Y054727D01*
X037207Y054757D01*
X037209Y054747D01*
G37*
G36*
X037211Y054737D02*
X037045Y054707D01*
X037043Y054717D01*
X037209Y054747D01*
X037211Y054737D01*
G37*
G36*
X037213Y054727D02*
X037047Y054697D01*
X037045Y054707D01*
X037211Y054737D01*
X037213Y054727D01*
G37*
G36*
X037215Y054717D02*
X037049Y054687D01*
X037047Y054697D01*
X037213Y054727D01*
X037215Y054717D01*
G37*
G36*
X037216Y054707D02*
X037050Y054677D01*
X037048Y054687D01*
X037214Y054717D01*
X037216Y054707D01*
G37*
G36*
X037218Y054698D02*
X037052Y054668D01*
X037050Y054678D01*
X037216Y054708D01*
X037218Y054698D01*
G37*
G36*
X037220Y054688D02*
X037054Y054658D01*
X037052Y054668D01*
X037218Y054698D01*
X037220Y054688D01*
G37*
G36*
X037222Y054678D02*
X037056Y054648D01*
X037054Y054658D01*
X037220Y054688D01*
X037222Y054678D01*
G37*
G36*
X037125Y055199D02*
X036959Y055169D01*
X036957Y055179D01*
X037123Y055209D01*
X037125Y055199D01*
G37*
G36*
X037825Y055319D02*
X037659Y055289D01*
X037657Y055299D01*
X037823Y055329D01*
X037825Y055319D01*
G37*
G36*
X037827Y055309D02*
X037661Y055279D01*
X037659Y055289D01*
X037825Y055319D01*
X037827Y055309D01*
G37*
G36*
X037829Y055299D02*
X037663Y055269D01*
X037661Y055279D01*
X037827Y055309D01*
X037829Y055299D01*
G37*
G36*
X037831Y055289D02*
X037665Y055259D01*
X037663Y055269D01*
X037829Y055299D01*
X037831Y055289D01*
G37*
G36*
X037832Y055279D02*
X037666Y055249D01*
X037664Y055259D01*
X037830Y055289D01*
X037832Y055279D01*
G37*
G36*
X037834Y055269D02*
X037668Y055239D01*
X037666Y055249D01*
X037832Y055279D01*
X037834Y055269D01*
G37*
G36*
X037836Y055260D02*
X037670Y055230D01*
X037668Y055240D01*
X037834Y055270D01*
X037836Y055260D01*
G37*
G36*
X037838Y055250D02*
X037672Y055220D01*
X037670Y055230D01*
X037836Y055260D01*
X037838Y055250D01*
G37*
G36*
X037840Y055240D02*
X037674Y055210D01*
X037672Y055220D01*
X037838Y055250D01*
X037840Y055240D01*
G37*
G36*
X037842Y055230D02*
X037676Y055200D01*
X037674Y055210D01*
X037840Y055240D01*
X037842Y055230D01*
G37*
G36*
X037843Y055220D02*
X037677Y055190D01*
X037675Y055200D01*
X037841Y055230D01*
X037843Y055220D01*
G37*
G36*
X037845Y055210D02*
X037679Y055180D01*
X037677Y055190D01*
X037843Y055220D01*
X037845Y055210D01*
G37*
G36*
X037847Y055201D02*
X037681Y055171D01*
X037679Y055181D01*
X037845Y055211D01*
X037847Y055201D01*
G37*
G36*
X037849Y055191D02*
X037683Y055161D01*
X037681Y055171D01*
X037847Y055201D01*
X037849Y055191D01*
G37*
G36*
X037851Y055181D02*
X037685Y055151D01*
X037683Y055161D01*
X037849Y055191D01*
X037851Y055181D01*
G37*
G36*
X037853Y055171D02*
X037687Y055141D01*
X037685Y055151D01*
X037851Y055181D01*
X037853Y055171D01*
G37*
G36*
X037854Y055161D02*
X037688Y055131D01*
X037686Y055141D01*
X037852Y055171D01*
X037854Y055161D01*
G37*
G36*
X037856Y055151D02*
X037690Y055121D01*
X037688Y055131D01*
X037854Y055161D01*
X037856Y055151D01*
G37*
G36*
X037858Y055142D02*
X037692Y055112D01*
X037690Y055122D01*
X037856Y055152D01*
X037858Y055142D01*
G37*
G36*
X037860Y055132D02*
X037694Y055102D01*
X037692Y055112D01*
X037858Y055142D01*
X037860Y055132D01*
G37*
G36*
X037862Y055122D02*
X037696Y055092D01*
X037694Y055102D01*
X037860Y055132D01*
X037862Y055122D01*
G37*
G36*
X037863Y055112D02*
X037697Y055082D01*
X037695Y055092D01*
X037861Y055122D01*
X037863Y055112D01*
G37*
G36*
X037865Y055102D02*
X037699Y055072D01*
X037697Y055082D01*
X037863Y055112D01*
X037865Y055102D01*
G37*
G36*
X037867Y055092D02*
X037701Y055062D01*
X037699Y055072D01*
X037865Y055102D01*
X037867Y055092D01*
G37*
G36*
X037869Y055083D02*
X037703Y055053D01*
X037701Y055063D01*
X037867Y055093D01*
X037869Y055083D01*
G37*
G36*
X037871Y055073D02*
X037705Y055043D01*
X037703Y055053D01*
X037869Y055083D01*
X037871Y055073D01*
G37*
G36*
X037873Y055063D02*
X037707Y055033D01*
X037705Y055043D01*
X037871Y055073D01*
X037873Y055063D01*
G37*
G36*
X037874Y055053D02*
X037708Y055023D01*
X037706Y055033D01*
X037872Y055063D01*
X037874Y055053D01*
G37*
G36*
X037876Y055043D02*
X037710Y055013D01*
X037708Y055023D01*
X037874Y055053D01*
X037876Y055043D01*
G37*
G36*
X037878Y055033D02*
X037712Y055003D01*
X037710Y055013D01*
X037876Y055043D01*
X037878Y055033D01*
G37*
G36*
X037880Y055024D02*
X037714Y054994D01*
X037712Y055004D01*
X037878Y055034D01*
X037880Y055024D01*
G37*
G36*
X037882Y055014D02*
X037716Y054984D01*
X037714Y054994D01*
X037880Y055024D01*
X037882Y055014D01*
G37*
G36*
X037884Y055004D02*
X037718Y054974D01*
X037716Y054984D01*
X037882Y055014D01*
X037884Y055004D01*
G37*
G36*
X037885Y054994D02*
X037719Y054964D01*
X037717Y054974D01*
X037883Y055004D01*
X037885Y054994D01*
G37*
G36*
X037887Y054984D02*
X037721Y054954D01*
X037719Y054964D01*
X037885Y054994D01*
X037887Y054984D01*
G37*
G36*
X037889Y054974D02*
X037723Y054944D01*
X037721Y054954D01*
X037887Y054984D01*
X037889Y054974D01*
G37*
G36*
X037891Y054965D02*
X037725Y054935D01*
X037723Y054945D01*
X037889Y054975D01*
X037891Y054965D01*
G37*
G36*
X037893Y054955D02*
X037727Y054925D01*
X037725Y054935D01*
X037891Y054965D01*
X037893Y054955D01*
G37*
G36*
X037894Y054945D02*
X037728Y054915D01*
X037726Y054925D01*
X037892Y054955D01*
X037894Y054945D01*
G37*
G36*
X037896Y054935D02*
X037730Y054905D01*
X037728Y054915D01*
X037894Y054945D01*
X037896Y054935D01*
G37*
G36*
X037898Y054925D02*
X037732Y054895D01*
X037730Y054905D01*
X037896Y054935D01*
X037898Y054925D01*
G37*
G36*
X037900Y054915D02*
X037734Y054885D01*
X037732Y054895D01*
X037898Y054925D01*
X037900Y054915D01*
G37*
G36*
X037902Y054906D02*
X037736Y054876D01*
X037734Y054886D01*
X037900Y054916D01*
X037902Y054906D01*
G37*
G36*
X037904Y054896D02*
X037738Y054866D01*
X037736Y054876D01*
X037902Y054906D01*
X037904Y054896D01*
G37*
G36*
X037914Y054837D02*
X037748Y054807D01*
X037746Y054817D01*
X037912Y054847D01*
X037914Y054837D01*
G37*
G36*
X037916Y054827D02*
X037750Y054797D01*
X037748Y054807D01*
X037914Y054837D01*
X037916Y054827D01*
G37*
G36*
X037918Y054817D02*
X037752Y054787D01*
X037750Y054797D01*
X037916Y054827D01*
X037918Y054817D01*
G37*
G36*
X037920Y054807D02*
X037754Y054777D01*
X037752Y054787D01*
X037918Y054817D01*
X037920Y054807D01*
G37*
G36*
X037823Y055328D02*
X037657Y055298D01*
X037655Y055308D01*
X037821Y055338D01*
X037823Y055328D01*
G37*
D15*
G36*
X033743Y054023D02*
X031738Y053653D01*
X031737Y053663D01*
X033742Y054033D01*
X033743Y054023D01*
G37*
G36*
X033744Y054013D02*
X031739Y053643D01*
X031738Y053653D01*
X033743Y054023D01*
X033744Y054013D01*
G37*
G36*
X033746Y054003D02*
X031741Y053633D01*
X031740Y053643D01*
X033745Y054013D01*
X033746Y054003D01*
G37*
G36*
X033748Y053993D02*
X031743Y053623D01*
X031742Y053633D01*
X033747Y054003D01*
X033748Y053993D01*
G37*
G36*
X033750Y053983D02*
X031745Y053613D01*
X031744Y053623D01*
X033749Y053993D01*
X033750Y053983D01*
G37*
G36*
X033752Y053973D02*
X031747Y053603D01*
X031746Y053613D01*
X033751Y053983D01*
X033752Y053973D01*
G37*
G36*
X033754Y053964D02*
X031749Y053594D01*
X031748Y053604D01*
X033753Y053974D01*
X033754Y053964D01*
G37*
G36*
X033755Y053954D02*
X031750Y053584D01*
X031749Y053594D01*
X033754Y053964D01*
X033755Y053954D01*
G37*
G36*
X033757Y053944D02*
X031752Y053574D01*
X031751Y053584D01*
X033756Y053954D01*
X033757Y053944D01*
G37*
G36*
X033759Y053934D02*
X031754Y053564D01*
X031753Y053574D01*
X033758Y053944D01*
X033759Y053934D01*
G37*
G36*
X033761Y053924D02*
X031756Y053554D01*
X031755Y053564D01*
X033760Y053934D01*
X033761Y053924D01*
G37*
G36*
X033763Y053914D02*
X031758Y053544D01*
X031757Y053554D01*
X033762Y053924D01*
X033763Y053914D01*
G37*
G36*
X033764Y053905D02*
X031759Y053535D01*
X031758Y053545D01*
X033763Y053915D01*
X033764Y053905D01*
G37*
G36*
X033766Y053895D02*
X031761Y053525D01*
X031760Y053535D01*
X033765Y053905D01*
X033766Y053895D01*
G37*
G36*
X033768Y053885D02*
X031763Y053515D01*
X031762Y053525D01*
X033767Y053895D01*
X033768Y053885D01*
G37*
G36*
X033770Y053875D02*
X031765Y053505D01*
X031764Y053515D01*
X033769Y053885D01*
X033770Y053875D01*
G37*
G36*
X033772Y053865D02*
X031767Y053495D01*
X031766Y053505D01*
X033771Y053875D01*
X033772Y053865D01*
G37*
G36*
X033774Y053855D02*
X031769Y053485D01*
X031768Y053495D01*
X033773Y053865D01*
X033774Y053855D01*
G37*
G36*
X033775Y053846D02*
X031770Y053476D01*
X031769Y053486D01*
X033774Y053856D01*
X033775Y053846D01*
G37*
G36*
X033777Y053836D02*
X031772Y053466D01*
X031771Y053476D01*
X033776Y053846D01*
X033777Y053836D01*
G37*
G36*
X033779Y053826D02*
X031774Y053456D01*
X031773Y053466D01*
X033778Y053836D01*
X033779Y053826D01*
G37*
D16*
G36*
X034143Y053894D02*
X034026Y053873D01*
X034025Y053882D01*
X034142Y053903D01*
X034143Y053894D01*
G37*
G36*
X034141Y053904D02*
X034024Y053883D01*
X034023Y053892D01*
X034140Y053913D01*
X034141Y053904D01*
G37*
G36*
X034139Y053914D02*
X034022Y053893D01*
X034021Y053902D01*
X034138Y053923D01*
X034139Y053914D01*
G37*
G36*
X034137Y053924D02*
X034020Y053903D01*
X034019Y053912D01*
X034136Y053933D01*
X034137Y053924D01*
G37*
G36*
X034135Y053934D02*
X034018Y053913D01*
X034017Y053922D01*
X034134Y053943D01*
X034135Y053934D01*
G37*
G36*
X036886Y055338D02*
X036769Y055317D01*
X036768Y055326D01*
X036885Y055347D01*
X036886Y055338D01*
G37*
G36*
X036884Y055348D02*
X036767Y055327D01*
X036766Y055336D01*
X036883Y055357D01*
X036884Y055348D01*
G37*
G36*
X036882Y055358D02*
X036765Y055337D01*
X036764Y055346D01*
X036881Y055367D01*
X036882Y055358D01*
G37*
G36*
X036880Y055368D02*
X036763Y055347D01*
X036762Y055356D01*
X036879Y055377D01*
X036880Y055368D01*
G37*
X030670Y012715D03*
D17*
X030675Y012725D03*
X030405Y013025D03*
X030405Y013045D03*
X030185Y013045D03*
X029945Y013045D03*
X029655Y013315D03*
X029655Y013655D03*
X030185Y012725D03*
G36*
X034684Y053994D02*
X034557Y053972D01*
X034556Y053982D01*
X034683Y054004D01*
X034684Y053994D01*
G37*
G36*
X034682Y054003D02*
X034555Y053981D01*
X034554Y053991D01*
X034681Y054013D01*
X034682Y054003D01*
G37*
G36*
X034680Y054013D02*
X034553Y053991D01*
X034552Y054001D01*
X034679Y054023D01*
X034680Y054013D01*
G37*
G36*
X034678Y054023D02*
X034551Y054001D01*
X034550Y054011D01*
X034677Y054033D01*
X034678Y054023D01*
G37*
G36*
X034676Y054033D02*
X034549Y054011D01*
X034548Y054021D01*
X034675Y054043D01*
X034676Y054033D01*
G37*
G36*
X037912Y054846D02*
X037785Y054824D01*
X037784Y054834D01*
X037911Y054856D01*
X037912Y054846D01*
G37*
G36*
X037911Y054856D02*
X037784Y054834D01*
X037783Y054844D01*
X037910Y054866D01*
X037911Y054856D01*
G37*
G36*
X037909Y054866D02*
X037782Y054844D01*
X037781Y054854D01*
X037908Y054876D01*
X037909Y054866D01*
G37*
G36*
X037907Y054876D02*
X037780Y054854D01*
X037779Y054864D01*
X037906Y054886D01*
X037907Y054876D01*
G37*
G36*
X037905Y054886D02*
X037778Y054864D01*
X037777Y054874D01*
X037904Y054896D01*
X037905Y054886D01*
G37*
D18*
G36*
X037821Y055338D02*
X037331Y055248D01*
X037329Y055258D01*
X037819Y055348D01*
X037821Y055338D01*
G37*
G36*
X037819Y055348D02*
X037329Y055258D01*
X037327Y055268D01*
X037817Y055358D01*
X037819Y055348D01*
G37*
G36*
X037818Y055358D02*
X037328Y055268D01*
X037326Y055278D01*
X037816Y055368D01*
X037818Y055358D01*
G37*
G36*
X037816Y055368D02*
X037326Y055278D01*
X037324Y055288D01*
X037814Y055378D01*
X037816Y055368D01*
G37*
G36*
X037814Y055377D02*
X037324Y055287D01*
X037322Y055297D01*
X037812Y055387D01*
X037814Y055377D01*
G37*
G36*
X037812Y055387D02*
X037322Y055297D01*
X037320Y055307D01*
X037810Y055397D01*
X037812Y055387D01*
G37*
G36*
X037810Y055397D02*
X037320Y055307D01*
X037318Y055317D01*
X037808Y055407D01*
X037810Y055397D01*
G37*
G36*
X037809Y055407D02*
X037319Y055317D01*
X037317Y055327D01*
X037807Y055417D01*
X037809Y055407D01*
G37*
G36*
X037807Y055417D02*
X037317Y055327D01*
X037315Y055337D01*
X037805Y055427D01*
X037807Y055417D01*
G37*
G36*
X037805Y055427D02*
X037315Y055337D01*
X037313Y055347D01*
X037803Y055437D01*
X037805Y055427D01*
G37*
G36*
X037803Y055436D02*
X037313Y055346D01*
X037311Y055356D01*
X037801Y055446D01*
X037803Y055436D01*
G37*
G36*
X037801Y055446D02*
X037311Y055356D01*
X037309Y055366D01*
X037799Y055456D01*
X037801Y055446D01*
G37*
G36*
X037799Y055456D02*
X037309Y055366D01*
X037307Y055376D01*
X037797Y055466D01*
X037799Y055456D01*
G37*
G36*
X037798Y055466D02*
X037308Y055376D01*
X037306Y055386D01*
X037796Y055476D01*
X037798Y055466D01*
G37*
G36*
X037796Y055476D02*
X037306Y055386D01*
X037304Y055396D01*
X037794Y055486D01*
X037796Y055476D01*
G37*
G36*
X037794Y055486D02*
X037304Y055396D01*
X037302Y055406D01*
X037792Y055496D01*
X037794Y055486D01*
G37*
G36*
X037792Y055495D02*
X037302Y055405D01*
X037300Y055415D01*
X037790Y055505D01*
X037792Y055495D01*
G37*
G36*
X037790Y055505D02*
X037300Y055415D01*
X037298Y055425D01*
X037788Y055515D01*
X037790Y055505D01*
G37*
G36*
X037789Y055515D02*
X037299Y055425D01*
X037297Y055435D01*
X037787Y055525D01*
X037789Y055515D01*
G37*
G36*
X037787Y055525D02*
X037297Y055435D01*
X037295Y055445D01*
X037785Y055535D01*
X037787Y055525D01*
G37*
G36*
X037785Y055535D02*
X037295Y055445D01*
X037293Y055455D01*
X037783Y055545D01*
X037785Y055535D01*
G37*
G36*
X035414Y054170D02*
X034924Y054080D01*
X034922Y054090D01*
X035412Y054180D01*
X035414Y054170D01*
G37*
G36*
X035416Y054160D02*
X034926Y054070D01*
X034924Y054080D01*
X035414Y054170D01*
X035416Y054160D01*
G37*
G36*
X035418Y054150D02*
X034928Y054060D01*
X034926Y054070D01*
X035416Y054160D01*
X035418Y054150D01*
G37*
G36*
X035419Y054140D02*
X034929Y054050D01*
X034927Y054060D01*
X035417Y054150D01*
X035419Y054140D01*
G37*
G36*
X035421Y054131D02*
X034931Y054041D01*
X034929Y054051D01*
X035419Y054141D01*
X035421Y054131D01*
G37*
D19*
G36*
X036149Y054266D02*
X035619Y054168D01*
X035617Y054178D01*
X036147Y054276D01*
X036149Y054266D01*
G37*
G36*
X036147Y054276D02*
X035617Y054178D01*
X035615Y054188D01*
X036145Y054286D01*
X036147Y054276D01*
G37*
G36*
X036145Y054285D02*
X035615Y054187D01*
X035613Y054197D01*
X036143Y054295D01*
X036145Y054285D01*
G37*
G36*
X036144Y054295D02*
X035614Y054197D01*
X035612Y054207D01*
X036142Y054305D01*
X036144Y054295D01*
G37*
G36*
X036142Y054305D02*
X035612Y054207D01*
X035610Y054217D01*
X036140Y054315D01*
X036142Y054305D01*
G37*
G36*
X036140Y054315D02*
X035610Y054217D01*
X035608Y054227D01*
X036138Y054325D01*
X036140Y054315D01*
G37*
G36*
X036138Y054325D02*
X035608Y054227D01*
X035606Y054237D01*
X036136Y054335D01*
X036138Y054325D01*
G37*
G36*
X036136Y054335D02*
X035606Y054237D01*
X035604Y054247D01*
X036134Y054345D01*
X036136Y054335D01*
G37*
G36*
X036135Y054344D02*
X035605Y054246D01*
X035603Y054256D01*
X036133Y054354D01*
X036135Y054344D01*
G37*
G36*
X036133Y054354D02*
X035603Y054256D01*
X035601Y054266D01*
X036131Y054364D01*
X036133Y054354D01*
G37*
G36*
X036131Y054364D02*
X035601Y054266D01*
X035599Y054276D01*
X036129Y054374D01*
X036131Y054364D01*
G37*
G36*
X036129Y054374D02*
X035599Y054276D01*
X035597Y054286D01*
X036127Y054384D01*
X036129Y054374D01*
G37*
G36*
X036127Y054384D02*
X035597Y054286D01*
X035595Y054296D01*
X036125Y054394D01*
X036127Y054384D01*
G37*
G36*
X036125Y054394D02*
X035595Y054296D01*
X035593Y054306D01*
X036123Y054404D01*
X036125Y054394D01*
G37*
G36*
X036124Y054403D02*
X035594Y054305D01*
X035592Y054315D01*
X036122Y054413D01*
X036124Y054403D01*
G37*
G36*
X036122Y054413D02*
X035592Y054315D01*
X035590Y054325D01*
X036120Y054423D01*
X036122Y054413D01*
G37*
G36*
X036120Y054423D02*
X035590Y054325D01*
X035588Y054335D01*
X036118Y054433D01*
X036120Y054423D01*
G37*
G36*
X036118Y054433D02*
X035588Y054335D01*
X035586Y054345D01*
X036116Y054443D01*
X036118Y054433D01*
G37*
G36*
X036116Y054443D02*
X035586Y054345D01*
X035584Y054355D01*
X036114Y054453D01*
X036116Y054443D01*
G37*
G36*
X036115Y054453D02*
X035585Y054355D01*
X035583Y054365D01*
X036113Y054463D01*
X036115Y054453D01*
G37*
G36*
X036113Y054462D02*
X035583Y054364D01*
X035581Y054374D01*
X036111Y054472D01*
X036113Y054462D01*
G37*
G36*
X036012Y055003D02*
X035482Y054905D01*
X035480Y054915D01*
X036010Y055013D01*
X036012Y055003D01*
G37*
G36*
X036011Y055013D02*
X035481Y054915D01*
X035479Y054925D01*
X036009Y055023D01*
X036011Y055013D01*
G37*
G36*
X036009Y055023D02*
X035479Y054925D01*
X035477Y054935D01*
X036007Y055033D01*
X036009Y055023D01*
G37*
G36*
X036007Y055033D02*
X035477Y054935D01*
X035475Y054945D01*
X036005Y055043D01*
X036007Y055033D01*
G37*
G36*
X036005Y055043D02*
X035475Y054945D01*
X035473Y054955D01*
X036003Y055053D01*
X036005Y055043D01*
G37*
G36*
X036003Y055052D02*
X035473Y054954D01*
X035471Y054964D01*
X036001Y055062D01*
X036003Y055052D01*
G37*
G36*
X036002Y055062D02*
X035472Y054964D01*
X035470Y054974D01*
X036000Y055072D01*
X036002Y055062D01*
G37*
G36*
X036000Y055072D02*
X035470Y054974D01*
X035468Y054984D01*
X035998Y055082D01*
X036000Y055072D01*
G37*
G36*
X035998Y055082D02*
X035468Y054984D01*
X035466Y054994D01*
X035996Y055092D01*
X035998Y055082D01*
G37*
G36*
X035996Y055092D02*
X035466Y054994D01*
X035464Y055004D01*
X035994Y055102D01*
X035996Y055092D01*
G37*
G36*
X035994Y055102D02*
X035464Y055004D01*
X035462Y055014D01*
X035992Y055112D01*
X035994Y055102D01*
G37*
G36*
X035992Y055111D02*
X035462Y055013D01*
X035460Y055023D01*
X035990Y055121D01*
X035992Y055111D01*
G37*
G36*
X035991Y055121D02*
X035461Y055023D01*
X035459Y055033D01*
X035989Y055131D01*
X035991Y055121D01*
G37*
G36*
X035989Y055131D02*
X035459Y055033D01*
X035457Y055043D01*
X035987Y055141D01*
X035989Y055131D01*
G37*
G36*
X035987Y055141D02*
X035457Y055043D01*
X035455Y055053D01*
X035985Y055151D01*
X035987Y055141D01*
G37*
G36*
X035985Y055151D02*
X035455Y055053D01*
X035453Y055063D01*
X035983Y055161D01*
X035985Y055151D01*
G37*
G36*
X035983Y055160D02*
X035453Y055062D01*
X035451Y055072D01*
X035981Y055170D01*
X035983Y055160D01*
G37*
G36*
X035981Y055170D02*
X035451Y055072D01*
X035449Y055082D01*
X035979Y055180D01*
X035981Y055170D01*
G37*
G36*
X035980Y055180D02*
X035450Y055082D01*
X035448Y055092D01*
X035978Y055190D01*
X035980Y055180D01*
G37*
G36*
X035978Y055190D02*
X035448Y055092D01*
X035446Y055102D01*
X035976Y055200D01*
X035978Y055190D01*
G37*
G36*
X035976Y055200D02*
X035446Y055102D01*
X035444Y055112D01*
X035974Y055210D01*
X035976Y055200D01*
G37*
G36*
X032869Y054624D02*
X032339Y054526D01*
X032337Y054536D01*
X032867Y054634D01*
X032869Y054624D01*
G37*
G36*
X032871Y054614D02*
X032341Y054516D01*
X032339Y054526D01*
X032869Y054624D01*
X032871Y054614D01*
G37*
G36*
X032873Y054604D02*
X032343Y054506D01*
X032341Y054516D01*
X032871Y054614D01*
X032873Y054604D01*
G37*
G36*
X032874Y054594D02*
X032344Y054496D01*
X032342Y054506D01*
X032872Y054604D01*
X032874Y054594D01*
G37*
D20*
G36*
X037922Y054798D02*
X037058Y054638D01*
X037056Y054648D01*
X037920Y054808D01*
X037922Y054798D01*
G37*
G36*
X037924Y054788D02*
X037060Y054628D01*
X037058Y054638D01*
X037922Y054798D01*
X037924Y054788D01*
G37*
G36*
X037925Y054778D02*
X037061Y054618D01*
X037059Y054628D01*
X037923Y054788D01*
X037925Y054778D01*
G37*
G36*
X037927Y054768D02*
X037063Y054608D01*
X037061Y054618D01*
X037925Y054778D01*
X037927Y054768D01*
G37*
G36*
X037929Y054758D02*
X037065Y054598D01*
X037063Y054608D01*
X037927Y054768D01*
X037929Y054758D01*
G37*
G36*
X037931Y054749D02*
X037067Y054589D01*
X037065Y054599D01*
X037929Y054759D01*
X037931Y054749D01*
G37*
G36*
X037933Y054739D02*
X037069Y054579D01*
X037067Y054589D01*
X037931Y054749D01*
X037933Y054739D01*
G37*
G36*
X037934Y054729D02*
X037070Y054569D01*
X037068Y054579D01*
X037932Y054739D01*
X037934Y054729D01*
G37*
G36*
X037936Y054719D02*
X037072Y054559D01*
X037070Y054569D01*
X037934Y054729D01*
X037936Y054719D01*
G37*
G36*
X037938Y054709D02*
X037074Y054549D01*
X037072Y054559D01*
X037936Y054719D01*
X037938Y054709D01*
G37*
G36*
X037940Y054699D02*
X037076Y054539D01*
X037074Y054549D01*
X037938Y054709D01*
X037940Y054699D01*
G37*
G36*
X037942Y054690D02*
X037078Y054530D01*
X037076Y054540D01*
X037940Y054700D01*
X037942Y054690D01*
G37*
G36*
X037944Y054680D02*
X037080Y054520D01*
X037078Y054530D01*
X037942Y054690D01*
X037944Y054680D01*
G37*
G36*
X037945Y054670D02*
X037081Y054510D01*
X037079Y054520D01*
X037943Y054680D01*
X037945Y054670D01*
G37*
G36*
X037947Y054660D02*
X037083Y054500D01*
X037081Y054510D01*
X037945Y054670D01*
X037947Y054660D01*
G37*
G36*
X037949Y054650D02*
X037085Y054490D01*
X037083Y054500D01*
X037947Y054660D01*
X037949Y054650D01*
G37*
G36*
X037951Y054640D02*
X037087Y054480D01*
X037085Y054490D01*
X037949Y054650D01*
X037951Y054640D01*
G37*
G36*
X037953Y054631D02*
X037089Y054471D01*
X037087Y054481D01*
X037951Y054641D01*
X037953Y054631D01*
G37*
G36*
X037955Y054621D02*
X037091Y054461D01*
X037089Y054471D01*
X037953Y054631D01*
X037955Y054621D01*
G37*
G36*
X037956Y054611D02*
X037092Y054451D01*
X037090Y054461D01*
X037954Y054621D01*
X037956Y054611D01*
G37*
G36*
X037958Y054601D02*
X037094Y054441D01*
X037092Y054451D01*
X037956Y054611D01*
X037958Y054601D01*
G37*
D21*
G36*
X035451Y054187D02*
X034872Y054081D01*
X034871Y054091D01*
X035450Y054197D01*
X035451Y054187D01*
G37*
G36*
X035449Y054197D02*
X034870Y054091D01*
X034869Y054101D01*
X035448Y054207D01*
X035449Y054197D01*
G37*
G36*
X035448Y054206D02*
X034869Y054100D01*
X034868Y054110D01*
X035447Y054216D01*
X035448Y054206D01*
G37*
G36*
X035446Y054216D02*
X034867Y054110D01*
X034866Y054120D01*
X035445Y054226D01*
X035446Y054216D01*
G37*
G36*
X035444Y054226D02*
X034865Y054120D01*
X034864Y054130D01*
X035443Y054236D01*
X035444Y054226D01*
G37*
G36*
X035442Y054236D02*
X034863Y054130D01*
X034862Y054140D01*
X035441Y054246D01*
X035442Y054236D01*
G37*
G36*
X035440Y054246D02*
X034861Y054140D01*
X034860Y054150D01*
X035439Y054256D01*
X035440Y054246D01*
G37*
G36*
X035438Y054256D02*
X034859Y054150D01*
X034858Y054160D01*
X035437Y054266D01*
X035438Y054256D01*
G37*
G36*
X035437Y054265D02*
X034858Y054159D01*
X034857Y054169D01*
X035436Y054275D01*
X035437Y054265D01*
G37*
G36*
X035435Y054275D02*
X034856Y054169D01*
X034855Y054179D01*
X035434Y054285D01*
X035435Y054275D01*
G37*
G36*
X035433Y054285D02*
X034854Y054179D01*
X034853Y054189D01*
X035432Y054295D01*
X035433Y054285D01*
G37*
G36*
X035431Y054295D02*
X034852Y054189D01*
X034851Y054199D01*
X035430Y054305D01*
X035431Y054295D01*
G37*
G36*
X035429Y054305D02*
X034850Y054199D01*
X034849Y054209D01*
X035428Y054315D01*
X035429Y054305D01*
G37*
G36*
X035427Y054315D02*
X034848Y054209D01*
X034847Y054219D01*
X035426Y054325D01*
X035427Y054315D01*
G37*
G36*
X035426Y054324D02*
X034847Y054218D01*
X034846Y054228D01*
X035425Y054334D01*
X035426Y054324D01*
G37*
G36*
X035424Y054334D02*
X034845Y054228D01*
X034844Y054238D01*
X035423Y054344D01*
X035424Y054334D01*
G37*
G36*
X035324Y054875D02*
X034745Y054769D01*
X034744Y054779D01*
X035323Y054885D01*
X035324Y054875D01*
G37*
G36*
X035322Y054885D02*
X034743Y054779D01*
X034742Y054789D01*
X035321Y054895D01*
X035322Y054885D01*
G37*
G36*
X035320Y054895D02*
X034741Y054789D01*
X034740Y054799D01*
X035319Y054905D01*
X035320Y054895D01*
G37*
G36*
X035318Y054905D02*
X034739Y054799D01*
X034738Y054809D01*
X035317Y054915D01*
X035318Y054905D01*
G37*
G36*
X035316Y054914D02*
X034737Y054808D01*
X034736Y054818D01*
X035315Y054924D01*
X035316Y054914D01*
G37*
G36*
X035314Y054924D02*
X034735Y054818D01*
X034734Y054828D01*
X035313Y054934D01*
X035314Y054924D01*
G37*
G36*
X035313Y054934D02*
X034734Y054828D01*
X034733Y054838D01*
X035312Y054944D01*
X035313Y054934D01*
G37*
G36*
X035311Y054944D02*
X034732Y054838D01*
X034731Y054848D01*
X035310Y054954D01*
X035311Y054944D01*
G37*
G36*
X035309Y054954D02*
X034730Y054848D01*
X034729Y054858D01*
X035308Y054964D01*
X035309Y054954D01*
G37*
G36*
X035307Y054964D02*
X034728Y054858D01*
X034727Y054868D01*
X035306Y054974D01*
X035307Y054964D01*
G37*
G36*
X035305Y054973D02*
X034726Y054867D01*
X034725Y054877D01*
X035304Y054983D01*
X035305Y054973D01*
G37*
G36*
X035304Y054983D02*
X034725Y054877D01*
X034724Y054887D01*
X035303Y054993D01*
X035304Y054983D01*
G37*
G36*
X035302Y054993D02*
X034723Y054887D01*
X034722Y054897D01*
X035301Y055003D01*
X035302Y054993D01*
G37*
G36*
X035300Y055003D02*
X034721Y054897D01*
X034720Y054907D01*
X035299Y055013D01*
X035300Y055003D01*
G37*
G36*
X035298Y055013D02*
X034719Y054907D01*
X034718Y054917D01*
X035297Y055023D01*
X035298Y055013D01*
G37*
G36*
X035296Y055023D02*
X034717Y054917D01*
X034716Y054927D01*
X035295Y055033D01*
X035296Y055023D01*
G37*
G36*
X035294Y055032D02*
X034715Y054926D01*
X034714Y054936D01*
X035293Y055042D01*
X035294Y055032D01*
G37*
D22*
G36*
X034244Y054502D02*
X033882Y054436D01*
X033880Y054446D01*
X034242Y054512D01*
X034244Y054502D01*
G37*
G36*
X034245Y054492D02*
X033883Y054426D01*
X033881Y054436D01*
X034243Y054502D01*
X034245Y054492D01*
G37*
G36*
X034247Y054482D02*
X033885Y054416D01*
X033883Y054426D01*
X034245Y054492D01*
X034247Y054482D01*
G37*
G36*
X034249Y054473D02*
X033887Y054407D01*
X033885Y054417D01*
X034247Y054483D01*
X034249Y054473D01*
G37*
G36*
X034251Y054463D02*
X033889Y054397D01*
X033887Y054407D01*
X034249Y054473D01*
X034251Y054463D01*
G37*
G36*
X034253Y054453D02*
X033891Y054387D01*
X033889Y054397D01*
X034251Y054463D01*
X034253Y054453D01*
G37*
G36*
X034255Y054443D02*
X033893Y054377D01*
X033891Y054387D01*
X034253Y054453D01*
X034255Y054443D01*
G37*
G36*
X034256Y054433D02*
X033894Y054367D01*
X033892Y054377D01*
X034254Y054443D01*
X034256Y054433D01*
G37*
G36*
X034258Y054423D02*
X033896Y054357D01*
X033894Y054367D01*
X034256Y054433D01*
X034258Y054423D01*
G37*
G36*
X034260Y054414D02*
X033898Y054348D01*
X033896Y054358D01*
X034258Y054424D01*
X034260Y054414D01*
G37*
G36*
X034262Y054404D02*
X033900Y054338D01*
X033898Y054348D01*
X034260Y054414D01*
X034262Y054404D01*
G37*
G36*
X034264Y054394D02*
X033902Y054328D01*
X033900Y054338D01*
X034262Y054404D01*
X034264Y054394D01*
G37*
G36*
X034266Y054384D02*
X033904Y054318D01*
X033902Y054328D01*
X034264Y054394D01*
X034266Y054384D01*
G37*
G36*
X034267Y054374D02*
X033905Y054308D01*
X033903Y054318D01*
X034265Y054384D01*
X034267Y054374D01*
G37*
G36*
X034269Y054364D02*
X033907Y054298D01*
X033905Y054308D01*
X034267Y054374D01*
X034269Y054364D01*
G37*
G36*
X034271Y054355D02*
X033909Y054289D01*
X033907Y054299D01*
X034269Y054365D01*
X034271Y054355D01*
G37*
G36*
X034273Y054345D02*
X033911Y054279D01*
X033909Y054289D01*
X034271Y054355D01*
X034273Y054345D01*
G37*
G36*
X034275Y054335D02*
X033913Y054269D01*
X033911Y054279D01*
X034273Y054345D01*
X034275Y054335D01*
G37*
G36*
X034276Y054325D02*
X033914Y054259D01*
X033912Y054269D01*
X034274Y054335D01*
X034276Y054325D01*
G37*
G36*
X034278Y054315D02*
X033916Y054249D01*
X033914Y054259D01*
X034276Y054325D01*
X034278Y054315D01*
G37*
G36*
X034280Y054305D02*
X033918Y054239D01*
X033916Y054249D01*
X034278Y054315D01*
X034280Y054305D01*
G37*
G36*
X033544Y054159D02*
X033182Y054093D01*
X033180Y054103D01*
X033542Y054169D01*
X033544Y054159D01*
G37*
G36*
X033546Y054149D02*
X033184Y054083D01*
X033182Y054093D01*
X033544Y054159D01*
X033546Y054149D01*
G37*
G36*
X033548Y054139D02*
X033186Y054073D01*
X033184Y054083D01*
X033546Y054149D01*
X033548Y054139D01*
G37*
G36*
X033550Y054129D02*
X033188Y054063D01*
X033186Y054073D01*
X033548Y054139D01*
X033550Y054129D01*
G37*
G36*
X033552Y054120D02*
X033190Y054054D01*
X033188Y054064D01*
X033550Y054130D01*
X033552Y054120D01*
G37*
G36*
X033554Y054110D02*
X033192Y054044D01*
X033190Y054054D01*
X033552Y054120D01*
X033554Y054110D01*
G37*
G36*
X033555Y054100D02*
X033193Y054034D01*
X033191Y054044D01*
X033553Y054110D01*
X033555Y054100D01*
G37*
G36*
X033557Y054090D02*
X033195Y054024D01*
X033193Y054034D01*
X033555Y054100D01*
X033557Y054090D01*
G37*
G36*
X033559Y054080D02*
X033197Y054014D01*
X033195Y054024D01*
X033557Y054090D01*
X033559Y054080D01*
G37*
G36*
X033561Y054070D02*
X033199Y054004D01*
X033197Y054014D01*
X033559Y054080D01*
X033561Y054070D01*
G37*
G36*
X033563Y054061D02*
X033201Y053995D01*
X033199Y054005D01*
X033561Y054071D01*
X033563Y054061D01*
G37*
G36*
X033565Y054051D02*
X033203Y053985D01*
X033201Y053995D01*
X033563Y054061D01*
X033565Y054051D01*
G37*
G36*
X033566Y054041D02*
X033204Y053975D01*
X033202Y053985D01*
X033564Y054051D01*
X033566Y054041D01*
G37*
G36*
X033568Y054031D02*
X033206Y053965D01*
X033204Y053975D01*
X033566Y054041D01*
X033568Y054031D01*
G37*
G36*
X033570Y054021D02*
X033208Y053955D01*
X033206Y053965D01*
X033568Y054031D01*
X033570Y054021D01*
G37*
G36*
X033572Y054011D02*
X033210Y053945D01*
X033208Y053955D01*
X033570Y054021D01*
X033572Y054011D01*
G37*
G36*
X033574Y054002D02*
X033212Y053936D01*
X033210Y053946D01*
X033572Y054012D01*
X033574Y054002D01*
G37*
G36*
X032305Y053766D02*
X031943Y053700D01*
X031941Y053710D01*
X032303Y053776D01*
X032305Y053766D01*
G37*
G36*
X032303Y053776D02*
X031941Y053710D01*
X031939Y053720D01*
X032301Y053786D01*
X032303Y053776D01*
G37*
G36*
X032302Y053786D02*
X031940Y053720D01*
X031938Y053730D01*
X032300Y053796D01*
X032302Y053786D01*
G37*
G36*
X032300Y053796D02*
X031938Y053730D01*
X031936Y053740D01*
X032298Y053806D01*
X032300Y053796D01*
G37*
G36*
X032298Y053806D02*
X031936Y053740D01*
X031934Y053750D01*
X032296Y053816D01*
X032298Y053806D01*
G37*
G36*
X032296Y053816D02*
X031934Y053750D01*
X031932Y053760D01*
X032294Y053826D01*
X032296Y053816D01*
G37*
G36*
X032294Y053825D02*
X031932Y053759D01*
X031930Y053769D01*
X032292Y053835D01*
X032294Y053825D01*
G37*
G36*
X032292Y053835D02*
X031930Y053769D01*
X031928Y053779D01*
X032290Y053845D01*
X032292Y053835D01*
G37*
G36*
X032291Y053845D02*
X031929Y053779D01*
X031927Y053789D01*
X032289Y053855D01*
X032291Y053845D01*
G37*
G36*
X032289Y053855D02*
X031927Y053789D01*
X031925Y053799D01*
X032287Y053865D01*
X032289Y053855D01*
G37*
G36*
X032287Y053865D02*
X031925Y053799D01*
X031923Y053809D01*
X032285Y053875D01*
X032287Y053865D01*
G37*
G36*
X032285Y053875D02*
X031923Y053809D01*
X031921Y053819D01*
X032283Y053885D01*
X032285Y053875D01*
G37*
G36*
X032283Y053884D02*
X031921Y053818D01*
X031919Y053828D01*
X032281Y053894D01*
X032283Y053884D01*
G37*
G36*
X032282Y053894D02*
X031920Y053828D01*
X031918Y053838D01*
X032280Y053904D01*
X032282Y053894D01*
G37*
G36*
X032280Y053904D02*
X031918Y053838D01*
X031916Y053848D01*
X032278Y053914D01*
X032280Y053904D01*
G37*
G36*
X032278Y053914D02*
X031916Y053848D01*
X031914Y053858D01*
X032276Y053924D01*
X032278Y053914D01*
G37*
G36*
X032276Y053924D02*
X031914Y053858D01*
X031912Y053868D01*
X032274Y053934D01*
X032276Y053924D01*
G37*
D23*
G36*
X033179Y054101D02*
X032275Y053935D01*
X032273Y053945D01*
X033177Y054111D01*
X033179Y054101D01*
G37*
G36*
X033178Y054111D02*
X032274Y053945D01*
X032272Y053955D01*
X033176Y054121D01*
X033178Y054111D01*
G37*
G36*
X033176Y054121D02*
X032272Y053955D01*
X032270Y053965D01*
X033174Y054131D01*
X033176Y054121D01*
G37*
G36*
X033174Y054131D02*
X032270Y053965D01*
X032268Y053975D01*
X033172Y054141D01*
X033174Y054131D01*
G37*
G36*
X033172Y054140D02*
X032268Y053974D01*
X032266Y053984D01*
X033170Y054150D01*
X033172Y054140D01*
G37*
G36*
X033170Y054150D02*
X032266Y053984D01*
X032264Y053994D01*
X033168Y054160D01*
X033170Y054150D01*
G37*
G36*
X033169Y054160D02*
X032265Y053994D01*
X032263Y054004D01*
X033167Y054170D01*
X033169Y054160D01*
G37*
G36*
X033167Y054170D02*
X032263Y054004D01*
X032261Y054014D01*
X033165Y054180D01*
X033167Y054170D01*
G37*
G36*
X033165Y054180D02*
X032261Y054014D01*
X032259Y054024D01*
X033163Y054190D01*
X033165Y054180D01*
G37*
G36*
X033163Y054190D02*
X032259Y054024D01*
X032257Y054034D01*
X033161Y054200D01*
X033163Y054190D01*
G37*
G36*
X033161Y054199D02*
X032257Y054033D01*
X032255Y054043D01*
X033159Y054209D01*
X033161Y054199D01*
G37*
G36*
X033159Y054209D02*
X032255Y054043D01*
X032253Y054053D01*
X033157Y054219D01*
X033159Y054209D01*
G37*
G36*
X033158Y054219D02*
X032254Y054053D01*
X032252Y054063D01*
X033156Y054229D01*
X033158Y054219D01*
G37*
G36*
X033156Y054229D02*
X032252Y054063D01*
X032250Y054073D01*
X033154Y054239D01*
X033156Y054229D01*
G37*
G36*
X033154Y054239D02*
X032250Y054073D01*
X032248Y054083D01*
X033152Y054249D01*
X033154Y054239D01*
G37*
G36*
X033152Y054249D02*
X032248Y054083D01*
X032246Y054093D01*
X033150Y054259D01*
X033152Y054249D01*
G37*
G36*
X033150Y054258D02*
X032246Y054092D01*
X032244Y054102D01*
X033148Y054268D01*
X033150Y054258D01*
G37*
G36*
X033148Y054268D02*
X032244Y054102D01*
X032242Y054112D01*
X033146Y054278D01*
X033148Y054268D01*
G37*
G36*
X033147Y054278D02*
X032243Y054112D01*
X032241Y054122D01*
X033145Y054288D01*
X033147Y054278D01*
G37*
G36*
X033145Y054288D02*
X032241Y054122D01*
X032239Y054132D01*
X033143Y054298D01*
X033145Y054288D01*
G37*
G36*
X033143Y054298D02*
X032239Y054132D01*
X032237Y054142D01*
X033141Y054308D01*
X033143Y054298D01*
G37*
D24*
G36*
X032945Y054434D02*
X032375Y054330D01*
X032373Y054340D01*
X032943Y054444D01*
X032945Y054434D01*
G37*
G36*
X032943Y054444D02*
X032373Y054340D01*
X032371Y054350D01*
X032941Y054454D01*
X032943Y054444D01*
G37*
G36*
X032941Y054454D02*
X032371Y054350D01*
X032369Y054360D01*
X032939Y054464D01*
X032941Y054454D01*
G37*
G36*
X032940Y054463D02*
X032370Y054359D01*
X032368Y054369D01*
X032938Y054473D01*
X032940Y054463D01*
G37*
G36*
X032938Y054473D02*
X032368Y054369D01*
X032366Y054379D01*
X032936Y054483D01*
X032938Y054473D01*
G37*
G36*
X032936Y054483D02*
X032366Y054379D01*
X032364Y054389D01*
X032934Y054493D01*
X032936Y054483D01*
G37*
G36*
X032934Y054493D02*
X032364Y054389D01*
X032362Y054399D01*
X032932Y054503D01*
X032934Y054493D01*
G37*
G36*
X032932Y054503D02*
X032362Y054399D01*
X032360Y054409D01*
X032930Y054513D01*
X032932Y054503D01*
G37*
G36*
X032930Y054513D02*
X032360Y054409D01*
X032358Y054419D01*
X032928Y054523D01*
X032930Y054513D01*
G37*
G36*
X032929Y054522D02*
X032359Y054418D01*
X032357Y054428D01*
X032927Y054532D01*
X032929Y054522D01*
G37*
G36*
X032927Y054532D02*
X032357Y054428D01*
X032355Y054438D01*
X032925Y054542D01*
X032927Y054532D01*
G37*
G36*
X032925Y054542D02*
X032355Y054438D01*
X032353Y054448D01*
X032923Y054552D01*
X032925Y054542D01*
G37*
G36*
X032923Y054552D02*
X032353Y054448D01*
X032351Y054458D01*
X032921Y054562D01*
X032923Y054552D01*
G37*
G36*
X032921Y054562D02*
X032351Y054458D01*
X032349Y054468D01*
X032919Y054572D01*
X032921Y054562D01*
G37*
G36*
X032920Y054572D02*
X032350Y054468D01*
X032348Y054478D01*
X032918Y054582D01*
X032920Y054572D01*
G37*
G36*
X032918Y054581D02*
X032348Y054477D01*
X032346Y054487D01*
X032916Y054591D01*
X032918Y054581D01*
G37*
G36*
X032916Y054591D02*
X032346Y054487D01*
X032344Y054497D01*
X032914Y054601D01*
X032916Y054591D01*
G37*
D25*
G36*
X036565Y055258D02*
X036193Y055190D01*
X036191Y055200D01*
X036563Y055268D01*
X036565Y055258D01*
G37*
G36*
X036567Y055248D02*
X036195Y055180D01*
X036193Y055190D01*
X036565Y055258D01*
X036567Y055248D01*
G37*
G36*
X036569Y055238D02*
X036197Y055170D01*
X036195Y055180D01*
X036567Y055248D01*
X036569Y055238D01*
G37*
G36*
X036570Y055228D02*
X036198Y055160D01*
X036196Y055170D01*
X036568Y055238D01*
X036570Y055228D01*
G37*
G36*
X036572Y055218D02*
X036200Y055150D01*
X036198Y055160D01*
X036570Y055228D01*
X036572Y055218D01*
G37*
G36*
X036574Y055209D02*
X036202Y055141D01*
X036200Y055151D01*
X036572Y055219D01*
X036574Y055209D01*
G37*
G36*
X036576Y055199D02*
X036204Y055131D01*
X036202Y055141D01*
X036574Y055209D01*
X036576Y055199D01*
G37*
G36*
X036578Y055189D02*
X036206Y055121D01*
X036204Y055131D01*
X036576Y055199D01*
X036578Y055189D01*
G37*
G36*
X036579Y055179D02*
X036207Y055111D01*
X036205Y055121D01*
X036577Y055189D01*
X036579Y055179D01*
G37*
G36*
X036581Y055169D02*
X036209Y055101D01*
X036207Y055111D01*
X036579Y055179D01*
X036581Y055169D01*
G37*
G36*
X036583Y055159D02*
X036211Y055091D01*
X036209Y055101D01*
X036581Y055169D01*
X036583Y055159D01*
G37*
G36*
X036585Y055150D02*
X036213Y055082D01*
X036211Y055092D01*
X036583Y055160D01*
X036585Y055150D01*
G37*
G36*
X036587Y055140D02*
X036215Y055072D01*
X036213Y055082D01*
X036585Y055150D01*
X036587Y055140D01*
G37*
G36*
X036589Y055130D02*
X036217Y055062D01*
X036215Y055072D01*
X036587Y055140D01*
X036589Y055130D01*
G37*
G36*
X036590Y055120D02*
X036218Y055052D01*
X036216Y055062D01*
X036588Y055130D01*
X036590Y055120D01*
G37*
G36*
X036592Y055110D02*
X036220Y055042D01*
X036218Y055052D01*
X036590Y055120D01*
X036592Y055110D01*
G37*
G36*
X036563Y055268D02*
X036191Y055200D01*
X036189Y055210D01*
X036561Y055278D01*
X036563Y055268D01*
G37*
D26*
G36*
X035254Y055036D02*
X034714Y054936D01*
X034712Y054946D01*
X035252Y055046D01*
X035254Y055036D01*
G37*
G36*
X035252Y055045D02*
X034712Y054945D01*
X034710Y054955D01*
X035250Y055055D01*
X035252Y055045D01*
G37*
G36*
X035250Y055055D02*
X034710Y054955D01*
X034708Y054965D01*
X035248Y055065D01*
X035250Y055055D01*
G37*
G36*
X035248Y055065D02*
X034708Y054965D01*
X034706Y054975D01*
X035246Y055075D01*
X035248Y055065D01*
G37*
D27*
G36*
X036519Y055290D02*
X036185Y055229D01*
X036183Y055238D01*
X036517Y055299D01*
X036519Y055290D01*
G37*
G36*
X036521Y055281D02*
X036187Y055220D01*
X036185Y055229D01*
X036519Y055290D01*
X036521Y055281D01*
G37*
G36*
X036523Y055271D02*
X036189Y055210D01*
X036187Y055219D01*
X036521Y055280D01*
X036523Y055271D01*
G37*
G36*
X036517Y055300D02*
X036183Y055239D01*
X036181Y055248D01*
X036515Y055309D01*
X036517Y055300D01*
G37*
D28*
X031185Y013625D03*
X031175Y013615D03*
X031185Y013605D03*
X031175Y013595D03*
X031175Y013575D03*
X031185Y013565D03*
X031175Y013555D03*
X031185Y013545D03*
X031175Y013535D03*
X031185Y013525D03*
X031175Y013475D03*
X031185Y013465D03*
X031175Y013455D03*
X031185Y013445D03*
X031175Y013435D03*
X031175Y013415D03*
X031185Y013405D03*
X031175Y013395D03*
X031185Y013385D03*
X031175Y013375D03*
X031185Y013365D03*
X031175Y013355D03*
X030935Y013375D03*
X030925Y013385D03*
X030935Y013395D03*
X030925Y013405D03*
X030935Y013415D03*
X030925Y013425D03*
X030925Y013445D03*
X030935Y013455D03*
X030925Y013465D03*
X030935Y013475D03*
X030925Y013525D03*
X030935Y013535D03*
X030925Y013545D03*
X030935Y013555D03*
X030925Y013565D03*
X030935Y013575D03*
X030925Y013585D03*
X030925Y013605D03*
X030935Y013615D03*
X030925Y013625D03*
X030705Y013625D03*
X030695Y013635D03*
X030705Y013645D03*
X030695Y013655D03*
X030695Y013615D03*
X030705Y013605D03*
X030695Y013595D03*
X030695Y013575D03*
X030705Y013565D03*
X030695Y013555D03*
X030705Y013545D03*
X030695Y013535D03*
X030705Y013525D03*
X030695Y013515D03*
X030695Y013495D03*
X030705Y013485D03*
X030695Y013475D03*
X030705Y013465D03*
X030695Y013455D03*
X030705Y013445D03*
X030695Y013435D03*
X030695Y013415D03*
X030705Y013405D03*
X030695Y013395D03*
X030705Y013385D03*
X030695Y013375D03*
X030705Y013365D03*
X030695Y013355D03*
X030925Y013365D03*
X030615Y013015D03*
X030615Y012995D03*
X030615Y012975D03*
X030615Y012955D03*
X030615Y012935D03*
X030605Y012885D03*
X030615Y012875D03*
X030605Y012795D03*
X030605Y012785D03*
X030605Y012775D03*
X030605Y012765D03*
X030615Y012755D03*
X030725Y012745D03*
X030735Y012755D03*
X030735Y012775D03*
X030745Y012785D03*
X030745Y012795D03*
X030745Y012805D03*
X030745Y012825D03*
X030745Y012845D03*
X030745Y012865D03*
X030735Y012875D03*
X030445Y012885D03*
X030435Y012895D03*
X030435Y012915D03*
X030435Y012935D03*
X030445Y012945D03*
X030435Y012955D03*
X030445Y012965D03*
X030435Y012975D03*
X030435Y012995D03*
X030435Y013015D03*
X030435Y012875D03*
X030445Y012865D03*
X030435Y012855D03*
X030435Y012835D03*
X030435Y012815D03*
X030445Y012805D03*
X030435Y012795D03*
X030445Y012785D03*
X030435Y012775D03*
X030435Y012755D03*
X030435Y012735D03*
X030445Y012725D03*
X030435Y012715D03*
X030245Y012765D03*
X030235Y012755D03*
X030225Y012745D03*
X030245Y012785D03*
X030255Y012795D03*
X030255Y012815D03*
X030255Y012825D03*
X030255Y012835D03*
X030255Y012845D03*
X030255Y012855D03*
X030255Y012875D03*
X030255Y012895D03*
X030255Y012905D03*
X030255Y012915D03*
X030255Y012925D03*
X030255Y012935D03*
X030255Y012955D03*
X030255Y012975D03*
X030245Y012985D03*
X030255Y012995D03*
X030245Y013005D03*
X030235Y013015D03*
X030185Y013065D03*
X030125Y013025D03*
X030125Y013005D03*
X030115Y012995D03*
X030115Y012975D03*
X030105Y012965D03*
X030115Y012955D03*
X030105Y012945D03*
X030115Y012935D03*
X030105Y012925D03*
X030105Y012905D03*
X030105Y012885D03*
X030115Y012875D03*
X030105Y012865D03*
X030115Y012855D03*
X030105Y012845D03*
X030105Y012825D03*
X030115Y012815D03*
X030105Y012805D03*
X030115Y012795D03*
X030115Y012775D03*
X030125Y012765D03*
X030185Y012705D03*
X029985Y012885D03*
X029985Y012895D03*
X029985Y012905D03*
X029995Y012915D03*
X030005Y012925D03*
X030005Y012935D03*
X030005Y012945D03*
X030005Y012965D03*
X030015Y012975D03*
X030005Y012985D03*
X030005Y013005D03*
X029995Y013015D03*
X029945Y013065D03*
X029885Y013025D03*
X029875Y013015D03*
X029865Y013005D03*
X029865Y012985D03*
X029865Y012975D03*
X029865Y012965D03*
X029755Y012965D03*
X029755Y012975D03*
X029755Y012995D03*
X029745Y013005D03*
X029755Y012955D03*
X029755Y012945D03*
X029755Y012935D03*
X029745Y012925D03*
X029735Y012855D03*
X029745Y012845D03*
X029755Y012815D03*
X029755Y012805D03*
X029755Y012795D03*
X029755Y012785D03*
X029755Y012775D03*
X029755Y012755D03*
X029755Y012735D03*
X029765Y012725D03*
X029885Y012765D03*
X029895Y012775D03*
X029905Y012785D03*
X029915Y012795D03*
X029935Y012825D03*
X029945Y012845D03*
X029955Y012855D03*
X029965Y012865D03*
X029975Y012875D03*
X029595Y012855D03*
X029585Y012845D03*
X029585Y012825D03*
X029585Y012805D03*
X029595Y012795D03*
X029585Y012785D03*
X029595Y012775D03*
X029585Y012765D03*
X029585Y012745D03*
X029585Y012725D03*
X029595Y012715D03*
X029505Y012715D03*
X029505Y012725D03*
X029495Y012735D03*
X029495Y012755D03*
X029485Y012765D03*
X029485Y012785D03*
X029465Y012845D03*
X029465Y012855D03*
X029465Y012865D03*
X029455Y012875D03*
X029455Y012895D03*
X029445Y012925D03*
X029435Y012955D03*
X029435Y012975D03*
X029425Y012985D03*
X029365Y012965D03*
X029365Y012955D03*
X029365Y012945D03*
X029355Y012935D03*
X029355Y012915D03*
X029345Y012905D03*
X029345Y012895D03*
X029345Y012885D03*
X029335Y012875D03*
X029335Y012855D03*
X029315Y012795D03*
X029315Y012775D03*
X029305Y012765D03*
X029305Y012755D03*
X029305Y012745D03*
X029295Y012735D03*
X029295Y012715D03*
X029195Y012715D03*
X029195Y012725D03*
X029195Y012735D03*
X029195Y012755D03*
X029195Y012775D03*
X029195Y012785D03*
X029195Y012795D03*
X029195Y012805D03*
X029195Y012815D03*
X029195Y012835D03*
X029195Y012855D03*
X029195Y012865D03*
X029195Y012875D03*
X029195Y012885D03*
X029195Y012895D03*
X029195Y012915D03*
X029195Y012935D03*
X029195Y012955D03*
X029145Y012965D03*
X029135Y012935D03*
X029015Y012895D03*
X029035Y012835D03*
X029095Y012795D03*
X029065Y012745D03*
X029075Y012735D03*
X028955Y012715D03*
X028945Y012725D03*
X028945Y012745D03*
X028945Y012765D03*
X028955Y012775D03*
X028945Y012785D03*
X028955Y012795D03*
X028945Y012805D03*
X028945Y012825D03*
X028945Y012845D03*
X028955Y012855D03*
X028945Y012865D03*
X028945Y012885D03*
X028945Y012905D03*
X028945Y012915D03*
X028945Y012925D03*
X028945Y012945D03*
X028945Y012965D03*
X028945Y012985D03*
X029185Y013065D03*
X029405Y013065D03*
X029585Y013025D03*
X029595Y013015D03*
X029585Y013005D03*
X029585Y012985D03*
X029585Y012965D03*
X029595Y012955D03*
X029585Y012945D03*
X029595Y012935D03*
X029585Y012925D03*
X029585Y012905D03*
X029575Y013375D03*
X029565Y013385D03*
X029565Y013395D03*
X029565Y013405D03*
X029585Y013545D03*
X029575Y013555D03*
X029575Y013565D03*
X029575Y013575D03*
X029575Y013595D03*
X029585Y013605D03*
X029725Y013605D03*
X029735Y013595D03*
X029735Y013575D03*
X029745Y013565D03*
X029835Y013575D03*
X029845Y013585D03*
X029835Y013595D03*
X029845Y013605D03*
X029835Y013615D03*
X029835Y013635D03*
X029835Y013655D03*
X029845Y013665D03*
X029835Y013555D03*
X029835Y013535D03*
X029845Y013525D03*
X029835Y013515D03*
X029845Y013505D03*
X029835Y013495D03*
X029835Y013475D03*
X029835Y013455D03*
X029845Y013445D03*
X029835Y013435D03*
X029845Y013425D03*
X029835Y013415D03*
X029835Y013395D03*
X029835Y013375D03*
X029845Y013365D03*
X029835Y013355D03*
X029745Y013385D03*
X029735Y013375D03*
X029735Y013365D03*
X029745Y013405D03*
X029735Y013415D03*
X029735Y013435D03*
X029725Y013445D03*
X030065Y013445D03*
X030075Y013435D03*
X030065Y013425D03*
X030075Y013415D03*
X030065Y013405D03*
X030065Y013385D03*
X030065Y013365D03*
X030075Y013355D03*
X030065Y013465D03*
X030065Y013525D03*
X030065Y013545D03*
X030065Y013565D03*
X030075Y013575D03*
X030065Y013585D03*
X030075Y013595D03*
X030065Y013605D03*
X030065Y013625D03*
X030295Y013655D03*
X030295Y013665D03*
X030305Y013645D03*
X030305Y013625D03*
X030315Y013615D03*
X030325Y013605D03*
X030325Y013585D03*
X030335Y013575D03*
X030345Y013565D03*
X030345Y013545D03*
X030355Y013535D03*
X030355Y013525D03*
X030355Y013515D03*
X030365Y013505D03*
X030425Y013505D03*
X030435Y013515D03*
X030435Y013535D03*
X030445Y013545D03*
X030445Y013565D03*
X030455Y013575D03*
X030465Y013605D03*
X030475Y013615D03*
X030475Y013625D03*
X030475Y013635D03*
X030485Y013645D03*
X030485Y013665D03*
X030395Y013445D03*
X030395Y013435D03*
X030395Y013425D03*
X030395Y013415D03*
X030395Y013395D03*
X030395Y013375D03*
X030395Y013365D03*
X030395Y013355D03*
X030395Y013345D03*
X030395Y013335D03*
X030395Y013315D03*
X029335Y013375D03*
X029325Y013385D03*
X029335Y013395D03*
X029325Y013405D03*
X029335Y013415D03*
X029325Y013425D03*
X029325Y013445D03*
X029335Y013455D03*
X029325Y013465D03*
X029335Y013475D03*
X029325Y013525D03*
X029335Y013535D03*
X029325Y013545D03*
X029335Y013555D03*
X029325Y013565D03*
X029335Y013575D03*
X029325Y013585D03*
X029325Y013605D03*
X029335Y013615D03*
X029325Y013625D03*
X029235Y013655D03*
X029225Y013645D03*
X029225Y013625D03*
X029225Y013615D03*
X029225Y013605D03*
X029215Y013595D03*
X029215Y013575D03*
X029215Y013555D03*
X029205Y013545D03*
X029205Y013525D03*
X029205Y013515D03*
X029205Y013505D03*
X029195Y013495D03*
X029195Y013475D03*
X029195Y013455D03*
X029185Y013425D03*
X029135Y013435D03*
X029125Y013465D03*
X029115Y013495D03*
X029115Y013515D03*
X029105Y013545D03*
X029045Y013525D03*
X029045Y013515D03*
X029035Y013475D03*
X029035Y013455D03*
X029025Y013445D03*
X028965Y013445D03*
X028965Y013465D03*
X028955Y013475D03*
X028955Y013495D03*
X028955Y013515D03*
X028955Y013535D03*
X028945Y013545D03*
X028945Y013555D03*
X028945Y013565D03*
X028935Y013595D03*
X028935Y013615D03*
X028935Y013635D03*
X028925Y013645D03*
X028925Y013665D03*
X029075Y013655D03*
X029085Y013645D03*
X029075Y013635D03*
X029165Y013345D03*
X029165Y013325D03*
X029155Y013315D03*
X028995Y013315D03*
X028995Y013325D03*
X028995Y013335D03*
X029325Y013365D03*
D29*
X029330Y013355D03*
X029330Y013435D03*
X029330Y013595D03*
X029230Y013635D03*
X029080Y013625D03*
X029080Y013615D03*
X028930Y013655D03*
X029160Y013365D03*
X029160Y013335D03*
X029400Y013055D03*
X029400Y013045D03*
X029590Y012995D03*
X029590Y012975D03*
X029590Y012915D03*
X029590Y012835D03*
X029590Y012815D03*
X029590Y012755D03*
X029590Y012735D03*
X029490Y012775D03*
X029480Y012795D03*
X029750Y012835D03*
X029730Y012905D03*
X029740Y012915D03*
X029740Y013015D03*
X029870Y012995D03*
X029990Y013025D03*
X030010Y012995D03*
X030010Y012955D03*
X030110Y012915D03*
X030110Y012895D03*
X030110Y012835D03*
X030250Y012775D03*
X030230Y013025D03*
X030130Y013015D03*
X029940Y012835D03*
X029920Y012805D03*
X029880Y012755D03*
X029770Y012715D03*
X029720Y013345D03*
X029730Y013355D03*
X029740Y013395D03*
X029570Y013365D03*
X030070Y013375D03*
X030070Y013395D03*
X030070Y013455D03*
X030070Y013475D03*
X030070Y013535D03*
X030070Y013555D03*
X030070Y013615D03*
X030310Y013635D03*
X030330Y013595D03*
X030340Y013555D03*
X030440Y013555D03*
X030460Y013595D03*
X030490Y013655D03*
X030390Y013455D03*
X030930Y013435D03*
X030930Y013355D03*
X030930Y013595D03*
X030730Y012885D03*
X030740Y012855D03*
X030750Y012835D03*
X030750Y012815D03*
X030740Y012765D03*
X030680Y012705D03*
X030620Y012745D03*
X029070Y012755D03*
X028950Y012755D03*
X028950Y012735D03*
X028950Y012815D03*
X028950Y012835D03*
X028950Y012895D03*
D30*
X028950Y012875D03*
X028950Y012935D03*
X028950Y012955D03*
X029000Y012955D03*
X029000Y012945D03*
X029010Y012925D03*
X029010Y012915D03*
X029020Y012885D03*
X029040Y012815D03*
X029040Y012805D03*
X029100Y012815D03*
X029100Y012825D03*
X029110Y012845D03*
X029110Y012855D03*
X029120Y012875D03*
X029120Y012885D03*
X029130Y012905D03*
X029130Y012915D03*
X029140Y012955D03*
X029200Y012965D03*
X029200Y012945D03*
X029190Y012845D03*
X029190Y012825D03*
X029190Y012765D03*
X029190Y012745D03*
X029300Y012725D03*
X029310Y012785D03*
X029330Y012845D03*
X029340Y012865D03*
X029370Y012975D03*
X029370Y012985D03*
X029430Y012965D03*
X029440Y012945D03*
X029440Y012935D03*
X029450Y012915D03*
X029450Y012905D03*
X029460Y012885D03*
X029500Y012745D03*
X029760Y012745D03*
X029760Y012765D03*
X029750Y012825D03*
X029750Y012985D03*
X030110Y012985D03*
X030250Y012965D03*
X030260Y012945D03*
X030260Y012885D03*
X030260Y012865D03*
X030250Y012805D03*
X030110Y012785D03*
X030440Y012765D03*
X030440Y012745D03*
X030440Y012825D03*
X030440Y012845D03*
X030440Y012905D03*
X030440Y012925D03*
X030440Y012985D03*
X030440Y013005D03*
X030620Y013005D03*
X030620Y013025D03*
X030620Y012985D03*
X030610Y012925D03*
X030390Y013325D03*
X030390Y013385D03*
X030390Y013405D03*
X030430Y013525D03*
X030460Y013585D03*
X030700Y013585D03*
X030700Y013665D03*
X030700Y013505D03*
X030700Y013425D03*
X031180Y013425D03*
X031180Y013585D03*
X029840Y013565D03*
X029840Y013545D03*
X029840Y013485D03*
X029840Y013465D03*
X029840Y013405D03*
X029840Y013385D03*
X029740Y013425D03*
X029740Y013585D03*
X029840Y013625D03*
X029840Y013645D03*
X029570Y013585D03*
X029230Y013665D03*
X029220Y013585D03*
X029210Y013565D03*
X029210Y013535D03*
X029200Y013485D03*
X029190Y013445D03*
X029190Y013435D03*
X029130Y013445D03*
X029130Y013455D03*
X029120Y013475D03*
X029120Y013485D03*
X029110Y013525D03*
X029110Y013535D03*
X029050Y013535D03*
X029050Y013545D03*
X029040Y013505D03*
X029040Y013495D03*
X029020Y013425D03*
X028970Y013425D03*
X028970Y013455D03*
X028960Y013485D03*
X028960Y013505D03*
X028950Y013525D03*
X028940Y013575D03*
X028940Y013585D03*
X028940Y013605D03*
X028930Y013625D03*
X029080Y013665D03*
X029070Y012725D03*
X029070Y012715D03*
D31*
X029395Y012825D03*
X029405Y012835D03*
X029655Y012865D03*
X029655Y012895D03*
X029665Y013035D03*
X029655Y013045D03*
X029905Y013315D03*
X029905Y013335D03*
X030145Y013335D03*
X030135Y013485D03*
X030135Y013505D03*
X030145Y013655D03*
X030765Y013335D03*
X030765Y013315D03*
X030995Y013485D03*
X030995Y013505D03*
X031005Y013635D03*
X031005Y013655D03*
X031255Y013665D03*
X031255Y013645D03*
X031245Y013515D03*
X031245Y013495D03*
X031255Y013345D03*
X031255Y013325D03*
X029945Y012735D03*
X029945Y012715D03*
X029395Y013485D03*
X029395Y013505D03*
X029405Y013635D03*
X029405Y013655D03*
D32*
X029645Y013495D03*
X029655Y013485D03*
X029685Y013475D03*
X029945Y013055D03*
X030185Y013055D03*
X030405Y013035D03*
X030185Y012715D03*
D33*
X030185Y012735D03*
X030185Y013035D03*
X030665Y012915D03*
X030675Y012735D03*
X029635Y013065D03*
X029655Y013325D03*
X029655Y013645D03*
D34*
X029655Y013665D03*
X029715Y013625D03*
X029725Y013615D03*
X029595Y013625D03*
X029585Y013615D03*
X029585Y013535D03*
X029595Y013525D03*
X029605Y013515D03*
X029695Y013465D03*
X029585Y013355D03*
X029595Y013345D03*
X029655Y013305D03*
X029735Y013025D03*
X029925Y012815D03*
X030125Y012755D03*
X030135Y012745D03*
X030425Y013055D03*
X030625Y012895D03*
X030685Y012935D03*
X030725Y012895D03*
X030395Y013465D03*
X029405Y013035D03*
X029395Y013025D03*
X029185Y013045D03*
X029185Y013055D03*
X029175Y013005D03*
X028965Y013015D03*
X028955Y013025D03*
X028965Y013035D03*
X028955Y013045D03*
X028955Y013055D03*
X028955Y013065D03*
X028995Y013345D03*
X028995Y013355D03*
X028995Y013365D03*
X028995Y013385D03*
X029165Y013375D03*
X029165Y013355D03*
X029075Y013585D03*
X029075Y013605D03*
X029075Y012765D03*
D35*
X029070Y012775D03*
X029180Y013015D03*
X029180Y013025D03*
X029180Y013035D03*
X029400Y013015D03*
X029160Y013385D03*
X029160Y013395D03*
X029000Y013405D03*
X029000Y013375D03*
X029080Y013595D03*
X029710Y013455D03*
D36*
X029195Y013465D03*
X029135Y013425D03*
X029115Y013505D03*
X029035Y013485D03*
X029035Y013465D03*
X028995Y012985D03*
X028995Y012965D03*
X029005Y012935D03*
X029015Y012905D03*
X029025Y012875D03*
X029025Y012865D03*
X029025Y012855D03*
X029035Y012845D03*
X029035Y012825D03*
X029045Y012795D03*
X029055Y012785D03*
X029095Y012785D03*
X029095Y012805D03*
X029105Y012835D03*
X029115Y012865D03*
X029125Y012895D03*
X029135Y012925D03*
X029135Y012945D03*
X029155Y012985D03*
X029195Y012985D03*
X029195Y012925D03*
X029195Y012905D03*
X029355Y012925D03*
X030365Y013015D03*
X030615Y012965D03*
X030615Y012945D03*
D37*
X030625Y012865D03*
X030625Y012805D03*
X030605Y012805D03*
X030395Y013015D03*
X030375Y013055D03*
X030425Y013065D03*
X029905Y013065D03*
D38*
X029405Y013005D03*
X029175Y012995D03*
X029175Y012975D03*
X028965Y012995D03*
X028965Y013005D03*
X028995Y013395D03*
X028995Y013415D03*
X029155Y013415D03*
X029165Y013405D03*
X029075Y013555D03*
X029085Y013565D03*
X029075Y013575D03*
X029625Y013505D03*
X030395Y013495D03*
X030395Y013485D03*
X030395Y013475D03*
X030685Y012925D03*
D39*
X029400Y012995D03*
X028970Y012975D03*
X029000Y013435D03*
D40*
X029390Y013515D03*
X029650Y013055D03*
X029910Y013325D03*
X029910Y013345D03*
X030140Y013515D03*
X030770Y013345D03*
X030770Y013325D03*
X030990Y013515D03*
D41*
X030450Y013065D03*
D42*
X031010Y013315D03*
X031010Y013335D03*
X030140Y013635D03*
X030140Y013665D03*
X029410Y013335D03*
X029410Y013315D03*
D43*
X024365Y011550D03*
X024365Y010250D03*
X022435Y010250D03*
X022435Y011550D03*
X024185Y022875D03*
X024185Y024175D03*
X026115Y024175D03*
X026115Y022875D03*
X037935Y022500D03*
X037935Y023800D03*
X039865Y023800D03*
X039865Y022500D03*
X051810Y022125D03*
X051810Y023425D03*
X053740Y023425D03*
X053740Y022125D03*
X054365Y008425D03*
X054365Y007125D03*
X052435Y007125D03*
X052435Y008425D03*
X039240Y008750D03*
X039240Y010050D03*
X037310Y010050D03*
X037310Y008750D03*
X012240Y023250D03*
X012240Y024550D03*
X010310Y024550D03*
X010310Y023250D03*
X009365Y013300D03*
X009365Y012000D03*
X007435Y012000D03*
X007435Y013300D03*
X013310Y034500D03*
X013310Y035800D03*
X015240Y035800D03*
X015240Y034500D03*
X025935Y035375D03*
X025935Y036675D03*
X027865Y036675D03*
X027865Y035375D03*
X038560Y036375D03*
X038560Y037675D03*
X040490Y037675D03*
X040490Y036375D03*
X051310Y037250D03*
X051310Y038550D03*
X053240Y038550D03*
X053240Y037250D03*
X041115Y050250D03*
X041115Y051550D03*
X039185Y051550D03*
X039185Y050250D03*
X029615Y049300D03*
X029615Y048000D03*
X027685Y048000D03*
X027685Y049300D03*
X018240Y047300D03*
X018240Y046000D03*
X016310Y046000D03*
X016310Y047300D03*
X050685Y052375D03*
X050685Y053675D03*
X052615Y053675D03*
X052615Y052375D03*
D44*
X052044Y054650D03*
X051256Y054650D03*
X040544Y052650D03*
X039756Y052650D03*
X029044Y050400D03*
X028256Y050400D03*
X017669Y048400D03*
X016881Y048400D03*
X026506Y037900D03*
X027294Y037900D03*
X039131Y038900D03*
X039919Y038900D03*
X051881Y040025D03*
X052669Y040025D03*
X039294Y025025D03*
X038506Y025025D03*
X025544Y025400D03*
X024756Y025400D03*
X014669Y037025D03*
X013881Y037025D03*
X011669Y025775D03*
X010881Y025775D03*
X008794Y014650D03*
X008006Y014650D03*
X023756Y012650D03*
X024544Y012650D03*
X037881Y011025D03*
X038669Y011025D03*
X052381Y024650D03*
X053169Y024650D03*
X053006Y009525D03*
X053794Y009525D03*
D45*
X055150Y011650D03*
X055150Y013150D03*
X055150Y014650D03*
X008150Y017150D03*
X008150Y019150D03*
X008150Y021150D03*
D46*
X030025Y009485D03*
X030025Y008815D03*
D47*
X031849Y009650D03*
X032951Y009650D03*
D48*
X027650Y009974D03*
X027650Y011076D03*
D49*
X027650Y011275D03*
X028025Y011275D03*
X027275Y011275D03*
X026150Y011150D03*
X027275Y009775D03*
X027650Y009775D03*
X028025Y009775D03*
X028025Y008900D03*
X027650Y008900D03*
X027650Y008525D03*
X028025Y008525D03*
X027275Y008525D03*
X027275Y008900D03*
X029900Y008650D03*
X029900Y009662D03*
X031275Y009650D03*
X031275Y010025D03*
X031650Y010025D03*
X031650Y009650D03*
X031650Y009275D03*
X031275Y009275D03*
X029900Y006650D03*
X023150Y009650D03*
X022775Y009650D03*
X021800Y011550D03*
X023025Y012025D03*
X023025Y012400D03*
X015775Y010275D03*
X015525Y009525D03*
X014650Y009650D03*
X010150Y012650D03*
X008150Y011400D03*
X007775Y011400D03*
X007900Y014025D03*
X007525Y014025D03*
X007900Y018275D03*
X009900Y018275D03*
X010900Y020900D03*
X010900Y022525D03*
X010525Y022525D03*
X009025Y022650D03*
X009525Y025275D03*
X010775Y025275D03*
X010775Y024900D03*
X013025Y023900D03*
X008150Y028650D03*
X010400Y030400D03*
X011025Y030275D03*
X013650Y033775D03*
X014025Y033775D03*
X016025Y035150D03*
X013900Y036400D03*
X013900Y036775D03*
X011900Y036775D03*
X010150Y035650D03*
X012025Y042400D03*
X013150Y042775D03*
X014775Y043525D03*
X016525Y045275D03*
X016900Y045275D03*
X018900Y046775D03*
X019400Y046525D03*
X016900Y048025D03*
X016525Y048025D03*
X015150Y047150D03*
X019400Y051150D03*
X022400Y048400D03*
X023025Y048900D03*
X026650Y048525D03*
X027900Y047275D03*
X028275Y047275D03*
X030250Y048750D03*
X028275Y049900D03*
X027900Y049900D03*
X028900Y053150D03*
X034150Y049900D03*
X034900Y050525D03*
X038275Y050275D03*
X039400Y049525D03*
X039775Y049525D03*
X041500Y050875D03*
X039775Y052150D03*
X039400Y052150D03*
X041650Y055650D03*
X045900Y052025D03*
X046400Y052650D03*
X049900Y052400D03*
X050900Y051650D03*
X051275Y051650D03*
X051275Y054275D03*
X050900Y054275D03*
X054150Y055650D03*
X055650Y041650D03*
X051900Y039400D03*
X051900Y039025D03*
X052650Y037775D03*
X052025Y036525D03*
X051650Y036525D03*
X050400Y036900D03*
X050150Y037275D03*
X050400Y037650D03*
X046775Y036900D03*
X046275Y037775D03*
X046650Y038150D03*
X045900Y037400D03*
X041125Y037125D03*
X039275Y035650D03*
X038900Y035650D03*
X037650Y036400D03*
X037400Y036775D03*
X037400Y036025D03*
X038775Y038275D03*
X039150Y038275D03*
X033650Y037150D03*
X033275Y036775D03*
X032900Y036400D03*
X033775Y035900D03*
X028650Y036150D03*
X026525Y037400D03*
X026150Y037400D03*
X024650Y035775D03*
X024900Y035400D03*
X024650Y035025D03*
X026275Y034650D03*
X026650Y034650D03*
X020775Y035150D03*
X020150Y035525D03*
X020525Y035900D03*
X020900Y036275D03*
X024775Y024900D03*
X024775Y024525D03*
X023150Y023275D03*
X022900Y022900D03*
X023150Y022525D03*
X024525Y022150D03*
X024900Y022150D03*
X027025Y023400D03*
X031525Y023150D03*
X032025Y023525D03*
X032525Y023900D03*
X032400Y022775D03*
X036650Y022900D03*
X036875Y022550D03*
X036650Y022150D03*
X038275Y021775D03*
X038650Y021775D03*
X040650Y023150D03*
X038525Y024150D03*
X038525Y024525D03*
X045150Y023150D03*
X045525Y023400D03*
X045900Y023650D03*
X045900Y022650D03*
X050650Y022525D03*
X050900Y022150D03*
X050650Y021775D03*
X052150Y021400D03*
X052525Y021400D03*
X053650Y022650D03*
X052400Y023775D03*
X052400Y024150D03*
X056525Y028150D03*
X053150Y013275D03*
X054400Y013150D03*
X054775Y013150D03*
X055150Y013150D03*
X055525Y013150D03*
X055900Y013150D03*
X055900Y011650D03*
X055525Y011650D03*
X055150Y011650D03*
X054775Y011650D03*
X054400Y011650D03*
X054400Y010400D03*
X052900Y009150D03*
X052525Y009150D03*
X053650Y007650D03*
X053025Y006400D03*
X052650Y006400D03*
X051400Y007150D03*
X046150Y007150D03*
X046150Y007650D03*
X046150Y008275D03*
X041175Y009125D03*
X038025Y008025D03*
X037650Y008025D03*
X036400Y009650D03*
X037525Y010650D03*
X037900Y010650D03*
X019025Y022025D03*
X018275Y022525D03*
X018775Y022900D03*
X019150Y023275D03*
D50*
X008900Y019150D03*
X008525Y019150D03*
X008150Y019150D03*
X007775Y019150D03*
X007400Y019150D03*
X007400Y017150D03*
X007775Y017150D03*
X008150Y017150D03*
X008525Y017150D03*
X008900Y017150D03*
X034025Y011900D03*
X034025Y011525D03*
X034025Y011150D03*
X034025Y010775D03*
X034025Y010400D03*
X034025Y010025D03*
X034400Y010025D03*
X034400Y010400D03*
X034775Y010400D03*
X034775Y010775D03*
X034400Y010775D03*
X034400Y011150D03*
X034775Y011150D03*
X034400Y011525D03*
X034775Y008275D03*
X034775Y007900D03*
X034400Y007900D03*
X034400Y007525D03*
X034775Y007525D03*
X034025Y007525D03*
D51*
X033650Y004900D03*
X032650Y003775D03*
X030650Y004025D03*
X029150Y004150D03*
X027650Y004400D03*
X026525Y005900D03*
X024650Y006275D03*
X022900Y006775D03*
X021275Y006900D03*
X019400Y007150D03*
X017650Y007275D03*
X015900Y007400D03*
X014150Y007525D03*
X012275Y007775D03*
X010400Y008025D03*
X008525Y008150D03*
X006650Y008400D03*
X005275Y009275D03*
X004400Y010650D03*
X004150Y012025D03*
X004275Y013525D03*
X004650Y015025D03*
X005150Y016650D03*
X005150Y017150D03*
X005150Y017650D03*
X005650Y017650D03*
X005650Y017150D03*
X005650Y016650D03*
X005650Y018150D03*
X005650Y018650D03*
X035275Y004400D03*
X036650Y005025D03*
X038400Y004900D03*
X040150Y004775D03*
X042025Y004525D03*
X043775Y004400D03*
X045650Y004150D03*
X047400Y003900D03*
X049275Y003775D03*
X051150Y003525D03*
X052900Y003400D03*
X054775Y003400D03*
X056650Y003900D03*
X057525Y005025D03*
X057775Y006775D03*
X057775Y008400D03*
X057775Y009900D03*
X057650Y011150D03*
X057650Y011650D03*
X057650Y012150D03*
X057650Y012650D03*
X057150Y012650D03*
X057150Y012150D03*
X057150Y011650D03*
X057150Y011150D03*
M02*
