G75*
G70*
%OFA0B0*%
%FSLAX24Y24*%
%IPPOS*%
%LPD*%
%AMOC8*
5,1,8,0,0,1.08239X$1,22.5*
%
%ADD10C,0.1080*%
%ADD11C,0.0100*%
%ADD12C,0.1000*%
%ADD13R,0.0160X0.0010*%
%ADD14R,0.0210X0.0010*%
%ADD15R,0.0170X0.0010*%
%ADD16R,0.2040X0.0010*%
%ADD17R,0.0120X0.0010*%
%ADD18R,0.0130X0.0010*%
%ADD19R,0.0500X0.0010*%
%ADD20R,0.0540X0.0010*%
%ADD21R,0.0880X0.0010*%
%ADD22R,0.0590X0.0010*%
%ADD23R,0.0370X0.0010*%
%ADD24R,0.0920X0.0010*%
%ADD25R,0.0580X0.0010*%
%ADD26R,0.0380X0.0010*%
%ADD27R,0.0550X0.0010*%
%ADD28R,0.0340X0.0010*%
%ADD29R,0.0010X0.0010*%
%ADD30R,0.0070X0.0010*%
%ADD31R,0.0050X0.0010*%
%ADD32R,0.0060X0.0010*%
%ADD33R,0.0040X0.0010*%
%ADD34R,0.0230X0.0010*%
%ADD35R,0.0260X0.0010*%
%ADD36R,0.0280X0.0010*%
%ADD37R,0.0080X0.0010*%
%ADD38R,0.0110X0.0010*%
%ADD39R,0.0100X0.0010*%
%ADD40R,0.0090X0.0010*%
%ADD41R,0.0360X0.0010*%
%ADD42R,0.0030X0.0010*%
%ADD43R,0.0350X0.0010*%
%ADD44R,0.0150X0.0010*%
%ADD45R,0.0330X0.0010*%
%ADD46R,0.0240X0.0010*%
%ADD47R,0.0671X0.0434*%
%ADD48R,0.0592X0.0710*%
%ADD49R,0.2080X0.0800*%
%ADD50R,0.0297X0.0552*%
%ADD51R,0.1222X0.2324*%
%ADD52R,0.0631X0.0552*%
%ADD53R,0.0710X0.1143*%
%ADD54R,0.1143X0.0710*%
%ADD55OC8,0.0358*%
%ADD56OC8,0.0437*%
%ADD57OC8,0.0476*%
D10*
X026281Y004583D03*
X034113Y003716D03*
X058744Y026747D03*
X058444Y034613D03*
X038680Y056844D03*
X030947Y055378D03*
X007416Y033380D03*
X005450Y025781D03*
D11*
X002650Y019650D02*
X002650Y001150D01*
X059525Y001150D01*
X059525Y013400D01*
X056900Y013400D01*
X056417Y007118D01*
X056396Y006976D01*
X056354Y006839D01*
X056294Y006709D01*
X055463Y005213D01*
X055385Y005093D01*
X055290Y004986D01*
X055181Y004893D01*
X055061Y004817D01*
X054930Y004759D01*
X054793Y004720D01*
X054651Y004700D01*
X054508Y004702D01*
X039650Y005900D01*
X028497Y005536D01*
X028364Y005541D01*
X028232Y005563D01*
X028104Y005603D01*
X027983Y005660D01*
X027870Y005732D01*
X025727Y007316D01*
X025544Y007436D01*
X025349Y007536D01*
X025144Y007613D01*
X024932Y007668D01*
X024714Y007699D01*
X008812Y009103D01*
X008604Y009132D01*
X008399Y009183D01*
X008202Y009256D01*
X008013Y009349D01*
X007835Y009461D01*
X006982Y010063D01*
X006798Y010209D01*
X006633Y010377D01*
X006488Y010563D01*
X006366Y010764D01*
X006269Y010978D01*
X006198Y011203D01*
X006153Y011434D01*
X006136Y011669D01*
X006025Y019650D01*
X002650Y019650D01*
X002650Y019577D02*
X006026Y019577D01*
X006027Y019479D02*
X002650Y019479D01*
X002650Y019380D02*
X006029Y019380D01*
X006030Y019282D02*
X002650Y019282D01*
X002650Y019183D02*
X006031Y019183D01*
X006033Y019085D02*
X002650Y019085D01*
X002650Y018986D02*
X006034Y018986D01*
X006036Y018888D02*
X002650Y018888D01*
X002650Y018789D02*
X006037Y018789D01*
X006038Y018691D02*
X002650Y018691D01*
X002650Y018592D02*
X006040Y018592D01*
X006041Y018494D02*
X002650Y018494D01*
X002650Y018395D02*
X006042Y018395D01*
X006044Y018297D02*
X002650Y018297D01*
X002650Y018198D02*
X006045Y018198D01*
X006047Y018100D02*
X002650Y018100D01*
X002650Y018001D02*
X006048Y018001D01*
X006049Y017903D02*
X002650Y017903D01*
X002650Y017804D02*
X006051Y017804D01*
X006052Y017706D02*
X002650Y017706D01*
X002650Y017607D02*
X006053Y017607D01*
X006055Y017509D02*
X002650Y017509D01*
X002650Y017410D02*
X006056Y017410D01*
X006057Y017312D02*
X002650Y017312D01*
X002650Y017213D02*
X006059Y017213D01*
X006060Y017115D02*
X002650Y017115D01*
X002650Y017016D02*
X006062Y017016D01*
X006063Y016918D02*
X002650Y016918D01*
X002650Y016819D02*
X006064Y016819D01*
X006066Y016721D02*
X002650Y016721D01*
X002650Y016622D02*
X006067Y016622D01*
X006068Y016524D02*
X002650Y016524D01*
X002650Y016425D02*
X006070Y016425D01*
X006071Y016327D02*
X002650Y016327D01*
X002650Y016228D02*
X006073Y016228D01*
X006074Y016130D02*
X002650Y016130D01*
X002650Y016031D02*
X006075Y016031D01*
X006077Y015933D02*
X002650Y015933D01*
X002650Y015834D02*
X006078Y015834D01*
X006079Y015736D02*
X002650Y015736D01*
X002650Y015637D02*
X006081Y015637D01*
X006082Y015539D02*
X002650Y015539D01*
X002650Y015440D02*
X006083Y015440D01*
X006085Y015342D02*
X002650Y015342D01*
X002650Y015243D02*
X006086Y015243D01*
X006088Y015145D02*
X002650Y015145D01*
X002650Y015046D02*
X006089Y015046D01*
X006090Y014948D02*
X002650Y014948D01*
X002650Y014849D02*
X006092Y014849D01*
X006093Y014751D02*
X002650Y014751D01*
X002650Y014652D02*
X006094Y014652D01*
X006096Y014554D02*
X002650Y014554D01*
X002650Y014455D02*
X006097Y014455D01*
X006099Y014357D02*
X002650Y014357D01*
X002650Y014258D02*
X006100Y014258D01*
X006101Y014160D02*
X002650Y014160D01*
X002650Y014061D02*
X006103Y014061D01*
X006104Y013963D02*
X002650Y013963D01*
X002650Y013864D02*
X006105Y013864D01*
X006107Y013766D02*
X002650Y013766D01*
X002650Y013667D02*
X006108Y013667D01*
X006109Y013569D02*
X002650Y013569D01*
X002650Y013470D02*
X006111Y013470D01*
X006112Y013372D02*
X002650Y013372D01*
X002650Y013273D02*
X006114Y013273D01*
X006115Y013175D02*
X002650Y013175D01*
X002650Y013076D02*
X006116Y013076D01*
X006118Y012978D02*
X002650Y012978D01*
X002650Y012879D02*
X006119Y012879D01*
X006120Y012781D02*
X002650Y012781D01*
X002650Y012682D02*
X006122Y012682D01*
X006123Y012584D02*
X002650Y012584D01*
X002650Y012485D02*
X006125Y012485D01*
X006126Y012387D02*
X002650Y012387D01*
X002650Y012288D02*
X006127Y012288D01*
X006129Y012190D02*
X002650Y012190D01*
X002650Y012091D02*
X006130Y012091D01*
X006131Y011993D02*
X002650Y011993D01*
X002650Y011894D02*
X006133Y011894D01*
X006134Y011796D02*
X002650Y011796D01*
X002650Y011697D02*
X006135Y011697D01*
X006141Y011599D02*
X002650Y011599D01*
X002650Y011500D02*
X006148Y011500D01*
X006159Y011402D02*
X002650Y011402D01*
X002650Y011303D02*
X006178Y011303D01*
X006197Y011205D02*
X002650Y011205D01*
X002650Y011106D02*
X006228Y011106D01*
X006260Y011008D02*
X002650Y011008D01*
X002650Y010909D02*
X006300Y010909D01*
X006345Y010811D02*
X002650Y010811D01*
X002650Y010712D02*
X006398Y010712D01*
X006457Y010614D02*
X002650Y010614D01*
X002650Y010515D02*
X006525Y010515D01*
X006602Y010417D02*
X002650Y010417D01*
X002650Y010318D02*
X006691Y010318D01*
X006788Y010220D02*
X002650Y010220D01*
X002650Y010121D02*
X006909Y010121D01*
X007039Y010023D02*
X002650Y010023D01*
X002650Y009924D02*
X007178Y009924D01*
X007318Y009826D02*
X002650Y009826D01*
X002650Y009727D02*
X007458Y009727D01*
X007597Y009629D02*
X002650Y009629D01*
X002650Y009530D02*
X007737Y009530D01*
X007881Y009432D02*
X002650Y009432D01*
X002650Y009333D02*
X008045Y009333D01*
X008260Y009235D02*
X002650Y009235D01*
X002650Y009136D02*
X008588Y009136D01*
X009550Y009038D02*
X002650Y009038D01*
X002650Y008939D02*
X010666Y008939D01*
X011782Y008841D02*
X002650Y008841D01*
X002650Y008742D02*
X012899Y008742D01*
X014015Y008644D02*
X002650Y008644D01*
X002650Y008545D02*
X015131Y008545D01*
X016248Y008447D02*
X002650Y008447D01*
X002650Y008348D02*
X017364Y008348D01*
X018480Y008250D02*
X002650Y008250D01*
X002650Y008151D02*
X019597Y008151D01*
X020713Y008053D02*
X002650Y008053D01*
X002650Y007954D02*
X021829Y007954D01*
X022946Y007856D02*
X002650Y007856D01*
X002650Y007757D02*
X024062Y007757D01*
X024969Y007659D02*
X002650Y007659D01*
X002650Y007560D02*
X025285Y007560D01*
X025494Y007462D02*
X002650Y007462D01*
X002650Y007363D02*
X025655Y007363D01*
X025797Y007265D02*
X002650Y007265D01*
X002650Y007166D02*
X025930Y007166D01*
X026063Y007068D02*
X002650Y007068D01*
X002650Y006969D02*
X026196Y006969D01*
X026330Y006871D02*
X002650Y006871D01*
X002650Y006772D02*
X026463Y006772D01*
X026596Y006674D02*
X002650Y006674D01*
X002650Y006575D02*
X026729Y006575D01*
X026863Y006477D02*
X002650Y006477D01*
X002650Y006378D02*
X026996Y006378D01*
X027129Y006280D02*
X002650Y006280D01*
X002650Y006181D02*
X027262Y006181D01*
X027396Y006083D02*
X002650Y006083D01*
X002650Y005984D02*
X027529Y005984D01*
X027662Y005886D02*
X002650Y005886D01*
X002650Y005787D02*
X027796Y005787D01*
X027938Y005689D02*
X002650Y005689D01*
X002650Y005590D02*
X028146Y005590D01*
X030144Y005590D02*
X043494Y005590D01*
X044715Y005492D02*
X002650Y005492D01*
X002650Y005393D02*
X045937Y005393D01*
X047158Y005295D02*
X002650Y005295D01*
X002650Y005196D02*
X048379Y005196D01*
X049601Y005098D02*
X002650Y005098D01*
X002650Y004999D02*
X050822Y004999D01*
X052044Y004901D02*
X002650Y004901D01*
X002650Y004802D02*
X053265Y004802D01*
X054487Y004704D02*
X002650Y004704D01*
X002650Y004605D02*
X059525Y004605D01*
X059525Y004507D02*
X002650Y004507D01*
X002650Y004408D02*
X059525Y004408D01*
X059525Y004310D02*
X002650Y004310D01*
X002650Y004211D02*
X059525Y004211D01*
X059525Y004113D02*
X002650Y004113D01*
X002650Y004014D02*
X059525Y004014D01*
X059525Y003916D02*
X002650Y003916D01*
X002650Y003817D02*
X059525Y003817D01*
X059525Y003719D02*
X002650Y003719D01*
X002650Y003620D02*
X059525Y003620D01*
X059525Y003522D02*
X002650Y003522D01*
X002650Y003423D02*
X059525Y003423D01*
X059525Y003325D02*
X002650Y003325D01*
X002650Y003226D02*
X059525Y003226D01*
X059525Y003128D02*
X002650Y003128D01*
X002650Y003029D02*
X059525Y003029D01*
X059525Y002931D02*
X002650Y002931D01*
X002650Y002832D02*
X059525Y002832D01*
X059525Y002734D02*
X002650Y002734D01*
X002650Y002635D02*
X059525Y002635D01*
X059525Y002537D02*
X002650Y002537D01*
X002650Y002438D02*
X059525Y002438D01*
X059525Y002340D02*
X002650Y002340D01*
X002650Y002241D02*
X059525Y002241D01*
X059525Y002143D02*
X002650Y002143D01*
X002650Y002044D02*
X059525Y002044D01*
X059525Y001946D02*
X002650Y001946D01*
X002650Y001847D02*
X059525Y001847D01*
X059525Y001749D02*
X002650Y001749D01*
X002650Y001650D02*
X059525Y001650D01*
X059525Y001551D02*
X002650Y001551D01*
X002650Y001453D02*
X059525Y001453D01*
X059525Y001354D02*
X002650Y001354D01*
X002650Y001256D02*
X059525Y001256D01*
X059525Y001157D02*
X002650Y001157D01*
X033164Y005689D02*
X042272Y005689D01*
X041051Y005787D02*
X036185Y005787D01*
X039206Y005886D02*
X039830Y005886D01*
X054674Y004704D02*
X059525Y004704D01*
X059525Y004802D02*
X055027Y004802D01*
X055190Y004901D02*
X059525Y004901D01*
X059525Y004999D02*
X055302Y004999D01*
X055387Y005098D02*
X059525Y005098D01*
X059525Y005196D02*
X055452Y005196D01*
X055508Y005295D02*
X059525Y005295D01*
X059525Y005393D02*
X055563Y005393D01*
X055618Y005492D02*
X059525Y005492D01*
X059525Y005590D02*
X055672Y005590D01*
X055727Y005689D02*
X059525Y005689D01*
X059525Y005787D02*
X055782Y005787D01*
X055836Y005886D02*
X059525Y005886D01*
X059525Y005984D02*
X055891Y005984D01*
X055946Y006083D02*
X059525Y006083D01*
X059525Y006181D02*
X056001Y006181D01*
X056055Y006280D02*
X059525Y006280D01*
X059525Y006378D02*
X056110Y006378D01*
X056165Y006477D02*
X059525Y006477D01*
X059525Y006575D02*
X056219Y006575D01*
X056274Y006674D02*
X059525Y006674D01*
X059525Y006772D02*
X056323Y006772D01*
X056364Y006871D02*
X059525Y006871D01*
X059525Y006969D02*
X056393Y006969D01*
X056409Y007068D02*
X059525Y007068D01*
X059525Y007166D02*
X056420Y007166D01*
X056428Y007265D02*
X059525Y007265D01*
X059525Y007363D02*
X056436Y007363D01*
X056443Y007462D02*
X059525Y007462D01*
X059525Y007560D02*
X056451Y007560D01*
X056458Y007659D02*
X059525Y007659D01*
X059525Y007757D02*
X056466Y007757D01*
X056474Y007856D02*
X059525Y007856D01*
X059525Y007954D02*
X056481Y007954D01*
X056489Y008053D02*
X059525Y008053D01*
X059525Y008151D02*
X056496Y008151D01*
X056504Y008250D02*
X059525Y008250D01*
X059525Y008348D02*
X056511Y008348D01*
X056519Y008447D02*
X059525Y008447D01*
X059525Y008545D02*
X056527Y008545D01*
X056534Y008644D02*
X059525Y008644D01*
X059525Y008742D02*
X056542Y008742D01*
X056549Y008841D02*
X059525Y008841D01*
X059525Y008939D02*
X056557Y008939D01*
X056564Y009038D02*
X059525Y009038D01*
X059525Y009136D02*
X056572Y009136D01*
X056580Y009235D02*
X059525Y009235D01*
X059525Y009333D02*
X056587Y009333D01*
X056595Y009432D02*
X059525Y009432D01*
X059525Y009530D02*
X056602Y009530D01*
X056610Y009629D02*
X059525Y009629D01*
X059525Y009727D02*
X056617Y009727D01*
X056625Y009826D02*
X059525Y009826D01*
X059525Y009924D02*
X056633Y009924D01*
X056640Y010023D02*
X059525Y010023D01*
X059525Y010121D02*
X056648Y010121D01*
X056655Y010220D02*
X059525Y010220D01*
X059525Y010318D02*
X056663Y010318D01*
X056671Y010417D02*
X059525Y010417D01*
X059525Y010515D02*
X056678Y010515D01*
X056686Y010614D02*
X059525Y010614D01*
X059525Y010712D02*
X056693Y010712D01*
X056701Y010811D02*
X059525Y010811D01*
X059525Y010909D02*
X056708Y010909D01*
X056716Y011008D02*
X059525Y011008D01*
X059525Y011106D02*
X056724Y011106D01*
X056731Y011205D02*
X059525Y011205D01*
X059525Y011303D02*
X056739Y011303D01*
X056746Y011402D02*
X059525Y011402D01*
X059525Y011500D02*
X056754Y011500D01*
X056761Y011599D02*
X059525Y011599D01*
X059525Y011697D02*
X056769Y011697D01*
X056777Y011796D02*
X059525Y011796D01*
X059525Y011894D02*
X056784Y011894D01*
X056792Y011993D02*
X059525Y011993D01*
X059525Y012091D02*
X056799Y012091D01*
X056807Y012190D02*
X059525Y012190D01*
X059525Y012288D02*
X056814Y012288D01*
X056822Y012387D02*
X059525Y012387D01*
X059525Y012485D02*
X056830Y012485D01*
X056837Y012584D02*
X059525Y012584D01*
X059525Y012682D02*
X056845Y012682D01*
X056852Y012781D02*
X059525Y012781D01*
X059525Y012879D02*
X056860Y012879D01*
X056868Y012978D02*
X059525Y012978D01*
X059525Y013076D02*
X056875Y013076D01*
X056883Y013175D02*
X059525Y013175D01*
X059525Y013273D02*
X056890Y013273D01*
X056898Y013372D02*
X059525Y013372D01*
D12*
X055150Y011650D02*
X053587Y011650D01*
X051879Y011117D02*
X050171Y009933D01*
X048463Y009400D02*
X044518Y009400D01*
X042396Y010279D02*
X041898Y010777D01*
X040289Y011712D02*
X035976Y012862D01*
X034595Y013259D01*
X033146Y013664D02*
X023308Y013746D01*
X021868Y012868D02*
X020979Y011979D01*
X018678Y011106D02*
X014592Y011373D01*
X012735Y011803D02*
X012387Y011931D01*
X011096Y013966D02*
X010900Y015058D01*
X010900Y015059D02*
X010876Y015178D01*
X010845Y015296D01*
X010810Y015413D01*
X010768Y015528D01*
X010722Y015641D01*
X010669Y015751D01*
X010612Y015859D01*
X010549Y015963D01*
X010482Y016065D01*
X010410Y016163D01*
X010333Y016258D01*
X010251Y016349D01*
X010166Y016436D01*
X010076Y016519D01*
X009982Y016597D01*
X009885Y016671D01*
X009785Y016739D01*
X009681Y016804D01*
X009574Y016862D01*
X009464Y016916D01*
X009352Y016965D01*
X009238Y017008D01*
X009122Y017045D01*
X009004Y017077D01*
X008885Y017103D01*
X008765Y017124D01*
X008644Y017138D01*
X008522Y017147D01*
X008400Y017150D01*
X011096Y013966D02*
X011104Y013851D01*
X011118Y013737D01*
X011136Y013624D01*
X011160Y013512D01*
X011189Y013401D01*
X011224Y013292D01*
X011263Y013184D01*
X011308Y013079D01*
X011358Y012975D01*
X011412Y012874D01*
X011471Y012776D01*
X011535Y012681D01*
X011603Y012589D01*
X011675Y012500D01*
X011752Y012414D01*
X011832Y012333D01*
X011917Y012255D01*
X012004Y012181D01*
X012096Y012112D01*
X012190Y012047D01*
X012287Y011986D01*
X012387Y011930D01*
X012735Y011803D02*
X013034Y011694D01*
X013339Y011599D01*
X013648Y011520D01*
X013960Y011456D01*
X014275Y011407D01*
X014592Y011373D01*
X018678Y011105D02*
X018819Y011100D01*
X018960Y011102D01*
X019101Y011110D01*
X019241Y011125D01*
X019380Y011146D01*
X019518Y011174D01*
X019655Y011208D01*
X019790Y011248D01*
X019922Y011295D01*
X020053Y011348D01*
X020181Y011407D01*
X020306Y011472D01*
X020428Y011543D01*
X020546Y011620D01*
X020660Y011702D01*
X020771Y011789D01*
X020877Y011881D01*
X020979Y011979D01*
X021868Y012867D02*
X021929Y012949D01*
X021994Y013028D01*
X022063Y013103D01*
X022135Y013175D01*
X022210Y013244D01*
X022289Y013308D01*
X022370Y013370D01*
X022455Y013427D01*
X022542Y013480D01*
X022631Y013529D01*
X022723Y013573D01*
X022817Y013613D01*
X022912Y013649D01*
X023009Y013680D01*
X023108Y013706D01*
X023207Y013728D01*
X023308Y013745D01*
X033146Y013664D02*
X033314Y013649D01*
X033480Y013626D01*
X033646Y013596D01*
X033810Y013558D01*
X033972Y013513D01*
X034132Y013460D01*
X034290Y013400D01*
X034444Y013333D01*
X034595Y013258D01*
X040289Y011712D02*
X040440Y011671D01*
X040590Y011622D01*
X040737Y011567D01*
X040881Y011505D01*
X041023Y011436D01*
X041160Y011360D01*
X041294Y011278D01*
X041424Y011189D01*
X041550Y011095D01*
X041671Y010994D01*
X041787Y010888D01*
X041898Y010777D01*
X042397Y010279D02*
X042497Y010183D01*
X042601Y010092D01*
X042710Y010006D01*
X042823Y009925D01*
X042939Y009849D01*
X043058Y009779D01*
X043181Y009715D01*
X043306Y009656D01*
X043434Y009603D01*
X043565Y009556D01*
X043697Y009515D01*
X043831Y009480D01*
X043967Y009451D01*
X044104Y009429D01*
X044241Y009413D01*
X044379Y009403D01*
X044518Y009400D01*
X048463Y009400D02*
X048603Y009403D01*
X048742Y009413D01*
X048881Y009429D01*
X049019Y009452D01*
X049155Y009481D01*
X049291Y009516D01*
X049424Y009558D01*
X049555Y009606D01*
X049684Y009660D01*
X049810Y009720D01*
X049934Y009785D01*
X050054Y009857D01*
X050171Y009933D01*
X051879Y011117D02*
X051996Y011193D01*
X052116Y011265D01*
X052240Y011330D01*
X052366Y011390D01*
X052495Y011444D01*
X052626Y011492D01*
X052759Y011534D01*
X052895Y011569D01*
X053031Y011598D01*
X053169Y011621D01*
X053308Y011637D01*
X053447Y011647D01*
X053587Y011650D01*
D13*
X034755Y024400D03*
X034755Y024410D03*
X034755Y024420D03*
X034755Y024430D03*
X034755Y024440D03*
X034755Y024450D03*
X034755Y024460D03*
X034755Y024470D03*
X034755Y024480D03*
X034755Y024490D03*
X034755Y024500D03*
X034755Y024510D03*
X034755Y024520D03*
X034755Y024530D03*
X034755Y024540D03*
X034755Y024550D03*
X034755Y024770D03*
X034755Y024780D03*
X034755Y024790D03*
X034755Y024800D03*
X034755Y024810D03*
X034755Y024820D03*
X034755Y024830D03*
X034755Y024840D03*
X034755Y024850D03*
X034755Y024860D03*
X034755Y024870D03*
X034755Y024880D03*
X034755Y024890D03*
X034755Y024900D03*
X034755Y024910D03*
X034755Y024920D03*
X034755Y024930D03*
X034755Y025150D03*
X034755Y025160D03*
X034755Y025170D03*
X034755Y025180D03*
X034755Y025190D03*
X034755Y025200D03*
X034755Y025210D03*
X034755Y025220D03*
X034755Y025230D03*
X034755Y025240D03*
X034755Y025250D03*
X034755Y025260D03*
X034755Y025270D03*
X034755Y025280D03*
X034755Y025290D03*
X034755Y025300D03*
X034005Y025300D03*
X034005Y025290D03*
X034005Y025280D03*
X034005Y025270D03*
X034005Y025260D03*
X034005Y025250D03*
X034005Y025240D03*
X034005Y025230D03*
X034005Y025220D03*
X034005Y025210D03*
X034005Y025200D03*
X034005Y025190D03*
X034005Y025180D03*
X034005Y025170D03*
X034005Y025160D03*
X034005Y025150D03*
X034005Y024930D03*
X034005Y024920D03*
X034005Y024910D03*
X034005Y024900D03*
X034005Y024890D03*
X034005Y024880D03*
X034005Y024870D03*
X034005Y024860D03*
X034005Y024850D03*
X034005Y024840D03*
X034005Y024830D03*
X034005Y024820D03*
X034005Y024810D03*
X034005Y024800D03*
X034005Y024790D03*
X034005Y024780D03*
X034005Y024770D03*
X033255Y024430D03*
X033255Y024420D03*
X033255Y024410D03*
X033255Y024400D03*
X032715Y025360D03*
X032715Y025370D03*
X032715Y025380D03*
X032715Y025390D03*
X032715Y025400D03*
X032715Y025410D03*
X032715Y025420D03*
X032715Y025430D03*
X032715Y025440D03*
X032715Y025450D03*
X032715Y025460D03*
X032715Y025470D03*
X032715Y025480D03*
X032715Y025490D03*
X032715Y025500D03*
X032715Y025510D03*
X032715Y025520D03*
X032715Y025530D03*
X032715Y025540D03*
X032715Y025550D03*
X032715Y025560D03*
X032715Y025570D03*
X032715Y025580D03*
X032715Y025590D03*
X032715Y025600D03*
X032715Y025610D03*
X032715Y025620D03*
X032715Y025630D03*
X032715Y025640D03*
X032715Y025650D03*
X032715Y025660D03*
X032715Y025670D03*
X032715Y025680D03*
X032715Y025900D03*
X032715Y025910D03*
X032715Y025920D03*
X032715Y025930D03*
X032715Y025940D03*
X032715Y025950D03*
X032715Y025960D03*
X032715Y025970D03*
X032715Y025980D03*
X032715Y025990D03*
X032715Y026000D03*
X032715Y026010D03*
X032715Y026020D03*
X032715Y026030D03*
X032715Y026040D03*
X032715Y026050D03*
X032715Y026060D03*
X032715Y026070D03*
X032715Y026080D03*
X032715Y026090D03*
X032715Y026100D03*
X032715Y026110D03*
X032715Y026120D03*
X032715Y026130D03*
X032715Y026140D03*
X032715Y026150D03*
X032715Y026160D03*
X032715Y026170D03*
X032715Y026180D03*
X032715Y026190D03*
X032715Y026200D03*
X032715Y026210D03*
X032715Y026220D03*
X032715Y026230D03*
X032715Y026240D03*
X032715Y026250D03*
X032715Y026260D03*
X030675Y025680D03*
X030675Y025670D03*
X030675Y025660D03*
X030675Y025650D03*
X030675Y025640D03*
X030675Y025630D03*
X030675Y025620D03*
X030675Y025610D03*
X030675Y025600D03*
X030675Y025590D03*
X030675Y025580D03*
X030675Y025570D03*
X030675Y025560D03*
X030675Y025550D03*
X030675Y025540D03*
X030675Y025530D03*
X030675Y025520D03*
X029925Y025900D03*
X029925Y025910D03*
X029925Y025920D03*
X029925Y025930D03*
X029925Y025940D03*
X029925Y025950D03*
X029925Y025960D03*
X029925Y025970D03*
X029925Y025980D03*
X029925Y025990D03*
X029925Y026000D03*
X029925Y026010D03*
X029925Y026020D03*
X029925Y026030D03*
X029925Y026040D03*
X029925Y026050D03*
X029175Y026050D03*
X029175Y026040D03*
X029175Y026030D03*
X029175Y026020D03*
X029175Y026010D03*
X029175Y026000D03*
X029175Y025990D03*
X029175Y025980D03*
X029175Y025970D03*
X029175Y025960D03*
X029175Y025950D03*
X029175Y025940D03*
X029175Y025930D03*
X029175Y025920D03*
X029175Y025910D03*
X029175Y025900D03*
X029175Y025890D03*
X029175Y025880D03*
X029175Y025870D03*
X029175Y025860D03*
X029175Y025850D03*
X029175Y025840D03*
X029175Y025830D03*
X029175Y025820D03*
X029175Y025810D03*
X029175Y025800D03*
X029175Y025790D03*
X029175Y025780D03*
X029175Y025770D03*
X029175Y025760D03*
X029175Y025750D03*
X029175Y025740D03*
X029175Y025730D03*
X029175Y025720D03*
X029175Y025710D03*
X029175Y025700D03*
X029175Y025690D03*
D14*
X029740Y026060D03*
X029740Y026070D03*
X029740Y026080D03*
X029740Y026090D03*
X029740Y026100D03*
X029740Y026110D03*
X029740Y026120D03*
X029740Y026130D03*
X029740Y026140D03*
X029740Y026150D03*
X029740Y026160D03*
X029740Y026170D03*
X029740Y026180D03*
X029740Y026190D03*
X029740Y026200D03*
X029740Y026210D03*
X029740Y026220D03*
X031030Y026050D03*
X031030Y026040D03*
X031030Y026030D03*
X031030Y026020D03*
X031030Y026010D03*
X031030Y026000D03*
X031030Y025990D03*
X031030Y025980D03*
X031030Y025970D03*
X031030Y025960D03*
X031030Y025950D03*
X031030Y025940D03*
X031030Y025930D03*
X031030Y025920D03*
X031030Y025910D03*
X031030Y025900D03*
X031400Y025900D03*
X031400Y025910D03*
X031400Y025920D03*
X031400Y025930D03*
X031400Y025940D03*
X031400Y025950D03*
X031400Y025960D03*
X031400Y025970D03*
X031400Y025980D03*
X031400Y025990D03*
X031400Y026000D03*
X031400Y026010D03*
X031400Y026020D03*
X031400Y026030D03*
X031400Y026040D03*
X031400Y026050D03*
X031400Y025890D03*
X031400Y025880D03*
X031400Y025870D03*
X031400Y025860D03*
X031400Y025850D03*
X031400Y025840D03*
X031400Y025830D03*
X031400Y025820D03*
X031400Y025810D03*
X031400Y025800D03*
X031400Y025790D03*
X031400Y025780D03*
X031400Y025770D03*
X031400Y025760D03*
X031400Y025750D03*
X031400Y025740D03*
X031400Y025730D03*
X031400Y025720D03*
X031400Y025710D03*
X031400Y025700D03*
X031400Y025690D03*
X031400Y025680D03*
X031400Y025670D03*
X031400Y025660D03*
X031400Y025650D03*
X031400Y025640D03*
X031400Y025630D03*
X031400Y025620D03*
X031400Y025610D03*
X031400Y025600D03*
X031400Y025590D03*
X031400Y025580D03*
X031400Y025570D03*
X031400Y025560D03*
X031400Y025550D03*
X031400Y025540D03*
X031400Y025530D03*
X031400Y025520D03*
X031780Y025520D03*
X031780Y025530D03*
X031780Y025540D03*
X031780Y025550D03*
X031780Y025560D03*
X031780Y025570D03*
X031780Y025580D03*
X031780Y025590D03*
X031780Y025600D03*
X031780Y025610D03*
X031780Y025620D03*
X031780Y025630D03*
X031780Y025640D03*
X031780Y025650D03*
X031780Y025660D03*
X031780Y025670D03*
X031780Y025680D03*
X031780Y025690D03*
X031780Y025700D03*
X031780Y025710D03*
X031780Y025720D03*
X031780Y025730D03*
X031780Y025740D03*
X031780Y025750D03*
X031780Y025760D03*
X031780Y025770D03*
X031780Y025780D03*
X031780Y025790D03*
X031780Y025800D03*
X031780Y025810D03*
X031780Y025820D03*
X031780Y025830D03*
X031780Y025840D03*
X031780Y025850D03*
X032150Y026060D03*
X032150Y026070D03*
X032150Y026080D03*
X032150Y026090D03*
X032150Y026100D03*
X032150Y026110D03*
X032150Y026120D03*
X032150Y026130D03*
X032150Y026140D03*
X032150Y026150D03*
X032150Y026160D03*
X032150Y026170D03*
X032150Y026180D03*
X032150Y026190D03*
X032150Y026200D03*
X032150Y026210D03*
X032150Y026220D03*
X032150Y025510D03*
X032150Y025500D03*
X032150Y025490D03*
X032150Y025480D03*
X032150Y025470D03*
X032150Y025460D03*
X032150Y025450D03*
X032150Y025440D03*
X032150Y025430D03*
X032150Y025420D03*
X032150Y025410D03*
X032150Y025400D03*
X032150Y025390D03*
X032150Y025380D03*
X032150Y025370D03*
X032150Y025360D03*
X033280Y025300D03*
X033280Y025290D03*
X033280Y025280D03*
X033280Y025270D03*
X033280Y025260D03*
X033280Y025250D03*
X033280Y025240D03*
X033280Y025230D03*
X033280Y025220D03*
X033280Y025210D03*
X033280Y025200D03*
X033280Y025190D03*
X033280Y025180D03*
X033280Y025170D03*
X033280Y025160D03*
X033280Y025150D03*
X033280Y024930D03*
X033280Y024920D03*
X033280Y024910D03*
X033280Y024900D03*
X033280Y024890D03*
X033280Y024880D03*
X033280Y024870D03*
X033280Y024860D03*
X033280Y024850D03*
X033280Y024840D03*
X033280Y024830D03*
X033280Y024820D03*
X033280Y024810D03*
X033280Y024800D03*
X033280Y024790D03*
X033280Y024780D03*
X033280Y024770D03*
X033280Y024550D03*
X033280Y024540D03*
X033280Y024530D03*
X033280Y024520D03*
X033280Y024510D03*
X033280Y024500D03*
X033280Y024490D03*
X033280Y024480D03*
X033280Y024470D03*
X033280Y024460D03*
X033280Y024450D03*
X033280Y024440D03*
X031400Y020820D03*
D15*
X031390Y020830D03*
X031390Y020130D03*
X033630Y024770D03*
X033630Y024780D03*
X033630Y024790D03*
X033630Y024800D03*
X033630Y024810D03*
X033630Y024820D03*
X033630Y024830D03*
X033630Y024840D03*
X033630Y024850D03*
X033630Y024860D03*
X033630Y024870D03*
X033630Y024880D03*
X033630Y024890D03*
X033630Y024900D03*
X033630Y024910D03*
X033630Y024920D03*
X033630Y024930D03*
X033630Y025150D03*
X033630Y025160D03*
X033630Y025170D03*
X033630Y025180D03*
X033630Y025190D03*
X033630Y025200D03*
X033630Y025210D03*
X033630Y025220D03*
X033630Y025230D03*
X033630Y025240D03*
X033630Y025250D03*
X033630Y025260D03*
X033630Y025270D03*
X033630Y025280D03*
X033630Y025290D03*
X033630Y025300D03*
X033630Y025900D03*
X033630Y025910D03*
X033630Y025920D03*
X033630Y025930D03*
X033630Y025940D03*
X033630Y025950D03*
X033630Y025960D03*
X033630Y025970D03*
X033630Y025980D03*
X033630Y025990D03*
X033630Y026000D03*
X033630Y026010D03*
X033630Y026020D03*
X033630Y026030D03*
X033630Y026040D03*
X033630Y026050D03*
X034380Y026050D03*
X034380Y026040D03*
X034380Y026030D03*
X034380Y026020D03*
X034380Y026010D03*
X034380Y026000D03*
X034380Y025990D03*
X034380Y025980D03*
X034380Y025970D03*
X034380Y025960D03*
X034380Y025950D03*
X034380Y025940D03*
X034380Y025930D03*
X034380Y025920D03*
X034380Y025910D03*
X034380Y025900D03*
X034380Y025300D03*
X034380Y025290D03*
X034380Y025280D03*
X034380Y025270D03*
X034380Y025260D03*
X034380Y025250D03*
X034380Y025240D03*
X034380Y025230D03*
X034380Y025220D03*
X034380Y025210D03*
X034380Y025200D03*
X034380Y025190D03*
X034380Y025180D03*
X034380Y025170D03*
X034380Y025160D03*
X034380Y025150D03*
X034380Y024930D03*
X034380Y024920D03*
X034380Y024910D03*
X034380Y024900D03*
X034380Y024890D03*
X034380Y024880D03*
X034380Y024870D03*
X034380Y024860D03*
X034380Y024850D03*
X034380Y024840D03*
X034380Y024830D03*
X034380Y024820D03*
X034380Y024810D03*
X034380Y024800D03*
X034380Y024790D03*
X034380Y024780D03*
X034380Y024770D03*
X032340Y025520D03*
X032340Y025530D03*
X032340Y025540D03*
X032340Y025550D03*
X032340Y025560D03*
X032340Y025570D03*
X032340Y025580D03*
X032340Y025590D03*
X032340Y025600D03*
X032340Y025610D03*
X032340Y025620D03*
X032340Y025630D03*
X032340Y025640D03*
X032340Y025650D03*
X032340Y025660D03*
X032340Y025670D03*
X032340Y025680D03*
X032340Y025900D03*
X032340Y025910D03*
X032340Y025920D03*
X032340Y025930D03*
X032340Y025940D03*
X032340Y025950D03*
X032340Y025960D03*
X032340Y025970D03*
X032340Y025980D03*
X032340Y025990D03*
X032340Y026000D03*
X032340Y026010D03*
X032340Y026020D03*
X032340Y026030D03*
X032340Y026040D03*
X032340Y026050D03*
X032170Y026230D03*
X032170Y026240D03*
X032170Y026250D03*
X032170Y026260D03*
X031800Y025890D03*
X031800Y025880D03*
X031800Y025870D03*
X031800Y025860D03*
X030840Y025860D03*
X030840Y025870D03*
X030840Y025880D03*
X030840Y025890D03*
X030840Y025850D03*
X030840Y025840D03*
X030840Y025830D03*
X030840Y025820D03*
X030840Y025810D03*
X030840Y025800D03*
X030840Y025790D03*
X030840Y025780D03*
X030840Y025770D03*
X030840Y025760D03*
X030840Y025750D03*
X030840Y025740D03*
X030840Y025730D03*
X030840Y025720D03*
X030840Y025710D03*
X030840Y025700D03*
X030840Y025690D03*
X030300Y025690D03*
X030300Y025700D03*
X030300Y025710D03*
X030300Y025720D03*
X030300Y025730D03*
X030300Y025740D03*
X030300Y025750D03*
X030300Y025760D03*
X030300Y025770D03*
X030300Y025780D03*
X030300Y025790D03*
X030300Y025800D03*
X030300Y025810D03*
X030300Y025820D03*
X030300Y025830D03*
X030300Y025840D03*
X030300Y025850D03*
X030300Y025860D03*
X030300Y025870D03*
X030300Y025880D03*
X030300Y025890D03*
X030300Y025900D03*
X030300Y025910D03*
X030300Y025920D03*
X030300Y025930D03*
X030300Y025940D03*
X030300Y025950D03*
X030300Y025960D03*
X030300Y025970D03*
X030300Y025980D03*
X030300Y025990D03*
X030300Y026000D03*
X030300Y026010D03*
X030300Y026020D03*
X030300Y026030D03*
X030300Y026040D03*
X030300Y026050D03*
X030300Y025680D03*
X030300Y025670D03*
X030300Y025660D03*
X030300Y025650D03*
X030300Y025640D03*
X030300Y025630D03*
X030300Y025620D03*
X030300Y025610D03*
X030300Y025600D03*
X030300Y025590D03*
X030300Y025580D03*
X030300Y025570D03*
X030300Y025560D03*
X030300Y025550D03*
X030300Y025540D03*
X030300Y025530D03*
X030300Y025520D03*
X030300Y025510D03*
X030300Y025500D03*
X030300Y025490D03*
X030300Y025480D03*
X030300Y025470D03*
X030300Y025460D03*
X030300Y025450D03*
X030300Y025440D03*
X030300Y025430D03*
X030300Y025420D03*
X030300Y025410D03*
X030300Y025400D03*
X030300Y025390D03*
X030300Y025380D03*
X030300Y025370D03*
X030300Y025360D03*
X030300Y025350D03*
X030300Y025340D03*
X030300Y025330D03*
X030300Y025320D03*
X030300Y025310D03*
X029550Y025520D03*
X029550Y025530D03*
X029550Y025540D03*
X029550Y025550D03*
X029550Y025560D03*
X029550Y025570D03*
X029550Y025580D03*
X029550Y025590D03*
X029550Y025600D03*
X029550Y025610D03*
X029550Y025620D03*
X029550Y025630D03*
X029550Y025640D03*
X029550Y025650D03*
X029550Y025660D03*
X029550Y025670D03*
X029550Y025680D03*
X029550Y025690D03*
X029550Y025700D03*
X029550Y025710D03*
X029550Y025720D03*
X029550Y025730D03*
X029550Y025740D03*
X029550Y025750D03*
X029550Y025760D03*
X029550Y025770D03*
X029550Y025780D03*
X029550Y025790D03*
X029550Y025800D03*
X029550Y025810D03*
X029550Y025820D03*
X029550Y025830D03*
X029550Y025840D03*
X029550Y025850D03*
X029550Y025860D03*
X029550Y025870D03*
X029550Y025880D03*
X029550Y025890D03*
X029550Y025900D03*
X029550Y025910D03*
X029550Y025920D03*
X029550Y025930D03*
X029550Y025940D03*
X029550Y025950D03*
X029550Y025960D03*
X029550Y025970D03*
X029550Y025980D03*
X029550Y025990D03*
X029550Y026000D03*
X029550Y026010D03*
X029550Y026020D03*
X029550Y026030D03*
X029550Y026040D03*
X029550Y026050D03*
X028840Y026050D03*
X028840Y026040D03*
X028840Y026030D03*
X028840Y026020D03*
X028840Y026010D03*
X028840Y026000D03*
X028840Y025990D03*
X028840Y025980D03*
X028840Y025970D03*
X028840Y025960D03*
X028840Y025950D03*
X028840Y025940D03*
X028840Y025930D03*
X028840Y025920D03*
X028840Y025910D03*
X028840Y025900D03*
X028840Y025890D03*
X028840Y025880D03*
X028840Y025870D03*
X028840Y025860D03*
X028840Y025850D03*
X028840Y025840D03*
X028840Y025830D03*
X028840Y025820D03*
X028840Y025810D03*
X028840Y025800D03*
X028840Y025790D03*
X028840Y025780D03*
X028840Y025770D03*
X028840Y025760D03*
X028840Y025750D03*
X028840Y025740D03*
X028840Y025730D03*
X028840Y025720D03*
X028840Y025710D03*
X028840Y025700D03*
X028840Y025690D03*
X028840Y025680D03*
X028840Y025670D03*
X028840Y025660D03*
X028840Y025650D03*
X028840Y025640D03*
X028840Y025630D03*
X028840Y025620D03*
X028840Y025610D03*
X028840Y025550D03*
X028840Y025540D03*
X028840Y025530D03*
X028840Y025520D03*
D16*
X034025Y025510D03*
X034025Y025500D03*
X034025Y025490D03*
X034025Y025480D03*
X034025Y025470D03*
X034025Y025460D03*
X034025Y025450D03*
X034025Y025440D03*
X034025Y025430D03*
X034025Y025420D03*
X034025Y025410D03*
X034025Y025400D03*
X034025Y025390D03*
X034025Y025380D03*
X034025Y025370D03*
X034025Y025360D03*
X034025Y025350D03*
X034025Y025340D03*
X034025Y025330D03*
X034025Y025320D03*
X034025Y025310D03*
D17*
X032695Y025310D03*
X032695Y025320D03*
X032695Y025330D03*
X032695Y025340D03*
X032695Y025350D03*
X029735Y026230D03*
X029735Y026240D03*
X029735Y026250D03*
X029735Y026260D03*
D18*
X028820Y025600D03*
X028820Y025590D03*
X028820Y025580D03*
X028820Y025570D03*
X028820Y025560D03*
X032150Y025350D03*
X032150Y025340D03*
X032150Y025330D03*
X032150Y025320D03*
X032150Y025310D03*
X030670Y020730D03*
X031340Y020460D03*
X031420Y020500D03*
X031450Y020510D03*
D19*
X031585Y025310D03*
X031585Y025320D03*
X031585Y025330D03*
X031585Y025340D03*
X031585Y025350D03*
X029005Y026060D03*
X029005Y026070D03*
X029005Y026080D03*
X029005Y026090D03*
X029005Y026100D03*
X029005Y026110D03*
X029005Y026120D03*
X029005Y026130D03*
X029005Y026140D03*
X029005Y026150D03*
X029005Y026160D03*
X029005Y026170D03*
X029005Y026180D03*
X029005Y026190D03*
X029005Y026200D03*
X029005Y026210D03*
X029005Y026220D03*
X029005Y026230D03*
X029005Y026240D03*
X029005Y026250D03*
X029005Y026260D03*
D20*
X030865Y026260D03*
X030865Y026250D03*
X030865Y026240D03*
X030865Y026230D03*
X030865Y026220D03*
X030865Y026210D03*
X030865Y026200D03*
X030865Y026190D03*
X030865Y026180D03*
X030865Y026170D03*
X030865Y026160D03*
X030865Y026150D03*
X030865Y026140D03*
X030865Y026130D03*
X030865Y026120D03*
X030865Y026110D03*
X030865Y026100D03*
X030865Y026090D03*
X030865Y026080D03*
X030865Y026070D03*
X030865Y026060D03*
X030865Y025510D03*
X030865Y025500D03*
X030865Y025490D03*
X030865Y025480D03*
X030865Y025470D03*
X030865Y025460D03*
X030865Y025450D03*
X030865Y025440D03*
X030865Y025430D03*
X030865Y025420D03*
X030865Y025410D03*
X030865Y025400D03*
X030865Y025390D03*
X030865Y025380D03*
X030865Y025370D03*
X030865Y025360D03*
X030865Y025350D03*
X030865Y025340D03*
X030865Y025330D03*
X030865Y025320D03*
X030865Y025310D03*
X034025Y026230D03*
X034025Y026240D03*
X034025Y026250D03*
X034025Y026260D03*
D21*
X029195Y025510D03*
X029195Y025500D03*
X029195Y025490D03*
X029195Y025480D03*
X029195Y025470D03*
X029195Y025460D03*
X029195Y025450D03*
X029195Y025440D03*
X029195Y025430D03*
X029195Y025420D03*
X029195Y025410D03*
X029195Y025400D03*
X029195Y025390D03*
X029195Y025380D03*
X029195Y025370D03*
X029195Y025360D03*
X029195Y025350D03*
X029195Y025340D03*
X029195Y025330D03*
X029195Y025320D03*
X029195Y025310D03*
D22*
X031590Y025360D03*
X031590Y025370D03*
X031590Y025380D03*
X031590Y025390D03*
X031590Y025400D03*
X031590Y025410D03*
X031590Y025420D03*
X031590Y025430D03*
X031590Y025440D03*
X031590Y025450D03*
X031590Y025460D03*
X031590Y025470D03*
X031590Y025480D03*
X031590Y025490D03*
X031590Y025500D03*
X031590Y025510D03*
X031590Y026060D03*
X031590Y026070D03*
X031590Y026080D03*
X031590Y026090D03*
X031590Y026100D03*
X031590Y026110D03*
X031590Y026120D03*
X031590Y026130D03*
X031590Y026140D03*
X031590Y026150D03*
X031590Y026160D03*
X031590Y026170D03*
X031590Y026180D03*
X031590Y026190D03*
X031590Y026200D03*
X031590Y026210D03*
X031590Y026220D03*
D23*
X032610Y025890D03*
X032610Y025880D03*
X032610Y025870D03*
X032610Y025860D03*
X032610Y025850D03*
X032610Y025840D03*
X032610Y025830D03*
X032610Y025820D03*
X032610Y025810D03*
X032610Y025800D03*
X032610Y025790D03*
X032610Y025780D03*
X032610Y025770D03*
X032610Y025760D03*
X032610Y025750D03*
X032610Y025740D03*
X032610Y025730D03*
X032610Y025720D03*
X032610Y025710D03*
X032610Y025700D03*
X032610Y025690D03*
X033360Y025680D03*
X033360Y025670D03*
X033360Y025660D03*
X033360Y025650D03*
X033360Y025640D03*
X033360Y025630D03*
X033360Y025620D03*
X033360Y025610D03*
X033360Y025600D03*
X033360Y025590D03*
X033360Y025580D03*
X033360Y025570D03*
X033360Y025560D03*
X033360Y025550D03*
X033360Y025540D03*
X033360Y025530D03*
X033360Y025520D03*
X034650Y025520D03*
X034650Y025530D03*
X034650Y025540D03*
X034650Y025550D03*
X034650Y025560D03*
X034650Y025570D03*
X034650Y025580D03*
X034650Y025590D03*
X034650Y025600D03*
X034650Y025610D03*
X034650Y025620D03*
X034650Y025630D03*
X034650Y025640D03*
X034650Y025650D03*
X034650Y025660D03*
X034650Y025670D03*
X034650Y025680D03*
X031880Y020820D03*
X031880Y020800D03*
X030670Y020350D03*
D24*
X034005Y025690D03*
X034005Y025700D03*
X034005Y025710D03*
X034005Y025720D03*
X034005Y025730D03*
X034005Y025740D03*
X034005Y025750D03*
X034005Y025760D03*
X034005Y025770D03*
X034005Y025780D03*
X034005Y025790D03*
X034005Y025800D03*
X034005Y025810D03*
X034005Y025820D03*
X034005Y025830D03*
X034005Y025840D03*
X034005Y025850D03*
X034005Y025860D03*
X034005Y025870D03*
X034005Y025880D03*
X034005Y025890D03*
D25*
X034005Y026060D03*
X034005Y026070D03*
X034005Y026080D03*
X034005Y026090D03*
X034005Y026100D03*
X034005Y026110D03*
X034005Y026120D03*
X034005Y026130D03*
X034005Y026140D03*
X034005Y026150D03*
X034005Y026160D03*
X034005Y026170D03*
X034005Y026180D03*
X034005Y026190D03*
X034005Y026200D03*
X034005Y026210D03*
X034005Y026220D03*
D26*
X030195Y026220D03*
X030195Y026210D03*
X030195Y026200D03*
X030195Y026190D03*
X030195Y026180D03*
X030195Y026170D03*
X030195Y026160D03*
X030195Y026150D03*
X030195Y026140D03*
X030195Y026130D03*
X030195Y026120D03*
X030195Y026110D03*
X030195Y026100D03*
X030195Y026090D03*
X030195Y026080D03*
X030195Y026070D03*
X030195Y026060D03*
X031875Y020830D03*
X031875Y020810D03*
X031875Y020790D03*
X031875Y020170D03*
X031875Y020160D03*
X031875Y020150D03*
X031875Y020140D03*
X031875Y020130D03*
D27*
X031610Y026230D03*
X031610Y026240D03*
X031610Y026250D03*
X031610Y026260D03*
D28*
X030215Y026260D03*
X030215Y026250D03*
X030215Y026240D03*
X030215Y026230D03*
X031895Y020510D03*
X031895Y020490D03*
X031895Y020470D03*
X030665Y020380D03*
X030665Y020370D03*
D29*
X031190Y020630D03*
X031210Y020630D03*
X031230Y020630D03*
X031430Y020530D03*
X031500Y020500D03*
X031430Y020790D03*
X031490Y020830D03*
X031340Y020840D03*
X031350Y020170D03*
X031340Y020120D03*
X031440Y020120D03*
X031430Y020170D03*
D30*
X031390Y020120D03*
X031270Y020180D03*
X031250Y020200D03*
X031240Y020210D03*
X031230Y020220D03*
X031220Y020250D03*
X031220Y020270D03*
X031220Y020330D03*
X031220Y020350D03*
X031230Y020380D03*
X031240Y020390D03*
X031250Y020400D03*
X031220Y020650D03*
X031220Y020670D03*
X031240Y020730D03*
X031260Y020750D03*
X031260Y020760D03*
X031510Y020780D03*
X031520Y020770D03*
X031530Y020760D03*
X031540Y020750D03*
X031560Y020710D03*
X031560Y020630D03*
X031560Y020610D03*
X031550Y020590D03*
X031530Y020560D03*
X031580Y020310D03*
X031580Y020290D03*
X031580Y020270D03*
X031570Y020240D03*
X031560Y020230D03*
X031040Y020190D03*
X031040Y020170D03*
X031040Y020150D03*
X031040Y020130D03*
X030880Y020150D03*
X030860Y020210D03*
X030800Y020410D03*
X030780Y020470D03*
X030540Y020430D03*
X030500Y020310D03*
X030480Y020230D03*
X030470Y020200D03*
X030460Y020170D03*
X030290Y020160D03*
X030290Y020240D03*
X030290Y020320D03*
X030290Y020400D03*
X030290Y020480D03*
X030280Y020830D03*
X030660Y020810D03*
X030670Y020800D03*
X030050Y020180D03*
X030040Y020170D03*
X029800Y020150D03*
X029800Y020130D03*
X029800Y020210D03*
X029800Y020230D03*
X029800Y020290D03*
X029800Y020310D03*
X029800Y020370D03*
X029800Y020390D03*
X029800Y020450D03*
X029810Y020820D03*
X032210Y020820D03*
X032220Y020770D03*
X032230Y020720D03*
X032240Y020670D03*
X032260Y020590D03*
X032520Y020810D03*
X032530Y020800D03*
X032520Y020830D03*
X032820Y020750D03*
X032830Y020800D03*
X032840Y020830D03*
X032800Y020650D03*
X032780Y020550D03*
X032760Y020450D03*
X032740Y020350D03*
X032620Y020430D03*
X032690Y020180D03*
X032690Y020160D03*
X032360Y020150D03*
X032350Y020160D03*
X032350Y020180D03*
D31*
X032350Y020130D03*
X032380Y020240D03*
X032390Y020250D03*
X032390Y020270D03*
X032390Y020290D03*
X032400Y020300D03*
X032400Y020320D03*
X032400Y020340D03*
X032410Y020350D03*
X032410Y020360D03*
X032410Y020370D03*
X032420Y020380D03*
X032420Y020400D03*
X032420Y020420D03*
X032430Y020430D03*
X032430Y020440D03*
X032430Y020450D03*
X032430Y020470D03*
X032440Y020480D03*
X032440Y020490D03*
X032440Y020500D03*
X032450Y020510D03*
X032450Y020530D03*
X032450Y020550D03*
X032460Y020560D03*
X032460Y020570D03*
X032460Y020580D03*
X032470Y020590D03*
X032460Y020600D03*
X032470Y020610D03*
X032470Y020620D03*
X032470Y020630D03*
X032480Y020640D03*
X032480Y020660D03*
X032480Y020680D03*
X032490Y020690D03*
X032490Y020710D03*
X032550Y020710D03*
X032560Y020700D03*
X032560Y020680D03*
X032560Y020660D03*
X032570Y020650D03*
X032570Y020640D03*
X032570Y020630D03*
X032580Y020620D03*
X032580Y020600D03*
X032580Y020580D03*
X032590Y020570D03*
X032590Y020550D03*
X032590Y020530D03*
X032600Y020520D03*
X032600Y020500D03*
X032600Y020480D03*
X032610Y020470D03*
X032610Y020450D03*
X032620Y020440D03*
X032620Y020420D03*
X032630Y020410D03*
X032620Y020400D03*
X032630Y020390D03*
X032630Y020380D03*
X032630Y020370D03*
X032640Y020360D03*
X032640Y020340D03*
X032640Y020320D03*
X032650Y020310D03*
X032650Y020290D03*
X032660Y020280D03*
X032650Y020270D03*
X032660Y020260D03*
X032660Y020240D03*
X032720Y020240D03*
X032720Y020260D03*
X032720Y020280D03*
X032730Y020290D03*
X032730Y020300D03*
X032730Y020310D03*
X032740Y020340D03*
X032740Y020360D03*
X032740Y020380D03*
X032750Y020410D03*
X032760Y020420D03*
X032760Y020440D03*
X032760Y020460D03*
X032760Y020480D03*
X032770Y020490D03*
X032770Y020510D03*
X032780Y020540D03*
X032780Y020560D03*
X032780Y020580D03*
X032790Y020590D03*
X032790Y020610D03*
X032800Y020640D03*
X032800Y020660D03*
X032810Y020690D03*
X032820Y020740D03*
X032820Y020760D03*
X032840Y020820D03*
X032520Y020820D03*
X032220Y020780D03*
X032220Y020760D03*
X032230Y020730D03*
X032240Y020680D03*
X032240Y020660D03*
X032250Y020630D03*
X032260Y020580D03*
X032260Y020560D03*
X032270Y020530D03*
X032280Y020500D03*
X032280Y020480D03*
X032280Y020460D03*
X032290Y020450D03*
X032290Y020430D03*
X032290Y020410D03*
X032300Y020400D03*
X032300Y020380D03*
X032300Y020360D03*
X032310Y020350D03*
X032310Y020330D03*
X032310Y020310D03*
X032320Y020300D03*
X032320Y020280D03*
X032320Y020260D03*
X032330Y020250D03*
X032040Y020260D03*
X032040Y020280D03*
X032040Y020340D03*
X032040Y020360D03*
X032040Y020420D03*
X032040Y020440D03*
X032040Y020520D03*
X032040Y020580D03*
X032040Y020600D03*
X032040Y020660D03*
X032040Y020680D03*
X032040Y020740D03*
X032040Y020760D03*
X032210Y020810D03*
X032040Y020200D03*
X032040Y020180D03*
X031580Y020280D03*
X031580Y020300D03*
X031580Y020320D03*
X031570Y020250D03*
X031220Y020260D03*
X031220Y020340D03*
X031040Y020160D03*
X031040Y020140D03*
X030880Y020140D03*
X030870Y020190D03*
X030860Y020220D03*
X030850Y020250D03*
X030840Y020280D03*
X030840Y020300D03*
X030830Y020310D03*
X030830Y020330D03*
X030800Y020400D03*
X030800Y020420D03*
X030790Y020450D03*
X030780Y020460D03*
X030780Y020480D03*
X030770Y020490D03*
X030770Y020510D03*
X030760Y020540D03*
X030750Y020570D03*
X030740Y020580D03*
X030740Y020600D03*
X030740Y020620D03*
X030730Y020630D03*
X030720Y020660D03*
X030720Y020680D03*
X030710Y020690D03*
X030700Y020720D03*
X030700Y020740D03*
X030640Y020740D03*
X030630Y020720D03*
X030630Y020710D03*
X030620Y020700D03*
X030620Y020680D03*
X030610Y020650D03*
X030600Y020640D03*
X030600Y020620D03*
X030590Y020590D03*
X030580Y020580D03*
X030580Y020560D03*
X030580Y020540D03*
X030570Y020530D03*
X030560Y020500D03*
X030560Y020480D03*
X030550Y020470D03*
X030550Y020460D03*
X030550Y020450D03*
X030540Y020440D03*
X030540Y020420D03*
X030530Y020410D03*
X030530Y020390D03*
X030510Y020330D03*
X030500Y020300D03*
X030490Y020270D03*
X030480Y020240D03*
X030480Y020220D03*
X030470Y020210D03*
X030460Y020180D03*
X030460Y020160D03*
X030450Y020130D03*
X030290Y020130D03*
X030290Y020140D03*
X030290Y020150D03*
X030290Y020170D03*
X030290Y020190D03*
X030290Y020210D03*
X030290Y020220D03*
X030290Y020230D03*
X030290Y020250D03*
X030290Y020270D03*
X030290Y020290D03*
X030290Y020300D03*
X030290Y020310D03*
X030290Y020330D03*
X030290Y020350D03*
X030290Y020370D03*
X030290Y020380D03*
X030290Y020390D03*
X030290Y020410D03*
X030290Y020430D03*
X030290Y020450D03*
X030290Y020460D03*
X030290Y020470D03*
X030290Y020490D03*
X030290Y020510D03*
X030290Y020530D03*
X030290Y020540D03*
X030290Y020550D03*
X030290Y020570D03*
X030290Y020580D03*
X030290Y020590D03*
X030290Y020600D03*
X030290Y020610D03*
X030290Y020620D03*
X030290Y020630D03*
X030290Y020650D03*
X030290Y020660D03*
X030290Y020670D03*
X030290Y020680D03*
X030290Y020690D03*
X030290Y020700D03*
X030290Y020710D03*
X030300Y020720D03*
X030230Y020710D03*
X030220Y020680D03*
X030220Y020660D03*
X030210Y020650D03*
X030200Y020620D03*
X030200Y020600D03*
X030190Y020590D03*
X030190Y020570D03*
X030180Y020560D03*
X030180Y020540D03*
X030170Y020530D03*
X030170Y020520D03*
X030170Y020510D03*
X030160Y020500D03*
X030160Y020480D03*
X030150Y020470D03*
X030150Y020460D03*
X030150Y020450D03*
X030140Y020440D03*
X030140Y020430D03*
X030140Y020420D03*
X030130Y020410D03*
X030130Y020400D03*
X030130Y020390D03*
X030120Y020380D03*
X030120Y020370D03*
X030120Y020360D03*
X030110Y020350D03*
X030110Y020330D03*
X030100Y020320D03*
X030100Y020310D03*
X030100Y020300D03*
X030090Y020290D03*
X030090Y020280D03*
X030090Y020270D03*
X030080Y020260D03*
X030080Y020250D03*
X030080Y020240D03*
X030070Y020230D03*
X030020Y020220D03*
X030010Y020230D03*
X030010Y020250D03*
X030000Y020260D03*
X030000Y020270D03*
X030000Y020280D03*
X029990Y020290D03*
X029990Y020300D03*
X029990Y020310D03*
X029980Y020320D03*
X029980Y020330D03*
X029980Y020340D03*
X029970Y020350D03*
X029970Y020360D03*
X029970Y020370D03*
X029960Y020380D03*
X029960Y020400D03*
X029950Y020410D03*
X029950Y020430D03*
X029940Y020440D03*
X029940Y020450D03*
X029940Y020460D03*
X029930Y020480D03*
X029930Y020490D03*
X029920Y020500D03*
X029920Y020520D03*
X029910Y020530D03*
X029910Y020540D03*
X029910Y020550D03*
X029900Y020560D03*
X029900Y020580D03*
X029890Y020590D03*
X029890Y020600D03*
X029890Y020610D03*
X029880Y020620D03*
X029880Y020640D03*
X029880Y020660D03*
X029870Y020670D03*
X029860Y020680D03*
X029860Y020700D03*
X029800Y020700D03*
X029790Y020710D03*
X029790Y020690D03*
X029800Y020680D03*
X029800Y020660D03*
X029800Y020640D03*
X029800Y020620D03*
X029790Y020610D03*
X029800Y020600D03*
X029800Y020580D03*
X029800Y020560D03*
X029800Y020540D03*
X029800Y020520D03*
X029800Y020500D03*
X029800Y020480D03*
X029800Y020460D03*
X029800Y020440D03*
X029800Y020420D03*
X029800Y020400D03*
X029800Y020380D03*
X029800Y020360D03*
X029800Y020340D03*
X029800Y020320D03*
X029800Y020300D03*
X029800Y020280D03*
X029800Y020260D03*
X029800Y020240D03*
X029800Y020220D03*
X029800Y020200D03*
X029800Y020180D03*
X029800Y020160D03*
X029800Y020140D03*
X030040Y020140D03*
X030670Y020830D03*
X031220Y020680D03*
X031220Y020660D03*
X031220Y020640D03*
X031230Y020710D03*
X031560Y020700D03*
X031560Y020640D03*
X031560Y020620D03*
X032690Y020130D03*
D32*
X032695Y020140D03*
X032695Y020150D03*
X032725Y020270D03*
X032735Y020320D03*
X032735Y020330D03*
X032745Y020370D03*
X032745Y020390D03*
X032745Y020400D03*
X032755Y020430D03*
X032765Y020470D03*
X032765Y020500D03*
X032775Y020520D03*
X032775Y020530D03*
X032785Y020570D03*
X032795Y020600D03*
X032795Y020620D03*
X032795Y020630D03*
X032805Y020670D03*
X032805Y020680D03*
X032815Y020700D03*
X032815Y020710D03*
X032815Y020720D03*
X032815Y020730D03*
X032825Y020770D03*
X032825Y020780D03*
X032825Y020790D03*
X032835Y020810D03*
X032565Y020670D03*
X032555Y020690D03*
X032485Y020670D03*
X032475Y020650D03*
X032575Y020610D03*
X032585Y020590D03*
X032585Y020560D03*
X032595Y020510D03*
X032605Y020490D03*
X032635Y020350D03*
X032645Y020330D03*
X032425Y020410D03*
X032415Y020390D03*
X032405Y020330D03*
X032395Y020310D03*
X032315Y020320D03*
X032305Y020340D03*
X032305Y020370D03*
X032295Y020390D03*
X032295Y020420D03*
X032285Y020440D03*
X032285Y020470D03*
X032275Y020490D03*
X032275Y020510D03*
X032275Y020520D03*
X032265Y020540D03*
X032265Y020550D03*
X032265Y020570D03*
X032255Y020600D03*
X032255Y020610D03*
X032255Y020620D03*
X032245Y020640D03*
X032245Y020650D03*
X032235Y020690D03*
X032235Y020700D03*
X032235Y020710D03*
X032225Y020740D03*
X032225Y020750D03*
X032215Y020790D03*
X032215Y020800D03*
X032205Y020830D03*
X032035Y020780D03*
X032035Y020770D03*
X032035Y020750D03*
X032035Y020730D03*
X032035Y020720D03*
X032035Y020710D03*
X032035Y020700D03*
X032035Y020690D03*
X032035Y020670D03*
X032035Y020650D03*
X032035Y020640D03*
X032035Y020630D03*
X032035Y020620D03*
X032035Y020610D03*
X032035Y020590D03*
X032035Y020570D03*
X032035Y020560D03*
X032035Y020550D03*
X032035Y020540D03*
X032035Y020530D03*
X032035Y020460D03*
X032035Y020450D03*
X032035Y020430D03*
X032035Y020410D03*
X032035Y020400D03*
X032035Y020390D03*
X032035Y020380D03*
X032035Y020370D03*
X032035Y020350D03*
X032035Y020330D03*
X032035Y020320D03*
X032035Y020310D03*
X032035Y020300D03*
X032035Y020290D03*
X032035Y020270D03*
X032035Y020250D03*
X032035Y020240D03*
X032035Y020230D03*
X032035Y020220D03*
X032035Y020210D03*
X032035Y020190D03*
X032315Y020290D03*
X032325Y020270D03*
X032355Y020140D03*
X032445Y020520D03*
X031565Y020650D03*
X031565Y020660D03*
X031565Y020670D03*
X031565Y020680D03*
X031565Y020690D03*
X031555Y020720D03*
X031555Y020730D03*
X031545Y020740D03*
X031555Y020600D03*
X031545Y020580D03*
X031575Y020260D03*
X031555Y020220D03*
X031225Y020230D03*
X031225Y020240D03*
X031215Y020280D03*
X031215Y020290D03*
X031215Y020300D03*
X031215Y020310D03*
X031215Y020320D03*
X031225Y020360D03*
X031225Y020370D03*
X031045Y020200D03*
X031045Y020180D03*
X030885Y020130D03*
X030875Y020160D03*
X030875Y020170D03*
X030875Y020180D03*
X030865Y020200D03*
X030855Y020230D03*
X030855Y020240D03*
X030845Y020260D03*
X030845Y020270D03*
X030835Y020290D03*
X030825Y020320D03*
X030805Y020390D03*
X030795Y020430D03*
X030795Y020440D03*
X030775Y020500D03*
X030765Y020520D03*
X030765Y020530D03*
X030755Y020550D03*
X030755Y020560D03*
X030745Y020590D03*
X030735Y020610D03*
X030725Y020640D03*
X030725Y020650D03*
X030715Y020670D03*
X030705Y020700D03*
X030705Y020710D03*
X030625Y020690D03*
X030615Y020670D03*
X030615Y020660D03*
X030605Y020630D03*
X030595Y020610D03*
X030595Y020600D03*
X030585Y020570D03*
X030575Y020550D03*
X030565Y020520D03*
X030565Y020510D03*
X030555Y020490D03*
X030535Y020400D03*
X030505Y020320D03*
X030495Y020290D03*
X030495Y020280D03*
X030485Y020260D03*
X030485Y020250D03*
X030465Y020190D03*
X030455Y020150D03*
X030455Y020140D03*
X030285Y020180D03*
X030285Y020200D03*
X030285Y020260D03*
X030285Y020280D03*
X030285Y020340D03*
X030285Y020360D03*
X030285Y020420D03*
X030285Y020440D03*
X030285Y020500D03*
X030285Y020520D03*
X030295Y020560D03*
X030295Y020640D03*
X030215Y020670D03*
X030225Y020690D03*
X030225Y020700D03*
X030235Y020720D03*
X030205Y020640D03*
X030205Y020630D03*
X030195Y020610D03*
X030175Y020550D03*
X030155Y020490D03*
X029965Y020390D03*
X029935Y020470D03*
X029925Y020510D03*
X029905Y020570D03*
X029885Y020630D03*
X029875Y020650D03*
X029865Y020690D03*
X029855Y020710D03*
X029795Y020670D03*
X029795Y020650D03*
X029795Y020630D03*
X029795Y020590D03*
X029795Y020570D03*
X029795Y020550D03*
X029795Y020530D03*
X029795Y020510D03*
X029795Y020490D03*
X029795Y020470D03*
X029795Y020430D03*
X029795Y020410D03*
X029795Y020350D03*
X029795Y020330D03*
X029795Y020270D03*
X029795Y020250D03*
X029795Y020190D03*
X029795Y020170D03*
X030045Y020160D03*
X030045Y020150D03*
X030665Y020820D03*
X031225Y020700D03*
X031225Y020690D03*
X031235Y020720D03*
X031245Y020740D03*
D33*
X032325Y020240D03*
X032385Y020260D03*
X032395Y020280D03*
X032435Y020460D03*
X032455Y020540D03*
X032595Y020540D03*
X032615Y020460D03*
X032645Y020300D03*
X032485Y020700D03*
X030185Y020580D03*
X029955Y020420D03*
X030005Y020240D03*
X030075Y020220D03*
X030045Y020130D03*
D34*
X031390Y020140D03*
D35*
X031395Y020150D03*
X031395Y020800D03*
D36*
X031395Y020160D03*
D37*
X031255Y020190D03*
X031255Y020410D03*
X031265Y020420D03*
X031535Y020570D03*
X031545Y020210D03*
X031535Y020200D03*
X032355Y020200D03*
X032355Y020170D03*
X032695Y020170D03*
X032695Y020200D03*
X032525Y020770D03*
X032525Y020780D03*
X032525Y020790D03*
X030665Y020780D03*
X030275Y020780D03*
X030275Y020810D03*
X030275Y020820D03*
X029815Y020800D03*
X030045Y020190D03*
D38*
X029830Y020720D03*
X029820Y020730D03*
X029820Y020750D03*
X030260Y020730D03*
X030660Y020750D03*
X031300Y020790D03*
X031470Y020520D03*
X031320Y020450D03*
X031500Y020170D03*
X032520Y020730D03*
X032690Y020250D03*
D39*
X032695Y020230D03*
X032355Y020230D03*
X032525Y020720D03*
X032525Y020750D03*
X031495Y020790D03*
X031285Y020430D03*
X031285Y020170D03*
X030665Y020760D03*
X030265Y020760D03*
X030265Y020750D03*
X030265Y020740D03*
X029825Y020740D03*
X029815Y020770D03*
X030045Y020210D03*
D40*
X030040Y020200D03*
X029820Y020760D03*
X029820Y020780D03*
X029810Y020790D03*
X029810Y020810D03*
X029810Y020830D03*
X030270Y020790D03*
X030280Y020800D03*
X030270Y020770D03*
X030670Y020770D03*
X030670Y020790D03*
X031270Y020770D03*
X031280Y020780D03*
X031400Y020840D03*
X031510Y020550D03*
X031500Y020540D03*
X031490Y020530D03*
X031300Y020440D03*
X031530Y020190D03*
X031520Y020180D03*
X032350Y020190D03*
X032350Y020210D03*
X032360Y020220D03*
X032690Y020220D03*
X032690Y020210D03*
X032690Y020190D03*
X032520Y020740D03*
X032520Y020760D03*
D41*
X030665Y020340D03*
D42*
X030110Y020340D03*
D43*
X030670Y020360D03*
D44*
X031360Y020470D03*
X031390Y020480D03*
X031400Y020490D03*
D45*
X031900Y020500D03*
X031900Y020480D03*
D46*
X031395Y020810D03*
D47*
X026115Y022875D03*
X026115Y024175D03*
X024185Y024175D03*
X024185Y022875D03*
X024365Y011550D03*
X024365Y010250D03*
X022435Y010250D03*
X022435Y011550D03*
X012240Y023250D03*
X012240Y024550D03*
X010310Y024550D03*
X010310Y023250D03*
X009365Y013300D03*
X009365Y012000D03*
X007435Y012000D03*
X007435Y013300D03*
X013310Y034500D03*
X013310Y035800D03*
X015240Y035800D03*
X015240Y034500D03*
X025935Y035375D03*
X025935Y036675D03*
X027865Y036675D03*
X027865Y035375D03*
X038560Y036375D03*
X038560Y037675D03*
X040490Y037675D03*
X040490Y036375D03*
X051310Y037250D03*
X051310Y038550D03*
X053240Y038550D03*
X053240Y037250D03*
X041115Y050250D03*
X041115Y051550D03*
X039185Y051550D03*
X039185Y050250D03*
X029615Y049300D03*
X029615Y048000D03*
X027685Y048000D03*
X027685Y049300D03*
X018240Y047300D03*
X018240Y046000D03*
X016310Y046000D03*
X016310Y047300D03*
X037935Y023800D03*
X037935Y022500D03*
X039865Y022500D03*
X039865Y023800D03*
X051810Y023425D03*
X051810Y022125D03*
X053740Y022125D03*
X053740Y023425D03*
X039240Y010050D03*
X039240Y008750D03*
X037310Y008750D03*
X037310Y010050D03*
X052435Y008425D03*
X052435Y007125D03*
X054365Y007125D03*
X054365Y008425D03*
X052615Y052375D03*
X052615Y053675D03*
X050685Y053675D03*
X050685Y052375D03*
D48*
X051256Y051150D03*
X052044Y051150D03*
X040544Y049150D03*
X039756Y049150D03*
X029044Y046900D03*
X028256Y046900D03*
X017669Y044900D03*
X016881Y044900D03*
X026506Y034150D03*
X027294Y034150D03*
X039131Y035275D03*
X039919Y035275D03*
X051881Y036150D03*
X052669Y036150D03*
X039294Y021275D03*
X038506Y021275D03*
X025544Y021650D03*
X024756Y021650D03*
X023794Y009275D03*
X023006Y009275D03*
X028901Y007650D03*
X029649Y007650D03*
X029649Y006650D03*
X028901Y006650D03*
X037881Y007525D03*
X038669Y007525D03*
X052381Y020900D03*
X053169Y020900D03*
X053006Y006025D03*
X053794Y006025D03*
X014669Y033275D03*
X013881Y033275D03*
X011669Y022025D03*
X010881Y022025D03*
X008794Y011025D03*
X008006Y011025D03*
D49*
X008150Y017150D03*
X008150Y019150D03*
X008150Y021150D03*
X055150Y014650D03*
X055150Y013150D03*
X055150Y011650D03*
D50*
X029649Y009662D03*
X029275Y009662D03*
X028901Y009662D03*
X028901Y008638D03*
X029275Y008638D03*
X029649Y008638D03*
D51*
X030469Y011650D03*
X032831Y011650D03*
D52*
X030525Y009741D03*
X030525Y008559D03*
D53*
X031849Y008650D03*
X032951Y008650D03*
D54*
X027650Y008599D03*
X027650Y009701D03*
D55*
X027650Y009775D03*
X028025Y009775D03*
X027275Y009775D03*
X027275Y008900D03*
X027275Y008525D03*
X027650Y008525D03*
X027650Y008900D03*
X028025Y008900D03*
X028025Y008525D03*
X029900Y008650D03*
X029900Y009662D03*
X031275Y009650D03*
X031275Y010025D03*
X031650Y010025D03*
X031650Y009650D03*
X031650Y009275D03*
X031275Y009275D03*
X029900Y006650D03*
X028025Y011275D03*
X027650Y011275D03*
X027275Y011275D03*
X026150Y011150D03*
X023150Y009650D03*
X022775Y009650D03*
X021800Y011550D03*
X023025Y012025D03*
X023025Y012400D03*
X015775Y010275D03*
X015525Y009525D03*
X014650Y009650D03*
X010150Y012650D03*
X008150Y011400D03*
X007775Y011400D03*
X007900Y014025D03*
X007525Y014025D03*
X007900Y018275D03*
X009900Y018275D03*
X010900Y020900D03*
X010900Y022525D03*
X010525Y022525D03*
X009025Y022650D03*
X009525Y025275D03*
X010775Y025275D03*
X010775Y024900D03*
X013025Y023900D03*
X008150Y028650D03*
X010400Y030400D03*
X011025Y030275D03*
X013650Y033775D03*
X014025Y033775D03*
X016025Y035150D03*
X013900Y036400D03*
X013900Y036775D03*
X011900Y036775D03*
X010150Y035650D03*
X012025Y042400D03*
X013150Y042775D03*
X014775Y043525D03*
X016525Y045275D03*
X016900Y045275D03*
X018900Y046775D03*
X019400Y046525D03*
X016900Y048025D03*
X016525Y048025D03*
X015150Y047150D03*
X019400Y051150D03*
X022400Y048400D03*
X023025Y048900D03*
X026650Y048525D03*
X027900Y047275D03*
X028275Y047275D03*
X030250Y048750D03*
X028275Y049900D03*
X027900Y049900D03*
X028900Y053150D03*
X034150Y049900D03*
X034900Y050525D03*
X038275Y050275D03*
X039400Y049525D03*
X039775Y049525D03*
X041500Y050875D03*
X039775Y052150D03*
X039400Y052150D03*
X041650Y055650D03*
X045900Y052025D03*
X046400Y052650D03*
X049900Y052400D03*
X050900Y051650D03*
X051275Y051650D03*
X051275Y054275D03*
X050900Y054275D03*
X054150Y055650D03*
X055650Y041650D03*
X051900Y039400D03*
X051900Y039025D03*
X052650Y037775D03*
X052025Y036525D03*
X051650Y036525D03*
X050400Y036900D03*
X050150Y037275D03*
X050400Y037650D03*
X046775Y036900D03*
X046275Y037775D03*
X046650Y038150D03*
X045900Y037400D03*
X041125Y037125D03*
X039275Y035650D03*
X038900Y035650D03*
X037650Y036400D03*
X037400Y036775D03*
X037400Y036025D03*
X038775Y038275D03*
X039150Y038275D03*
X033650Y037150D03*
X033275Y036775D03*
X032900Y036400D03*
X033775Y035900D03*
X028650Y036150D03*
X026525Y037400D03*
X026150Y037400D03*
X024650Y035775D03*
X024900Y035400D03*
X024650Y035025D03*
X026275Y034650D03*
X026650Y034650D03*
X020775Y035150D03*
X020150Y035525D03*
X020525Y035900D03*
X020900Y036275D03*
X024775Y024900D03*
X024775Y024525D03*
X023150Y023275D03*
X022900Y022900D03*
X023150Y022525D03*
X024525Y022150D03*
X024900Y022150D03*
X027025Y023400D03*
X031525Y023150D03*
X032025Y023525D03*
X032525Y023900D03*
X032400Y022775D03*
X036650Y022900D03*
X036875Y022550D03*
X036650Y022150D03*
X038275Y021775D03*
X038650Y021775D03*
X040650Y023150D03*
X038525Y024150D03*
X038525Y024525D03*
X045150Y023150D03*
X045525Y023400D03*
X045900Y023650D03*
X045900Y022650D03*
X050650Y022525D03*
X050900Y022150D03*
X050650Y021775D03*
X052150Y021400D03*
X052525Y021400D03*
X053650Y022650D03*
X052400Y023775D03*
X052400Y024150D03*
X056525Y028150D03*
X053150Y013275D03*
X054400Y013150D03*
X054775Y013150D03*
X055150Y013150D03*
X055525Y013150D03*
X055900Y013150D03*
X055900Y011650D03*
X055525Y011650D03*
X055150Y011650D03*
X054775Y011650D03*
X054400Y011650D03*
X054400Y010400D03*
X052900Y009150D03*
X052525Y009150D03*
X053650Y007650D03*
X053025Y006400D03*
X052650Y006400D03*
X051400Y007150D03*
X046150Y007150D03*
X046150Y007650D03*
X046150Y008275D03*
X041175Y009125D03*
X038025Y008025D03*
X037650Y008025D03*
X036400Y009650D03*
X037525Y010650D03*
X037900Y010650D03*
X019025Y022025D03*
X018275Y022525D03*
X018775Y022900D03*
X019150Y023275D03*
D56*
X008900Y019150D03*
X008525Y019150D03*
X008150Y019150D03*
X007775Y019150D03*
X007400Y019150D03*
X007400Y017150D03*
X007775Y017150D03*
X008150Y017150D03*
X008525Y017150D03*
X008900Y017150D03*
X034025Y011900D03*
X034025Y011525D03*
X034025Y011150D03*
X034025Y010775D03*
X034025Y010400D03*
X034025Y010025D03*
X034400Y010025D03*
X034400Y010400D03*
X034775Y010400D03*
X034775Y010775D03*
X034400Y010775D03*
X034400Y011150D03*
X034775Y011150D03*
X034400Y011525D03*
X034775Y008275D03*
X034775Y007900D03*
X034400Y007900D03*
X034400Y007525D03*
X034775Y007525D03*
X034025Y007525D03*
D57*
X033650Y004900D03*
X032650Y003775D03*
X030650Y004025D03*
X029150Y004150D03*
X027650Y004400D03*
X026525Y005900D03*
X024650Y006275D03*
X022900Y006775D03*
X021275Y006900D03*
X019400Y007150D03*
X017650Y007275D03*
X015900Y007400D03*
X014150Y007525D03*
X012275Y007775D03*
X010400Y008025D03*
X008525Y008150D03*
X006650Y008400D03*
X005275Y009275D03*
X004400Y010650D03*
X004150Y012025D03*
X004275Y013525D03*
X004650Y015025D03*
X005150Y016650D03*
X005150Y017150D03*
X005150Y017650D03*
X005650Y017650D03*
X005650Y017150D03*
X005650Y016650D03*
X005650Y018150D03*
X005650Y018650D03*
X035275Y004400D03*
X036650Y005025D03*
X038400Y004900D03*
X040150Y004775D03*
X042025Y004525D03*
X043775Y004400D03*
X045650Y004150D03*
X047400Y003900D03*
X049275Y003775D03*
X051150Y003525D03*
X052900Y003400D03*
X054775Y003400D03*
X056650Y003900D03*
X057525Y005025D03*
X057775Y006775D03*
X057775Y008400D03*
X057775Y009900D03*
X057650Y011150D03*
X057650Y011650D03*
X057650Y012150D03*
X057650Y012650D03*
X057150Y012650D03*
X057150Y012150D03*
X057150Y011650D03*
X057150Y011150D03*
M02*
