G75*
G70*
%OFA0B0*%
%FSLAX24Y24*%
%IPPOS*%
%LPD*%
%AMOC8*
5,1,8,0,0,1.08239X$1,22.5*
%
%ADD10C,0.0000*%
%ADD11C,0.0100*%
%ADD12R,0.0591X0.0354*%
%ADD13R,0.0512X0.0630*%
%ADD14R,0.2000X0.0720*%
%ADD15R,0.0591X0.0512*%
%ADD16R,0.0630X0.1063*%
%ADD17R,0.1063X0.0630*%
%ADD18OC8,0.0278*%
%ADD19OC8,0.0357*%
%ADD20OC8,0.0396*%
%ADD21C,0.0160*%
D10*
X025781Y004583D02*
X025783Y004627D01*
X025789Y004671D01*
X025799Y004714D01*
X025812Y004756D01*
X025829Y004797D01*
X025850Y004836D01*
X025874Y004873D01*
X025901Y004908D01*
X025931Y004940D01*
X025964Y004970D01*
X026000Y004996D01*
X026037Y005020D01*
X026077Y005039D01*
X026118Y005056D01*
X026161Y005068D01*
X026204Y005077D01*
X026248Y005082D01*
X026292Y005083D01*
X026336Y005080D01*
X026380Y005073D01*
X026423Y005062D01*
X026465Y005048D01*
X026505Y005030D01*
X026544Y005008D01*
X026580Y004984D01*
X026614Y004956D01*
X026646Y004925D01*
X026675Y004891D01*
X026701Y004855D01*
X026723Y004817D01*
X026742Y004777D01*
X026757Y004735D01*
X026769Y004693D01*
X026777Y004649D01*
X026781Y004605D01*
X026781Y004561D01*
X026777Y004517D01*
X026769Y004473D01*
X026757Y004431D01*
X026742Y004389D01*
X026723Y004349D01*
X026701Y004311D01*
X026675Y004275D01*
X026646Y004241D01*
X026614Y004210D01*
X026580Y004182D01*
X026544Y004158D01*
X026505Y004136D01*
X026465Y004118D01*
X026423Y004104D01*
X026380Y004093D01*
X026336Y004086D01*
X026292Y004083D01*
X026248Y004084D01*
X026204Y004089D01*
X026161Y004098D01*
X026118Y004110D01*
X026077Y004127D01*
X026037Y004146D01*
X026000Y004170D01*
X025964Y004196D01*
X025931Y004226D01*
X025901Y004258D01*
X025874Y004293D01*
X025850Y004330D01*
X025829Y004369D01*
X025812Y004410D01*
X025799Y004452D01*
X025789Y004495D01*
X025783Y004539D01*
X025781Y004583D01*
X033613Y003716D02*
X033615Y003760D01*
X033621Y003804D01*
X033631Y003847D01*
X033644Y003889D01*
X033661Y003930D01*
X033682Y003969D01*
X033706Y004006D01*
X033733Y004041D01*
X033763Y004073D01*
X033796Y004103D01*
X033832Y004129D01*
X033869Y004153D01*
X033909Y004172D01*
X033950Y004189D01*
X033993Y004201D01*
X034036Y004210D01*
X034080Y004215D01*
X034124Y004216D01*
X034168Y004213D01*
X034212Y004206D01*
X034255Y004195D01*
X034297Y004181D01*
X034337Y004163D01*
X034376Y004141D01*
X034412Y004117D01*
X034446Y004089D01*
X034478Y004058D01*
X034507Y004024D01*
X034533Y003988D01*
X034555Y003950D01*
X034574Y003910D01*
X034589Y003868D01*
X034601Y003826D01*
X034609Y003782D01*
X034613Y003738D01*
X034613Y003694D01*
X034609Y003650D01*
X034601Y003606D01*
X034589Y003564D01*
X034574Y003522D01*
X034555Y003482D01*
X034533Y003444D01*
X034507Y003408D01*
X034478Y003374D01*
X034446Y003343D01*
X034412Y003315D01*
X034376Y003291D01*
X034337Y003269D01*
X034297Y003251D01*
X034255Y003237D01*
X034212Y003226D01*
X034168Y003219D01*
X034124Y003216D01*
X034080Y003217D01*
X034036Y003222D01*
X033993Y003231D01*
X033950Y003243D01*
X033909Y003260D01*
X033869Y003279D01*
X033832Y003303D01*
X033796Y003329D01*
X033763Y003359D01*
X033733Y003391D01*
X033706Y003426D01*
X033682Y003463D01*
X033661Y003502D01*
X033644Y003543D01*
X033631Y003585D01*
X033621Y003628D01*
X033615Y003672D01*
X033613Y003716D01*
X058244Y026747D02*
X058246Y026791D01*
X058252Y026835D01*
X058262Y026878D01*
X058275Y026920D01*
X058292Y026961D01*
X058313Y027000D01*
X058337Y027037D01*
X058364Y027072D01*
X058394Y027104D01*
X058427Y027134D01*
X058463Y027160D01*
X058500Y027184D01*
X058540Y027203D01*
X058581Y027220D01*
X058624Y027232D01*
X058667Y027241D01*
X058711Y027246D01*
X058755Y027247D01*
X058799Y027244D01*
X058843Y027237D01*
X058886Y027226D01*
X058928Y027212D01*
X058968Y027194D01*
X059007Y027172D01*
X059043Y027148D01*
X059077Y027120D01*
X059109Y027089D01*
X059138Y027055D01*
X059164Y027019D01*
X059186Y026981D01*
X059205Y026941D01*
X059220Y026899D01*
X059232Y026857D01*
X059240Y026813D01*
X059244Y026769D01*
X059244Y026725D01*
X059240Y026681D01*
X059232Y026637D01*
X059220Y026595D01*
X059205Y026553D01*
X059186Y026513D01*
X059164Y026475D01*
X059138Y026439D01*
X059109Y026405D01*
X059077Y026374D01*
X059043Y026346D01*
X059007Y026322D01*
X058968Y026300D01*
X058928Y026282D01*
X058886Y026268D01*
X058843Y026257D01*
X058799Y026250D01*
X058755Y026247D01*
X058711Y026248D01*
X058667Y026253D01*
X058624Y026262D01*
X058581Y026274D01*
X058540Y026291D01*
X058500Y026310D01*
X058463Y026334D01*
X058427Y026360D01*
X058394Y026390D01*
X058364Y026422D01*
X058337Y026457D01*
X058313Y026494D01*
X058292Y026533D01*
X058275Y026574D01*
X058262Y026616D01*
X058252Y026659D01*
X058246Y026703D01*
X058244Y026747D01*
X057944Y034613D02*
X057946Y034657D01*
X057952Y034701D01*
X057962Y034744D01*
X057975Y034786D01*
X057992Y034827D01*
X058013Y034866D01*
X058037Y034903D01*
X058064Y034938D01*
X058094Y034970D01*
X058127Y035000D01*
X058163Y035026D01*
X058200Y035050D01*
X058240Y035069D01*
X058281Y035086D01*
X058324Y035098D01*
X058367Y035107D01*
X058411Y035112D01*
X058455Y035113D01*
X058499Y035110D01*
X058543Y035103D01*
X058586Y035092D01*
X058628Y035078D01*
X058668Y035060D01*
X058707Y035038D01*
X058743Y035014D01*
X058777Y034986D01*
X058809Y034955D01*
X058838Y034921D01*
X058864Y034885D01*
X058886Y034847D01*
X058905Y034807D01*
X058920Y034765D01*
X058932Y034723D01*
X058940Y034679D01*
X058944Y034635D01*
X058944Y034591D01*
X058940Y034547D01*
X058932Y034503D01*
X058920Y034461D01*
X058905Y034419D01*
X058886Y034379D01*
X058864Y034341D01*
X058838Y034305D01*
X058809Y034271D01*
X058777Y034240D01*
X058743Y034212D01*
X058707Y034188D01*
X058668Y034166D01*
X058628Y034148D01*
X058586Y034134D01*
X058543Y034123D01*
X058499Y034116D01*
X058455Y034113D01*
X058411Y034114D01*
X058367Y034119D01*
X058324Y034128D01*
X058281Y034140D01*
X058240Y034157D01*
X058200Y034176D01*
X058163Y034200D01*
X058127Y034226D01*
X058094Y034256D01*
X058064Y034288D01*
X058037Y034323D01*
X058013Y034360D01*
X057992Y034399D01*
X057975Y034440D01*
X057962Y034482D01*
X057952Y034525D01*
X057946Y034569D01*
X057944Y034613D01*
X038180Y056844D02*
X038182Y056888D01*
X038188Y056932D01*
X038198Y056975D01*
X038211Y057017D01*
X038228Y057058D01*
X038249Y057097D01*
X038273Y057134D01*
X038300Y057169D01*
X038330Y057201D01*
X038363Y057231D01*
X038399Y057257D01*
X038436Y057281D01*
X038476Y057300D01*
X038517Y057317D01*
X038560Y057329D01*
X038603Y057338D01*
X038647Y057343D01*
X038691Y057344D01*
X038735Y057341D01*
X038779Y057334D01*
X038822Y057323D01*
X038864Y057309D01*
X038904Y057291D01*
X038943Y057269D01*
X038979Y057245D01*
X039013Y057217D01*
X039045Y057186D01*
X039074Y057152D01*
X039100Y057116D01*
X039122Y057078D01*
X039141Y057038D01*
X039156Y056996D01*
X039168Y056954D01*
X039176Y056910D01*
X039180Y056866D01*
X039180Y056822D01*
X039176Y056778D01*
X039168Y056734D01*
X039156Y056692D01*
X039141Y056650D01*
X039122Y056610D01*
X039100Y056572D01*
X039074Y056536D01*
X039045Y056502D01*
X039013Y056471D01*
X038979Y056443D01*
X038943Y056419D01*
X038904Y056397D01*
X038864Y056379D01*
X038822Y056365D01*
X038779Y056354D01*
X038735Y056347D01*
X038691Y056344D01*
X038647Y056345D01*
X038603Y056350D01*
X038560Y056359D01*
X038517Y056371D01*
X038476Y056388D01*
X038436Y056407D01*
X038399Y056431D01*
X038363Y056457D01*
X038330Y056487D01*
X038300Y056519D01*
X038273Y056554D01*
X038249Y056591D01*
X038228Y056630D01*
X038211Y056671D01*
X038198Y056713D01*
X038188Y056756D01*
X038182Y056800D01*
X038180Y056844D01*
X030447Y055378D02*
X030449Y055422D01*
X030455Y055466D01*
X030465Y055509D01*
X030478Y055551D01*
X030495Y055592D01*
X030516Y055631D01*
X030540Y055668D01*
X030567Y055703D01*
X030597Y055735D01*
X030630Y055765D01*
X030666Y055791D01*
X030703Y055815D01*
X030743Y055834D01*
X030784Y055851D01*
X030827Y055863D01*
X030870Y055872D01*
X030914Y055877D01*
X030958Y055878D01*
X031002Y055875D01*
X031046Y055868D01*
X031089Y055857D01*
X031131Y055843D01*
X031171Y055825D01*
X031210Y055803D01*
X031246Y055779D01*
X031280Y055751D01*
X031312Y055720D01*
X031341Y055686D01*
X031367Y055650D01*
X031389Y055612D01*
X031408Y055572D01*
X031423Y055530D01*
X031435Y055488D01*
X031443Y055444D01*
X031447Y055400D01*
X031447Y055356D01*
X031443Y055312D01*
X031435Y055268D01*
X031423Y055226D01*
X031408Y055184D01*
X031389Y055144D01*
X031367Y055106D01*
X031341Y055070D01*
X031312Y055036D01*
X031280Y055005D01*
X031246Y054977D01*
X031210Y054953D01*
X031171Y054931D01*
X031131Y054913D01*
X031089Y054899D01*
X031046Y054888D01*
X031002Y054881D01*
X030958Y054878D01*
X030914Y054879D01*
X030870Y054884D01*
X030827Y054893D01*
X030784Y054905D01*
X030743Y054922D01*
X030703Y054941D01*
X030666Y054965D01*
X030630Y054991D01*
X030597Y055021D01*
X030567Y055053D01*
X030540Y055088D01*
X030516Y055125D01*
X030495Y055164D01*
X030478Y055205D01*
X030465Y055247D01*
X030455Y055290D01*
X030449Y055334D01*
X030447Y055378D01*
X006916Y033380D02*
X006918Y033424D01*
X006924Y033468D01*
X006934Y033511D01*
X006947Y033553D01*
X006964Y033594D01*
X006985Y033633D01*
X007009Y033670D01*
X007036Y033705D01*
X007066Y033737D01*
X007099Y033767D01*
X007135Y033793D01*
X007172Y033817D01*
X007212Y033836D01*
X007253Y033853D01*
X007296Y033865D01*
X007339Y033874D01*
X007383Y033879D01*
X007427Y033880D01*
X007471Y033877D01*
X007515Y033870D01*
X007558Y033859D01*
X007600Y033845D01*
X007640Y033827D01*
X007679Y033805D01*
X007715Y033781D01*
X007749Y033753D01*
X007781Y033722D01*
X007810Y033688D01*
X007836Y033652D01*
X007858Y033614D01*
X007877Y033574D01*
X007892Y033532D01*
X007904Y033490D01*
X007912Y033446D01*
X007916Y033402D01*
X007916Y033358D01*
X007912Y033314D01*
X007904Y033270D01*
X007892Y033228D01*
X007877Y033186D01*
X007858Y033146D01*
X007836Y033108D01*
X007810Y033072D01*
X007781Y033038D01*
X007749Y033007D01*
X007715Y032979D01*
X007679Y032955D01*
X007640Y032933D01*
X007600Y032915D01*
X007558Y032901D01*
X007515Y032890D01*
X007471Y032883D01*
X007427Y032880D01*
X007383Y032881D01*
X007339Y032886D01*
X007296Y032895D01*
X007253Y032907D01*
X007212Y032924D01*
X007172Y032943D01*
X007135Y032967D01*
X007099Y032993D01*
X007066Y033023D01*
X007036Y033055D01*
X007009Y033090D01*
X006985Y033127D01*
X006964Y033166D01*
X006947Y033207D01*
X006934Y033249D01*
X006924Y033292D01*
X006918Y033336D01*
X006916Y033380D01*
X004950Y025781D02*
X004952Y025825D01*
X004958Y025869D01*
X004968Y025912D01*
X004981Y025954D01*
X004998Y025995D01*
X005019Y026034D01*
X005043Y026071D01*
X005070Y026106D01*
X005100Y026138D01*
X005133Y026168D01*
X005169Y026194D01*
X005206Y026218D01*
X005246Y026237D01*
X005287Y026254D01*
X005330Y026266D01*
X005373Y026275D01*
X005417Y026280D01*
X005461Y026281D01*
X005505Y026278D01*
X005549Y026271D01*
X005592Y026260D01*
X005634Y026246D01*
X005674Y026228D01*
X005713Y026206D01*
X005749Y026182D01*
X005783Y026154D01*
X005815Y026123D01*
X005844Y026089D01*
X005870Y026053D01*
X005892Y026015D01*
X005911Y025975D01*
X005926Y025933D01*
X005938Y025891D01*
X005946Y025847D01*
X005950Y025803D01*
X005950Y025759D01*
X005946Y025715D01*
X005938Y025671D01*
X005926Y025629D01*
X005911Y025587D01*
X005892Y025547D01*
X005870Y025509D01*
X005844Y025473D01*
X005815Y025439D01*
X005783Y025408D01*
X005749Y025380D01*
X005713Y025356D01*
X005674Y025334D01*
X005634Y025316D01*
X005592Y025302D01*
X005549Y025291D01*
X005505Y025284D01*
X005461Y025281D01*
X005417Y025282D01*
X005373Y025287D01*
X005330Y025296D01*
X005287Y025308D01*
X005246Y025325D01*
X005206Y025344D01*
X005169Y025368D01*
X005133Y025394D01*
X005100Y025424D01*
X005070Y025456D01*
X005043Y025491D01*
X005019Y025528D01*
X004998Y025567D01*
X004981Y025608D01*
X004968Y025650D01*
X004958Y025693D01*
X004952Y025737D01*
X004950Y025781D01*
D11*
X006080Y007876D02*
X006736Y007696D01*
X007072Y007647D01*
X023195Y006010D01*
X023266Y006002D01*
X023420Y005987D01*
X023420Y005987D01*
X023719Y005909D01*
X023719Y005909D01*
X023785Y005881D01*
X023785Y005881D01*
X023861Y005849D01*
X023861Y005848D01*
X023938Y005816D01*
X023938Y005816D01*
X024081Y005754D01*
X024081Y005754D01*
X024469Y005477D01*
X024469Y005477D01*
X024469Y005477D01*
X024788Y005123D01*
X024788Y005123D01*
X024865Y004987D01*
X024865Y004987D01*
X024927Y004879D01*
X024947Y004843D01*
X024947Y004843D01*
X025061Y004644D01*
X025188Y004484D01*
X025484Y004174D01*
X025629Y004049D01*
X026079Y003845D01*
X033786Y002975D01*
X033928Y002975D01*
X034136Y002987D01*
X034541Y003083D01*
X034733Y003165D01*
X034794Y003196D01*
X035223Y003517D01*
X035226Y003529D01*
X035288Y003566D01*
X035346Y003610D01*
X035358Y003608D01*
X035859Y003908D01*
X035861Y003917D01*
X035929Y003950D01*
X035993Y003989D01*
X036002Y003987D01*
X036252Y004112D01*
X036263Y004118D01*
X036313Y004143D01*
X036337Y004155D01*
X036337Y004155D01*
X036492Y004232D01*
X036492Y004232D01*
X036991Y004350D01*
X037705Y004350D01*
X037714Y004358D01*
X037786Y004350D01*
X037858Y004350D01*
X037867Y004341D01*
X053788Y002595D01*
X053790Y002597D01*
X053869Y002586D01*
X053879Y002585D01*
X054249Y002549D01*
X055006Y002576D01*
X055745Y002735D01*
X056446Y003021D01*
X057086Y003424D01*
X057646Y003933D01*
X058108Y004532D01*
X058292Y004848D01*
X058406Y005205D01*
X058548Y005968D01*
X058564Y006743D01*
X058531Y007062D01*
X058526Y007067D01*
X058523Y007139D01*
X058512Y007211D01*
X058519Y007221D01*
X058260Y013400D01*
X056900Y013400D01*
X056417Y007118D01*
X056396Y006976D01*
X056354Y006839D01*
X056294Y006709D01*
X055453Y005196D01*
X058403Y005196D01*
X058422Y005295D02*
X055508Y005295D01*
X055563Y005393D02*
X058441Y005393D01*
X058459Y005492D02*
X055618Y005492D01*
X055672Y005590D02*
X058478Y005590D01*
X058496Y005689D02*
X055727Y005689D01*
X055782Y005787D02*
X058514Y005787D01*
X058533Y005886D02*
X055836Y005886D01*
X055891Y005984D02*
X058549Y005984D01*
X058551Y006083D02*
X055946Y006083D01*
X056001Y006181D02*
X058553Y006181D01*
X058555Y006280D02*
X056055Y006280D01*
X056110Y006378D02*
X058557Y006378D01*
X058559Y006477D02*
X056165Y006477D01*
X056219Y006575D02*
X058561Y006575D01*
X058563Y006674D02*
X056274Y006674D01*
X056323Y006772D02*
X058561Y006772D01*
X058551Y006871D02*
X056364Y006871D01*
X056393Y006969D02*
X058541Y006969D01*
X058526Y007068D02*
X056409Y007068D01*
X056420Y007166D02*
X058519Y007166D01*
X058518Y007265D02*
X056428Y007265D01*
X056436Y007363D02*
X058513Y007363D01*
X058509Y007462D02*
X056443Y007462D01*
X056451Y007560D02*
X058505Y007560D01*
X058501Y007659D02*
X056458Y007659D01*
X056466Y007757D02*
X058497Y007757D01*
X058493Y007856D02*
X056474Y007856D01*
X056481Y007954D02*
X058489Y007954D01*
X058485Y008053D02*
X056489Y008053D01*
X056496Y008151D02*
X058480Y008151D01*
X058476Y008250D02*
X056504Y008250D01*
X056511Y008348D02*
X058472Y008348D01*
X058468Y008447D02*
X056519Y008447D01*
X056527Y008545D02*
X058464Y008545D01*
X058460Y008644D02*
X056534Y008644D01*
X056542Y008742D02*
X058456Y008742D01*
X058451Y008841D02*
X056549Y008841D01*
X056557Y008939D02*
X058447Y008939D01*
X058443Y009038D02*
X056564Y009038D01*
X056572Y009136D02*
X058439Y009136D01*
X058435Y009235D02*
X056580Y009235D01*
X056587Y009333D02*
X058431Y009333D01*
X058427Y009432D02*
X056595Y009432D01*
X056602Y009530D02*
X058423Y009530D01*
X058418Y009629D02*
X056610Y009629D01*
X056617Y009727D02*
X058414Y009727D01*
X058410Y009826D02*
X056625Y009826D01*
X056633Y009924D02*
X058406Y009924D01*
X058402Y010023D02*
X056640Y010023D01*
X056648Y010121D02*
X058398Y010121D01*
X058394Y010220D02*
X056655Y010220D01*
X056663Y010318D02*
X058389Y010318D01*
X058385Y010417D02*
X056671Y010417D01*
X056678Y010515D02*
X058381Y010515D01*
X058377Y010614D02*
X056686Y010614D01*
X056693Y010712D02*
X058373Y010712D01*
X058369Y010811D02*
X056701Y010811D01*
X056708Y010909D02*
X058365Y010909D01*
X058361Y011008D02*
X056716Y011008D01*
X056724Y011106D02*
X058356Y011106D01*
X058352Y011205D02*
X056731Y011205D01*
X056739Y011303D02*
X058348Y011303D01*
X058344Y011402D02*
X056746Y011402D01*
X056754Y011500D02*
X058340Y011500D01*
X058336Y011599D02*
X056761Y011599D01*
X056769Y011697D02*
X058332Y011697D01*
X058327Y011796D02*
X056777Y011796D01*
X056784Y011894D02*
X058323Y011894D01*
X058319Y011993D02*
X056792Y011993D01*
X056799Y012091D02*
X058315Y012091D01*
X058311Y012190D02*
X056807Y012190D01*
X056814Y012288D02*
X058307Y012288D01*
X058303Y012387D02*
X056822Y012387D01*
X056830Y012485D02*
X058299Y012485D01*
X058294Y012584D02*
X056837Y012584D01*
X056845Y012682D02*
X058290Y012682D01*
X058286Y012781D02*
X056852Y012781D01*
X056860Y012879D02*
X058282Y012879D01*
X058278Y012978D02*
X056868Y012978D01*
X056875Y013076D02*
X058274Y013076D01*
X058270Y013175D02*
X056883Y013175D01*
X056890Y013273D02*
X058265Y013273D01*
X058261Y013372D02*
X056898Y013372D01*
X056717Y013372D02*
X056280Y013372D01*
X056280Y013470D02*
X056720Y013470D01*
X056720Y013475D02*
X056720Y013407D01*
X056238Y007138D01*
X056219Y007016D01*
X056186Y006903D01*
X056133Y006791D01*
X055299Y005289D01*
X055233Y005188D01*
X055158Y005102D01*
X055072Y005027D01*
X054976Y004965D01*
X054872Y004916D01*
X054763Y004883D01*
X054650Y004865D01*
X054532Y004863D01*
X040007Y006072D01*
X040001Y006079D01*
X039934Y006079D01*
X039867Y006084D01*
X039861Y006079D01*
X038694Y006080D01*
X038691Y006083D01*
X038620Y006080D01*
X038549Y006080D01*
X038546Y006077D01*
X028889Y005708D01*
X028887Y005709D01*
X028814Y005705D01*
X028742Y005702D01*
X028740Y005701D01*
X028634Y005695D01*
X028465Y005705D01*
X028299Y005734D01*
X028137Y005782D01*
X027992Y005845D01*
X025642Y007620D01*
X025639Y007632D01*
X025584Y007664D01*
X025534Y007701D01*
X025521Y007700D01*
X025516Y007711D01*
X025458Y007735D01*
X025402Y007767D01*
X025391Y007764D01*
X025385Y007774D01*
X025324Y007791D01*
X025265Y007816D01*
X025254Y007811D01*
X025247Y007821D01*
X025184Y007830D01*
X025123Y007847D01*
X025117Y007843D01*
X025115Y007845D01*
X025047Y007851D01*
X024978Y007861D01*
X024973Y007857D01*
X008833Y009281D01*
X008638Y009309D01*
X008452Y009356D01*
X008273Y009422D01*
X008101Y009506D01*
X007934Y009611D01*
X007105Y010196D01*
X006931Y010335D01*
X006778Y010490D01*
X006646Y010662D01*
X006534Y010849D01*
X006446Y011048D01*
X006382Y011255D01*
X006343Y011469D01*
X006330Y011692D01*
X006330Y012215D01*
X006620Y011926D01*
X006725Y011820D01*
X007010Y011820D01*
X007010Y011769D01*
X007086Y011693D01*
X007785Y011693D01*
X007861Y011769D01*
X007861Y012231D01*
X007785Y012308D01*
X007086Y012308D01*
X007010Y012231D01*
X007010Y012180D01*
X006874Y012180D01*
X006455Y012600D01*
X006455Y020150D01*
X007030Y020726D01*
X007096Y020660D01*
X009204Y020660D01*
X009280Y020736D01*
X009280Y021564D01*
X009204Y021640D01*
X007096Y021640D01*
X007020Y021564D01*
X007020Y021225D01*
X006095Y020300D01*
X006095Y019830D01*
X005167Y019830D01*
X005592Y021468D01*
X005594Y021470D01*
X005596Y021486D01*
X005600Y021501D01*
X005599Y021503D01*
X005615Y021616D01*
X005618Y021634D01*
X005755Y022595D01*
X005755Y022597D01*
X005778Y022759D01*
X005796Y022881D01*
X005796Y022881D01*
X005777Y023293D01*
X005683Y023694D01*
X005633Y023806D01*
X005633Y023806D01*
X005517Y024066D01*
X005517Y024066D01*
X005484Y024142D01*
X005401Y024327D01*
X005172Y024661D01*
X005087Y024745D01*
X005087Y024745D01*
X004850Y024983D01*
X004817Y025016D01*
X004817Y025016D01*
X004728Y025121D01*
X004611Y025368D01*
X004585Y025640D01*
X004606Y025776D01*
X004626Y025856D01*
X006581Y033673D01*
X006597Y033737D01*
X006601Y033753D01*
X006639Y033868D01*
X006764Y034074D01*
X006945Y034233D01*
X007052Y034290D01*
X007583Y034526D01*
X007750Y034600D01*
X007864Y034682D01*
X008327Y035013D01*
X008494Y035132D01*
X008790Y035447D01*
X008790Y035447D01*
X008905Y035631D01*
X008949Y035701D01*
X009207Y036115D01*
X009249Y036181D01*
X009378Y036476D01*
X009399Y036552D01*
X012144Y046620D01*
X012146Y046621D01*
X012166Y046699D01*
X012167Y046704D01*
X012282Y047106D01*
X012582Y047892D01*
X012973Y048638D01*
X013447Y049334D01*
X013669Y049605D01*
X013676Y049606D01*
X013719Y049666D01*
X013768Y049722D01*
X013767Y049732D01*
X014049Y050118D01*
X014359Y050391D01*
X015066Y050873D01*
X015841Y051233D01*
X016665Y051462D01*
X017021Y051515D01*
X017026Y051511D01*
X017098Y051526D01*
X017171Y051534D01*
X017178Y051542D01*
X027622Y053690D01*
X027635Y053684D01*
X027702Y053706D01*
X027771Y053721D01*
X027779Y053732D01*
X028312Y053910D01*
X028312Y053910D01*
X028390Y053936D01*
X028633Y054017D01*
X028633Y054017D01*
X029069Y054286D01*
X029069Y054286D01*
X029250Y054467D01*
X029250Y054467D01*
X029308Y054525D01*
X029335Y054553D01*
X029394Y054611D01*
X029542Y054760D01*
X029778Y055107D01*
X029778Y055107D01*
X029828Y055224D01*
X029861Y055300D01*
X029932Y055448D01*
X030117Y055719D01*
X030350Y055950D01*
X030483Y056048D01*
X030607Y056122D01*
X030875Y056232D01*
X031016Y056266D01*
X031066Y056276D01*
X031097Y056282D01*
X038412Y057675D01*
X038544Y057694D01*
X038678Y057700D01*
X038886Y057688D01*
X039291Y057592D01*
X039483Y057510D01*
X039622Y057431D01*
X039872Y057233D01*
X039981Y057115D01*
X040014Y057076D01*
X040124Y056944D01*
X040458Y056673D01*
X040838Y056472D01*
X040965Y056434D01*
X041121Y056387D01*
X041123Y056387D01*
X041319Y056328D01*
X041499Y056274D01*
X042038Y056249D01*
X042038Y056249D01*
X042222Y056285D01*
X043063Y056454D01*
X050126Y057774D01*
X050135Y057769D01*
X050206Y057789D01*
X050278Y057803D01*
X050282Y057809D01*
X050649Y057901D01*
X051534Y058021D01*
X052427Y058009D01*
X053309Y057867D01*
X053725Y057751D01*
X054091Y057551D01*
X054793Y057048D01*
X055404Y056438D01*
X055907Y055736D01*
X056290Y054963D01*
X056543Y054137D01*
X056658Y053281D01*
X056662Y052921D01*
X056660Y052919D01*
X056663Y052843D01*
X056660Y052766D01*
X056666Y052761D01*
X057198Y038202D01*
X057186Y038182D01*
X057201Y038122D01*
X057203Y038060D01*
X057220Y038044D01*
X057390Y037365D01*
X057426Y037223D01*
X057426Y037223D01*
X057538Y036942D01*
X057613Y036811D01*
X057654Y036739D01*
X057654Y036739D01*
X057705Y036651D01*
X057727Y036613D01*
X057765Y036546D01*
X057768Y036541D01*
X057862Y036376D01*
X058240Y035983D01*
X058439Y035859D01*
X058471Y035839D01*
X058628Y035727D01*
X058900Y035453D01*
X059102Y035125D01*
X059174Y034945D01*
X059201Y034863D01*
X059548Y027243D01*
X059548Y027230D01*
X059552Y027161D01*
X059547Y026932D01*
X059453Y026485D01*
X059363Y026274D01*
X059295Y026150D01*
X059130Y025921D01*
X059034Y025816D01*
X058975Y025758D01*
X058975Y025758D01*
X058732Y025515D01*
X058674Y025457D01*
X058516Y025299D01*
X058516Y025299D01*
X058516Y025299D01*
X058270Y024926D01*
X058270Y024926D01*
X058218Y024795D01*
X058218Y024795D01*
X058174Y024687D01*
X058156Y024641D01*
X058156Y024641D01*
X057968Y024171D01*
X057912Y024031D01*
X057912Y024031D01*
X057833Y023571D01*
X057840Y023421D01*
X057840Y023421D01*
X058253Y013580D01*
X056907Y013580D01*
X056839Y013585D01*
X056833Y013580D01*
X056825Y013580D01*
X056778Y013532D01*
X056726Y013488D01*
X056726Y013480D01*
X056720Y013475D01*
X056814Y013569D02*
X056275Y013569D01*
X056280Y013564D02*
X056204Y013640D01*
X054096Y013640D01*
X054020Y013564D01*
X054020Y012736D01*
X054096Y012660D01*
X056204Y012660D01*
X056280Y012736D01*
X056280Y013564D01*
X056280Y013273D02*
X056710Y013273D01*
X056702Y013175D02*
X056280Y013175D01*
X056280Y013076D02*
X056695Y013076D01*
X056687Y012978D02*
X056280Y012978D01*
X056280Y012879D02*
X056679Y012879D01*
X056672Y012781D02*
X056280Y012781D01*
X056226Y012682D02*
X056664Y012682D01*
X056657Y012584D02*
X053330Y012584D01*
X053330Y012682D02*
X054074Y012682D01*
X054020Y012781D02*
X053330Y012781D01*
X053330Y012879D02*
X054020Y012879D01*
X054020Y012978D02*
X053330Y012978D01*
X053330Y013074D02*
X053419Y013164D01*
X053419Y013386D01*
X053261Y013544D01*
X053039Y013544D01*
X052881Y013386D01*
X052881Y013164D01*
X052970Y013074D01*
X052970Y011575D01*
X054131Y010414D01*
X054131Y010289D01*
X054289Y010131D01*
X054511Y010131D01*
X054669Y010289D01*
X054669Y010511D01*
X054511Y010669D01*
X054386Y010669D01*
X053330Y011725D01*
X053330Y013074D01*
X053332Y013076D02*
X054020Y013076D01*
X054020Y013175D02*
X053419Y013175D01*
X053419Y013273D02*
X054020Y013273D01*
X054020Y013372D02*
X053419Y013372D01*
X053335Y013470D02*
X054020Y013470D01*
X054025Y013569D02*
X009752Y013569D01*
X009714Y013607D02*
X009015Y013607D01*
X008939Y013531D01*
X008939Y013069D01*
X009015Y012992D01*
X009714Y012992D01*
X009790Y013069D01*
X009790Y013120D01*
X009857Y013120D01*
X009929Y012809D01*
X009881Y012761D01*
X009881Y012539D01*
X010039Y012381D01*
X010261Y012381D01*
X010419Y012539D01*
X010419Y012761D01*
X010276Y012904D01*
X010180Y013320D01*
X010180Y013374D01*
X010164Y013390D01*
X010159Y013413D01*
X010113Y013441D01*
X010075Y013480D01*
X010052Y013480D01*
X010033Y013492D01*
X009980Y013480D01*
X009790Y013480D01*
X009790Y013531D01*
X009714Y013607D01*
X009500Y013300D02*
X009365Y013300D01*
X010000Y013300D01*
X010150Y012650D01*
X010419Y012682D02*
X022677Y012682D01*
X022579Y012584D02*
X010419Y012584D01*
X010366Y012485D02*
X022480Y012485D01*
X022382Y012387D02*
X010267Y012387D01*
X010033Y012387D02*
X006668Y012387D01*
X006570Y012485D02*
X009934Y012485D01*
X009881Y012584D02*
X006471Y012584D01*
X006455Y012682D02*
X009881Y012682D01*
X009900Y012781D02*
X008285Y012781D01*
X008330Y012825D02*
X008330Y014219D01*
X008392Y014281D01*
X008392Y015019D01*
X008330Y015081D01*
X008330Y016660D01*
X009204Y016660D01*
X009280Y016736D01*
X009280Y017564D01*
X009204Y017640D01*
X007096Y017640D01*
X007036Y017580D01*
X006700Y017580D01*
X006595Y017475D01*
X006595Y012825D01*
X006700Y012720D01*
X008225Y012720D01*
X008330Y012825D01*
X008330Y012879D02*
X009913Y012879D01*
X009890Y012978D02*
X008330Y012978D01*
X008330Y013076D02*
X008939Y013076D01*
X008939Y013175D02*
X008330Y013175D01*
X008330Y013273D02*
X008939Y013273D01*
X008939Y013372D02*
X008330Y013372D01*
X008330Y013470D02*
X008939Y013470D01*
X008977Y013569D02*
X008330Y013569D01*
X008330Y013667D02*
X058249Y013667D01*
X058245Y013766D02*
X008330Y013766D01*
X008330Y013864D02*
X058241Y013864D01*
X058237Y013963D02*
X008330Y013963D01*
X008330Y014061D02*
X058232Y014061D01*
X058228Y014160D02*
X008330Y014160D01*
X008369Y014258D02*
X054020Y014258D01*
X054020Y014236D02*
X054096Y014160D01*
X056204Y014160D01*
X056280Y014236D01*
X056280Y014525D01*
X056330Y014575D01*
X056725Y014971D01*
X056726Y014971D01*
X056778Y015023D01*
X056830Y015075D01*
X056830Y015076D01*
X056831Y015077D01*
X056830Y015151D01*
X056830Y015225D01*
X056829Y015225D01*
X056707Y027951D01*
X056794Y028039D01*
X056794Y028261D01*
X056636Y028419D01*
X056414Y028419D01*
X056256Y028261D01*
X056256Y028039D01*
X056347Y027948D01*
X056469Y015224D01*
X056280Y015035D01*
X056280Y015064D01*
X056204Y015140D01*
X054096Y015140D01*
X054020Y015064D01*
X054020Y014236D01*
X054020Y014357D02*
X008392Y014357D01*
X008392Y014455D02*
X054020Y014455D01*
X054020Y014554D02*
X008392Y014554D01*
X008392Y014652D02*
X054020Y014652D01*
X054020Y014751D02*
X008392Y014751D01*
X008392Y014849D02*
X054020Y014849D01*
X054020Y014948D02*
X008392Y014948D01*
X008365Y015046D02*
X054020Y015046D01*
X055150Y014650D02*
X056150Y014650D01*
X056650Y015150D01*
X056525Y028150D01*
X056794Y028147D02*
X059507Y028147D01*
X059502Y028245D02*
X056794Y028245D01*
X056712Y028344D02*
X059498Y028344D01*
X059493Y028442D02*
X008323Y028442D01*
X008261Y028381D02*
X008419Y028539D01*
X008419Y028761D01*
X008380Y028800D01*
X010260Y035381D01*
X010261Y035381D01*
X010419Y035539D01*
X010419Y035761D01*
X010261Y035919D01*
X010039Y035919D01*
X009881Y035761D01*
X009881Y035539D01*
X009920Y035500D01*
X008040Y028919D01*
X008039Y028919D01*
X007881Y028761D01*
X007881Y028539D01*
X008039Y028381D01*
X008261Y028381D01*
X008419Y028541D02*
X059489Y028541D01*
X059484Y028639D02*
X008419Y028639D01*
X008419Y028738D02*
X059480Y028738D01*
X059475Y028836D02*
X008390Y028836D01*
X008419Y028935D02*
X059471Y028935D01*
X059466Y029033D02*
X008447Y029033D01*
X008475Y029132D02*
X059462Y029132D01*
X059458Y029230D02*
X008503Y029230D01*
X008531Y029329D02*
X059453Y029329D01*
X059449Y029427D02*
X008559Y029427D01*
X008587Y029526D02*
X059444Y029526D01*
X059440Y029624D02*
X008616Y029624D01*
X008644Y029723D02*
X059435Y029723D01*
X059431Y029821D02*
X008672Y029821D01*
X008700Y029920D02*
X059426Y029920D01*
X059422Y030018D02*
X011149Y030018D01*
X011136Y030006D02*
X011294Y030164D01*
X011294Y030386D01*
X011288Y030392D01*
X013135Y033970D01*
X014100Y033970D01*
X014975Y034845D01*
X015575Y034845D01*
X015722Y034698D01*
X015722Y034695D01*
X015775Y034646D01*
X015825Y034595D01*
X015828Y034595D01*
X015831Y034593D01*
X015903Y034595D01*
X015975Y034595D01*
X015977Y034597D01*
X020235Y034719D01*
X020261Y034706D01*
X020307Y034721D01*
X020355Y034722D01*
X020375Y034744D01*
X020679Y034845D01*
X020725Y034845D01*
X020747Y034868D01*
X020778Y034878D01*
X020779Y034881D01*
X020886Y034881D01*
X021044Y035039D01*
X021044Y035261D01*
X020886Y035419D01*
X020799Y035419D01*
X020975Y035595D01*
X021080Y035700D01*
X021080Y036074D01*
X021169Y036164D01*
X021169Y036386D01*
X021011Y036544D01*
X020789Y036544D01*
X020631Y036386D01*
X020631Y036169D01*
X020414Y036169D01*
X020331Y036086D01*
X016543Y036205D01*
X015861Y036318D01*
X015850Y036330D01*
X015790Y036330D01*
X015731Y036340D01*
X015717Y036330D01*
X014700Y036330D01*
X014595Y036225D01*
X014595Y036225D01*
X014330Y035960D01*
X014330Y037475D01*
X014225Y037580D01*
X012700Y037580D01*
X012595Y037475D01*
X012595Y035325D01*
X012700Y035220D01*
X013590Y035220D01*
X013450Y035080D01*
X012080Y035080D01*
X012080Y036574D01*
X012169Y036664D01*
X012169Y036886D01*
X012011Y037044D01*
X011789Y037044D01*
X011631Y036886D01*
X011631Y036664D01*
X011720Y036574D01*
X011720Y034825D01*
X011825Y034720D01*
X012885Y034720D01*
X012885Y034680D01*
X012798Y034680D01*
X012775Y034694D01*
X012726Y034680D01*
X012676Y034680D01*
X012657Y034662D01*
X012631Y034655D01*
X012606Y034611D01*
X012570Y034575D01*
X012570Y034548D01*
X010347Y030669D01*
X010289Y030669D01*
X010131Y030511D01*
X008869Y030511D01*
X008897Y030609D02*
X010229Y030609D01*
X010131Y030511D02*
X010131Y030289D01*
X010289Y030131D01*
X010511Y030131D01*
X010669Y030289D01*
X010669Y030507D01*
X012855Y034320D01*
X012885Y034320D01*
X012885Y034272D01*
X012878Y034257D01*
X012845Y034225D01*
X012845Y034194D01*
X010961Y030544D01*
X010914Y030544D01*
X010756Y030386D01*
X010756Y030164D01*
X010914Y030006D01*
X011136Y030006D01*
X011247Y030117D02*
X059417Y030117D01*
X059413Y030215D02*
X011294Y030215D01*
X011294Y030314D02*
X059408Y030314D01*
X059404Y030412D02*
X011298Y030412D01*
X011349Y030511D02*
X059399Y030511D01*
X059395Y030609D02*
X011400Y030609D01*
X011451Y030708D02*
X059390Y030708D01*
X059386Y030806D02*
X011502Y030806D01*
X011553Y030905D02*
X059381Y030905D01*
X059377Y031003D02*
X011603Y031003D01*
X011654Y031102D02*
X059372Y031102D01*
X059368Y031200D02*
X011705Y031200D01*
X011756Y031299D02*
X059363Y031299D01*
X059359Y031397D02*
X011807Y031397D01*
X011858Y031496D02*
X059355Y031496D01*
X059350Y031594D02*
X011908Y031594D01*
X011959Y031693D02*
X059346Y031693D01*
X059341Y031791D02*
X012010Y031791D01*
X012061Y031890D02*
X059337Y031890D01*
X059332Y031988D02*
X012112Y031988D01*
X012163Y032087D02*
X059328Y032087D01*
X059323Y032185D02*
X012213Y032185D01*
X012264Y032284D02*
X059319Y032284D01*
X059314Y032382D02*
X012315Y032382D01*
X012366Y032481D02*
X059310Y032481D01*
X059305Y032579D02*
X012417Y032579D01*
X012468Y032678D02*
X059301Y032678D01*
X059296Y032776D02*
X012518Y032776D01*
X012569Y032875D02*
X059292Y032875D01*
X059287Y032973D02*
X012620Y032973D01*
X012671Y033072D02*
X059283Y033072D01*
X059278Y033170D02*
X012722Y033170D01*
X012773Y033269D02*
X059274Y033269D01*
X059269Y033367D02*
X012823Y033367D01*
X012874Y033466D02*
X059265Y033466D01*
X059261Y033564D02*
X012925Y033564D01*
X012976Y033663D02*
X059256Y033663D01*
X059252Y033761D02*
X013027Y033761D01*
X013078Y033860D02*
X059247Y033860D01*
X059243Y033958D02*
X013129Y033958D01*
X013025Y034150D02*
X014025Y034150D01*
X014900Y035025D01*
X015650Y035025D01*
X015900Y034775D01*
X020275Y034900D01*
X020650Y035025D01*
X020775Y035150D01*
X020968Y035337D02*
X024631Y035337D01*
X024631Y035294D02*
X024539Y035294D01*
X024381Y035136D01*
X024381Y034914D01*
X024539Y034756D01*
X024761Y034756D01*
X024851Y034845D01*
X026475Y034845D01*
X027225Y035595D01*
X033725Y035595D01*
X033761Y035631D01*
X033886Y035631D01*
X034044Y035789D01*
X034044Y036011D01*
X033886Y036169D01*
X033799Y036169D01*
X033830Y036200D01*
X033830Y036949D01*
X033919Y037039D01*
X033919Y037261D01*
X033761Y037419D01*
X033539Y037419D01*
X033381Y037261D01*
X033381Y037044D01*
X033164Y037044D01*
X033087Y036967D01*
X029354Y037200D01*
X029350Y037205D01*
X029281Y037205D01*
X029212Y037209D01*
X029207Y037205D01*
X027325Y037205D01*
X027220Y037100D01*
X027220Y037100D01*
X026955Y036835D01*
X026955Y038225D01*
X026850Y038330D01*
X026831Y038330D01*
X026816Y038345D01*
X026197Y038345D01*
X026182Y038330D01*
X025475Y038330D01*
X025325Y038330D01*
X025220Y038225D01*
X025220Y036200D01*
X025325Y036095D01*
X026215Y036095D01*
X026075Y035955D01*
X024851Y035955D01*
X024761Y036044D01*
X024539Y036044D01*
X024381Y035886D01*
X024381Y035664D01*
X024539Y035506D01*
X024631Y035506D01*
X024631Y035294D01*
X024631Y035436D02*
X020815Y035436D01*
X020914Y035534D02*
X024510Y035534D01*
X024412Y035633D02*
X021012Y035633D01*
X021080Y035731D02*
X024381Y035731D01*
X024381Y035830D02*
X021080Y035830D01*
X021080Y035928D02*
X024423Y035928D01*
X024521Y036027D02*
X021080Y036027D01*
X021131Y036125D02*
X025295Y036125D01*
X025220Y036224D02*
X021169Y036224D01*
X021169Y036322D02*
X025220Y036322D01*
X025220Y036421D02*
X021135Y036421D01*
X021036Y036519D02*
X025220Y036519D01*
X025220Y036618D02*
X014330Y036618D01*
X014330Y036716D02*
X025220Y036716D01*
X025220Y036815D02*
X014330Y036815D01*
X014330Y036913D02*
X025220Y036913D01*
X025220Y037012D02*
X014330Y037012D01*
X014330Y037110D02*
X025220Y037110D01*
X025220Y037209D02*
X014330Y037209D01*
X014330Y037307D02*
X025220Y037307D01*
X025220Y037406D02*
X014330Y037406D01*
X014300Y037504D02*
X025220Y037504D01*
X025220Y037603D02*
X009685Y037603D01*
X009712Y037701D02*
X025220Y037701D01*
X025220Y037800D02*
X009739Y037800D01*
X009766Y037898D02*
X025220Y037898D01*
X025220Y037997D02*
X009793Y037997D01*
X009820Y038095D02*
X025220Y038095D01*
X025220Y038194D02*
X009846Y038194D01*
X009873Y038292D02*
X025288Y038292D01*
X025400Y038150D02*
X026775Y038150D01*
X026775Y036655D01*
X026395Y036275D01*
X025400Y036275D01*
X025400Y038150D01*
X025400Y038095D02*
X026775Y038095D01*
X026775Y037997D02*
X025400Y037997D01*
X025400Y037898D02*
X026775Y037898D01*
X026775Y037800D02*
X025400Y037800D01*
X025400Y037701D02*
X026775Y037701D01*
X026775Y037603D02*
X025400Y037603D01*
X025400Y037504D02*
X026775Y037504D01*
X026775Y037406D02*
X025400Y037406D01*
X025400Y037307D02*
X026775Y037307D01*
X026775Y037209D02*
X025400Y037209D01*
X025400Y037110D02*
X026775Y037110D01*
X026775Y037012D02*
X025400Y037012D01*
X025400Y036913D02*
X026775Y036913D01*
X026775Y036815D02*
X025400Y036815D01*
X025400Y036716D02*
X026775Y036716D01*
X026738Y036618D02*
X025400Y036618D01*
X025400Y036519D02*
X026640Y036519D01*
X026541Y036421D02*
X025400Y036421D01*
X025400Y036322D02*
X026443Y036322D01*
X026147Y036027D02*
X024779Y036027D01*
X024650Y035775D02*
X026150Y035775D01*
X027400Y037025D01*
X029275Y037025D01*
X033275Y036775D01*
X033131Y037012D02*
X032375Y037012D01*
X032900Y036400D02*
X029125Y036675D01*
X027865Y036675D01*
X027231Y037110D02*
X026955Y037110D01*
X026955Y037012D02*
X027132Y037012D01*
X027034Y036913D02*
X026955Y036913D01*
X026955Y037209D02*
X029211Y037209D01*
X029223Y037209D02*
X033381Y037209D01*
X033381Y037110D02*
X030799Y037110D01*
X028650Y036150D02*
X033025Y036025D01*
X033400Y036025D01*
X033650Y036275D01*
X033650Y037150D01*
X033919Y037110D02*
X037935Y037110D01*
X037950Y037095D02*
X038965Y037095D01*
X038825Y036955D01*
X037601Y036955D01*
X037511Y037044D01*
X037289Y037044D01*
X037131Y036886D01*
X037131Y036664D01*
X037289Y036506D01*
X037381Y036506D01*
X037381Y036294D01*
X037289Y036294D01*
X037131Y036136D01*
X037131Y035914D01*
X037289Y035756D01*
X037511Y035756D01*
X037601Y035845D01*
X039225Y035845D01*
X039975Y036595D01*
X046225Y036595D01*
X046246Y036582D01*
X046297Y036595D01*
X046350Y036595D01*
X046367Y036612D01*
X046619Y036675D01*
X046664Y036631D01*
X046886Y036631D01*
X047044Y036789D01*
X047044Y037011D01*
X046886Y037169D01*
X046812Y037169D01*
X046816Y037186D01*
X046830Y037200D01*
X046830Y037257D01*
X046841Y037313D01*
X046830Y037329D01*
X046830Y037949D01*
X046919Y038039D01*
X046919Y038261D01*
X046761Y038419D01*
X046539Y038419D01*
X046381Y038261D01*
X046381Y038044D01*
X046164Y038044D01*
X046085Y037965D01*
X041478Y038201D01*
X041475Y038205D01*
X041405Y038205D01*
X041335Y038209D01*
X041331Y038205D01*
X040075Y038205D01*
X039970Y038100D01*
X039970Y038100D01*
X039580Y037710D01*
X039580Y039225D01*
X039475Y039330D01*
X039456Y039330D01*
X039441Y039345D01*
X038822Y039345D01*
X038807Y039330D01*
X037950Y039330D01*
X037845Y039225D01*
X037845Y039075D01*
X037845Y037350D01*
X037845Y037200D01*
X037950Y037095D01*
X037845Y037209D02*
X033919Y037209D01*
X033873Y037307D02*
X037845Y037307D01*
X037845Y037406D02*
X033775Y037406D01*
X033525Y037406D02*
X026955Y037406D01*
X026955Y037504D02*
X037845Y037504D01*
X037845Y037603D02*
X026955Y037603D01*
X026955Y037701D02*
X037845Y037701D01*
X037845Y037800D02*
X026955Y037800D01*
X026955Y037898D02*
X037845Y037898D01*
X037845Y037997D02*
X026955Y037997D01*
X026955Y038095D02*
X037845Y038095D01*
X037845Y038194D02*
X026955Y038194D01*
X026887Y038292D02*
X037845Y038292D01*
X037845Y038391D02*
X009900Y038391D01*
X009927Y038489D02*
X037845Y038489D01*
X037845Y038588D02*
X009954Y038588D01*
X009981Y038686D02*
X037845Y038686D01*
X037845Y038785D02*
X010008Y038785D01*
X010034Y038883D02*
X037845Y038883D01*
X037845Y038982D02*
X010061Y038982D01*
X010088Y039080D02*
X037845Y039080D01*
X037845Y039179D02*
X010115Y039179D01*
X010142Y039277D02*
X037898Y039277D01*
X038025Y039150D02*
X039400Y039150D01*
X039400Y037530D01*
X039145Y037275D01*
X038025Y037275D01*
X038025Y039150D01*
X038025Y039080D02*
X039400Y039080D01*
X039400Y038982D02*
X038025Y038982D01*
X038025Y038883D02*
X039400Y038883D01*
X039400Y038785D02*
X038025Y038785D01*
X038025Y038686D02*
X039400Y038686D01*
X039400Y038588D02*
X038025Y038588D01*
X038025Y038489D02*
X039400Y038489D01*
X039400Y038391D02*
X038025Y038391D01*
X038025Y038292D02*
X039400Y038292D01*
X039400Y038194D02*
X038025Y038194D01*
X038025Y038095D02*
X039400Y038095D01*
X039400Y037997D02*
X038025Y037997D01*
X038025Y037898D02*
X039400Y037898D01*
X039400Y037800D02*
X038025Y037800D01*
X038025Y037701D02*
X039400Y037701D01*
X039400Y037603D02*
X038025Y037603D01*
X038025Y037504D02*
X039375Y037504D01*
X039276Y037406D02*
X038025Y037406D01*
X038025Y037307D02*
X039178Y037307D01*
X038882Y037012D02*
X037544Y037012D01*
X037400Y036775D02*
X038900Y036775D01*
X040150Y038025D01*
X041400Y038025D01*
X046275Y037775D01*
X046116Y037997D02*
X045469Y037997D01*
X045900Y037400D02*
X040490Y037675D01*
X040064Y038194D02*
X039580Y038194D01*
X039580Y038292D02*
X046412Y038292D01*
X046381Y038194D02*
X041627Y038194D01*
X041125Y037125D02*
X046275Y037025D01*
X046650Y037275D01*
X046650Y038150D01*
X046919Y038194D02*
X050470Y038194D01*
X050470Y038225D02*
X050470Y040700D01*
X050470Y040850D01*
X050575Y040955D01*
X052225Y040955D01*
X052330Y040850D01*
X052330Y038335D01*
X052725Y038730D01*
X052814Y038730D01*
X052814Y038781D01*
X052890Y038857D01*
X053589Y038857D01*
X053665Y038781D01*
X053665Y038319D01*
X053589Y038242D01*
X052890Y038242D01*
X052819Y038314D01*
X052549Y038044D01*
X052761Y038044D01*
X052919Y037886D01*
X052919Y037664D01*
X052761Y037506D01*
X052636Y037506D01*
X051850Y036720D01*
X050601Y036720D01*
X050511Y036631D01*
X050289Y036631D01*
X050131Y036789D01*
X050131Y037006D01*
X050039Y037006D01*
X049881Y037164D01*
X049881Y037386D01*
X050039Y037544D01*
X050131Y037544D01*
X050131Y037761D01*
X050289Y037919D01*
X050511Y037919D01*
X050601Y037830D01*
X051825Y037830D01*
X051965Y037970D01*
X050575Y037970D01*
X050470Y038075D01*
X050470Y038225D01*
X050470Y038292D02*
X046888Y038292D01*
X046790Y038391D02*
X050470Y038391D01*
X050470Y038489D02*
X039580Y038489D01*
X039580Y038391D02*
X046510Y038391D01*
X046381Y038095D02*
X043548Y038095D01*
X046275Y036775D02*
X039900Y036775D01*
X039150Y036025D01*
X037400Y036025D01*
X037131Y036027D02*
X034029Y036027D01*
X034044Y035928D02*
X037131Y035928D01*
X037215Y035830D02*
X034044Y035830D01*
X033987Y035731D02*
X058623Y035731D01*
X058722Y035633D02*
X033888Y035633D01*
X033650Y035775D02*
X033775Y035900D01*
X033650Y035775D02*
X027150Y035775D01*
X026400Y035025D01*
X024650Y035025D01*
X024850Y034845D02*
X057837Y034845D01*
X057877Y034943D02*
X026573Y034943D01*
X026671Y035042D02*
X057953Y035042D01*
X057893Y034982D02*
X058076Y035164D01*
X058315Y035263D01*
X058574Y035263D01*
X058813Y035164D01*
X058995Y034982D01*
X059094Y034743D01*
X059094Y034484D01*
X058995Y034245D01*
X058813Y034062D01*
X058574Y033963D01*
X058315Y033963D01*
X058076Y034062D01*
X057893Y034245D01*
X057794Y034484D01*
X057794Y034743D01*
X057893Y034982D01*
X058052Y035140D02*
X026770Y035140D01*
X026868Y035239D02*
X058255Y035239D01*
X058633Y035239D02*
X059033Y035239D01*
X058972Y035337D02*
X026967Y035337D01*
X027065Y035436D02*
X058911Y035436D01*
X058820Y035534D02*
X027164Y035534D01*
X025935Y035375D02*
X024900Y035400D01*
X024483Y035239D02*
X021044Y035239D01*
X021044Y035140D02*
X024385Y035140D01*
X024381Y035042D02*
X021044Y035042D01*
X020949Y034943D02*
X024381Y034943D01*
X024450Y034845D02*
X020678Y034845D01*
X020382Y034746D02*
X057796Y034746D01*
X057794Y034648D02*
X017743Y034648D01*
X016525Y036025D02*
X020525Y035900D01*
X020370Y036125D02*
X019085Y036125D01*
X020150Y035525D02*
X015240Y035800D01*
X014775Y036150D02*
X015775Y036150D01*
X016525Y036025D01*
X016428Y036224D02*
X020631Y036224D01*
X020631Y036322D02*
X015857Y036322D01*
X014775Y036150D02*
X013525Y034900D01*
X011900Y034900D01*
X011900Y036775D01*
X012169Y036815D02*
X012595Y036815D01*
X012595Y036913D02*
X012142Y036913D01*
X012044Y037012D02*
X012595Y037012D01*
X012595Y037110D02*
X009551Y037110D01*
X009524Y037012D02*
X011756Y037012D01*
X011658Y036913D02*
X009497Y036913D01*
X009470Y036815D02*
X011631Y036815D01*
X011631Y036716D02*
X009443Y036716D01*
X009417Y036618D02*
X011677Y036618D01*
X011720Y036519D02*
X009390Y036519D01*
X009399Y036552D02*
X009399Y036552D01*
X009378Y036476D02*
X009378Y036476D01*
X009354Y036421D02*
X011720Y036421D01*
X011720Y036322D02*
X009311Y036322D01*
X009268Y036224D02*
X011720Y036224D01*
X011720Y036125D02*
X009214Y036125D01*
X009207Y036115D02*
X009207Y036115D01*
X009249Y036181D02*
X009249Y036181D01*
X009152Y036027D02*
X011720Y036027D01*
X011720Y035928D02*
X009091Y035928D01*
X009029Y035830D02*
X009949Y035830D01*
X009881Y035731D02*
X008968Y035731D01*
X008949Y035701D02*
X008949Y035701D01*
X008906Y035633D02*
X009881Y035633D01*
X009885Y035534D02*
X008845Y035534D01*
X008779Y035436D02*
X009902Y035436D01*
X009873Y035337D02*
X008687Y035337D01*
X008594Y035239D02*
X009845Y035239D01*
X009817Y035140D02*
X008502Y035140D01*
X008494Y035132D02*
X008494Y035132D01*
X008367Y035042D02*
X009789Y035042D01*
X009761Y034943D02*
X008229Y034943D01*
X008092Y034845D02*
X009733Y034845D01*
X009705Y034746D02*
X007954Y034746D01*
X007864Y034682D02*
X007864Y034682D01*
X007816Y034648D02*
X009676Y034648D01*
X009648Y034549D02*
X007634Y034549D01*
X007750Y034600D02*
X007750Y034600D01*
X007465Y034693D02*
X006971Y034473D01*
X006984Y034254D02*
X009564Y034254D01*
X009592Y034352D02*
X007191Y034352D01*
X007412Y034451D02*
X009620Y034451D01*
X009536Y034155D02*
X006857Y034155D01*
X006754Y034057D02*
X009508Y034057D01*
X009479Y033958D02*
X007719Y033958D01*
X007784Y033931D02*
X007545Y034030D01*
X007287Y034030D01*
X007048Y033931D01*
X006865Y033748D01*
X006766Y033509D01*
X006766Y033251D01*
X006865Y033012D01*
X007048Y032829D01*
X007287Y032730D01*
X007545Y032730D01*
X007784Y032829D01*
X007967Y033012D01*
X008066Y033251D01*
X008066Y033509D01*
X007967Y033748D01*
X007784Y033931D01*
X007856Y033860D02*
X009451Y033860D01*
X009423Y033761D02*
X007954Y033761D01*
X008003Y033663D02*
X009395Y033663D01*
X009367Y033564D02*
X008043Y033564D01*
X008066Y033466D02*
X009339Y033466D01*
X009311Y033367D02*
X008066Y033367D01*
X008066Y033269D02*
X009282Y033269D01*
X009254Y033170D02*
X008033Y033170D01*
X007992Y033072D02*
X009226Y033072D01*
X009198Y032973D02*
X007928Y032973D01*
X007830Y032875D02*
X009170Y032875D01*
X009142Y032776D02*
X007656Y032776D01*
X007176Y032776D02*
X006356Y032776D01*
X006332Y032678D02*
X009114Y032678D01*
X009085Y032579D02*
X006307Y032579D01*
X006283Y032481D02*
X009057Y032481D01*
X009029Y032382D02*
X006258Y032382D01*
X006233Y032284D02*
X009001Y032284D01*
X008973Y032185D02*
X006209Y032185D01*
X006184Y032087D02*
X008945Y032087D01*
X008917Y031988D02*
X006159Y031988D01*
X006135Y031890D02*
X008888Y031890D01*
X008860Y031791D02*
X006110Y031791D01*
X006086Y031693D02*
X008832Y031693D01*
X008804Y031594D02*
X006061Y031594D01*
X006036Y031496D02*
X008776Y031496D01*
X008748Y031397D02*
X006012Y031397D01*
X005987Y031299D02*
X008720Y031299D01*
X008691Y031200D02*
X005962Y031200D01*
X005938Y031102D02*
X008663Y031102D01*
X008635Y031003D02*
X005913Y031003D01*
X005889Y030905D02*
X008607Y030905D01*
X008579Y030806D02*
X005864Y030806D01*
X005839Y030708D02*
X008551Y030708D01*
X008523Y030609D02*
X005815Y030609D01*
X005790Y030511D02*
X008494Y030511D01*
X008466Y030412D02*
X005765Y030412D01*
X005741Y030314D02*
X008438Y030314D01*
X008410Y030215D02*
X005716Y030215D01*
X005692Y030117D02*
X008382Y030117D01*
X008354Y030018D02*
X005667Y030018D01*
X005642Y029920D02*
X008326Y029920D01*
X008297Y029821D02*
X005618Y029821D01*
X005593Y029723D02*
X008269Y029723D01*
X008241Y029624D02*
X005568Y029624D01*
X005544Y029526D02*
X008213Y029526D01*
X008185Y029427D02*
X005519Y029427D01*
X005495Y029329D02*
X008157Y029329D01*
X008129Y029230D02*
X005470Y029230D01*
X005445Y029132D02*
X008100Y029132D01*
X008072Y029033D02*
X005421Y029033D01*
X005396Y028935D02*
X008044Y028935D01*
X007956Y028836D02*
X005371Y028836D01*
X005347Y028738D02*
X007881Y028738D01*
X007881Y028639D02*
X005322Y028639D01*
X005298Y028541D02*
X007881Y028541D01*
X007977Y028442D02*
X005273Y028442D01*
X005248Y028344D02*
X056338Y028344D01*
X056256Y028245D02*
X005224Y028245D01*
X005199Y028147D02*
X056256Y028147D01*
X056256Y028048D02*
X005174Y028048D01*
X005150Y027950D02*
X056345Y027950D01*
X056348Y027851D02*
X005125Y027851D01*
X005101Y027753D02*
X056349Y027753D01*
X056350Y027654D02*
X005076Y027654D01*
X005051Y027556D02*
X056351Y027556D01*
X056352Y027457D02*
X005027Y027457D01*
X005002Y027359D02*
X056353Y027359D01*
X056354Y027260D02*
X004977Y027260D01*
X004953Y027162D02*
X056354Y027162D01*
X056355Y027063D02*
X004928Y027063D01*
X004904Y026965D02*
X056356Y026965D01*
X056357Y026866D02*
X004879Y026866D01*
X004854Y026768D02*
X056358Y026768D01*
X056359Y026669D02*
X004830Y026669D01*
X004805Y026571D02*
X056360Y026571D01*
X056361Y026472D02*
X004780Y026472D01*
X004756Y026374D02*
X005182Y026374D01*
X005081Y026332D02*
X004899Y026149D01*
X004800Y025910D01*
X004800Y025652D01*
X004899Y025413D01*
X005081Y025230D01*
X005320Y025131D01*
X005579Y025131D01*
X005818Y025230D01*
X006001Y025413D01*
X006100Y025652D01*
X006100Y025910D01*
X006001Y026149D01*
X005818Y026332D01*
X005579Y026431D01*
X005320Y026431D01*
X005081Y026332D01*
X005025Y026275D02*
X004731Y026275D01*
X004707Y026177D02*
X004926Y026177D01*
X004869Y026078D02*
X004682Y026078D01*
X004657Y025980D02*
X004828Y025980D01*
X004800Y025881D02*
X004633Y025881D01*
X004626Y025856D02*
X004626Y025856D01*
X004608Y025783D02*
X004800Y025783D01*
X004800Y025684D02*
X004592Y025684D01*
X004590Y025586D02*
X004827Y025586D01*
X004868Y025487D02*
X004600Y025487D01*
X004609Y025389D02*
X004923Y025389D01*
X005021Y025290D02*
X004648Y025290D01*
X004695Y025192D02*
X005174Y025192D01*
X004937Y024896D02*
X009345Y024896D01*
X009345Y024798D02*
X005035Y024798D01*
X005134Y024699D02*
X009345Y024699D01*
X009345Y024601D02*
X005213Y024601D01*
X005172Y024661D02*
X005172Y024661D01*
X005281Y024502D02*
X009345Y024502D01*
X009345Y024404D02*
X005349Y024404D01*
X005401Y024327D02*
X005401Y024327D01*
X005411Y024305D02*
X009365Y024305D01*
X009345Y024325D02*
X009450Y024220D01*
X009700Y023970D01*
X011475Y023970D01*
X011580Y024075D01*
X011705Y024200D01*
X011705Y024575D01*
X011814Y024685D01*
X011814Y024319D01*
X011890Y024242D01*
X012589Y024242D01*
X012665Y024319D01*
X012665Y024370D01*
X013155Y024370D01*
X013838Y023117D01*
X013836Y023102D01*
X013873Y023053D01*
X013903Y022998D01*
X013916Y022994D01*
X013925Y022983D01*
X013986Y022974D01*
X014046Y022956D01*
X014058Y022963D01*
X018042Y022377D01*
X018077Y022342D01*
X013880Y022942D01*
X013294Y023821D01*
X013294Y024011D01*
X013136Y024169D01*
X012914Y024169D01*
X012756Y024011D01*
X012756Y023799D01*
X012725Y023830D01*
X011700Y023830D01*
X011595Y023725D01*
X011470Y023600D01*
X011470Y021725D01*
X010914Y021169D01*
X010789Y021169D01*
X010631Y021011D01*
X010631Y020789D01*
X010789Y020631D01*
X011011Y020631D01*
X011169Y020789D01*
X011169Y020914D01*
X011725Y021470D01*
X011830Y021575D01*
X011830Y023450D01*
X011850Y023470D01*
X012575Y023470D01*
X012635Y023410D01*
X013339Y022354D01*
X013338Y022344D01*
X013380Y022293D01*
X013417Y022238D01*
X013426Y022236D01*
X013432Y022229D01*
X013498Y022222D01*
X013563Y022209D01*
X013571Y022214D01*
X018337Y021725D01*
X018362Y021709D01*
X018409Y021718D01*
X018456Y021713D01*
X018479Y021732D01*
X018861Y021809D01*
X018914Y021756D01*
X019136Y021756D01*
X019294Y021914D01*
X019294Y022136D01*
X019136Y022294D01*
X018924Y022294D01*
X019140Y022510D01*
X019187Y022542D01*
X019191Y022561D01*
X019205Y022575D01*
X019205Y022632D01*
X019284Y023029D01*
X019419Y023164D01*
X019419Y023386D01*
X019261Y023544D01*
X019039Y023544D01*
X018881Y023386D01*
X018881Y023169D01*
X018664Y023169D01*
X018596Y023101D01*
X014385Y023569D01*
X013580Y024949D01*
X013580Y024975D01*
X013544Y025011D01*
X013518Y025055D01*
X013493Y025062D01*
X013475Y025080D01*
X013423Y025080D01*
X013374Y025093D01*
X013351Y025080D01*
X011700Y025080D01*
X011595Y024975D01*
X011595Y024975D01*
X011450Y024830D01*
X011345Y024725D01*
X011345Y024350D01*
X011330Y024335D01*
X011330Y026100D01*
X011225Y026205D01*
X011206Y026205D01*
X011191Y026220D01*
X010572Y026220D01*
X010557Y026205D01*
X009950Y026205D01*
X009845Y026100D01*
X009845Y024335D01*
X009705Y024475D01*
X009705Y025074D01*
X009794Y025164D01*
X009794Y025386D01*
X009636Y025544D01*
X009414Y025544D01*
X009256Y025386D01*
X009256Y025164D01*
X009345Y025074D01*
X009345Y024325D01*
X009464Y024207D02*
X005455Y024207D01*
X005499Y024108D02*
X009562Y024108D01*
X009661Y024010D02*
X005542Y024010D01*
X005586Y023911D02*
X012756Y023911D01*
X012742Y023813D02*
X012756Y023813D01*
X012650Y023650D02*
X012775Y023525D01*
X013525Y022400D01*
X018400Y021900D01*
X019025Y022025D01*
X019223Y021843D02*
X050381Y021843D01*
X050381Y021886D02*
X050381Y021664D01*
X050539Y021506D01*
X050761Y021506D01*
X050851Y021595D01*
X052200Y021595D01*
X052350Y021595D01*
X053225Y022470D01*
X053449Y022470D01*
X053539Y022381D01*
X053761Y022381D01*
X053919Y022539D01*
X053919Y022761D01*
X053761Y022919D01*
X053539Y022919D01*
X053449Y022830D01*
X053085Y022830D01*
X053381Y023127D01*
X053390Y023117D01*
X054089Y023117D01*
X054165Y023194D01*
X054165Y023656D01*
X054089Y023732D01*
X053390Y023732D01*
X053314Y023656D01*
X053314Y023569D01*
X052830Y023085D01*
X052830Y025100D01*
X052725Y025205D01*
X051200Y025205D01*
X051095Y025100D01*
X051095Y022950D01*
X051200Y022845D01*
X052590Y022845D01*
X052450Y022705D01*
X050850Y022705D01*
X050761Y022794D01*
X050539Y022794D01*
X050381Y022636D01*
X050381Y022414D01*
X050539Y022256D01*
X050631Y022256D01*
X050631Y022044D01*
X050539Y022044D01*
X050381Y021886D01*
X050436Y021941D02*
X036822Y021941D01*
X036851Y021970D02*
X038475Y021970D01*
X039225Y022720D01*
X040246Y022720D01*
X040548Y022619D01*
X040566Y022599D01*
X040616Y022596D01*
X040664Y022581D01*
X040688Y022593D01*
X045478Y022347D01*
X045511Y022331D01*
X045550Y022343D01*
X045590Y022341D01*
X045618Y022366D01*
X045757Y022413D01*
X045789Y022381D01*
X046011Y022381D01*
X046169Y022539D01*
X046169Y022761D01*
X046011Y022919D01*
X045924Y022919D01*
X045975Y022970D01*
X046080Y023075D01*
X046080Y023449D01*
X046169Y023539D01*
X046169Y023761D01*
X046011Y023919D01*
X045789Y023919D01*
X045631Y023761D01*
X045631Y023669D01*
X045414Y023669D01*
X045349Y023604D01*
X040690Y024201D01*
X040372Y024307D01*
X040350Y024330D01*
X040304Y024330D01*
X040261Y024344D01*
X040233Y024330D01*
X039450Y024330D01*
X038955Y023835D01*
X038955Y025475D01*
X038850Y025580D01*
X037325Y025580D01*
X037220Y025475D01*
X037220Y025325D01*
X037220Y023475D01*
X037220Y023325D01*
X037325Y023220D01*
X038340Y023220D01*
X038200Y023080D01*
X036851Y023080D01*
X036761Y023169D01*
X036539Y023169D01*
X036381Y023011D01*
X036381Y022789D01*
X036539Y022631D01*
X036606Y022631D01*
X036606Y022438D01*
X036625Y022419D01*
X036539Y022419D01*
X036381Y022261D01*
X036381Y022039D01*
X036539Y021881D01*
X036761Y021881D01*
X036851Y021970D01*
X036650Y022150D02*
X038400Y022150D01*
X039150Y022900D01*
X040275Y022900D01*
X040650Y022775D01*
X045525Y022525D01*
X045900Y022650D01*
X046103Y022828D02*
X052573Y022828D01*
X052474Y022729D02*
X050826Y022729D01*
X050650Y022525D02*
X052525Y022525D01*
X053425Y023425D01*
X053740Y023425D01*
X054165Y023419D02*
X056390Y023419D01*
X056390Y023517D02*
X054165Y023517D01*
X054165Y023616D02*
X056389Y023616D01*
X056388Y023714D02*
X054106Y023714D01*
X054165Y023320D02*
X056391Y023320D01*
X056392Y023222D02*
X054165Y023222D01*
X054094Y023123D02*
X056393Y023123D01*
X056394Y023025D02*
X053279Y023025D01*
X053378Y023123D02*
X053385Y023123D01*
X053181Y022926D02*
X056395Y022926D01*
X056396Y022828D02*
X053853Y022828D01*
X053919Y022729D02*
X056397Y022729D01*
X056398Y022631D02*
X053919Y022631D01*
X053913Y022532D02*
X056399Y022532D01*
X056400Y022434D02*
X053814Y022434D01*
X053650Y022650D02*
X053150Y022650D01*
X052275Y021775D01*
X050650Y021775D01*
X050381Y021744D02*
X018538Y021744D01*
X018156Y021744D02*
X011830Y021744D01*
X011830Y021646D02*
X050399Y021646D01*
X050497Y021547D02*
X011802Y021547D01*
X011703Y021449D02*
X056409Y021449D01*
X056408Y021547D02*
X050803Y021547D01*
X050534Y022040D02*
X038544Y022040D01*
X038643Y022138D02*
X050631Y022138D01*
X050631Y022237D02*
X038741Y022237D01*
X038840Y022335D02*
X045502Y022335D01*
X045524Y022335D02*
X050459Y022335D01*
X050381Y022434D02*
X046064Y022434D01*
X046163Y022532D02*
X050381Y022532D01*
X050381Y022631D02*
X046169Y022631D01*
X046169Y022729D02*
X050474Y022729D01*
X051119Y022926D02*
X045931Y022926D01*
X046029Y023025D02*
X051095Y023025D01*
X051095Y023123D02*
X046080Y023123D01*
X046080Y023222D02*
X051095Y023222D01*
X051095Y023320D02*
X046080Y023320D01*
X046080Y023419D02*
X051095Y023419D01*
X051095Y023517D02*
X046148Y023517D01*
X046169Y023616D02*
X051095Y023616D01*
X051095Y023714D02*
X046169Y023714D01*
X046118Y023813D02*
X051095Y023813D01*
X051095Y023911D02*
X046019Y023911D01*
X045781Y023911D02*
X042954Y023911D01*
X042186Y024010D02*
X051095Y024010D01*
X051095Y024108D02*
X041418Y024108D01*
X040675Y024207D02*
X051095Y024207D01*
X051095Y024305D02*
X040379Y024305D01*
X040275Y024150D02*
X039525Y024150D01*
X038275Y022900D01*
X036650Y022900D01*
X036381Y022926D02*
X032629Y022926D01*
X032669Y022886D02*
X032511Y023044D01*
X032424Y023044D01*
X032705Y023325D01*
X032705Y023699D01*
X032794Y023789D01*
X032794Y024011D01*
X032636Y024169D01*
X032414Y024169D01*
X032256Y024011D01*
X032256Y023789D01*
X032345Y023699D01*
X032345Y023475D01*
X032294Y023424D01*
X032294Y023636D01*
X032136Y023794D01*
X031914Y023794D01*
X031824Y023705D01*
X031725Y023705D01*
X030830Y024600D01*
X030725Y024705D01*
X025700Y024705D01*
X025205Y024210D01*
X025205Y025850D01*
X025100Y025955D01*
X023575Y025955D01*
X023470Y025850D01*
X023470Y023700D01*
X023575Y023595D01*
X024590Y023595D01*
X024450Y023455D01*
X023350Y023455D01*
X023261Y023544D01*
X023039Y023544D01*
X022881Y023386D01*
X022881Y023169D01*
X022789Y023169D01*
X022631Y023011D01*
X022631Y022789D01*
X022789Y022631D01*
X022881Y022631D01*
X022881Y022414D01*
X023039Y022256D01*
X023261Y022256D01*
X023351Y022345D01*
X024850Y022345D01*
X025600Y023095D01*
X026450Y023095D01*
X026720Y022825D01*
X026825Y022720D01*
X030825Y022720D01*
X031200Y022345D01*
X031350Y022345D01*
X032007Y022345D01*
X032063Y022334D01*
X032079Y022345D01*
X032100Y022345D01*
X032140Y022385D01*
X032321Y022506D01*
X032511Y022506D01*
X032669Y022664D01*
X032669Y022886D01*
X032669Y022828D02*
X036381Y022828D01*
X036440Y022729D02*
X032669Y022729D01*
X032636Y022631D02*
X036606Y022631D01*
X036606Y022532D02*
X032538Y022532D01*
X032400Y022775D02*
X032025Y022525D01*
X031275Y022525D01*
X030900Y022900D01*
X026900Y022900D01*
X026525Y023275D01*
X025525Y023275D01*
X024775Y022525D01*
X023150Y022525D01*
X023341Y022335D02*
X032057Y022335D01*
X032065Y022335D02*
X036455Y022335D01*
X036381Y022237D02*
X019194Y022237D01*
X019292Y022138D02*
X036381Y022138D01*
X036381Y022040D02*
X019294Y022040D01*
X019294Y021941D02*
X036478Y021941D01*
X036611Y022434D02*
X032212Y022434D01*
X031900Y022775D02*
X031400Y022775D01*
X030775Y023400D01*
X027025Y023400D01*
X026619Y022926D02*
X025431Y022926D01*
X025529Y023025D02*
X026521Y023025D01*
X026718Y022828D02*
X025332Y022828D01*
X025234Y022729D02*
X026816Y022729D01*
X026720Y022825D02*
X026720Y022825D01*
X025135Y022631D02*
X030915Y022631D01*
X031013Y022532D02*
X025037Y022532D01*
X024938Y022434D02*
X031112Y022434D01*
X031525Y023150D02*
X030525Y024150D01*
X026139Y024150D01*
X026115Y024175D01*
X025775Y024525D02*
X030650Y024525D01*
X031650Y023525D01*
X032025Y023525D01*
X032216Y023714D02*
X032330Y023714D01*
X032345Y023616D02*
X032294Y023616D01*
X032294Y023517D02*
X032345Y023517D01*
X032525Y023400D02*
X031900Y022775D01*
X032531Y023025D02*
X036394Y023025D01*
X036493Y023123D02*
X032503Y023123D01*
X032601Y023222D02*
X037324Y023222D01*
X037225Y023320D02*
X032700Y023320D01*
X032705Y023419D02*
X037220Y023419D01*
X037220Y023517D02*
X032705Y023517D01*
X032705Y023616D02*
X037220Y023616D01*
X037220Y023714D02*
X032720Y023714D01*
X032794Y023813D02*
X037220Y023813D01*
X037220Y023911D02*
X032794Y023911D01*
X032794Y024010D02*
X037220Y024010D01*
X037220Y024108D02*
X032697Y024108D01*
X032525Y023900D02*
X032525Y023400D01*
X032256Y023813D02*
X031617Y023813D01*
X031519Y023911D02*
X032256Y023911D01*
X032256Y024010D02*
X031420Y024010D01*
X031322Y024108D02*
X032353Y024108D01*
X031834Y023714D02*
X031716Y023714D01*
X031223Y024207D02*
X037220Y024207D01*
X037220Y024305D02*
X031125Y024305D01*
X031026Y024404D02*
X037220Y024404D01*
X037220Y024502D02*
X030928Y024502D01*
X030829Y024601D02*
X037220Y024601D01*
X037220Y024699D02*
X030730Y024699D01*
X025775Y024525D02*
X024525Y023275D01*
X023150Y023275D01*
X022881Y023320D02*
X019419Y023320D01*
X019419Y023222D02*
X022881Y023222D01*
X022743Y023123D02*
X019379Y023123D01*
X019283Y023025D02*
X022644Y023025D01*
X022631Y022926D02*
X019264Y022926D01*
X019244Y022828D02*
X022631Y022828D01*
X022690Y022729D02*
X019224Y022729D01*
X019205Y022631D02*
X022881Y022631D01*
X022881Y022532D02*
X019173Y022532D01*
X019063Y022434D02*
X022881Y022434D01*
X022959Y022335D02*
X018965Y022335D01*
X019025Y022650D02*
X019150Y023275D01*
X018881Y023320D02*
X016624Y023320D01*
X016320Y022631D02*
X016059Y022631D01*
X015650Y022729D02*
X015369Y022729D01*
X014980Y022828D02*
X014680Y022828D01*
X014311Y022926D02*
X013990Y022926D01*
X013888Y023025D02*
X013825Y023025D01*
X013835Y023123D02*
X013759Y023123D01*
X013781Y023222D02*
X013694Y023222D01*
X013727Y023320D02*
X013628Y023320D01*
X013673Y023419D02*
X013562Y023419D01*
X013620Y023517D02*
X013497Y023517D01*
X013431Y023616D02*
X013566Y023616D01*
X013512Y023714D02*
X013365Y023714D01*
X013300Y023813D02*
X013459Y023813D01*
X013405Y023911D02*
X013294Y023911D01*
X013294Y024010D02*
X013351Y024010D01*
X013297Y024108D02*
X013197Y024108D01*
X013244Y024207D02*
X011705Y024207D01*
X011705Y024305D02*
X011828Y024305D01*
X011814Y024404D02*
X011705Y024404D01*
X011705Y024502D02*
X011814Y024502D01*
X011814Y024601D02*
X011730Y024601D01*
X011525Y024650D02*
X011525Y024275D01*
X011400Y024150D01*
X009775Y024150D01*
X009525Y024400D01*
X009525Y025275D01*
X009724Y025093D02*
X009845Y025093D01*
X009845Y024995D02*
X009705Y024995D01*
X009705Y024896D02*
X009845Y024896D01*
X009845Y024798D02*
X009705Y024798D01*
X009705Y024699D02*
X009845Y024699D01*
X009845Y024601D02*
X009705Y024601D01*
X009705Y024502D02*
X009845Y024502D01*
X009845Y024404D02*
X009776Y024404D01*
X010025Y024404D02*
X011150Y024404D01*
X011150Y024400D02*
X010025Y024400D01*
X010025Y026025D01*
X011150Y026025D01*
X011150Y024400D01*
X011150Y024502D02*
X010025Y024502D01*
X010025Y024601D02*
X011150Y024601D01*
X011150Y024699D02*
X010025Y024699D01*
X010025Y024798D02*
X011150Y024798D01*
X011150Y024896D02*
X010025Y024896D01*
X010025Y024995D02*
X011150Y024995D01*
X011150Y025093D02*
X010025Y025093D01*
X010025Y025192D02*
X011150Y025192D01*
X011150Y025290D02*
X010025Y025290D01*
X010025Y025389D02*
X011150Y025389D01*
X011150Y025487D02*
X010025Y025487D01*
X010025Y025586D02*
X011150Y025586D01*
X011150Y025684D02*
X010025Y025684D01*
X010025Y025783D02*
X011150Y025783D01*
X011150Y025881D02*
X010025Y025881D01*
X010025Y025980D02*
X011150Y025980D01*
X011330Y025980D02*
X056366Y025980D01*
X056365Y026078D02*
X011330Y026078D01*
X011253Y026177D02*
X056364Y026177D01*
X056363Y026275D02*
X005875Y026275D01*
X005973Y026177D02*
X009922Y026177D01*
X009845Y026078D02*
X006030Y026078D01*
X006071Y025980D02*
X009845Y025980D01*
X009845Y025881D02*
X006100Y025881D01*
X006100Y025783D02*
X009845Y025783D01*
X009845Y025684D02*
X006100Y025684D01*
X006072Y025586D02*
X009845Y025586D01*
X009845Y025487D02*
X009693Y025487D01*
X009792Y025389D02*
X009845Y025389D01*
X009845Y025290D02*
X009794Y025290D01*
X009794Y025192D02*
X009845Y025192D01*
X009326Y025093D02*
X004752Y025093D01*
X004838Y024995D02*
X009345Y024995D01*
X009256Y025192D02*
X005725Y025192D01*
X005878Y025290D02*
X009256Y025290D01*
X009258Y025389D02*
X005976Y025389D01*
X006031Y025487D02*
X009357Y025487D01*
X011330Y025487D02*
X023470Y025487D01*
X023470Y025389D02*
X011330Y025389D01*
X011330Y025290D02*
X023470Y025290D01*
X023470Y025192D02*
X011330Y025192D01*
X011330Y025093D02*
X023470Y025093D01*
X023470Y024995D02*
X013560Y024995D01*
X013611Y024896D02*
X023470Y024896D01*
X023470Y024798D02*
X013668Y024798D01*
X013726Y024699D02*
X023470Y024699D01*
X023470Y024601D02*
X013783Y024601D01*
X013841Y024502D02*
X023470Y024502D01*
X023470Y024404D02*
X013898Y024404D01*
X013955Y024305D02*
X023470Y024305D01*
X023470Y024207D02*
X014013Y024207D01*
X014070Y024108D02*
X023470Y024108D01*
X023470Y024010D02*
X014128Y024010D01*
X014185Y023911D02*
X023470Y023911D01*
X023470Y023813D02*
X014243Y023813D01*
X014300Y023714D02*
X023470Y023714D01*
X023555Y023616D02*
X014358Y023616D01*
X014275Y023400D02*
X018775Y022900D01*
X018618Y023123D02*
X018397Y023123D01*
X018881Y023222D02*
X017511Y023222D01*
X017438Y022434D02*
X017660Y022434D01*
X018150Y022150D02*
X018525Y022150D01*
X019025Y022650D01*
X018275Y022525D02*
X014025Y023150D01*
X013275Y024525D01*
X013250Y024550D01*
X012240Y024550D01*
X012651Y024305D02*
X013190Y024305D01*
X012853Y024108D02*
X011613Y024108D01*
X011514Y024010D02*
X012756Y024010D01*
X013025Y023900D02*
X013775Y022775D01*
X018150Y022150D01*
X017196Y021843D02*
X011830Y021843D01*
X011830Y021941D02*
X016236Y021941D01*
X016748Y022532D02*
X016990Y022532D01*
X015738Y023419D02*
X018913Y023419D01*
X019012Y023517D02*
X014851Y023517D01*
X014275Y023400D02*
X013400Y024900D01*
X011775Y024900D01*
X011525Y024650D01*
X011418Y024798D02*
X011330Y024798D01*
X011330Y024896D02*
X011517Y024896D01*
X011450Y024830D02*
X011450Y024830D01*
X011345Y024699D02*
X011330Y024699D01*
X011330Y024601D02*
X011345Y024601D01*
X011345Y024502D02*
X011330Y024502D01*
X011330Y024404D02*
X011345Y024404D01*
X011330Y024995D02*
X011615Y024995D01*
X011330Y025586D02*
X023470Y025586D01*
X023470Y025684D02*
X011330Y025684D01*
X011330Y025783D02*
X023470Y025783D01*
X023502Y025881D02*
X011330Y025881D01*
X011683Y023813D02*
X005630Y023813D01*
X005674Y023714D02*
X011584Y023714D01*
X011486Y023616D02*
X005701Y023616D01*
X005683Y023694D02*
X005683Y023694D01*
X005724Y023517D02*
X009921Y023517D01*
X009885Y023481D02*
X009961Y023558D01*
X010660Y023558D01*
X010736Y023481D01*
X010736Y023019D01*
X010660Y022943D01*
X010258Y022943D01*
X009785Y022470D01*
X009225Y022470D01*
X009136Y022381D01*
X008914Y022381D01*
X008756Y022539D01*
X008756Y022761D01*
X008914Y022919D01*
X009136Y022919D01*
X009225Y022830D01*
X009635Y022830D01*
X009885Y023080D01*
X009885Y023481D01*
X009885Y023419D02*
X005748Y023419D01*
X005771Y023320D02*
X009885Y023320D01*
X009885Y023222D02*
X005781Y023222D01*
X005777Y023293D02*
X005777Y023293D01*
X005785Y023123D02*
X009885Y023123D01*
X009830Y023025D02*
X005789Y023025D01*
X005794Y022926D02*
X009732Y022926D01*
X009710Y022650D02*
X009025Y022650D01*
X008822Y022828D02*
X005788Y022828D01*
X005778Y022759D02*
X005778Y022759D01*
X005774Y022729D02*
X008756Y022729D01*
X008756Y022631D02*
X005760Y022631D01*
X005746Y022532D02*
X008762Y022532D01*
X008861Y022434D02*
X005732Y022434D01*
X005718Y022335D02*
X011470Y022335D01*
X011470Y022237D02*
X005704Y022237D01*
X005690Y022138D02*
X011470Y022138D01*
X011470Y022040D02*
X005676Y022040D01*
X005661Y021941D02*
X011470Y021941D01*
X011470Y021843D02*
X005647Y021843D01*
X005633Y021744D02*
X011470Y021744D01*
X011391Y021646D02*
X005619Y021646D01*
X005605Y021547D02*
X007020Y021547D01*
X007020Y021449D02*
X005587Y021449D01*
X005561Y021350D02*
X007020Y021350D01*
X007020Y021252D02*
X005536Y021252D01*
X005510Y021153D02*
X006948Y021153D01*
X006850Y021055D02*
X005485Y021055D01*
X005459Y020956D02*
X006751Y020956D01*
X006653Y020858D02*
X005434Y020858D01*
X005408Y020759D02*
X006554Y020759D01*
X006456Y020661D02*
X005383Y020661D01*
X005357Y020562D02*
X006357Y020562D01*
X006259Y020464D02*
X005332Y020464D01*
X005306Y020365D02*
X006160Y020365D01*
X006095Y020267D02*
X005281Y020267D01*
X005255Y020168D02*
X006095Y020168D01*
X006095Y020070D02*
X005229Y020070D01*
X005204Y019971D02*
X006095Y019971D01*
X006095Y019873D02*
X005178Y019873D01*
X005121Y019650D02*
X006095Y019650D01*
X006095Y012450D01*
X006150Y012395D01*
X006150Y011686D01*
X006164Y011448D01*
X006207Y011213D01*
X006277Y010984D01*
X006374Y010766D01*
X006497Y010561D01*
X006643Y010372D01*
X006810Y010202D01*
X006997Y010052D01*
X007835Y009461D01*
X008013Y009349D01*
X008202Y009256D01*
X008399Y009183D01*
X008604Y009132D01*
X008812Y009103D01*
X025025Y007672D01*
X025147Y007654D01*
X025265Y007621D01*
X025378Y007574D01*
X025485Y007513D01*
X027901Y005688D01*
X028075Y005613D01*
X028257Y005559D01*
X028444Y005525D01*
X028633Y005514D01*
X028823Y005525D01*
X038624Y005900D01*
X039926Y005899D01*
X054526Y004683D01*
X054666Y004685D01*
X054803Y004707D01*
X054937Y004748D01*
X055063Y004807D01*
X055180Y004883D01*
X055286Y004974D01*
X055377Y005079D01*
X055453Y005196D01*
X055389Y005098D02*
X058371Y005098D01*
X058340Y004999D02*
X055308Y004999D01*
X055201Y004901D02*
X058308Y004901D01*
X058265Y004802D02*
X055053Y004802D01*
X055029Y004999D02*
X052901Y004999D01*
X053098Y004802D02*
X026894Y004802D01*
X026931Y004712D02*
X026832Y004951D01*
X026649Y005134D01*
X026410Y005233D01*
X026152Y005233D01*
X025913Y005134D01*
X025730Y004951D01*
X025631Y004712D01*
X025631Y004454D01*
X025730Y004215D01*
X025913Y004032D01*
X026152Y003933D01*
X026410Y003933D01*
X026649Y004032D01*
X026832Y004215D01*
X026931Y004454D01*
X026931Y004712D01*
X026931Y004704D02*
X054281Y004704D01*
X054084Y004901D02*
X054820Y004901D01*
X054780Y004704D02*
X058208Y004704D01*
X058151Y004605D02*
X026931Y004605D01*
X026931Y004507D02*
X058089Y004507D01*
X058013Y004408D02*
X026912Y004408D01*
X026871Y004310D02*
X033847Y004310D01*
X033745Y004268D02*
X033562Y004085D01*
X033463Y003846D01*
X033463Y003587D01*
X033562Y003348D01*
X033745Y003165D01*
X033984Y003066D01*
X034243Y003066D01*
X034482Y003165D01*
X034664Y003348D01*
X034763Y003587D01*
X034763Y003846D01*
X034664Y004085D01*
X034482Y004268D01*
X034243Y004366D01*
X033984Y004366D01*
X033745Y004268D01*
X033689Y004211D02*
X026828Y004211D01*
X026730Y004113D02*
X033590Y004113D01*
X033533Y004014D02*
X026606Y004014D01*
X026328Y003817D02*
X033463Y003817D01*
X033463Y003719D02*
X027201Y003719D01*
X028073Y003620D02*
X033463Y003620D01*
X033491Y003522D02*
X028946Y003522D01*
X029818Y003423D02*
X033531Y003423D01*
X033586Y003325D02*
X030691Y003325D01*
X031563Y003226D02*
X033685Y003226D01*
X033837Y003128D02*
X032435Y003128D01*
X033308Y003029D02*
X034314Y003029D01*
X034390Y003128D02*
X034645Y003128D01*
X034542Y003226D02*
X034835Y003226D01*
X034966Y003325D02*
X034641Y003325D01*
X034695Y003423D02*
X035097Y003423D01*
X035224Y003522D02*
X034736Y003522D01*
X034763Y003620D02*
X035378Y003620D01*
X035542Y003719D02*
X034763Y003719D01*
X034763Y003817D02*
X035706Y003817D01*
X035861Y003916D02*
X034735Y003916D01*
X034694Y004014D02*
X036056Y004014D01*
X036253Y004113D02*
X034637Y004113D01*
X034538Y004211D02*
X036450Y004211D01*
X036353Y003939D02*
X036025Y003775D01*
X035400Y003400D01*
X034900Y003025D01*
X034822Y002986D01*
X033928Y002775D02*
X033775Y002775D01*
X026025Y003650D01*
X025521Y003878D01*
X025706Y004014D02*
X025956Y004014D01*
X025924Y003916D02*
X033492Y003916D01*
X033928Y002775D02*
X034021Y002777D01*
X034113Y002784D01*
X034205Y002794D01*
X034297Y002809D01*
X034388Y002829D01*
X034477Y002852D01*
X034566Y002879D01*
X034653Y002911D01*
X034739Y002947D01*
X034822Y002986D01*
X034380Y004310D02*
X036819Y004310D01*
X037247Y004150D02*
X037775Y004150D01*
X053845Y002388D01*
X053423Y002635D02*
X055278Y002635D01*
X055737Y002734D02*
X052525Y002734D01*
X051626Y002832D02*
X055983Y002832D01*
X056225Y002931D02*
X050728Y002931D01*
X049830Y003029D02*
X056459Y003029D01*
X056616Y003128D02*
X048932Y003128D01*
X048034Y003226D02*
X056772Y003226D01*
X056928Y003325D02*
X047136Y003325D01*
X046238Y003423D02*
X057084Y003423D01*
X057193Y003522D02*
X045340Y003522D01*
X044442Y003620D02*
X057302Y003620D01*
X057410Y003719D02*
X043544Y003719D01*
X042646Y003817D02*
X057518Y003817D01*
X057627Y003916D02*
X041747Y003916D01*
X040849Y004014D02*
X057708Y004014D01*
X057784Y004113D02*
X039951Y004113D01*
X039053Y004211D02*
X057861Y004211D01*
X057937Y004310D02*
X038155Y004310D01*
X038245Y005886D02*
X040084Y005886D01*
X039887Y006083D02*
X055740Y006083D01*
X055795Y006181D02*
X027547Y006181D01*
X027677Y006083D02*
X038686Y006083D01*
X038691Y006083D02*
X039865Y006083D01*
X041070Y005984D02*
X055685Y005984D01*
X055630Y005886D02*
X042253Y005886D01*
X042450Y005689D02*
X033096Y005689D01*
X033537Y005886D02*
X027938Y005886D01*
X027807Y005984D02*
X036111Y005984D01*
X035671Y005787D02*
X041267Y005787D01*
X041301Y007757D02*
X033413Y007757D01*
X033551Y007856D02*
X040696Y007856D01*
X040672Y007859D02*
X040737Y007849D01*
X040799Y007832D01*
X040809Y007837D01*
X045913Y007006D01*
X046039Y006881D01*
X046261Y006881D01*
X046419Y007039D01*
X046419Y007261D01*
X046280Y007400D01*
X046419Y007539D01*
X046419Y007761D01*
X046261Y007919D01*
X046039Y007919D01*
X045976Y007857D01*
X041013Y008566D01*
X039955Y010447D01*
X039955Y010475D01*
X039920Y010510D01*
X039895Y010553D01*
X039869Y010561D01*
X039850Y010580D01*
X039800Y010580D01*
X039752Y010593D01*
X039728Y010580D01*
X038575Y010580D01*
X038470Y010475D01*
X038470Y010475D01*
X038330Y010335D01*
X038330Y011600D01*
X038225Y011705D01*
X036700Y011705D01*
X036595Y011600D01*
X036595Y009835D01*
X036511Y009919D01*
X036289Y009919D01*
X036199Y009830D01*
X034789Y009830D01*
X034730Y009840D01*
X034717Y009830D01*
X034700Y009830D01*
X034658Y009787D01*
X032467Y008205D01*
X032455Y008205D01*
X032455Y011600D01*
X032350Y011705D01*
X026950Y011705D01*
X026845Y011600D01*
X026845Y008335D01*
X026580Y008600D01*
X026580Y010975D01*
X026419Y011136D01*
X026419Y011261D01*
X026261Y011419D01*
X026039Y011419D01*
X025881Y011261D01*
X025881Y011174D01*
X024975Y012080D01*
X023825Y012080D01*
X023720Y011975D01*
X022575Y010830D01*
X021075Y010830D01*
X020970Y010725D01*
X020970Y010725D01*
X020700Y010455D01*
X015976Y010455D01*
X015960Y010470D01*
X020600Y010470D01*
X021475Y011345D01*
X021624Y011345D01*
X021688Y011281D01*
X021911Y011281D01*
X021970Y011340D01*
X021970Y011200D01*
X022075Y011095D01*
X022725Y011095D01*
X023835Y012205D01*
X024066Y012205D01*
X024142Y012281D01*
X024142Y012513D01*
X024225Y012595D01*
X024330Y012700D01*
X024330Y013225D01*
X024225Y013330D01*
X023325Y013330D01*
X023220Y013225D01*
X023220Y013225D01*
X022075Y012080D01*
X021970Y011975D01*
X021970Y011760D01*
X021911Y011819D01*
X021688Y011819D01*
X021574Y011705D01*
X021325Y011705D01*
X021220Y011600D01*
X020450Y010830D01*
X015575Y010830D01*
X015470Y010725D01*
X014664Y009919D01*
X014539Y009919D01*
X014381Y009761D01*
X014381Y009539D01*
X014539Y009381D01*
X014761Y009381D01*
X014919Y009539D01*
X014919Y009664D01*
X015506Y010251D01*
X015506Y010164D01*
X015664Y010006D01*
X015886Y010006D01*
X015976Y010095D01*
X020850Y010095D01*
X021070Y010316D01*
X021070Y010300D01*
X020475Y009705D01*
X015725Y009705D01*
X015636Y009794D01*
X015414Y009794D01*
X015256Y009636D01*
X015256Y009414D01*
X015414Y009256D01*
X015636Y009256D01*
X015725Y009345D01*
X020624Y009345D01*
X021350Y010070D01*
X022010Y010070D01*
X022010Y010019D01*
X022086Y009943D01*
X022785Y009943D01*
X022861Y010019D01*
X022861Y010481D01*
X022798Y010544D01*
X022830Y010575D01*
X023939Y011685D01*
X023939Y011319D01*
X024015Y011242D01*
X024714Y011242D01*
X024758Y011287D01*
X025595Y010450D01*
X025595Y008575D01*
X025700Y008470D01*
X026825Y007345D01*
X032760Y007345D01*
X032818Y007335D01*
X032832Y007345D01*
X032850Y007345D01*
X032892Y007387D01*
X034558Y008570D01*
X036885Y008570D01*
X036885Y008519D01*
X036961Y008443D01*
X037660Y008443D01*
X037736Y008519D01*
X037736Y008981D01*
X037660Y009058D01*
X037562Y009058D01*
X037580Y009075D01*
X038725Y010220D01*
X038814Y010220D01*
X038814Y009819D01*
X038890Y009742D01*
X039589Y009742D01*
X039591Y009745D01*
X040587Y007991D01*
X040585Y007980D01*
X040623Y007928D01*
X040655Y007871D01*
X040666Y007868D01*
X040672Y007859D01*
X040604Y007954D02*
X033690Y007954D01*
X033829Y008053D02*
X040552Y008053D01*
X040496Y008151D02*
X033967Y008151D01*
X034106Y008250D02*
X040441Y008250D01*
X040385Y008348D02*
X034245Y008348D01*
X034383Y008447D02*
X036958Y008447D01*
X036885Y008545D02*
X034522Y008545D01*
X034500Y008750D02*
X032775Y007525D01*
X026900Y007525D01*
X025775Y008650D01*
X025775Y010525D01*
X024650Y011650D01*
X024465Y011650D01*
X024365Y011550D01*
X023939Y011599D02*
X023853Y011599D01*
X023939Y011500D02*
X023755Y011500D01*
X023656Y011402D02*
X023939Y011402D01*
X023955Y011303D02*
X023558Y011303D01*
X023459Y011205D02*
X024841Y011205D01*
X024939Y011106D02*
X023361Y011106D01*
X023262Y011008D02*
X025038Y011008D01*
X025136Y010909D02*
X023164Y010909D01*
X023065Y010811D02*
X025235Y010811D01*
X025333Y010712D02*
X022967Y010712D01*
X022868Y010614D02*
X025432Y010614D01*
X025530Y010515D02*
X022827Y010515D01*
X022861Y010417D02*
X025595Y010417D01*
X025595Y010318D02*
X022861Y010318D01*
X022861Y010220D02*
X025595Y010220D01*
X025595Y010121D02*
X022861Y010121D01*
X022861Y010023D02*
X025595Y010023D01*
X025595Y009924D02*
X021203Y009924D01*
X021105Y009826D02*
X025595Y009826D01*
X025595Y009727D02*
X021006Y009727D01*
X020908Y009629D02*
X025595Y009629D01*
X025595Y009530D02*
X020809Y009530D01*
X020711Y009432D02*
X025595Y009432D01*
X025595Y009333D02*
X015714Y009333D01*
X015525Y009525D02*
X020550Y009525D01*
X021275Y010250D01*
X021250Y010250D01*
X021275Y010250D02*
X022435Y010250D01*
X022650Y010650D02*
X021150Y010650D01*
X020775Y010275D01*
X015775Y010275D01*
X015548Y010121D02*
X015376Y010121D01*
X015474Y010220D02*
X015506Y010220D01*
X015647Y010023D02*
X015277Y010023D01*
X015179Y009924D02*
X020694Y009924D01*
X020596Y009826D02*
X015080Y009826D01*
X014982Y009727D02*
X015347Y009727D01*
X015256Y009629D02*
X014919Y009629D01*
X014911Y009530D02*
X015256Y009530D01*
X015256Y009432D02*
X014812Y009432D01*
X014650Y009650D02*
X015650Y010650D01*
X020525Y010650D01*
X021400Y011525D01*
X021775Y011525D01*
X021800Y011550D01*
X021934Y011796D02*
X021970Y011796D01*
X021970Y011894D02*
X007861Y011894D01*
X007861Y011796D02*
X021665Y011796D01*
X021317Y011697D02*
X007788Y011697D01*
X007050Y007448D02*
X006844Y007475D01*
X006640Y007512D01*
X006437Y007558D01*
X006237Y007614D01*
X006040Y007679D01*
X005846Y007753D01*
X005655Y007836D01*
X005469Y007929D01*
X005287Y008030D01*
X005111Y008139D01*
X004939Y008256D01*
X004774Y008382D01*
X004614Y008515D01*
X004461Y008655D01*
X004314Y008803D01*
X004175Y008957D01*
X004043Y009117D01*
X003919Y009284D01*
X003803Y009456D01*
X003695Y009634D01*
X003595Y009816D01*
X003505Y010003D01*
X003423Y010194D01*
X003350Y010389D01*
X003350Y010388D02*
X003283Y010703D01*
X003477Y010753D02*
X003462Y010826D01*
X003457Y010829D01*
X003392Y011076D01*
X003297Y011718D01*
X003299Y012368D01*
X003397Y013010D01*
X003462Y013252D01*
X003463Y013253D01*
X003483Y013328D01*
X003506Y013403D01*
X003503Y013408D01*
X005121Y019650D01*
X005102Y019577D02*
X006095Y019577D01*
X006095Y019479D02*
X005076Y019479D01*
X005051Y019380D02*
X006095Y019380D01*
X006095Y019282D02*
X005025Y019282D01*
X005000Y019183D02*
X006095Y019183D01*
X006095Y019085D02*
X004974Y019085D01*
X004949Y018986D02*
X006095Y018986D01*
X006095Y018888D02*
X004923Y018888D01*
X004898Y018789D02*
X006095Y018789D01*
X006095Y018691D02*
X004872Y018691D01*
X004847Y018592D02*
X006095Y018592D01*
X006095Y018494D02*
X004821Y018494D01*
X004796Y018395D02*
X006095Y018395D01*
X006095Y018297D02*
X004770Y018297D01*
X004745Y018198D02*
X006095Y018198D01*
X006095Y018100D02*
X004719Y018100D01*
X004693Y018001D02*
X006095Y018001D01*
X006095Y017903D02*
X004668Y017903D01*
X004642Y017804D02*
X006095Y017804D01*
X006095Y017706D02*
X004617Y017706D01*
X004591Y017607D02*
X006095Y017607D01*
X006095Y017509D02*
X004566Y017509D01*
X004540Y017410D02*
X006095Y017410D01*
X006095Y017312D02*
X004515Y017312D01*
X004489Y017213D02*
X006095Y017213D01*
X006095Y017115D02*
X004464Y017115D01*
X004438Y017016D02*
X006095Y017016D01*
X006095Y016918D02*
X004413Y016918D01*
X004387Y016819D02*
X006095Y016819D01*
X006095Y016721D02*
X004362Y016721D01*
X004336Y016622D02*
X006095Y016622D01*
X006095Y016524D02*
X004311Y016524D01*
X004285Y016425D02*
X006095Y016425D01*
X006095Y016327D02*
X004260Y016327D01*
X004234Y016228D02*
X006095Y016228D01*
X006095Y016130D02*
X004209Y016130D01*
X004183Y016031D02*
X006095Y016031D01*
X006095Y015933D02*
X004157Y015933D01*
X004132Y015834D02*
X006095Y015834D01*
X006095Y015736D02*
X004106Y015736D01*
X004081Y015637D02*
X006095Y015637D01*
X006095Y015539D02*
X004055Y015539D01*
X004030Y015440D02*
X006095Y015440D01*
X006095Y015342D02*
X004004Y015342D01*
X003979Y015243D02*
X006095Y015243D01*
X006095Y015145D02*
X003953Y015145D01*
X003928Y015046D02*
X006095Y015046D01*
X006095Y014948D02*
X003902Y014948D01*
X003877Y014849D02*
X006095Y014849D01*
X006095Y014751D02*
X003851Y014751D01*
X003826Y014652D02*
X006095Y014652D01*
X006095Y014554D02*
X003800Y014554D01*
X003775Y014455D02*
X006095Y014455D01*
X006095Y014357D02*
X003749Y014357D01*
X003724Y014258D02*
X006095Y014258D01*
X006095Y014160D02*
X003698Y014160D01*
X003673Y014061D02*
X006095Y014061D01*
X006095Y013963D02*
X003647Y013963D01*
X003622Y013864D02*
X006095Y013864D01*
X006095Y013766D02*
X003596Y013766D01*
X003570Y013667D02*
X006095Y013667D01*
X006095Y013569D02*
X003545Y013569D01*
X003519Y013470D02*
X006095Y013470D01*
X006095Y013372D02*
X003496Y013372D01*
X003468Y013273D02*
X006095Y013273D01*
X006095Y013175D02*
X003441Y013175D01*
X003415Y013076D02*
X006095Y013076D01*
X006095Y012978D02*
X003392Y012978D01*
X003377Y012879D02*
X006095Y012879D01*
X006095Y012781D02*
X003362Y012781D01*
X003347Y012682D02*
X006095Y012682D01*
X006095Y012584D02*
X003332Y012584D01*
X003317Y012485D02*
X006095Y012485D01*
X006150Y012387D02*
X003302Y012387D01*
X003299Y012288D02*
X006150Y012288D01*
X006150Y012190D02*
X003298Y012190D01*
X003298Y012091D02*
X006150Y012091D01*
X006150Y011993D02*
X003298Y011993D01*
X003298Y011894D02*
X006150Y011894D01*
X006150Y011796D02*
X003297Y011796D01*
X003300Y011697D02*
X006150Y011697D01*
X006155Y011599D02*
X003315Y011599D01*
X003329Y011500D02*
X006161Y011500D01*
X006173Y011402D02*
X003344Y011402D01*
X003358Y011303D02*
X006191Y011303D01*
X006209Y011205D02*
X003373Y011205D01*
X003387Y011106D02*
X006240Y011106D01*
X006270Y011008D02*
X003410Y011008D01*
X003436Y010909D02*
X006311Y010909D01*
X006355Y010811D02*
X003465Y010811D01*
X003477Y010753D02*
X003499Y010682D01*
X003494Y010673D01*
X003542Y010445D01*
X003663Y010138D01*
X003987Y009540D01*
X004402Y009002D01*
X004898Y008538D01*
X005463Y008159D01*
X006080Y007876D01*
X006156Y007856D02*
X022946Y007856D01*
X022761Y008053D02*
X026118Y008053D01*
X026019Y008151D02*
X021645Y008151D01*
X021829Y007954D02*
X005911Y007954D01*
X005696Y008053D02*
X020713Y008053D01*
X020528Y008250D02*
X025921Y008250D01*
X025822Y008348D02*
X019412Y008348D01*
X019597Y008151D02*
X005481Y008151D01*
X005328Y008250D02*
X018480Y008250D01*
X018296Y008447D02*
X025724Y008447D01*
X025625Y008545D02*
X017179Y008545D01*
X017364Y008348D02*
X005181Y008348D01*
X005034Y008447D02*
X016248Y008447D01*
X016063Y008644D02*
X025595Y008644D01*
X025595Y008742D02*
X014947Y008742D01*
X015131Y008545D02*
X004891Y008545D01*
X004785Y008644D02*
X014015Y008644D01*
X013830Y008841D02*
X025595Y008841D01*
X025595Y008939D02*
X012714Y008939D01*
X012899Y008742D02*
X004680Y008742D01*
X004575Y008841D02*
X011782Y008841D01*
X011598Y009038D02*
X025595Y009038D01*
X025595Y009136D02*
X010481Y009136D01*
X010666Y008939D02*
X004469Y008939D01*
X004375Y009038D02*
X009550Y009038D01*
X009365Y009235D02*
X025595Y009235D01*
X026150Y008525D02*
X026900Y007775D01*
X032650Y007775D01*
X034525Y009150D01*
X037400Y009150D01*
X038650Y010400D01*
X039775Y010400D01*
X040900Y008400D01*
X046150Y007650D01*
X046342Y007462D02*
X053458Y007462D01*
X053381Y007539D02*
X053539Y007381D01*
X053761Y007381D01*
X053919Y007539D01*
X053919Y007664D01*
X054372Y008117D01*
X054714Y008117D01*
X054790Y008194D01*
X054790Y008656D01*
X054714Y008732D01*
X054015Y008732D01*
X053939Y008656D01*
X053939Y008194D01*
X053664Y007919D01*
X053539Y007919D01*
X053381Y007761D01*
X053381Y007539D01*
X053381Y007560D02*
X046419Y007560D01*
X046419Y007659D02*
X053381Y007659D01*
X053381Y007757D02*
X046419Y007757D01*
X046325Y007856D02*
X051690Y007856D01*
X051700Y007845D02*
X053225Y007845D01*
X053330Y007950D01*
X053330Y009094D01*
X053392Y009156D01*
X053392Y009894D01*
X053330Y009956D01*
X053330Y010100D01*
X053225Y010205D01*
X051700Y010205D01*
X051595Y010100D01*
X051595Y009950D01*
X051595Y008100D01*
X051595Y007950D01*
X051700Y007845D01*
X051595Y007954D02*
X045295Y007954D01*
X045231Y008250D02*
X043226Y008250D01*
X043502Y008545D02*
X041158Y008545D01*
X040970Y008644D02*
X042926Y008644D01*
X042757Y009038D02*
X051595Y009038D01*
X051595Y009136D02*
X042181Y009136D01*
X042349Y008742D02*
X040914Y008742D01*
X040859Y008841D02*
X041773Y008841D01*
X041847Y008447D02*
X044078Y008447D01*
X043916Y008151D02*
X045807Y008151D01*
X045911Y008133D02*
X046039Y008006D01*
X046261Y008006D01*
X046419Y008164D01*
X046419Y008386D01*
X046261Y008544D01*
X046039Y008544D01*
X045981Y008486D01*
X041413Y009267D01*
X041286Y009394D01*
X041063Y009394D01*
X040906Y009237D01*
X040906Y009014D01*
X041063Y008856D01*
X041286Y008856D01*
X041344Y008914D01*
X045911Y008133D01*
X045992Y008053D02*
X044605Y008053D01*
X044654Y008348D02*
X042537Y008348D01*
X042511Y007560D02*
X033135Y007560D01*
X032996Y007462D02*
X043116Y007462D01*
X043721Y007363D02*
X032868Y007363D01*
X033274Y007659D02*
X041906Y007659D01*
X040775Y008025D02*
X046150Y007150D01*
X046350Y006969D02*
X051200Y006969D01*
X051131Y007039D02*
X051289Y006881D01*
X051511Y006881D01*
X051601Y006970D01*
X052010Y006970D01*
X052010Y006894D01*
X052086Y006818D01*
X052785Y006818D01*
X052861Y006894D01*
X052861Y007356D01*
X052785Y007433D01*
X052086Y007433D01*
X052010Y007356D01*
X052010Y007330D01*
X051601Y007330D01*
X051511Y007419D01*
X051289Y007419D01*
X051131Y007261D01*
X051131Y007039D01*
X051131Y007068D02*
X046419Y007068D01*
X046419Y007166D02*
X051131Y007166D01*
X051134Y007265D02*
X046416Y007265D01*
X046317Y007363D02*
X051233Y007363D01*
X051400Y007150D02*
X052400Y007150D01*
X052010Y006969D02*
X051600Y006969D01*
X051567Y007363D02*
X052017Y007363D01*
X052034Y006871D02*
X026634Y006871D01*
X026503Y006969D02*
X045950Y006969D01*
X045536Y007068D02*
X026373Y007068D01*
X026243Y007166D02*
X044931Y007166D01*
X044326Y007265D02*
X026112Y007265D01*
X025982Y007363D02*
X026807Y007363D01*
X026709Y007462D02*
X025851Y007462D01*
X025721Y007560D02*
X026610Y007560D01*
X026512Y007659D02*
X025593Y007659D01*
X025420Y007757D02*
X026413Y007757D01*
X026315Y007856D02*
X025016Y007856D01*
X025115Y007659D02*
X006991Y007659D01*
X007051Y007448D02*
X023246Y005803D01*
X023430Y005984D02*
X027509Y005984D01*
X027639Y005886D02*
X023775Y005886D01*
X024005Y005787D02*
X027770Y005787D01*
X027900Y005689D02*
X024173Y005689D01*
X024311Y005590D02*
X028152Y005590D01*
X028126Y005787D02*
X030963Y005787D01*
X030522Y005590D02*
X043633Y005590D01*
X043436Y005787D02*
X055576Y005787D01*
X055521Y005689D02*
X044619Y005689D01*
X044816Y005492D02*
X024448Y005492D01*
X024544Y005393D02*
X045999Y005393D01*
X045802Y005590D02*
X055466Y005590D01*
X055412Y005492D02*
X046986Y005492D01*
X047182Y005295D02*
X024633Y005295D01*
X024722Y005196D02*
X026062Y005196D01*
X025876Y005098D02*
X024803Y005098D01*
X024859Y004999D02*
X025778Y004999D01*
X025709Y004901D02*
X024915Y004901D01*
X024971Y004802D02*
X025668Y004802D01*
X025631Y004704D02*
X025027Y004704D01*
X025092Y004605D02*
X025631Y004605D01*
X025631Y004507D02*
X025170Y004507D01*
X025260Y004408D02*
X025650Y004408D01*
X025691Y004310D02*
X025355Y004310D01*
X025449Y004211D02*
X025734Y004211D01*
X025832Y004113D02*
X025556Y004113D01*
X024894Y004533D02*
X024733Y004816D01*
X023783Y005665D02*
X023709Y005695D01*
X023634Y005721D01*
X023558Y005744D01*
X023481Y005764D01*
X023403Y005781D01*
X023325Y005794D01*
X023246Y005804D01*
X022476Y006083D02*
X027378Y006083D01*
X027248Y006181D02*
X021506Y006181D01*
X020536Y006280D02*
X027118Y006280D01*
X026987Y006378D02*
X019566Y006378D01*
X018596Y006477D02*
X026857Y006477D01*
X026726Y006575D02*
X017625Y006575D01*
X016655Y006674D02*
X026596Y006674D01*
X026466Y006772D02*
X015685Y006772D01*
X014715Y006871D02*
X026335Y006871D01*
X026205Y006969D02*
X013745Y006969D01*
X012775Y007068D02*
X026074Y007068D01*
X025944Y007166D02*
X011805Y007166D01*
X010834Y007265D02*
X025814Y007265D01*
X025683Y007363D02*
X009864Y007363D01*
X008894Y007462D02*
X025553Y007462D01*
X025402Y007560D02*
X007924Y007560D01*
X006515Y007757D02*
X024062Y007757D01*
X023877Y007954D02*
X026216Y007954D01*
X026150Y008525D02*
X026150Y010650D01*
X024900Y011900D01*
X023900Y011900D01*
X022650Y010650D01*
X022654Y010909D02*
X021039Y010909D01*
X021056Y010811D02*
X020940Y010811D01*
X020957Y010712D02*
X020842Y010712D01*
X020859Y010614D02*
X020743Y010614D01*
X020760Y010515D02*
X020645Y010515D01*
X020529Y010909D02*
X006508Y010909D01*
X006464Y011008D02*
X020628Y011008D01*
X020726Y011106D02*
X006428Y011106D01*
X006398Y011205D02*
X020825Y011205D01*
X020923Y011303D02*
X006373Y011303D01*
X006356Y011402D02*
X021022Y011402D01*
X021120Y011500D02*
X006341Y011500D01*
X006336Y011599D02*
X021219Y011599D01*
X021433Y011303D02*
X021666Y011303D01*
X021934Y011303D02*
X021970Y011303D01*
X021970Y011205D02*
X021334Y011205D01*
X021236Y011106D02*
X022064Y011106D01*
X022150Y011275D02*
X022150Y011900D01*
X023400Y013150D01*
X024150Y013150D01*
X024150Y012775D01*
X022650Y011275D01*
X022150Y011275D01*
X022150Y011303D02*
X022678Y011303D01*
X022777Y011402D02*
X022150Y011402D01*
X022150Y011500D02*
X022875Y011500D01*
X022974Y011599D02*
X022150Y011599D01*
X022150Y011697D02*
X023072Y011697D01*
X023171Y011796D02*
X022150Y011796D01*
X022150Y011894D02*
X023269Y011894D01*
X023368Y011993D02*
X022243Y011993D01*
X022341Y012091D02*
X023466Y012091D01*
X023565Y012190D02*
X022440Y012190D01*
X022538Y012288D02*
X023663Y012288D01*
X023762Y012387D02*
X022637Y012387D01*
X022735Y012485D02*
X023860Y012485D01*
X023959Y012584D02*
X022834Y012584D01*
X022932Y012682D02*
X024057Y012682D01*
X024150Y012781D02*
X023031Y012781D01*
X023129Y012879D02*
X024150Y012879D01*
X024150Y012978D02*
X023228Y012978D01*
X023326Y013076D02*
X024150Y013076D01*
X024330Y013076D02*
X052968Y013076D01*
X052970Y012978D02*
X024330Y012978D01*
X024330Y012879D02*
X052970Y012879D01*
X052970Y012781D02*
X024330Y012781D01*
X024312Y012682D02*
X052970Y012682D01*
X052970Y012584D02*
X024213Y012584D01*
X024142Y012485D02*
X052970Y012485D01*
X052970Y012387D02*
X024142Y012387D01*
X024142Y012288D02*
X052970Y012288D01*
X052970Y012190D02*
X023819Y012190D01*
X023721Y012091D02*
X052970Y012091D01*
X052970Y011993D02*
X025062Y011993D01*
X025161Y011894D02*
X052970Y011894D01*
X052970Y011796D02*
X025259Y011796D01*
X025358Y011697D02*
X026942Y011697D01*
X026845Y011599D02*
X025456Y011599D01*
X025555Y011500D02*
X026845Y011500D01*
X026845Y011402D02*
X026279Y011402D01*
X026377Y011303D02*
X026845Y011303D01*
X026845Y011205D02*
X026419Y011205D01*
X026449Y011106D02*
X026845Y011106D01*
X026845Y011008D02*
X026547Y011008D01*
X026580Y010909D02*
X026845Y010909D01*
X026845Y010811D02*
X026580Y010811D01*
X026580Y010712D02*
X026845Y010712D01*
X026845Y010614D02*
X026580Y010614D01*
X026580Y010515D02*
X026845Y010515D01*
X026845Y010417D02*
X026580Y010417D01*
X026580Y010318D02*
X026845Y010318D01*
X026845Y010220D02*
X026580Y010220D01*
X026580Y010121D02*
X026845Y010121D01*
X026845Y010023D02*
X026580Y010023D01*
X026580Y009924D02*
X026845Y009924D01*
X026845Y009826D02*
X026580Y009826D01*
X026580Y009727D02*
X026845Y009727D01*
X026845Y009629D02*
X026580Y009629D01*
X026580Y009530D02*
X026845Y009530D01*
X026845Y009432D02*
X026580Y009432D01*
X026580Y009333D02*
X026845Y009333D01*
X026845Y009235D02*
X026580Y009235D01*
X026580Y009136D02*
X026845Y009136D01*
X026845Y009038D02*
X026580Y009038D01*
X026580Y008939D02*
X026845Y008939D01*
X026845Y008841D02*
X026580Y008841D01*
X026580Y008742D02*
X026845Y008742D01*
X026845Y008644D02*
X026580Y008644D01*
X026635Y008545D02*
X026845Y008545D01*
X026845Y008447D02*
X026733Y008447D01*
X026832Y008348D02*
X026845Y008348D01*
X027025Y008348D02*
X032275Y008348D01*
X032275Y008275D02*
X027025Y008275D01*
X027025Y009220D01*
X028350Y009220D01*
X028455Y009325D01*
X028455Y010350D01*
X028350Y010455D01*
X027025Y010455D01*
X027025Y011525D01*
X032275Y011525D01*
X032275Y008275D01*
X032275Y008447D02*
X030391Y008447D01*
X030374Y008429D02*
X030450Y008506D01*
X030450Y009125D01*
X030425Y009150D01*
X030450Y009175D01*
X030450Y009794D01*
X030374Y009871D01*
X030072Y009871D01*
X030011Y009931D01*
X029789Y009931D01*
X029728Y009871D01*
X029676Y009871D01*
X029600Y009794D01*
X029600Y009175D01*
X029625Y009150D01*
X029600Y009125D01*
X029600Y008506D01*
X029676Y008429D01*
X029740Y008429D01*
X029789Y008381D01*
X030011Y008381D01*
X030060Y008429D01*
X030374Y008429D01*
X030450Y008545D02*
X032275Y008545D01*
X032275Y008644D02*
X030450Y008644D01*
X030450Y008742D02*
X032275Y008742D01*
X032275Y008841D02*
X030450Y008841D01*
X030450Y008939D02*
X032275Y008939D01*
X032275Y009038D02*
X030450Y009038D01*
X030439Y009136D02*
X032275Y009136D01*
X032275Y009235D02*
X030450Y009235D01*
X030450Y009333D02*
X032275Y009333D01*
X032275Y009432D02*
X030450Y009432D01*
X030450Y009530D02*
X032275Y009530D01*
X032275Y009629D02*
X030450Y009629D01*
X030450Y009727D02*
X032275Y009727D01*
X032275Y009826D02*
X030419Y009826D01*
X030018Y009924D02*
X032275Y009924D01*
X032275Y010023D02*
X028455Y010023D01*
X028455Y010121D02*
X032275Y010121D01*
X032275Y010220D02*
X028455Y010220D01*
X028455Y010318D02*
X032275Y010318D01*
X032275Y010417D02*
X028388Y010417D01*
X028275Y010275D02*
X027025Y010275D01*
X027025Y009400D01*
X028275Y009400D01*
X028275Y010275D01*
X028275Y010220D02*
X027025Y010220D01*
X027025Y010121D02*
X028275Y010121D01*
X028275Y010023D02*
X027025Y010023D01*
X027025Y009924D02*
X028275Y009924D01*
X028275Y009826D02*
X027025Y009826D01*
X027025Y009727D02*
X028275Y009727D01*
X028275Y009629D02*
X027025Y009629D01*
X027025Y009530D02*
X028275Y009530D01*
X028275Y009432D02*
X027025Y009432D01*
X027025Y009136D02*
X029611Y009136D01*
X029600Y009038D02*
X027025Y009038D01*
X027025Y008939D02*
X029600Y008939D01*
X029600Y008841D02*
X027025Y008841D01*
X027025Y008742D02*
X029600Y008742D01*
X029600Y008644D02*
X027025Y008644D01*
X027025Y008545D02*
X029600Y008545D01*
X029659Y008447D02*
X027025Y008447D01*
X026900Y008025D02*
X026400Y008525D01*
X026400Y010900D01*
X026150Y011150D01*
X025923Y011303D02*
X025752Y011303D01*
X025850Y011205D02*
X025881Y011205D01*
X026021Y011402D02*
X025653Y011402D01*
X027025Y011402D02*
X032275Y011402D01*
X032275Y011500D02*
X027025Y011500D01*
X027025Y011303D02*
X032275Y011303D01*
X032275Y011205D02*
X027025Y011205D01*
X027025Y011106D02*
X032275Y011106D01*
X032275Y011008D02*
X027025Y011008D01*
X027025Y010909D02*
X032275Y010909D01*
X032275Y010811D02*
X027025Y010811D01*
X027025Y010712D02*
X032275Y010712D01*
X032275Y010614D02*
X027025Y010614D01*
X027025Y010515D02*
X032275Y010515D01*
X032455Y010515D02*
X036595Y010515D01*
X036595Y010417D02*
X032455Y010417D01*
X032455Y010318D02*
X036595Y010318D01*
X036595Y010220D02*
X032455Y010220D01*
X032455Y010121D02*
X036595Y010121D01*
X036595Y010023D02*
X032455Y010023D01*
X032455Y009924D02*
X036595Y009924D01*
X036775Y009924D02*
X037919Y009924D01*
X037821Y009826D02*
X036775Y009826D01*
X036775Y009727D02*
X037722Y009727D01*
X037645Y009650D02*
X036775Y009650D01*
X036775Y011525D01*
X038150Y011525D01*
X038150Y010155D01*
X037645Y009650D01*
X037936Y009432D02*
X039769Y009432D01*
X039713Y009530D02*
X038035Y009530D01*
X038133Y009629D02*
X039658Y009629D01*
X039602Y009727D02*
X038232Y009727D01*
X038330Y009826D02*
X038814Y009826D01*
X038814Y009924D02*
X038429Y009924D01*
X038527Y010023D02*
X038814Y010023D01*
X038814Y010121D02*
X038626Y010121D01*
X038724Y010220D02*
X038814Y010220D01*
X038510Y010515D02*
X038330Y010515D01*
X038330Y010417D02*
X038412Y010417D01*
X038330Y010614D02*
X053932Y010614D01*
X053833Y010712D02*
X038330Y010712D01*
X038330Y010811D02*
X053735Y010811D01*
X053636Y010909D02*
X038330Y010909D01*
X038330Y011008D02*
X053538Y011008D01*
X053439Y011106D02*
X038330Y011106D01*
X038330Y011205D02*
X053341Y011205D01*
X053242Y011303D02*
X038330Y011303D01*
X038330Y011402D02*
X053144Y011402D01*
X053045Y011500D02*
X038330Y011500D01*
X038330Y011599D02*
X052970Y011599D01*
X052970Y011697D02*
X038233Y011697D01*
X038150Y011500D02*
X036775Y011500D01*
X036775Y011402D02*
X038150Y011402D01*
X038150Y011303D02*
X036775Y011303D01*
X036775Y011205D02*
X038150Y011205D01*
X038150Y011106D02*
X036775Y011106D01*
X036775Y011008D02*
X038150Y011008D01*
X038150Y010909D02*
X036775Y010909D01*
X036775Y010811D02*
X038150Y010811D01*
X038150Y010712D02*
X036775Y010712D01*
X036775Y010614D02*
X038150Y010614D01*
X038150Y010515D02*
X036775Y010515D01*
X036775Y010417D02*
X038150Y010417D01*
X038150Y010318D02*
X036775Y010318D01*
X036775Y010220D02*
X038150Y010220D01*
X038116Y010121D02*
X036775Y010121D01*
X036775Y010023D02*
X038018Y010023D01*
X037838Y009333D02*
X039825Y009333D01*
X039881Y009235D02*
X037739Y009235D01*
X037641Y009136D02*
X039937Y009136D01*
X039993Y009038D02*
X037680Y009038D01*
X037736Y008939D02*
X040049Y008939D01*
X040105Y008841D02*
X037736Y008841D01*
X037736Y008742D02*
X040161Y008742D01*
X040217Y008644D02*
X037736Y008644D01*
X037736Y008545D02*
X040273Y008545D01*
X040329Y008447D02*
X037663Y008447D01*
X037310Y008750D02*
X034500Y008750D01*
X034029Y009333D02*
X032455Y009333D01*
X032455Y009235D02*
X033892Y009235D01*
X033756Y009136D02*
X032455Y009136D01*
X032455Y009038D02*
X033620Y009038D01*
X033483Y008939D02*
X032455Y008939D01*
X032455Y008841D02*
X033347Y008841D01*
X033210Y008742D02*
X032455Y008742D01*
X032455Y008644D02*
X033074Y008644D01*
X032938Y008545D02*
X032455Y008545D01*
X032455Y008447D02*
X032801Y008447D01*
X032665Y008348D02*
X032455Y008348D01*
X032455Y008250D02*
X032528Y008250D01*
X032525Y008025D02*
X034775Y009650D01*
X036400Y009650D01*
X036595Y010614D02*
X032455Y010614D01*
X032455Y010712D02*
X036595Y010712D01*
X036595Y010811D02*
X032455Y010811D01*
X032455Y010909D02*
X036595Y010909D01*
X036595Y011008D02*
X032455Y011008D01*
X032455Y011106D02*
X036595Y011106D01*
X036595Y011205D02*
X032455Y011205D01*
X032455Y011303D02*
X036595Y011303D01*
X036595Y011402D02*
X032455Y011402D01*
X032455Y011500D02*
X036595Y011500D01*
X036595Y011599D02*
X032455Y011599D01*
X032358Y011697D02*
X036692Y011697D01*
X034696Y009826D02*
X032455Y009826D01*
X032455Y009727D02*
X034574Y009727D01*
X034438Y009629D02*
X032455Y009629D01*
X032455Y009530D02*
X034301Y009530D01*
X034165Y009432D02*
X032455Y009432D01*
X032525Y008025D02*
X026900Y008025D01*
X026764Y006772D02*
X056123Y006772D01*
X056170Y006871D02*
X052837Y006871D01*
X052861Y006969D02*
X056205Y006969D01*
X056227Y007068D02*
X052861Y007068D01*
X052861Y007166D02*
X056240Y007166D01*
X056248Y007265D02*
X052861Y007265D01*
X052854Y007363D02*
X056255Y007363D01*
X056263Y007462D02*
X053842Y007462D01*
X053919Y007560D02*
X056270Y007560D01*
X056278Y007659D02*
X053919Y007659D01*
X054012Y007757D02*
X056285Y007757D01*
X056293Y007856D02*
X054110Y007856D01*
X054209Y007954D02*
X056301Y007954D01*
X056308Y008053D02*
X054307Y008053D01*
X054365Y008365D02*
X053650Y007650D01*
X053475Y007856D02*
X053235Y007856D01*
X053330Y007954D02*
X053699Y007954D01*
X053798Y008053D02*
X053330Y008053D01*
X053330Y008151D02*
X053896Y008151D01*
X053939Y008250D02*
X053330Y008250D01*
X053330Y008348D02*
X053939Y008348D01*
X053939Y008447D02*
X053330Y008447D01*
X053330Y008545D02*
X053939Y008545D01*
X053939Y008644D02*
X053330Y008644D01*
X053330Y008742D02*
X056361Y008742D01*
X056354Y008644D02*
X054790Y008644D01*
X054790Y008545D02*
X056346Y008545D01*
X056338Y008447D02*
X054790Y008447D01*
X054790Y008348D02*
X056331Y008348D01*
X056323Y008250D02*
X054790Y008250D01*
X054747Y008151D02*
X056316Y008151D01*
X056369Y008841D02*
X053330Y008841D01*
X053330Y008939D02*
X056376Y008939D01*
X056384Y009038D02*
X053330Y009038D01*
X053372Y009136D02*
X056391Y009136D01*
X056399Y009235D02*
X053392Y009235D01*
X053392Y009333D02*
X056407Y009333D01*
X056414Y009432D02*
X053392Y009432D01*
X053392Y009530D02*
X056422Y009530D01*
X056429Y009629D02*
X053392Y009629D01*
X053392Y009727D02*
X056437Y009727D01*
X056445Y009826D02*
X053392Y009826D01*
X053362Y009924D02*
X056452Y009924D01*
X056460Y010023D02*
X053330Y010023D01*
X053309Y010121D02*
X056467Y010121D01*
X056475Y010220D02*
X054600Y010220D01*
X054669Y010318D02*
X056482Y010318D01*
X056490Y010417D02*
X054669Y010417D01*
X054665Y010515D02*
X056498Y010515D01*
X056505Y010614D02*
X054567Y010614D01*
X054343Y010712D02*
X056513Y010712D01*
X056520Y010811D02*
X054244Y010811D01*
X054146Y010909D02*
X056528Y010909D01*
X056535Y011008D02*
X054047Y011008D01*
X053949Y011106D02*
X056543Y011106D01*
X056551Y011205D02*
X056248Y011205D01*
X056280Y011236D02*
X056280Y012064D01*
X056204Y012140D01*
X054096Y012140D01*
X054020Y012064D01*
X054020Y011236D01*
X054096Y011160D01*
X056204Y011160D01*
X056280Y011236D01*
X056280Y011303D02*
X056558Y011303D01*
X056566Y011402D02*
X056280Y011402D01*
X056280Y011500D02*
X056573Y011500D01*
X056581Y011599D02*
X056280Y011599D01*
X056280Y011697D02*
X056588Y011697D01*
X056596Y011796D02*
X056280Y011796D01*
X056280Y011894D02*
X056604Y011894D01*
X056611Y011993D02*
X056280Y011993D01*
X056253Y012091D02*
X056619Y012091D01*
X056626Y012190D02*
X053330Y012190D01*
X053330Y012288D02*
X056634Y012288D01*
X056642Y012387D02*
X053330Y012387D01*
X053330Y012485D02*
X056649Y012485D01*
X056280Y014258D02*
X058224Y014258D01*
X058220Y014357D02*
X056280Y014357D01*
X056280Y014455D02*
X058216Y014455D01*
X058212Y014554D02*
X056308Y014554D01*
X056407Y014652D02*
X058208Y014652D01*
X058203Y014751D02*
X056505Y014751D01*
X056604Y014849D02*
X058199Y014849D01*
X058195Y014948D02*
X056702Y014948D01*
X056801Y015046D02*
X058191Y015046D01*
X058187Y015145D02*
X056830Y015145D01*
X056829Y015243D02*
X058183Y015243D01*
X058179Y015342D02*
X056828Y015342D01*
X056827Y015440D02*
X058175Y015440D01*
X058170Y015539D02*
X056826Y015539D01*
X056825Y015637D02*
X058166Y015637D01*
X058162Y015736D02*
X056824Y015736D01*
X056823Y015834D02*
X058158Y015834D01*
X058154Y015933D02*
X056822Y015933D01*
X056822Y016031D02*
X058150Y016031D01*
X058146Y016130D02*
X056821Y016130D01*
X056820Y016228D02*
X058141Y016228D01*
X058137Y016327D02*
X056819Y016327D01*
X056818Y016425D02*
X058133Y016425D01*
X058129Y016524D02*
X056817Y016524D01*
X056816Y016622D02*
X058125Y016622D01*
X058121Y016721D02*
X056815Y016721D01*
X056814Y016819D02*
X058117Y016819D01*
X058113Y016918D02*
X056813Y016918D01*
X056812Y017016D02*
X058108Y017016D01*
X058104Y017115D02*
X056811Y017115D01*
X056810Y017213D02*
X058100Y017213D01*
X058096Y017312D02*
X056809Y017312D01*
X056808Y017410D02*
X058092Y017410D01*
X058088Y017509D02*
X056807Y017509D01*
X056806Y017607D02*
X058084Y017607D01*
X058079Y017706D02*
X056805Y017706D01*
X056804Y017804D02*
X058075Y017804D01*
X058071Y017903D02*
X056804Y017903D01*
X056803Y018001D02*
X058067Y018001D01*
X058063Y018100D02*
X056802Y018100D01*
X056801Y018198D02*
X058059Y018198D01*
X058055Y018297D02*
X056800Y018297D01*
X056799Y018395D02*
X058051Y018395D01*
X058046Y018494D02*
X056798Y018494D01*
X056797Y018592D02*
X058042Y018592D01*
X058038Y018691D02*
X056796Y018691D01*
X056795Y018789D02*
X058034Y018789D01*
X058030Y018888D02*
X056794Y018888D01*
X056793Y018986D02*
X058026Y018986D01*
X058022Y019085D02*
X056792Y019085D01*
X056791Y019183D02*
X058017Y019183D01*
X058013Y019282D02*
X056790Y019282D01*
X056789Y019380D02*
X058009Y019380D01*
X058005Y019479D02*
X056788Y019479D01*
X056787Y019577D02*
X058001Y019577D01*
X057997Y019676D02*
X056786Y019676D01*
X056786Y019774D02*
X057993Y019774D01*
X057989Y019873D02*
X056785Y019873D01*
X056784Y019971D02*
X057984Y019971D01*
X057980Y020070D02*
X056783Y020070D01*
X056782Y020168D02*
X057976Y020168D01*
X057972Y020267D02*
X056781Y020267D01*
X056780Y020365D02*
X057968Y020365D01*
X057964Y020464D02*
X056779Y020464D01*
X056778Y020562D02*
X057960Y020562D01*
X057955Y020661D02*
X056777Y020661D01*
X056776Y020759D02*
X057951Y020759D01*
X057947Y020858D02*
X056775Y020858D01*
X056774Y020956D02*
X057943Y020956D01*
X057939Y021055D02*
X056773Y021055D01*
X056772Y021153D02*
X057935Y021153D01*
X057931Y021252D02*
X056771Y021252D01*
X056770Y021350D02*
X057927Y021350D01*
X057922Y021449D02*
X056769Y021449D01*
X056768Y021547D02*
X057918Y021547D01*
X057914Y021646D02*
X056768Y021646D01*
X056767Y021744D02*
X057910Y021744D01*
X057906Y021843D02*
X056766Y021843D01*
X056765Y021941D02*
X057902Y021941D01*
X057898Y022040D02*
X056764Y022040D01*
X056763Y022138D02*
X057894Y022138D01*
X057889Y022237D02*
X056762Y022237D01*
X056761Y022335D02*
X057885Y022335D01*
X057881Y022434D02*
X056760Y022434D01*
X056759Y022532D02*
X057877Y022532D01*
X057873Y022631D02*
X056758Y022631D01*
X056757Y022729D02*
X057869Y022729D01*
X057865Y022828D02*
X056756Y022828D01*
X056755Y022926D02*
X057860Y022926D01*
X057856Y023025D02*
X056754Y023025D01*
X056753Y023123D02*
X057852Y023123D01*
X057848Y023222D02*
X056752Y023222D01*
X056751Y023320D02*
X057844Y023320D01*
X057840Y023419D02*
X056751Y023419D01*
X056750Y023517D02*
X057836Y023517D01*
X057833Y023571D02*
X057833Y023571D01*
X057841Y023616D02*
X056749Y023616D01*
X056748Y023714D02*
X057858Y023714D01*
X057875Y023813D02*
X056747Y023813D01*
X056746Y023911D02*
X057891Y023911D01*
X057908Y024010D02*
X056745Y024010D01*
X056744Y024108D02*
X057943Y024108D01*
X057968Y024171D02*
X057968Y024171D01*
X057982Y024207D02*
X056743Y024207D01*
X056742Y024305D02*
X058022Y024305D01*
X058061Y024404D02*
X056741Y024404D01*
X056740Y024502D02*
X058100Y024502D01*
X058140Y024601D02*
X056739Y024601D01*
X056738Y024699D02*
X058179Y024699D01*
X058219Y024798D02*
X056737Y024798D01*
X056736Y024896D02*
X058258Y024896D01*
X058315Y024995D02*
X056735Y024995D01*
X056734Y025093D02*
X058380Y025093D01*
X058445Y025192D02*
X056733Y025192D01*
X056733Y025290D02*
X058510Y025290D01*
X058606Y025389D02*
X056732Y025389D01*
X056731Y025487D02*
X058704Y025487D01*
X058674Y025457D02*
X058674Y025457D01*
X058803Y025586D02*
X056730Y025586D01*
X056729Y025684D02*
X058901Y025684D01*
X059000Y025783D02*
X056728Y025783D01*
X056727Y025881D02*
X059093Y025881D01*
X059172Y025980D02*
X056726Y025980D01*
X056725Y026078D02*
X059243Y026078D01*
X059295Y026150D02*
X059295Y026150D01*
X059310Y026177D02*
X059064Y026177D01*
X059112Y026196D02*
X059295Y026379D01*
X059394Y026618D01*
X059394Y026877D01*
X059295Y027116D01*
X059112Y027299D01*
X058874Y027397D01*
X058615Y027397D01*
X058376Y027299D01*
X058193Y027116D01*
X058094Y026877D01*
X058094Y026618D01*
X058193Y026379D01*
X058376Y026196D01*
X058615Y026097D01*
X058874Y026097D01*
X059112Y026196D01*
X059191Y026275D02*
X059364Y026275D01*
X059363Y026274D02*
X059363Y026274D01*
X059405Y026374D02*
X059290Y026374D01*
X059334Y026472D02*
X059447Y026472D01*
X059471Y026571D02*
X059375Y026571D01*
X059394Y026669D02*
X059492Y026669D01*
X059513Y026768D02*
X059394Y026768D01*
X059394Y026866D02*
X059533Y026866D01*
X059548Y026965D02*
X059358Y026965D01*
X059317Y027063D02*
X059550Y027063D01*
X059552Y027162D02*
X059249Y027162D01*
X059151Y027260D02*
X059547Y027260D01*
X059543Y027359D02*
X058968Y027359D01*
X058521Y027359D02*
X056713Y027359D01*
X056712Y027457D02*
X059538Y027457D01*
X059534Y027556D02*
X056711Y027556D01*
X056710Y027654D02*
X059529Y027654D01*
X059525Y027753D02*
X056709Y027753D01*
X056708Y027851D02*
X059520Y027851D01*
X059516Y027950D02*
X056707Y027950D01*
X056794Y028048D02*
X059511Y028048D01*
X059751Y027170D02*
X059400Y034900D01*
X059364Y035009D01*
X059175Y034943D02*
X059011Y034943D01*
X059052Y034845D02*
X059202Y034845D01*
X059207Y034746D02*
X059093Y034746D01*
X059094Y034648D02*
X059211Y034648D01*
X059216Y034549D02*
X059094Y034549D01*
X059080Y034451D02*
X059220Y034451D01*
X059225Y034352D02*
X059040Y034352D01*
X058999Y034254D02*
X059229Y034254D01*
X059234Y034155D02*
X058905Y034155D01*
X058799Y034057D02*
X059238Y034057D01*
X059136Y035042D02*
X058935Y035042D01*
X058837Y035140D02*
X059093Y035140D01*
X058484Y035830D02*
X037585Y035830D01*
X037381Y036322D02*
X033830Y036322D01*
X033830Y036224D02*
X037218Y036224D01*
X037131Y036125D02*
X033930Y036125D01*
X033830Y036421D02*
X037381Y036421D01*
X037275Y036519D02*
X033830Y036519D01*
X033830Y036618D02*
X037177Y036618D01*
X037131Y036716D02*
X033830Y036716D01*
X033830Y036815D02*
X037131Y036815D01*
X037158Y036913D02*
X033830Y036913D01*
X033892Y037012D02*
X037256Y037012D01*
X037650Y036400D02*
X038560Y036375D01*
X039308Y035928D02*
X058328Y035928D01*
X058240Y035983D02*
X058240Y035983D01*
X058198Y036027D02*
X039406Y036027D01*
X039505Y036125D02*
X058103Y036125D01*
X058008Y036224D02*
X039603Y036224D01*
X039702Y036322D02*
X057914Y036322D01*
X057862Y036376D02*
X057862Y036376D01*
X057836Y036421D02*
X039800Y036421D01*
X039899Y036519D02*
X057780Y036519D01*
X057724Y036618D02*
X046388Y036618D01*
X046275Y036775D02*
X046775Y036900D01*
X046972Y036716D02*
X050203Y036716D01*
X050131Y036815D02*
X047044Y036815D01*
X047044Y036913D02*
X050131Y036913D01*
X050033Y037012D02*
X047044Y037012D01*
X046945Y037110D02*
X049934Y037110D01*
X049881Y037209D02*
X046830Y037209D01*
X046840Y037307D02*
X049881Y037307D01*
X049900Y037406D02*
X046830Y037406D01*
X046830Y037504D02*
X049999Y037504D01*
X050131Y037603D02*
X046830Y037603D01*
X046830Y037701D02*
X050131Y037701D01*
X050169Y037800D02*
X046830Y037800D01*
X046830Y037898D02*
X050268Y037898D01*
X050532Y037898D02*
X051894Y037898D01*
X051900Y037650D02*
X050400Y037650D01*
X050549Y037997D02*
X046877Y037997D01*
X046919Y038095D02*
X050470Y038095D01*
X050650Y038150D02*
X050650Y040775D01*
X052150Y040775D01*
X052150Y040490D01*
X051931Y040490D01*
X051931Y040075D01*
X051831Y040075D01*
X051831Y039975D01*
X051475Y039975D01*
X051475Y039690D01*
X051486Y039652D01*
X051505Y039618D01*
X051533Y039590D01*
X051567Y039570D01*
X051606Y039560D01*
X051831Y039560D01*
X051831Y039975D01*
X051931Y039975D01*
X051931Y039560D01*
X052150Y039560D01*
X052150Y038155D01*
X052145Y038150D01*
X050650Y038150D01*
X050650Y038194D02*
X052150Y038194D01*
X052150Y038292D02*
X051733Y038292D01*
X051726Y038280D02*
X051745Y038315D01*
X051756Y038353D01*
X051756Y038511D01*
X051349Y038511D01*
X051349Y038222D01*
X051625Y038222D01*
X051664Y038233D01*
X051698Y038252D01*
X051726Y038280D01*
X051756Y038391D02*
X052150Y038391D01*
X052150Y038489D02*
X051756Y038489D01*
X051756Y038588D02*
X051756Y038747D01*
X051745Y038785D01*
X051726Y038819D01*
X051698Y038847D01*
X051664Y038867D01*
X051625Y038877D01*
X051349Y038877D01*
X051349Y038588D01*
X051756Y038588D01*
X051756Y038686D02*
X052150Y038686D01*
X052150Y038588D02*
X051349Y038588D01*
X051349Y038511D01*
X051272Y038511D01*
X051272Y038222D01*
X050995Y038222D01*
X050957Y038233D01*
X050923Y038252D01*
X050895Y038280D01*
X050875Y038315D01*
X050865Y038353D01*
X050865Y038511D01*
X051272Y038511D01*
X051272Y038588D01*
X050865Y038588D01*
X050865Y038747D01*
X050875Y038785D01*
X050895Y038819D01*
X050923Y038847D01*
X050957Y038867D01*
X050995Y038877D01*
X051272Y038877D01*
X051272Y038588D01*
X051349Y038588D01*
X051272Y038588D02*
X050650Y038588D01*
X050650Y038686D02*
X050865Y038686D01*
X050875Y038785D02*
X050650Y038785D01*
X050650Y038883D02*
X052150Y038883D01*
X052150Y038785D02*
X051746Y038785D01*
X051349Y038785D02*
X051272Y038785D01*
X051272Y038686D02*
X051349Y038686D01*
X051349Y038489D02*
X051272Y038489D01*
X051272Y038391D02*
X051349Y038391D01*
X051349Y038292D02*
X051272Y038292D01*
X050888Y038292D02*
X050650Y038292D01*
X050650Y038391D02*
X050865Y038391D01*
X050865Y038489D02*
X050650Y038489D01*
X050470Y038588D02*
X039580Y038588D01*
X039580Y038686D02*
X050470Y038686D01*
X050470Y038785D02*
X039580Y038785D01*
X039580Y038883D02*
X050470Y038883D01*
X050470Y038982D02*
X039580Y038982D01*
X039580Y039080D02*
X050470Y039080D01*
X050470Y039179D02*
X039580Y039179D01*
X039527Y039277D02*
X050470Y039277D01*
X050470Y039376D02*
X010169Y039376D01*
X010196Y039474D02*
X050470Y039474D01*
X050470Y039573D02*
X010222Y039573D01*
X010249Y039671D02*
X050470Y039671D01*
X050470Y039770D02*
X010276Y039770D01*
X010303Y039868D02*
X050470Y039868D01*
X050470Y039967D02*
X010330Y039967D01*
X010357Y040065D02*
X050470Y040065D01*
X050470Y040164D02*
X010384Y040164D01*
X010410Y040262D02*
X050470Y040262D01*
X050470Y040361D02*
X010437Y040361D01*
X010464Y040459D02*
X050470Y040459D01*
X050470Y040558D02*
X010491Y040558D01*
X010518Y040656D02*
X050470Y040656D01*
X050470Y040755D02*
X010545Y040755D01*
X010572Y040853D02*
X050474Y040853D01*
X050572Y040952D02*
X010598Y040952D01*
X010625Y041050D02*
X057094Y041050D01*
X057097Y040952D02*
X052228Y040952D01*
X052326Y040853D02*
X057101Y040853D01*
X057105Y040755D02*
X052330Y040755D01*
X052330Y040656D02*
X057108Y040656D01*
X057112Y040558D02*
X052330Y040558D01*
X052330Y040459D02*
X057115Y040459D01*
X057119Y040361D02*
X052330Y040361D01*
X052330Y040262D02*
X057123Y040262D01*
X057126Y040164D02*
X052330Y040164D01*
X052330Y040065D02*
X057130Y040065D01*
X057133Y039967D02*
X052330Y039967D01*
X052330Y039868D02*
X057137Y039868D01*
X057141Y039770D02*
X052330Y039770D01*
X052330Y039671D02*
X057144Y039671D01*
X057148Y039573D02*
X052330Y039573D01*
X052330Y039474D02*
X057151Y039474D01*
X057155Y039376D02*
X052330Y039376D01*
X052330Y039277D02*
X057159Y039277D01*
X057162Y039179D02*
X052330Y039179D01*
X052330Y039080D02*
X057166Y039080D01*
X057169Y038982D02*
X052330Y038982D01*
X052330Y038883D02*
X057173Y038883D01*
X057177Y038785D02*
X053661Y038785D01*
X053665Y038686D02*
X057180Y038686D01*
X057184Y038588D02*
X053665Y038588D01*
X053665Y038489D02*
X057187Y038489D01*
X057191Y038391D02*
X053665Y038391D01*
X053638Y038292D02*
X057195Y038292D01*
X057193Y038194D02*
X052698Y038194D01*
X052797Y038292D02*
X052841Y038292D01*
X052800Y038550D02*
X051900Y037650D01*
X052338Y037209D02*
X057431Y037209D01*
X057405Y037307D02*
X052437Y037307D01*
X052535Y037406D02*
X057380Y037406D01*
X057355Y037504D02*
X052634Y037504D01*
X052858Y037603D02*
X057331Y037603D01*
X057306Y037701D02*
X052919Y037701D01*
X052919Y037800D02*
X057281Y037800D01*
X057257Y037898D02*
X052907Y037898D01*
X052809Y037997D02*
X057232Y037997D01*
X057202Y038095D02*
X052600Y038095D01*
X052650Y037775D02*
X051775Y036900D01*
X050400Y036900D01*
X050597Y036716D02*
X057668Y036716D01*
X057611Y036815D02*
X051944Y036815D01*
X052043Y036913D02*
X057555Y036913D01*
X057538Y036942D02*
X057538Y036942D01*
X057510Y037012D02*
X052141Y037012D01*
X052240Y037110D02*
X057471Y037110D01*
X057583Y037418D02*
X057400Y038150D01*
X056863Y052843D01*
X056662Y052870D02*
X053679Y052870D01*
X053778Y052772D02*
X056660Y052772D01*
X056669Y052673D02*
X053877Y052673D01*
X053976Y052575D02*
X056672Y052575D01*
X056676Y052476D02*
X054075Y052476D01*
X054174Y052378D02*
X056680Y052378D01*
X056683Y052279D02*
X054273Y052279D01*
X054372Y052181D02*
X056687Y052181D01*
X056690Y052082D02*
X054471Y052082D01*
X054570Y051984D02*
X056694Y051984D01*
X056698Y051885D02*
X054669Y051885D01*
X054768Y051787D02*
X056701Y051787D01*
X056705Y051688D02*
X054830Y051688D01*
X054830Y051659D02*
X054830Y051725D01*
X054823Y051732D01*
X054822Y051742D01*
X054771Y051784D01*
X053040Y053505D01*
X053040Y053906D01*
X052964Y053982D01*
X052265Y053982D01*
X052189Y053906D01*
X052189Y053444D01*
X052265Y053367D01*
X052668Y053367D01*
X054477Y051568D01*
X055451Y041831D01*
X055381Y041761D01*
X055381Y041539D01*
X055539Y041381D01*
X055761Y041381D01*
X055919Y041539D01*
X055919Y041761D01*
X055809Y041872D01*
X054830Y051659D01*
X054837Y051590D02*
X056708Y051590D01*
X056712Y051491D02*
X054847Y051491D01*
X054857Y051393D02*
X056716Y051393D01*
X056719Y051294D02*
X054866Y051294D01*
X054876Y051196D02*
X056723Y051196D01*
X056726Y051097D02*
X054886Y051097D01*
X054896Y050999D02*
X056730Y050999D01*
X056734Y050900D02*
X054906Y050900D01*
X054916Y050802D02*
X056737Y050802D01*
X056741Y050703D02*
X054926Y050703D01*
X054935Y050605D02*
X056744Y050605D01*
X056748Y050506D02*
X054945Y050506D01*
X054955Y050408D02*
X056752Y050408D01*
X056755Y050309D02*
X054965Y050309D01*
X054975Y050211D02*
X056759Y050211D01*
X056762Y050112D02*
X054985Y050112D01*
X054995Y050014D02*
X056766Y050014D01*
X056770Y049915D02*
X055004Y049915D01*
X055014Y049817D02*
X056773Y049817D01*
X056777Y049718D02*
X055024Y049718D01*
X055034Y049620D02*
X056780Y049620D01*
X056784Y049521D02*
X055044Y049521D01*
X055054Y049423D02*
X056788Y049423D01*
X056791Y049324D02*
X055063Y049324D01*
X055073Y049226D02*
X056795Y049226D01*
X056798Y049127D02*
X055083Y049127D01*
X055093Y049029D02*
X056802Y049029D01*
X056806Y048930D02*
X055103Y048930D01*
X055113Y048832D02*
X056809Y048832D01*
X056813Y048733D02*
X055123Y048733D01*
X055132Y048635D02*
X056816Y048635D01*
X056820Y048536D02*
X055142Y048536D01*
X055152Y048438D02*
X056824Y048438D01*
X056827Y048339D02*
X055162Y048339D01*
X055172Y048241D02*
X056831Y048241D01*
X056834Y048142D02*
X055182Y048142D01*
X055192Y048044D02*
X056838Y048044D01*
X056842Y047945D02*
X055201Y047945D01*
X055211Y047847D02*
X056845Y047847D01*
X056849Y047748D02*
X055221Y047748D01*
X055231Y047650D02*
X056852Y047650D01*
X056856Y047551D02*
X055241Y047551D01*
X055251Y047453D02*
X056860Y047453D01*
X056863Y047354D02*
X055260Y047354D01*
X055270Y047256D02*
X056867Y047256D01*
X056870Y047157D02*
X055280Y047157D01*
X055290Y047059D02*
X056874Y047059D01*
X056878Y046960D02*
X055300Y046960D01*
X055310Y046862D02*
X056881Y046862D01*
X056885Y046763D02*
X055320Y046763D01*
X055329Y046665D02*
X056888Y046665D01*
X056892Y046566D02*
X055339Y046566D01*
X055349Y046468D02*
X056896Y046468D01*
X056899Y046369D02*
X055359Y046369D01*
X055369Y046271D02*
X056903Y046271D01*
X056906Y046172D02*
X055379Y046172D01*
X055389Y046074D02*
X056910Y046074D01*
X056914Y045975D02*
X055398Y045975D01*
X055408Y045877D02*
X056917Y045877D01*
X056921Y045778D02*
X055418Y045778D01*
X055428Y045680D02*
X056924Y045680D01*
X056928Y045581D02*
X055438Y045581D01*
X055448Y045483D02*
X056932Y045483D01*
X056935Y045384D02*
X055457Y045384D01*
X055467Y045286D02*
X056939Y045286D01*
X056943Y045187D02*
X055477Y045187D01*
X055487Y045089D02*
X056946Y045089D01*
X056950Y044990D02*
X055497Y044990D01*
X055507Y044892D02*
X056953Y044892D01*
X056957Y044793D02*
X055517Y044793D01*
X055526Y044695D02*
X056961Y044695D01*
X056964Y044596D02*
X055536Y044596D01*
X055546Y044498D02*
X056968Y044498D01*
X056971Y044399D02*
X055556Y044399D01*
X055566Y044301D02*
X056975Y044301D01*
X056979Y044202D02*
X055576Y044202D01*
X055586Y044104D02*
X056982Y044104D01*
X056986Y044005D02*
X055595Y044005D01*
X055605Y043907D02*
X056989Y043907D01*
X056993Y043808D02*
X055615Y043808D01*
X055625Y043710D02*
X056997Y043710D01*
X057000Y043611D02*
X055635Y043611D01*
X055645Y043513D02*
X057004Y043513D01*
X057007Y043414D02*
X055654Y043414D01*
X055664Y043316D02*
X057011Y043316D01*
X057015Y043217D02*
X055674Y043217D01*
X055684Y043119D02*
X057018Y043119D01*
X057022Y043020D02*
X055694Y043020D01*
X055704Y042922D02*
X057025Y042922D01*
X057029Y042823D02*
X055714Y042823D01*
X055723Y042725D02*
X057033Y042725D01*
X057036Y042626D02*
X055733Y042626D01*
X055743Y042528D02*
X057040Y042528D01*
X057043Y042429D02*
X055753Y042429D01*
X055763Y042331D02*
X057047Y042331D01*
X057051Y042232D02*
X055773Y042232D01*
X055783Y042134D02*
X057054Y042134D01*
X057058Y042035D02*
X055792Y042035D01*
X055802Y041937D02*
X057061Y041937D01*
X057065Y041838D02*
X055842Y041838D01*
X055919Y041740D02*
X057069Y041740D01*
X057072Y041641D02*
X055919Y041641D01*
X055919Y041543D02*
X057076Y041543D01*
X057079Y041444D02*
X055825Y041444D01*
X055650Y041650D02*
X054650Y051650D01*
X052615Y053675D01*
X052673Y053363D02*
X051705Y053363D01*
X051705Y053325D02*
X051705Y055100D01*
X051600Y055205D01*
X050325Y055205D01*
X050220Y055100D01*
X050220Y054950D01*
X050220Y053475D01*
X050220Y053325D01*
X050325Y053220D01*
X051600Y053220D01*
X051705Y053325D01*
X051644Y053264D02*
X052772Y053264D01*
X052871Y053166D02*
X040139Y053166D01*
X040100Y053205D02*
X038700Y053205D01*
X038595Y053100D01*
X038595Y052950D01*
X038595Y051350D01*
X038595Y051200D01*
X038700Y051095D01*
X040100Y051095D01*
X040205Y051200D01*
X040205Y053100D01*
X040100Y053205D01*
X040205Y053067D02*
X052970Y053067D01*
X053069Y052969D02*
X040205Y052969D01*
X040205Y052870D02*
X046240Y052870D01*
X046289Y052919D02*
X046131Y052761D01*
X046131Y052539D01*
X046220Y052449D01*
X046220Y051886D01*
X046108Y051830D01*
X046085Y051830D01*
X046169Y051914D01*
X046169Y052136D01*
X046011Y052294D01*
X045789Y052294D01*
X045678Y052184D01*
X041540Y051773D01*
X041540Y051781D01*
X041464Y051857D01*
X040765Y051857D01*
X040689Y051781D01*
X040689Y051319D01*
X040765Y051242D01*
X041464Y051242D01*
X041540Y051319D01*
X041540Y051411D01*
X045492Y051804D01*
X041667Y051090D01*
X041612Y051144D01*
X041389Y051144D01*
X041231Y050987D01*
X041231Y050764D01*
X041389Y050606D01*
X041612Y050606D01*
X041743Y050738D01*
X045667Y051470D01*
X046121Y051470D01*
X046164Y051456D01*
X046192Y051470D01*
X046225Y051470D01*
X046257Y051502D01*
X046442Y051595D01*
X046475Y051595D01*
X046507Y051627D01*
X046547Y051647D01*
X046557Y051678D01*
X046580Y051700D01*
X046580Y051746D01*
X046594Y051789D01*
X046580Y051817D01*
X046580Y052449D01*
X046669Y052539D01*
X046669Y052761D01*
X046511Y052919D01*
X046289Y052919D01*
X046141Y052772D02*
X040205Y052772D01*
X040205Y052673D02*
X046131Y052673D01*
X046131Y052575D02*
X040205Y052575D01*
X040205Y052476D02*
X046193Y052476D01*
X046220Y052378D02*
X040205Y052378D01*
X040205Y052279D02*
X045774Y052279D01*
X045646Y052181D02*
X040205Y052181D01*
X040205Y052082D02*
X044654Y052082D01*
X044873Y051688D02*
X044330Y051688D01*
X044346Y051590D02*
X043338Y051590D01*
X043290Y051393D02*
X041540Y051393D01*
X041515Y051294D02*
X042763Y051294D01*
X042614Y050900D02*
X054544Y050900D01*
X054554Y050802D02*
X042086Y050802D01*
X041709Y050703D02*
X054564Y050703D01*
X054574Y050605D02*
X035169Y050605D01*
X035169Y050636D02*
X035011Y050794D01*
X034789Y050794D01*
X034631Y050636D01*
X034631Y050414D01*
X034720Y050324D01*
X034720Y049725D01*
X034575Y049580D01*
X034459Y049580D01*
X034446Y049589D01*
X034386Y049580D01*
X034325Y049580D01*
X034314Y049569D01*
X030422Y048959D01*
X030362Y049019D01*
X030139Y049019D01*
X029981Y048862D01*
X029981Y048639D01*
X030139Y048481D01*
X030362Y048481D01*
X030486Y048605D01*
X034414Y049220D01*
X034725Y049220D01*
X034975Y049470D01*
X035080Y049575D01*
X035080Y050324D01*
X035169Y050414D01*
X035169Y050636D01*
X035102Y050703D02*
X041292Y050703D01*
X041231Y050802D02*
X028705Y050802D01*
X028705Y050850D02*
X028600Y050955D01*
X027325Y050955D01*
X027220Y050850D01*
X027220Y050700D01*
X027220Y049100D01*
X027220Y048950D01*
X027325Y048845D01*
X028600Y048845D01*
X028705Y048950D01*
X028705Y050850D01*
X028654Y050900D02*
X041231Y050900D01*
X041243Y050999D02*
X019629Y050999D01*
X019649Y051018D02*
X028738Y052932D01*
X028789Y052881D01*
X029011Y052881D01*
X029169Y053039D01*
X029169Y053261D01*
X029011Y053419D01*
X028789Y053419D01*
X028651Y053282D01*
X019562Y051368D01*
X019511Y051419D01*
X019289Y051419D01*
X019131Y051261D01*
X019131Y051039D01*
X019289Y050881D01*
X019511Y050881D01*
X019649Y051018D01*
X019531Y050900D02*
X027271Y050900D01*
X027220Y050802D02*
X014962Y050802D01*
X014817Y050703D02*
X027220Y050703D01*
X027220Y050605D02*
X014673Y050605D01*
X014528Y050506D02*
X027220Y050506D01*
X027220Y050408D02*
X014384Y050408D01*
X014266Y050309D02*
X027220Y050309D01*
X027220Y050211D02*
X014154Y050211D01*
X014045Y050112D02*
X027220Y050112D01*
X027220Y050014D02*
X013973Y050014D01*
X013901Y049915D02*
X027220Y049915D01*
X027220Y049817D02*
X013829Y049817D01*
X013765Y049718D02*
X027220Y049718D01*
X027220Y049620D02*
X013686Y049620D01*
X013601Y049521D02*
X027220Y049521D01*
X027220Y049423D02*
X013520Y049423D01*
X013440Y049324D02*
X027220Y049324D01*
X027220Y049226D02*
X013373Y049226D01*
X013306Y049127D02*
X022872Y049127D01*
X022914Y049169D02*
X022756Y049011D01*
X022756Y048789D01*
X022845Y048699D01*
X022845Y048350D01*
X022561Y048066D01*
X020162Y047586D01*
X020136Y047594D01*
X020091Y047572D01*
X020042Y047562D01*
X020027Y047540D01*
X019020Y047036D01*
X019011Y047044D01*
X018789Y047044D01*
X018631Y046886D01*
X018631Y046664D01*
X018715Y046580D01*
X017700Y046580D01*
X017595Y046475D01*
X016950Y045830D01*
X016736Y045830D01*
X016736Y046231D01*
X016660Y046308D01*
X015961Y046308D01*
X015885Y046231D01*
X015885Y046180D01*
X015687Y046180D01*
X015676Y046189D01*
X015614Y046180D01*
X015551Y046180D01*
X015541Y046171D01*
X015528Y046169D01*
X015490Y046119D01*
X015445Y046075D01*
X015445Y046062D01*
X013130Y043044D01*
X013039Y043044D01*
X012881Y042886D01*
X012881Y042664D01*
X013039Y042506D01*
X013261Y042506D01*
X013419Y042664D01*
X013419Y042830D01*
X015564Y045625D01*
X014703Y043794D01*
X014664Y043794D01*
X014506Y043636D01*
X014506Y043414D01*
X013867Y043414D01*
X013792Y043316D02*
X014604Y043316D01*
X014664Y043256D02*
X014886Y043256D01*
X015044Y043414D01*
X055293Y043414D01*
X055303Y043316D02*
X014946Y043316D01*
X015044Y043414D02*
X015044Y043636D01*
X015032Y043648D01*
X015889Y045470D01*
X017100Y045470D01*
X017850Y046220D01*
X018850Y046220D01*
X018871Y046207D01*
X018922Y046220D01*
X018975Y046220D01*
X018992Y046237D01*
X019244Y046300D01*
X019289Y046256D01*
X019511Y046256D01*
X019669Y046414D01*
X019669Y046636D01*
X019511Y046794D01*
X019341Y046794D01*
X020209Y047228D01*
X022668Y047720D01*
X022725Y047720D01*
X022739Y047734D01*
X022758Y047738D01*
X022790Y047785D01*
X023100Y048095D01*
X023205Y048200D01*
X023205Y048699D01*
X023294Y048789D01*
X023294Y049011D01*
X023136Y049169D01*
X022914Y049169D01*
X022773Y049029D02*
X013239Y049029D01*
X013172Y048930D02*
X015801Y048930D01*
X015825Y048955D02*
X015720Y048850D01*
X015720Y048700D01*
X015720Y047100D01*
X015720Y046950D01*
X015825Y046845D01*
X017225Y046845D01*
X017330Y046950D01*
X017330Y048850D01*
X017225Y048955D01*
X015825Y048955D01*
X015720Y048832D02*
X013105Y048832D01*
X013037Y048733D02*
X015720Y048733D01*
X015720Y048635D02*
X012971Y048635D01*
X012919Y048536D02*
X015720Y048536D01*
X015720Y048438D02*
X012868Y048438D01*
X012816Y048339D02*
X015720Y048339D01*
X015720Y048241D02*
X012765Y048241D01*
X012713Y048142D02*
X015720Y048142D01*
X015720Y048044D02*
X012662Y048044D01*
X012610Y047945D02*
X015720Y047945D01*
X015720Y047847D02*
X012565Y047847D01*
X012527Y047748D02*
X015720Y047748D01*
X015720Y047650D02*
X012490Y047650D01*
X012452Y047551D02*
X015720Y047551D01*
X015720Y047453D02*
X012414Y047453D01*
X012377Y047354D02*
X014974Y047354D01*
X015039Y047419D02*
X014881Y047261D01*
X014881Y047069D01*
X011987Y042669D01*
X011914Y042669D01*
X011756Y042511D01*
X011756Y042289D01*
X011914Y042131D01*
X012136Y042131D01*
X012294Y042289D01*
X012294Y042481D01*
X015188Y046881D01*
X015261Y046881D01*
X015419Y047039D01*
X015419Y047261D01*
X015261Y047419D01*
X015039Y047419D01*
X014881Y047256D02*
X012339Y047256D01*
X012301Y047157D02*
X014881Y047157D01*
X014874Y047059D02*
X012268Y047059D01*
X012240Y046960D02*
X014810Y046960D01*
X014745Y046862D02*
X012212Y046862D01*
X012184Y046763D02*
X014680Y046763D01*
X014615Y046665D02*
X012157Y046665D01*
X012130Y046566D02*
X014550Y046566D01*
X014486Y046468D02*
X012103Y046468D01*
X012076Y046369D02*
X014421Y046369D01*
X014356Y046271D02*
X012049Y046271D01*
X012022Y046172D02*
X014291Y046172D01*
X014226Y046074D02*
X011995Y046074D01*
X011968Y045975D02*
X014162Y045975D01*
X014097Y045877D02*
X011942Y045877D01*
X011915Y045778D02*
X014032Y045778D01*
X013967Y045680D02*
X011888Y045680D01*
X011861Y045581D02*
X013902Y045581D01*
X013838Y045483D02*
X011834Y045483D01*
X011807Y045384D02*
X013773Y045384D01*
X013708Y045286D02*
X011780Y045286D01*
X011753Y045187D02*
X013643Y045187D01*
X013578Y045089D02*
X011727Y045089D01*
X011700Y044990D02*
X013514Y044990D01*
X013449Y044892D02*
X011673Y044892D01*
X011646Y044793D02*
X013384Y044793D01*
X013319Y044695D02*
X011619Y044695D01*
X011592Y044596D02*
X013254Y044596D01*
X013190Y044498D02*
X011565Y044498D01*
X011539Y044399D02*
X013125Y044399D01*
X013060Y044301D02*
X011512Y044301D01*
X011485Y044202D02*
X012995Y044202D01*
X012930Y044104D02*
X011458Y044104D01*
X011431Y044005D02*
X012866Y044005D01*
X012801Y043907D02*
X011404Y043907D01*
X011377Y043808D02*
X012736Y043808D01*
X012671Y043710D02*
X011351Y043710D01*
X011324Y043611D02*
X012606Y043611D01*
X012542Y043513D02*
X011297Y043513D01*
X011270Y043414D02*
X012477Y043414D01*
X012412Y043316D02*
X011243Y043316D01*
X011216Y043217D02*
X012347Y043217D01*
X012282Y043119D02*
X011189Y043119D01*
X011163Y043020D02*
X012218Y043020D01*
X012153Y042922D02*
X011136Y042922D01*
X011109Y042823D02*
X012088Y042823D01*
X012023Y042725D02*
X011082Y042725D01*
X011055Y042626D02*
X011871Y042626D01*
X011772Y042528D02*
X011028Y042528D01*
X011001Y042429D02*
X011756Y042429D01*
X011756Y042331D02*
X010975Y042331D01*
X010948Y042232D02*
X011812Y042232D01*
X011911Y042134D02*
X010921Y042134D01*
X010894Y042035D02*
X055431Y042035D01*
X055440Y041937D02*
X010867Y041937D01*
X010840Y041838D02*
X055450Y041838D01*
X055381Y041740D02*
X010813Y041740D01*
X010787Y041641D02*
X055381Y041641D01*
X055381Y041543D02*
X010760Y041543D01*
X010733Y041444D02*
X055475Y041444D01*
X055421Y042134D02*
X012139Y042134D01*
X012238Y042232D02*
X055411Y042232D01*
X055401Y042331D02*
X012294Y042331D01*
X012294Y042429D02*
X055391Y042429D01*
X055381Y042528D02*
X013283Y042528D01*
X013382Y042626D02*
X055371Y042626D01*
X055362Y042725D02*
X013419Y042725D01*
X013419Y042823D02*
X055352Y042823D01*
X055342Y042922D02*
X013489Y042922D01*
X013565Y043020D02*
X055332Y043020D01*
X055322Y043119D02*
X013641Y043119D01*
X013716Y043217D02*
X055312Y043217D01*
X055283Y043513D02*
X015044Y043513D01*
X015044Y043611D02*
X055273Y043611D01*
X055263Y043710D02*
X015061Y043710D01*
X015107Y043808D02*
X055253Y043808D01*
X055243Y043907D02*
X015154Y043907D01*
X015200Y044005D02*
X055234Y044005D01*
X055224Y044104D02*
X015246Y044104D01*
X015293Y044202D02*
X055214Y044202D01*
X055204Y044301D02*
X015339Y044301D01*
X015385Y044399D02*
X055194Y044399D01*
X055184Y044498D02*
X015432Y044498D01*
X015478Y044596D02*
X055174Y044596D01*
X055165Y044695D02*
X015524Y044695D01*
X015571Y044793D02*
X055155Y044793D01*
X055145Y044892D02*
X015617Y044892D01*
X015663Y044990D02*
X055135Y044990D01*
X055125Y045089D02*
X015710Y045089D01*
X015756Y045187D02*
X055115Y045187D01*
X055106Y045286D02*
X015802Y045286D01*
X015849Y045384D02*
X055096Y045384D01*
X055086Y045483D02*
X017112Y045483D01*
X017211Y045581D02*
X055076Y045581D01*
X055066Y045680D02*
X017309Y045680D01*
X017408Y045778D02*
X055056Y045778D01*
X055046Y045877D02*
X017506Y045877D01*
X017605Y045975D02*
X055037Y045975D01*
X055027Y046074D02*
X017703Y046074D01*
X017802Y046172D02*
X055017Y046172D01*
X055007Y046271D02*
X019526Y046271D01*
X019625Y046369D02*
X054997Y046369D01*
X054987Y046468D02*
X019669Y046468D01*
X019669Y046566D02*
X054977Y046566D01*
X054968Y046665D02*
X019641Y046665D01*
X019542Y046763D02*
X054958Y046763D01*
X054948Y046862D02*
X019476Y046862D01*
X019673Y046960D02*
X054938Y046960D01*
X054928Y047059D02*
X019870Y047059D01*
X020067Y047157D02*
X054918Y047157D01*
X054909Y047256D02*
X020346Y047256D01*
X020150Y047400D02*
X022650Y047900D01*
X023025Y048275D01*
X023025Y048900D01*
X023294Y048930D02*
X027240Y048930D01*
X027220Y049029D02*
X023277Y049029D01*
X023178Y049127D02*
X027220Y049127D01*
X027400Y049127D02*
X028525Y049127D01*
X028525Y049029D02*
X027400Y049029D01*
X027400Y049025D02*
X028525Y049025D01*
X028525Y050775D01*
X027400Y050775D01*
X027400Y049025D01*
X027400Y049226D02*
X028525Y049226D01*
X028525Y049324D02*
X027400Y049324D01*
X027400Y049423D02*
X028525Y049423D01*
X028525Y049521D02*
X027400Y049521D01*
X027400Y049620D02*
X028525Y049620D01*
X028525Y049718D02*
X027400Y049718D01*
X027400Y049817D02*
X028525Y049817D01*
X028525Y049915D02*
X027400Y049915D01*
X027400Y050014D02*
X028525Y050014D01*
X028525Y050112D02*
X027400Y050112D01*
X027400Y050211D02*
X028525Y050211D01*
X028525Y050309D02*
X027400Y050309D01*
X027400Y050408D02*
X028525Y050408D01*
X028525Y050506D02*
X027400Y050506D01*
X027400Y050605D02*
X028525Y050605D01*
X028525Y050703D02*
X027400Y050703D01*
X026105Y052378D02*
X038595Y052378D01*
X038595Y052476D02*
X026573Y052476D01*
X026697Y052870D02*
X023635Y052870D01*
X024114Y052969D02*
X027165Y052969D01*
X027041Y052575D02*
X038595Y052575D01*
X038595Y052673D02*
X027509Y052673D01*
X027633Y053067D02*
X024593Y053067D01*
X025072Y053166D02*
X028101Y053166D01*
X027976Y052772D02*
X038595Y052772D01*
X038595Y052870D02*
X028444Y052870D01*
X028568Y053264D02*
X025551Y053264D01*
X026030Y053363D02*
X028732Y053363D01*
X028900Y053150D02*
X019400Y051150D01*
X019131Y051196D02*
X015761Y051196D01*
X015549Y051097D02*
X019131Y051097D01*
X019171Y050999D02*
X015337Y050999D01*
X015125Y050900D02*
X019269Y050900D01*
X019164Y051294D02*
X016062Y051294D01*
X016417Y051393D02*
X019262Y051393D01*
X019538Y051393D02*
X019679Y051393D01*
X020023Y051097D02*
X038698Y051097D01*
X038600Y051196D02*
X020490Y051196D01*
X020614Y051590D02*
X017408Y051590D01*
X017067Y051724D02*
X027650Y053900D01*
X028327Y054126D01*
X028443Y053954D02*
X050220Y053954D01*
X050220Y054052D02*
X028690Y054052D01*
X028850Y054151D02*
X050220Y054151D01*
X050220Y054249D02*
X029009Y054249D01*
X029130Y054348D02*
X050220Y054348D01*
X050220Y054446D02*
X029229Y054446D01*
X029327Y054545D02*
X050220Y054545D01*
X050220Y054643D02*
X029426Y054643D01*
X029524Y054742D02*
X030785Y054742D01*
X030818Y054728D02*
X031076Y054728D01*
X031315Y054827D01*
X031498Y055010D01*
X031597Y055249D01*
X031597Y055507D01*
X031498Y055746D01*
X031315Y055929D01*
X031076Y056028D01*
X030818Y056028D01*
X030579Y055929D01*
X030396Y055746D01*
X030297Y055507D01*
X030297Y055249D01*
X030396Y055010D01*
X030579Y054827D01*
X030818Y054728D01*
X030566Y054840D02*
X029597Y054840D01*
X029542Y054760D02*
X029542Y054760D01*
X029664Y054939D02*
X030467Y054939D01*
X030385Y055037D02*
X029730Y055037D01*
X029790Y055136D02*
X030344Y055136D01*
X030303Y055234D02*
X029832Y055234D01*
X029828Y055224D02*
X029828Y055224D01*
X029876Y055333D02*
X030297Y055333D01*
X030297Y055431D02*
X029924Y055431D01*
X029988Y055530D02*
X030306Y055530D01*
X030347Y055628D02*
X030055Y055628D01*
X030124Y055727D02*
X030388Y055727D01*
X030475Y055825D02*
X030224Y055825D01*
X030323Y055924D02*
X030574Y055924D01*
X030483Y056048D02*
X030483Y056048D01*
X030448Y056022D02*
X030804Y056022D01*
X030844Y056219D02*
X038491Y056219D01*
X038550Y056194D02*
X038809Y056194D01*
X039048Y056293D01*
X039231Y056476D01*
X039330Y056715D01*
X039330Y056974D01*
X039231Y057213D01*
X039048Y057396D01*
X038809Y057494D01*
X038550Y057494D01*
X038311Y057396D01*
X038129Y057213D01*
X038030Y056974D01*
X038030Y056715D01*
X038129Y056476D01*
X038311Y056293D01*
X038550Y056194D01*
X038375Y057871D02*
X038450Y057884D01*
X038526Y057893D01*
X038602Y057898D01*
X038678Y057900D01*
X038678Y057700D02*
X038678Y057700D01*
X038736Y057697D02*
X038607Y057697D01*
X038375Y057871D02*
X030979Y056463D01*
X031286Y056318D02*
X038287Y056318D01*
X038189Y056416D02*
X031804Y056416D01*
X032321Y056515D02*
X038113Y056515D01*
X038072Y056613D02*
X032838Y056613D01*
X033355Y056712D02*
X038031Y056712D01*
X038030Y056810D02*
X033872Y056810D01*
X034389Y056909D02*
X038030Y056909D01*
X038043Y057007D02*
X034906Y057007D01*
X035423Y057106D02*
X038084Y057106D01*
X038125Y057204D02*
X035941Y057204D01*
X036458Y057303D02*
X038219Y057303D01*
X038325Y057401D02*
X036975Y057401D01*
X037492Y057500D02*
X039501Y057500D01*
X039483Y057510D02*
X039483Y057510D01*
X039660Y057401D02*
X039034Y057401D01*
X039141Y057303D02*
X039784Y057303D01*
X039899Y057204D02*
X039234Y057204D01*
X039275Y057106D02*
X039989Y057106D01*
X040071Y057007D02*
X039316Y057007D01*
X039330Y056909D02*
X040167Y056909D01*
X040124Y056944D02*
X040124Y056944D01*
X040124Y056944D01*
X040289Y056810D02*
X039330Y056810D01*
X039328Y056712D02*
X040411Y056712D01*
X040458Y056673D02*
X040458Y056673D01*
X040572Y056613D02*
X039287Y056613D01*
X039247Y056515D02*
X040758Y056515D01*
X040838Y056472D02*
X040838Y056472D01*
X040965Y056434D02*
X040965Y056434D01*
X041025Y056416D02*
X039171Y056416D01*
X039072Y056318D02*
X041354Y056318D01*
X041319Y056328D02*
X041319Y056328D01*
X041499Y056274D02*
X041499Y056274D01*
X041297Y056543D02*
X041101Y056602D01*
X041539Y055919D02*
X041381Y055761D01*
X041381Y055539D01*
X041539Y055381D01*
X041761Y055381D01*
X041886Y055505D01*
X049543Y056721D01*
X052353Y056843D01*
X053875Y055906D01*
X053913Y055793D01*
X053881Y055761D01*
X053881Y055539D01*
X054039Y055381D01*
X054261Y055381D01*
X054419Y055539D01*
X054419Y055761D01*
X054261Y055919D01*
X054250Y055919D01*
X054198Y056074D01*
X054183Y056139D01*
X054175Y056144D01*
X054172Y056153D01*
X054113Y056182D01*
X052509Y057169D01*
X052467Y057208D01*
X052447Y057207D01*
X052431Y057217D01*
X052375Y057204D01*
X049580Y057083D01*
X049570Y057089D01*
X049507Y057079D01*
X049443Y057077D01*
X049435Y057068D01*
X041821Y055859D01*
X041761Y055919D01*
X041539Y055919D01*
X041445Y055825D02*
X031419Y055825D01*
X031506Y055727D02*
X041381Y055727D01*
X041381Y055628D02*
X031547Y055628D01*
X031588Y055530D02*
X041390Y055530D01*
X041488Y055431D02*
X031597Y055431D01*
X031597Y055333D02*
X056107Y055333D01*
X056058Y055431D02*
X054312Y055431D01*
X054410Y055530D02*
X056010Y055530D01*
X055961Y055628D02*
X054419Y055628D01*
X054419Y055727D02*
X055912Y055727D01*
X055843Y055825D02*
X054355Y055825D01*
X054249Y055924D02*
X055773Y055924D01*
X055702Y056022D02*
X054216Y056022D01*
X054187Y056121D02*
X055631Y056121D01*
X055561Y056219D02*
X054053Y056219D01*
X053893Y056318D02*
X055490Y056318D01*
X055419Y056416D02*
X053733Y056416D01*
X053573Y056515D02*
X055327Y056515D01*
X055404Y056438D02*
X055404Y056438D01*
X055228Y056613D02*
X053413Y056613D01*
X053253Y056712D02*
X055130Y056712D01*
X055031Y056810D02*
X053093Y056810D01*
X052933Y056909D02*
X054932Y056909D01*
X054834Y057007D02*
X052772Y057007D01*
X052612Y057106D02*
X054713Y057106D01*
X054575Y057204D02*
X052471Y057204D01*
X052375Y057204D02*
X047076Y057204D01*
X047190Y056712D02*
X044443Y056712D01*
X044708Y056318D02*
X042383Y056318D01*
X042222Y056285D02*
X042222Y056285D01*
X042264Y056498D02*
X043025Y056650D01*
X050159Y057984D01*
X050237Y057795D02*
X053567Y057795D01*
X053825Y057697D02*
X049710Y057697D01*
X049183Y057598D02*
X054005Y057598D01*
X054163Y057500D02*
X048657Y057500D01*
X048130Y057401D02*
X054301Y057401D01*
X054438Y057303D02*
X047603Y057303D01*
X047811Y056810D02*
X044969Y056810D01*
X045328Y056416D02*
X042875Y056416D01*
X042846Y056022D02*
X031090Y056022D01*
X031321Y055924D02*
X042226Y055924D01*
X042040Y055530D02*
X053890Y055530D01*
X053881Y055628D02*
X042660Y055628D01*
X043281Y055727D02*
X053881Y055727D01*
X053902Y055825D02*
X043902Y055825D01*
X044087Y056219D02*
X038868Y056219D01*
X040135Y057244D02*
X040082Y057304D01*
X040027Y057362D01*
X039969Y057417D01*
X039908Y057470D01*
X039845Y057520D01*
X039780Y057567D01*
X039713Y057611D01*
X039643Y057652D01*
X039573Y057689D01*
X039266Y057598D02*
X038009Y057598D01*
X038678Y057900D02*
X038771Y057898D01*
X038863Y057891D01*
X038955Y057881D01*
X039047Y057866D01*
X039138Y057846D01*
X039227Y057823D01*
X039316Y057796D01*
X039403Y057764D01*
X039489Y057728D01*
X039572Y057689D01*
X040135Y057244D02*
X040140Y057237D01*
X041650Y055650D02*
X049525Y056900D01*
X052400Y057025D01*
X054025Y056025D01*
X054150Y055650D01*
X053988Y055431D02*
X041812Y055431D01*
X043467Y056121D02*
X030604Y056121D01*
X031591Y055234D02*
X056156Y055234D01*
X056205Y055136D02*
X051669Y055136D01*
X051705Y055037D02*
X056253Y055037D01*
X056298Y054939D02*
X051705Y054939D01*
X051705Y054840D02*
X056328Y054840D01*
X056358Y054742D02*
X051705Y054742D01*
X051705Y054643D02*
X056388Y054643D01*
X056418Y054545D02*
X051705Y054545D01*
X051705Y054446D02*
X056448Y054446D01*
X056478Y054348D02*
X051705Y054348D01*
X051705Y054249D02*
X056508Y054249D01*
X056538Y054151D02*
X051705Y054151D01*
X051705Y054052D02*
X056554Y054052D01*
X056567Y053954D02*
X052992Y053954D01*
X053040Y053855D02*
X056581Y053855D01*
X056594Y053757D02*
X053040Y053757D01*
X053040Y053658D02*
X056607Y053658D01*
X056620Y053560D02*
X053040Y053560D01*
X053084Y053461D02*
X056634Y053461D01*
X056647Y053363D02*
X053183Y053363D01*
X053282Y053264D02*
X056658Y053264D01*
X056659Y053166D02*
X053382Y053166D01*
X053481Y053067D02*
X056660Y053067D01*
X056661Y052969D02*
X053580Y052969D01*
X053366Y052673D02*
X051044Y052673D01*
X051035Y052683D02*
X050336Y052683D01*
X050260Y052606D01*
X050260Y052569D01*
X050107Y052574D01*
X050011Y052669D01*
X049789Y052669D01*
X049631Y052511D01*
X049631Y052289D01*
X049789Y052131D01*
X050011Y052131D01*
X050094Y052214D01*
X050260Y052209D01*
X050260Y052144D01*
X050336Y052068D01*
X051035Y052068D01*
X051111Y052144D01*
X051111Y052606D01*
X051035Y052683D01*
X051111Y052575D02*
X053465Y052575D01*
X053564Y052476D02*
X051111Y052476D01*
X051111Y052378D02*
X053663Y052378D01*
X053762Y052279D02*
X051111Y052279D01*
X051111Y052181D02*
X053861Y052181D01*
X053960Y052082D02*
X051048Y052082D01*
X050685Y052375D02*
X049900Y052400D01*
X050106Y052575D02*
X050260Y052575D01*
X050327Y052673D02*
X046669Y052673D01*
X046669Y052575D02*
X049694Y052575D01*
X049631Y052476D02*
X046607Y052476D01*
X046580Y052378D02*
X049631Y052378D01*
X049640Y052279D02*
X046580Y052279D01*
X046580Y052181D02*
X049739Y052181D01*
X050061Y052181D02*
X050260Y052181D01*
X050322Y052082D02*
X046580Y052082D01*
X046580Y051984D02*
X054059Y051984D01*
X054158Y051885D02*
X046580Y051885D01*
X046594Y051787D02*
X054257Y051787D01*
X054356Y051688D02*
X046568Y051688D01*
X046432Y051590D02*
X054455Y051590D01*
X054485Y051491D02*
X046246Y051491D01*
X046150Y051650D02*
X046400Y051775D01*
X046400Y052650D01*
X046560Y052870D02*
X053168Y052870D01*
X053267Y052772D02*
X046659Y052772D01*
X046220Y052279D02*
X046026Y052279D01*
X046125Y052181D02*
X046220Y052181D01*
X046220Y052082D02*
X046169Y052082D01*
X046169Y051984D02*
X046220Y051984D01*
X046218Y051885D02*
X046141Y051885D01*
X046150Y051650D02*
X045650Y051650D01*
X041500Y050875D01*
X041342Y051097D02*
X040102Y051097D01*
X040200Y051196D02*
X042235Y051196D01*
X042347Y051491D02*
X043818Y051491D01*
X043669Y051097D02*
X054524Y051097D01*
X054534Y050999D02*
X043141Y050999D01*
X044197Y051196D02*
X054515Y051196D01*
X054505Y051294D02*
X044724Y051294D01*
X045252Y051393D02*
X054495Y051393D01*
X054583Y050506D02*
X039586Y050506D01*
X039611Y050481D02*
X039535Y050558D01*
X038836Y050558D01*
X038760Y050481D01*
X038760Y050442D01*
X038481Y050449D01*
X038386Y050544D01*
X038164Y050544D01*
X038006Y050386D01*
X038006Y050164D01*
X038164Y050006D01*
X038386Y050006D01*
X038470Y050090D01*
X038760Y050082D01*
X038760Y050019D01*
X038836Y049943D01*
X039535Y049943D01*
X039611Y050019D01*
X039611Y050481D01*
X039611Y050408D02*
X054593Y050408D01*
X054603Y050309D02*
X039611Y050309D01*
X039611Y050211D02*
X054613Y050211D01*
X054623Y050112D02*
X039611Y050112D01*
X039605Y050014D02*
X054633Y050014D01*
X054643Y049915D02*
X035080Y049915D01*
X035080Y049817D02*
X054652Y049817D01*
X054662Y049718D02*
X035080Y049718D01*
X035080Y049620D02*
X054672Y049620D01*
X054682Y049521D02*
X035026Y049521D01*
X034927Y049423D02*
X054692Y049423D01*
X054702Y049324D02*
X034829Y049324D01*
X034730Y049226D02*
X054712Y049226D01*
X054721Y049127D02*
X033821Y049127D01*
X034010Y049521D02*
X032659Y049521D01*
X032751Y049324D02*
X031171Y049324D01*
X031493Y049127D02*
X030040Y049127D01*
X030040Y049174D02*
X033974Y049695D01*
X034039Y049631D01*
X034261Y049631D01*
X034419Y049789D01*
X034419Y050011D01*
X034261Y050169D01*
X034039Y050169D01*
X033921Y050051D01*
X030034Y049537D01*
X029964Y049607D01*
X029265Y049607D01*
X029189Y049531D01*
X029189Y049069D01*
X029265Y048992D01*
X029964Y048992D01*
X030040Y049069D01*
X030040Y049174D01*
X030000Y049029D02*
X030864Y049029D01*
X030675Y048635D02*
X054771Y048635D01*
X054761Y048733D02*
X031304Y048733D01*
X031933Y048832D02*
X054751Y048832D01*
X054741Y048930D02*
X032562Y048930D01*
X032122Y049226D02*
X030427Y049226D01*
X030660Y049620D02*
X028705Y049620D01*
X028705Y049718D02*
X031404Y049718D01*
X031915Y049423D02*
X033381Y049423D01*
X033404Y049620D02*
X034615Y049620D01*
X034714Y049718D02*
X034349Y049718D01*
X034419Y049817D02*
X034720Y049817D01*
X034720Y049915D02*
X034419Y049915D01*
X034417Y050014D02*
X034720Y050014D01*
X034720Y050112D02*
X034318Y050112D01*
X034150Y049900D02*
X029615Y049300D01*
X029189Y049324D02*
X028705Y049324D01*
X028705Y049226D02*
X029189Y049226D01*
X029189Y049127D02*
X028705Y049127D01*
X028705Y049029D02*
X029229Y049029D01*
X029189Y049423D02*
X028705Y049423D01*
X028705Y049521D02*
X029189Y049521D01*
X028705Y049817D02*
X032149Y049817D01*
X032893Y049915D02*
X028705Y049915D01*
X028705Y050014D02*
X033637Y050014D01*
X033982Y050112D02*
X028705Y050112D01*
X028705Y050211D02*
X034720Y050211D01*
X034720Y050309D02*
X028705Y050309D01*
X028705Y050408D02*
X034637Y050408D01*
X034631Y050506D02*
X028705Y050506D01*
X028705Y050605D02*
X034631Y050605D01*
X034698Y050703D02*
X028705Y050703D01*
X028685Y048930D02*
X030050Y048930D01*
X029981Y048832D02*
X023294Y048832D01*
X023239Y048733D02*
X026478Y048733D01*
X026539Y048794D02*
X026381Y048636D01*
X026381Y048414D01*
X026539Y048256D01*
X026761Y048256D01*
X026769Y048263D01*
X027260Y048014D01*
X027260Y047769D01*
X027336Y047693D01*
X028035Y047693D01*
X028111Y047769D01*
X028111Y048231D01*
X028035Y048308D01*
X027477Y048308D01*
X026919Y048590D01*
X026919Y048636D01*
X026761Y048794D01*
X026539Y048794D01*
X026381Y048635D02*
X023205Y048635D01*
X023205Y048536D02*
X026381Y048536D01*
X026381Y048438D02*
X023205Y048438D01*
X023205Y048339D02*
X026455Y048339D01*
X026650Y048525D02*
X027685Y048000D01*
X028111Y048044D02*
X054830Y048044D01*
X054820Y048142D02*
X028111Y048142D01*
X028101Y048241D02*
X054810Y048241D01*
X054800Y048339D02*
X027415Y048339D01*
X027221Y048438D02*
X054790Y048438D01*
X054780Y048536D02*
X030417Y048536D01*
X030250Y048750D02*
X034400Y049400D01*
X034650Y049400D01*
X034900Y049650D01*
X034900Y050525D01*
X035169Y050506D02*
X038126Y050506D01*
X038027Y050408D02*
X035163Y050408D01*
X035080Y050309D02*
X038006Y050309D01*
X038006Y050211D02*
X035080Y050211D01*
X035080Y050112D02*
X038057Y050112D01*
X038156Y050014D02*
X035080Y050014D01*
X033191Y049029D02*
X054731Y049029D01*
X054840Y047945D02*
X028111Y047945D01*
X028111Y047847D02*
X054849Y047847D01*
X054859Y047748D02*
X028089Y047748D01*
X027281Y047748D02*
X022765Y047748D01*
X022851Y047847D02*
X027260Y047847D01*
X027260Y047945D02*
X022950Y047945D01*
X023048Y048044D02*
X027202Y048044D01*
X027007Y048142D02*
X023147Y048142D01*
X023205Y048241D02*
X026813Y048241D01*
X027026Y048536D02*
X030084Y048536D01*
X029986Y048635D02*
X026919Y048635D01*
X026822Y048733D02*
X029981Y048733D01*
X029099Y052969D02*
X038595Y052969D01*
X038595Y053067D02*
X029169Y053067D01*
X029169Y053166D02*
X038661Y053166D01*
X038775Y053025D02*
X040025Y053025D01*
X040025Y051275D01*
X038775Y051275D01*
X038775Y053025D01*
X038775Y052969D02*
X040025Y052969D01*
X040025Y052870D02*
X038775Y052870D01*
X038775Y052772D02*
X040025Y052772D01*
X040025Y052673D02*
X038775Y052673D01*
X038775Y052575D02*
X040025Y052575D01*
X040025Y052476D02*
X038775Y052476D01*
X038775Y052378D02*
X040025Y052378D01*
X040025Y052279D02*
X038775Y052279D01*
X038775Y052181D02*
X040025Y052181D01*
X040025Y052082D02*
X038775Y052082D01*
X038775Y051984D02*
X040025Y051984D01*
X040025Y051885D02*
X038775Y051885D01*
X038775Y051787D02*
X040025Y051787D01*
X040025Y051688D02*
X038775Y051688D01*
X038775Y051590D02*
X040025Y051590D01*
X040025Y051491D02*
X038775Y051491D01*
X038775Y051393D02*
X040025Y051393D01*
X040025Y051294D02*
X038775Y051294D01*
X038595Y051294D02*
X020958Y051294D01*
X021082Y051688D02*
X017887Y051688D01*
X018366Y051787D02*
X021550Y051787D01*
X021426Y051393D02*
X038595Y051393D01*
X038595Y051491D02*
X021894Y051491D01*
X022018Y051885D02*
X018845Y051885D01*
X019324Y051984D02*
X022486Y051984D01*
X022362Y051590D02*
X038595Y051590D01*
X038595Y051688D02*
X022830Y051688D01*
X022954Y052082D02*
X019803Y052082D01*
X020282Y052181D02*
X023422Y052181D01*
X023298Y051787D02*
X038595Y051787D01*
X038595Y051885D02*
X023766Y051885D01*
X023890Y052279D02*
X020761Y052279D01*
X021240Y052378D02*
X024357Y052378D01*
X024233Y051984D02*
X038595Y051984D01*
X038595Y052082D02*
X024701Y052082D01*
X024825Y052476D02*
X021719Y052476D01*
X022198Y052575D02*
X025293Y052575D01*
X025169Y052181D02*
X038595Y052181D01*
X038595Y052279D02*
X025637Y052279D01*
X025761Y052673D02*
X022677Y052673D01*
X023156Y052772D02*
X026229Y052772D01*
X026509Y053461D02*
X050220Y053461D01*
X050220Y053363D02*
X029068Y053363D01*
X029166Y053264D02*
X050281Y053264D01*
X050400Y053400D02*
X051525Y053400D01*
X051525Y055025D01*
X050400Y055025D01*
X050400Y053400D01*
X050400Y053461D02*
X051525Y053461D01*
X051525Y053560D02*
X050400Y053560D01*
X050400Y053658D02*
X051525Y053658D01*
X051525Y053757D02*
X050400Y053757D01*
X050400Y053855D02*
X051525Y053855D01*
X051525Y053954D02*
X050400Y053954D01*
X050400Y054052D02*
X051525Y054052D01*
X051525Y054151D02*
X050400Y054151D01*
X050400Y054249D02*
X051525Y054249D01*
X051525Y054348D02*
X050400Y054348D01*
X050400Y054446D02*
X051525Y054446D01*
X051525Y054545D02*
X050400Y054545D01*
X050400Y054643D02*
X051525Y054643D01*
X051525Y054742D02*
X050400Y054742D01*
X050400Y054840D02*
X051525Y054840D01*
X051525Y054939D02*
X050400Y054939D01*
X050220Y054939D02*
X031427Y054939D01*
X031509Y055037D02*
X050220Y055037D01*
X050256Y055136D02*
X031550Y055136D01*
X031328Y054840D02*
X050220Y054840D01*
X050220Y054742D02*
X031109Y054742D01*
X030372Y056214D02*
X030434Y056253D01*
X030498Y056290D01*
X030563Y056323D01*
X030629Y056354D01*
X030697Y056382D01*
X030766Y056406D01*
X030836Y056428D01*
X030907Y056447D01*
X030979Y056462D01*
X030371Y056215D02*
X030296Y056162D01*
X030223Y056106D01*
X030154Y056046D01*
X030087Y055983D01*
X030023Y055917D01*
X029963Y055848D01*
X029906Y055776D01*
X029852Y055701D01*
X029803Y055624D01*
X029757Y055544D01*
X029714Y055463D01*
X029676Y055379D01*
X029253Y054753D02*
X029109Y054609D01*
X028148Y053855D02*
X050220Y053855D01*
X050220Y053757D02*
X027852Y053757D01*
X027467Y053658D02*
X050220Y053658D01*
X050220Y053560D02*
X026988Y053560D01*
X028327Y054126D02*
X028415Y054157D01*
X028500Y054192D01*
X028584Y054232D01*
X028666Y054275D01*
X028746Y054322D01*
X028824Y054372D01*
X028899Y054426D01*
X028972Y054484D01*
X029042Y054545D01*
X029109Y054609D01*
X029252Y054753D02*
X029318Y054822D01*
X029380Y054894D01*
X029439Y054968D01*
X029494Y055046D01*
X029546Y055126D01*
X029593Y055208D01*
X029637Y055293D01*
X029676Y055379D01*
X022756Y048930D02*
X017249Y048930D01*
X017330Y048832D02*
X022756Y048832D01*
X022811Y048733D02*
X017330Y048733D01*
X017330Y048635D02*
X022254Y048635D01*
X022289Y048669D02*
X022136Y048516D01*
X018611Y047584D01*
X018589Y047607D01*
X017890Y047607D01*
X017814Y047531D01*
X017814Y047069D01*
X017890Y046992D01*
X018589Y046992D01*
X018665Y047069D01*
X018665Y047226D01*
X022246Y048173D01*
X022289Y048131D01*
X022511Y048131D01*
X022669Y048289D01*
X022669Y048511D01*
X022511Y048669D01*
X022289Y048669D01*
X022156Y048536D02*
X017330Y048536D01*
X017330Y048438D02*
X021838Y048438D01*
X021466Y048339D02*
X017330Y048339D01*
X017330Y048241D02*
X021093Y048241D01*
X020721Y048142D02*
X017330Y048142D01*
X017330Y048044D02*
X020349Y048044D01*
X019976Y047945D02*
X017330Y047945D01*
X017330Y047847D02*
X019604Y047847D01*
X019231Y047748D02*
X017330Y047748D01*
X017330Y047650D02*
X018859Y047650D01*
X018777Y047256D02*
X019459Y047256D01*
X019522Y047453D02*
X019853Y047453D01*
X019894Y047551D02*
X020034Y047551D01*
X020150Y047400D02*
X018900Y046775D01*
X018705Y046960D02*
X017330Y046960D01*
X017330Y047059D02*
X017824Y047059D01*
X017814Y047157D02*
X017330Y047157D01*
X017330Y047256D02*
X017814Y047256D01*
X017814Y047354D02*
X017330Y047354D01*
X017330Y047453D02*
X017814Y047453D01*
X017835Y047551D02*
X017330Y047551D01*
X017150Y047551D02*
X015900Y047551D01*
X015900Y047453D02*
X017150Y047453D01*
X017150Y047354D02*
X015900Y047354D01*
X015900Y047256D02*
X017150Y047256D01*
X017150Y047157D02*
X015900Y047157D01*
X015900Y047059D02*
X017150Y047059D01*
X017150Y047025D02*
X015900Y047025D01*
X015900Y048775D01*
X017150Y048775D01*
X017150Y047025D01*
X017241Y046862D02*
X018631Y046862D01*
X018631Y046763D02*
X015111Y046763D01*
X015046Y046665D02*
X018631Y046665D01*
X018900Y046400D02*
X017775Y046400D01*
X017025Y045650D01*
X015775Y045650D01*
X014775Y043525D01*
X014579Y043710D02*
X014094Y043710D01*
X014170Y043808D02*
X014709Y043808D01*
X014756Y043907D02*
X014245Y043907D01*
X014321Y044005D02*
X014802Y044005D01*
X014848Y044104D02*
X014397Y044104D01*
X014472Y044202D02*
X014895Y044202D01*
X014941Y044301D02*
X014548Y044301D01*
X014623Y044399D02*
X014987Y044399D01*
X015034Y044498D02*
X014699Y044498D01*
X014775Y044596D02*
X015080Y044596D01*
X015126Y044695D02*
X014850Y044695D01*
X014926Y044793D02*
X015173Y044793D01*
X015219Y044892D02*
X015001Y044892D01*
X015077Y044990D02*
X015266Y044990D01*
X015312Y045089D02*
X015153Y045089D01*
X015228Y045187D02*
X015358Y045187D01*
X015405Y045286D02*
X015304Y045286D01*
X015379Y045384D02*
X015451Y045384D01*
X015455Y045483D02*
X015497Y045483D01*
X015531Y045581D02*
X015544Y045581D01*
X015228Y045778D02*
X014463Y045778D01*
X014398Y045680D02*
X015152Y045680D01*
X015077Y045581D02*
X014333Y045581D01*
X014268Y045483D02*
X015001Y045483D01*
X014926Y045384D02*
X014204Y045384D01*
X014139Y045286D02*
X014850Y045286D01*
X014774Y045187D02*
X014074Y045187D01*
X014009Y045089D02*
X014699Y045089D01*
X014623Y044990D02*
X013944Y044990D01*
X013880Y044892D02*
X014548Y044892D01*
X014472Y044793D02*
X013815Y044793D01*
X013750Y044695D02*
X014396Y044695D01*
X014321Y044596D02*
X013685Y044596D01*
X013620Y044498D02*
X014245Y044498D01*
X014170Y044399D02*
X013556Y044399D01*
X013491Y044301D02*
X014094Y044301D01*
X014018Y044202D02*
X013426Y044202D01*
X013361Y044104D02*
X013943Y044104D01*
X013867Y044005D02*
X013296Y044005D01*
X013232Y043907D02*
X013792Y043907D01*
X013716Y043808D02*
X013167Y043808D01*
X013102Y043710D02*
X013640Y043710D01*
X013565Y043611D02*
X013037Y043611D01*
X012972Y043513D02*
X013489Y043513D01*
X013414Y043414D02*
X012908Y043414D01*
X012843Y043316D02*
X013338Y043316D01*
X013262Y043217D02*
X012778Y043217D01*
X012713Y043119D02*
X013187Y043119D01*
X013015Y043020D02*
X012648Y043020D01*
X012584Y042922D02*
X012916Y042922D01*
X012881Y042823D02*
X012519Y042823D01*
X012454Y042725D02*
X012881Y042725D01*
X012918Y042626D02*
X012389Y042626D01*
X012324Y042528D02*
X013017Y042528D01*
X013150Y042775D02*
X015625Y046000D01*
X016310Y046000D01*
X016736Y045975D02*
X017096Y045975D01*
X017194Y046074D02*
X016736Y046074D01*
X016736Y046172D02*
X017293Y046172D01*
X017391Y046271D02*
X016697Y046271D01*
X016736Y045877D02*
X016997Y045877D01*
X017490Y046369D02*
X014852Y046369D01*
X014917Y046468D02*
X017588Y046468D01*
X017687Y046566D02*
X014981Y046566D01*
X014787Y046271D02*
X015924Y046271D01*
X015543Y046172D02*
X014722Y046172D01*
X014657Y046074D02*
X015445Y046074D01*
X015379Y045975D02*
X014593Y045975D01*
X014528Y045877D02*
X015303Y045877D01*
X015176Y046862D02*
X015809Y046862D01*
X015720Y046960D02*
X015341Y046960D01*
X015419Y047059D02*
X015720Y047059D01*
X015720Y047157D02*
X015419Y047157D01*
X015419Y047256D02*
X015720Y047256D01*
X015720Y047354D02*
X015326Y047354D01*
X015150Y047150D02*
X012025Y042400D01*
X010706Y041346D02*
X057083Y041346D01*
X057087Y041247D02*
X010679Y041247D01*
X010652Y041149D02*
X057090Y041149D01*
X057583Y037418D02*
X057607Y037330D01*
X057635Y037243D01*
X057667Y037157D01*
X057703Y037073D01*
X057743Y036991D01*
X057787Y036911D01*
X057787Y036910D02*
X057900Y036712D01*
X057901Y036712D02*
X057947Y036635D01*
X057996Y036560D01*
X058049Y036488D01*
X058105Y036418D01*
X058164Y036351D01*
X058227Y036286D01*
X058292Y036224D01*
X058359Y036165D01*
X058429Y036110D01*
X058502Y036057D01*
X058577Y036008D01*
X057794Y034549D02*
X014679Y034549D01*
X014777Y034648D02*
X015773Y034648D01*
X015674Y034746D02*
X014876Y034746D01*
X014974Y034845D02*
X015576Y034845D01*
X016025Y035150D02*
X020275Y035150D01*
X020900Y035775D01*
X020900Y036275D01*
X020665Y036421D02*
X014330Y036421D01*
X014330Y036519D02*
X020764Y036519D01*
X014693Y036322D02*
X014330Y036322D01*
X014330Y036224D02*
X014594Y036224D01*
X014496Y036125D02*
X014330Y036125D01*
X014330Y036027D02*
X014397Y036027D01*
X014150Y036027D02*
X012775Y036027D01*
X012775Y036125D02*
X014150Y036125D01*
X014150Y036224D02*
X012775Y036224D01*
X012775Y036322D02*
X014150Y036322D01*
X014150Y036421D02*
X012775Y036421D01*
X012775Y036519D02*
X014150Y036519D01*
X014150Y036618D02*
X012775Y036618D01*
X012775Y036716D02*
X014150Y036716D01*
X014150Y036815D02*
X012775Y036815D01*
X012775Y036913D02*
X014150Y036913D01*
X014150Y037012D02*
X012775Y037012D01*
X012775Y037110D02*
X014150Y037110D01*
X014150Y037209D02*
X012775Y037209D01*
X012775Y037307D02*
X014150Y037307D01*
X014150Y037400D02*
X014150Y035780D01*
X013770Y035400D01*
X012775Y035400D01*
X012775Y037400D01*
X014150Y037400D01*
X012625Y037504D02*
X009658Y037504D01*
X009632Y037406D02*
X012595Y037406D01*
X012595Y037307D02*
X009605Y037307D01*
X009578Y037209D02*
X012595Y037209D01*
X012595Y036716D02*
X012169Y036716D01*
X012123Y036618D02*
X012595Y036618D01*
X012595Y036519D02*
X012080Y036519D01*
X012080Y036421D02*
X012595Y036421D01*
X012595Y036322D02*
X012080Y036322D01*
X012080Y036224D02*
X012595Y036224D01*
X012595Y036125D02*
X012080Y036125D01*
X012080Y036027D02*
X012595Y036027D01*
X012595Y035928D02*
X012080Y035928D01*
X012080Y035830D02*
X012595Y035830D01*
X012595Y035731D02*
X012080Y035731D01*
X012080Y035633D02*
X012595Y035633D01*
X012595Y035534D02*
X012080Y035534D01*
X012080Y035436D02*
X012595Y035436D01*
X012595Y035337D02*
X012080Y035337D01*
X012080Y035239D02*
X012682Y035239D01*
X012775Y035436D02*
X013806Y035436D01*
X013905Y035534D02*
X012775Y035534D01*
X012775Y035633D02*
X014003Y035633D01*
X014102Y035731D02*
X012775Y035731D01*
X012775Y035830D02*
X014150Y035830D01*
X014150Y035928D02*
X012775Y035928D01*
X012080Y035140D02*
X013511Y035140D01*
X013310Y034500D02*
X012750Y034500D01*
X010400Y030400D01*
X010204Y030215D02*
X008784Y030215D01*
X008756Y030117D02*
X010803Y030117D01*
X010756Y030215D02*
X010596Y030215D01*
X010669Y030314D02*
X010756Y030314D01*
X010782Y030412D02*
X010669Y030412D01*
X010671Y030511D02*
X010880Y030511D01*
X010995Y030609D02*
X010727Y030609D01*
X010784Y030708D02*
X011046Y030708D01*
X011097Y030806D02*
X010840Y030806D01*
X010897Y030905D02*
X011147Y030905D01*
X011198Y031003D02*
X010953Y031003D01*
X011010Y031102D02*
X011249Y031102D01*
X011300Y031200D02*
X011066Y031200D01*
X011123Y031299D02*
X011351Y031299D01*
X011402Y031397D02*
X011179Y031397D01*
X011235Y031496D02*
X011452Y031496D01*
X011503Y031594D02*
X011292Y031594D01*
X011348Y031693D02*
X011554Y031693D01*
X011605Y031791D02*
X011405Y031791D01*
X011461Y031890D02*
X011656Y031890D01*
X011707Y031988D02*
X011518Y031988D01*
X011574Y032087D02*
X011757Y032087D01*
X011808Y032185D02*
X011631Y032185D01*
X011687Y032284D02*
X011859Y032284D01*
X011910Y032382D02*
X011744Y032382D01*
X011800Y032481D02*
X011961Y032481D01*
X012012Y032579D02*
X011857Y032579D01*
X011913Y032678D02*
X012062Y032678D01*
X012113Y032776D02*
X011969Y032776D01*
X012026Y032875D02*
X012164Y032875D01*
X012215Y032973D02*
X012082Y032973D01*
X012139Y033072D02*
X012266Y033072D01*
X012317Y033170D02*
X012195Y033170D01*
X012252Y033269D02*
X012368Y033269D01*
X012418Y033367D02*
X012308Y033367D01*
X012365Y033466D02*
X012469Y033466D01*
X012421Y033564D02*
X012520Y033564D01*
X012478Y033663D02*
X012571Y033663D01*
X012534Y033761D02*
X012622Y033761D01*
X012591Y033860D02*
X012673Y033860D01*
X012647Y033958D02*
X012723Y033958D01*
X012703Y034057D02*
X012774Y034057D01*
X012760Y034155D02*
X012825Y034155D01*
X012816Y034254D02*
X012874Y034254D01*
X013025Y034150D02*
X011025Y030275D01*
X010901Y030018D02*
X008728Y030018D01*
X008813Y030314D02*
X010131Y030314D01*
X010131Y030412D02*
X008841Y030412D01*
X008925Y030708D02*
X010369Y030708D01*
X010425Y030806D02*
X008953Y030806D01*
X008981Y030905D02*
X010482Y030905D01*
X010538Y031003D02*
X009010Y031003D01*
X009038Y031102D02*
X010595Y031102D01*
X010651Y031200D02*
X009066Y031200D01*
X009094Y031299D02*
X010708Y031299D01*
X010764Y031397D02*
X009122Y031397D01*
X009150Y031496D02*
X010821Y031496D01*
X010877Y031594D02*
X009178Y031594D01*
X009207Y031693D02*
X010933Y031693D01*
X010990Y031791D02*
X009235Y031791D01*
X009263Y031890D02*
X011046Y031890D01*
X011103Y031988D02*
X009291Y031988D01*
X009319Y032087D02*
X011159Y032087D01*
X011216Y032185D02*
X009347Y032185D01*
X009375Y032284D02*
X011272Y032284D01*
X011329Y032382D02*
X009404Y032382D01*
X009432Y032481D02*
X011385Y032481D01*
X011442Y032579D02*
X009460Y032579D01*
X009488Y032678D02*
X011498Y032678D01*
X011555Y032776D02*
X009516Y032776D01*
X009544Y032875D02*
X011611Y032875D01*
X011667Y032973D02*
X009572Y032973D01*
X009601Y033072D02*
X011724Y033072D01*
X011780Y033170D02*
X009629Y033170D01*
X009657Y033269D02*
X011837Y033269D01*
X011893Y033367D02*
X009685Y033367D01*
X009713Y033466D02*
X011950Y033466D01*
X012006Y033564D02*
X009741Y033564D01*
X009769Y033663D02*
X012063Y033663D01*
X012119Y033761D02*
X009798Y033761D01*
X009826Y033860D02*
X012176Y033860D01*
X012232Y033958D02*
X009854Y033958D01*
X009882Y034057D02*
X012289Y034057D01*
X012345Y034155D02*
X009910Y034155D01*
X009938Y034254D02*
X012401Y034254D01*
X012458Y034352D02*
X009966Y034352D01*
X009995Y034451D02*
X012514Y034451D01*
X012570Y034549D02*
X010023Y034549D01*
X010051Y034648D02*
X012627Y034648D01*
X011799Y034746D02*
X010079Y034746D01*
X010107Y034845D02*
X011720Y034845D01*
X011720Y034943D02*
X010135Y034943D01*
X010163Y035042D02*
X011720Y035042D01*
X011720Y035140D02*
X010192Y035140D01*
X010220Y035239D02*
X011720Y035239D01*
X011720Y035337D02*
X010248Y035337D01*
X010316Y035436D02*
X011720Y035436D01*
X011720Y035534D02*
X010415Y035534D01*
X010419Y035633D02*
X011720Y035633D01*
X011720Y035731D02*
X010419Y035731D01*
X010351Y035830D02*
X011720Y035830D01*
X010150Y035650D02*
X008150Y028650D01*
X005717Y026374D02*
X056362Y026374D01*
X056722Y026374D02*
X058199Y026374D01*
X058155Y026472D02*
X056721Y026472D01*
X056720Y026571D02*
X058114Y026571D01*
X058094Y026669D02*
X056719Y026669D01*
X056718Y026768D02*
X058094Y026768D01*
X058094Y026866D02*
X056717Y026866D01*
X056716Y026965D02*
X058131Y026965D01*
X058171Y027063D02*
X056715Y027063D01*
X056715Y027162D02*
X058239Y027162D01*
X058338Y027260D02*
X056714Y027260D01*
X059542Y026185D02*
X059581Y026268D01*
X059617Y026354D01*
X059648Y026441D01*
X059676Y026529D01*
X059699Y026619D01*
X059719Y026709D01*
X059734Y026801D01*
X059744Y026892D01*
X059751Y026985D01*
X059753Y027077D01*
X059751Y027170D01*
X058424Y026177D02*
X056724Y026177D01*
X056723Y026275D02*
X058297Y026275D01*
X059176Y025674D02*
X059238Y025740D01*
X059297Y025808D01*
X059353Y025878D01*
X059406Y025951D01*
X059455Y026027D01*
X059501Y026104D01*
X059543Y026184D01*
X059175Y025675D02*
X058815Y025315D01*
X058373Y024644D02*
X058184Y024173D01*
X058043Y023347D02*
X058722Y007158D01*
X056068Y006674D02*
X026895Y006674D01*
X027025Y006575D02*
X056014Y006575D01*
X055959Y006477D02*
X027155Y006477D01*
X027286Y006378D02*
X055904Y006378D01*
X055849Y006280D02*
X027416Y006280D01*
X025521Y003878D02*
X025405Y003976D01*
X025294Y004078D01*
X025187Y004185D01*
X025085Y004297D01*
X024987Y004413D01*
X024894Y004532D01*
X026500Y005196D02*
X048365Y005196D01*
X048169Y005393D02*
X055357Y005393D01*
X055302Y005295D02*
X049352Y005295D01*
X049548Y005098D02*
X026686Y005098D01*
X026784Y004999D02*
X050732Y004999D01*
X050535Y005196D02*
X055239Y005196D01*
X055153Y005098D02*
X051718Y005098D01*
X051915Y004901D02*
X026853Y004901D01*
X024733Y004816D02*
X024685Y004896D01*
X024634Y004973D01*
X024579Y005047D01*
X024521Y005119D01*
X024459Y005188D01*
X024395Y005255D01*
X024327Y005318D01*
X024257Y005378D01*
X024183Y005435D01*
X024108Y005488D01*
X024030Y005538D01*
X023949Y005584D01*
X023867Y005626D01*
X023783Y005664D01*
X022010Y010023D02*
X021302Y010023D01*
X020990Y010220D02*
X020974Y010220D01*
X020891Y010121D02*
X020876Y010121D01*
X020793Y010023D02*
X015903Y010023D01*
X015703Y009727D02*
X020497Y009727D01*
X021137Y011008D02*
X022753Y011008D01*
X022736Y011106D02*
X022851Y011106D01*
X022834Y011205D02*
X022950Y011205D01*
X022933Y011303D02*
X023048Y011303D01*
X023031Y011402D02*
X023147Y011402D01*
X023130Y011500D02*
X023245Y011500D01*
X023228Y011599D02*
X023344Y011599D01*
X023327Y011697D02*
X023442Y011697D01*
X023425Y011796D02*
X023541Y011796D01*
X023524Y011894D02*
X023639Y011894D01*
X023622Y011993D02*
X023738Y011993D01*
X022874Y012879D02*
X010301Y012879D01*
X010259Y012978D02*
X022973Y012978D01*
X023071Y013076D02*
X010237Y013076D01*
X010214Y013175D02*
X023170Y013175D01*
X023268Y013273D02*
X010191Y013273D01*
X010180Y013372D02*
X052881Y013372D01*
X052881Y013273D02*
X024282Y013273D01*
X024330Y013175D02*
X052881Y013175D01*
X053150Y013275D02*
X053150Y011650D01*
X054400Y010400D01*
X054200Y010220D02*
X040083Y010220D01*
X040028Y010318D02*
X054131Y010318D01*
X054129Y010417D02*
X039972Y010417D01*
X039917Y010515D02*
X054030Y010515D01*
X054052Y011205D02*
X053850Y011205D01*
X053752Y011303D02*
X054020Y011303D01*
X054020Y011402D02*
X053653Y011402D01*
X053555Y011500D02*
X054020Y011500D01*
X054020Y011599D02*
X053456Y011599D01*
X053358Y011697D02*
X054020Y011697D01*
X054020Y011796D02*
X053330Y011796D01*
X053330Y011894D02*
X054020Y011894D01*
X054020Y011993D02*
X053330Y011993D01*
X053330Y012091D02*
X054047Y012091D01*
X052965Y013470D02*
X010085Y013470D01*
X009867Y013076D02*
X009790Y013076D01*
X010400Y012781D02*
X022776Y012781D01*
X022283Y012288D02*
X007804Y012288D01*
X007861Y012190D02*
X022185Y012190D01*
X022086Y012091D02*
X007861Y012091D01*
X007861Y011993D02*
X021988Y011993D01*
X022075Y012080D02*
X022075Y012080D01*
X028455Y009924D02*
X029782Y009924D01*
X029631Y009826D02*
X028455Y009826D01*
X028455Y009727D02*
X029600Y009727D01*
X029600Y009629D02*
X028455Y009629D01*
X028455Y009530D02*
X029600Y009530D01*
X029600Y009432D02*
X028455Y009432D01*
X028455Y009333D02*
X029600Y009333D01*
X029600Y009235D02*
X028364Y009235D01*
X029900Y009662D02*
X029912Y009650D01*
X030025Y009650D01*
X036353Y003939D02*
X036436Y003978D01*
X036522Y004014D01*
X036609Y004046D01*
X036698Y004073D01*
X036787Y004096D01*
X036878Y004116D01*
X036970Y004131D01*
X037062Y004141D01*
X037154Y004148D01*
X037247Y004150D01*
X040775Y008025D02*
X039625Y010050D01*
X039240Y010050D01*
X040138Y010121D02*
X051616Y010121D01*
X051595Y010023D02*
X040194Y010023D01*
X040249Y009924D02*
X051595Y009924D01*
X051595Y009826D02*
X040305Y009826D01*
X040360Y009727D02*
X051595Y009727D01*
X051595Y009629D02*
X040415Y009629D01*
X040471Y009530D02*
X051595Y009530D01*
X051595Y009432D02*
X040526Y009432D01*
X040582Y009333D02*
X041002Y009333D01*
X040906Y009235D02*
X040637Y009235D01*
X040693Y009136D02*
X040906Y009136D01*
X040906Y009038D02*
X040748Y009038D01*
X040803Y008939D02*
X040980Y008939D01*
X041175Y009125D02*
X046150Y008275D01*
X046419Y008250D02*
X051595Y008250D01*
X051595Y008348D02*
X046419Y008348D01*
X046359Y008447D02*
X051595Y008447D01*
X051595Y008545D02*
X045639Y008545D01*
X045062Y008644D02*
X051595Y008644D01*
X051595Y008742D02*
X044486Y008742D01*
X043910Y008841D02*
X051595Y008841D01*
X051595Y008939D02*
X043333Y008939D01*
X041605Y009235D02*
X051595Y009235D01*
X051595Y009333D02*
X041347Y009333D01*
X046308Y008053D02*
X051595Y008053D01*
X051595Y008151D02*
X046407Y008151D01*
X051775Y008151D02*
X053150Y008151D01*
X053150Y008053D02*
X051775Y008053D01*
X051775Y008025D02*
X053150Y008025D01*
X053150Y010025D01*
X051775Y010025D01*
X051775Y008025D01*
X051775Y008250D02*
X053150Y008250D01*
X053150Y008348D02*
X051775Y008348D01*
X051775Y008447D02*
X053150Y008447D01*
X053150Y008545D02*
X051775Y008545D01*
X051775Y008644D02*
X053150Y008644D01*
X053150Y008742D02*
X051775Y008742D01*
X051775Y008841D02*
X053150Y008841D01*
X053150Y008939D02*
X051775Y008939D01*
X051775Y009038D02*
X053150Y009038D01*
X053150Y009136D02*
X051775Y009136D01*
X051775Y009235D02*
X053150Y009235D01*
X053150Y009333D02*
X051775Y009333D01*
X051775Y009432D02*
X053150Y009432D01*
X053150Y009530D02*
X051775Y009530D01*
X051775Y009629D02*
X053150Y009629D01*
X053150Y009727D02*
X051775Y009727D01*
X051775Y009826D02*
X053150Y009826D01*
X053150Y009924D02*
X051775Y009924D01*
X051775Y010023D02*
X053150Y010023D01*
X054365Y008425D02*
X054365Y008365D01*
X058476Y004767D02*
X058372Y004580D01*
X058260Y004398D01*
X058140Y004222D01*
X058011Y004052D01*
X057874Y003888D01*
X057730Y003731D01*
X057579Y003580D01*
X057420Y003437D01*
X057255Y003302D01*
X057084Y003174D01*
X056907Y003055D01*
X056725Y002944D01*
X056537Y002842D01*
X056345Y002749D01*
X056149Y002665D01*
X055949Y002591D01*
X055746Y002526D01*
X055540Y002471D01*
X055331Y002425D01*
X055121Y002390D01*
X054909Y002364D01*
X054696Y002349D01*
X054483Y002343D01*
X054269Y002348D01*
X054056Y002362D01*
X053844Y002387D01*
X058476Y004767D02*
X058546Y004976D01*
X058608Y005188D01*
X058660Y005403D01*
X058702Y005619D01*
X058734Y005838D01*
X058757Y006057D01*
X058770Y006277D01*
X058773Y006498D01*
X058766Y006719D01*
X058749Y006939D01*
X058722Y007158D01*
X056291Y015046D02*
X056280Y015046D01*
X056390Y015145D02*
X008330Y015145D01*
X008330Y015243D02*
X056469Y015243D01*
X056468Y015342D02*
X008330Y015342D01*
X008330Y015440D02*
X056467Y015440D01*
X056466Y015539D02*
X008330Y015539D01*
X008330Y015637D02*
X056465Y015637D01*
X056464Y015736D02*
X008330Y015736D01*
X008330Y015834D02*
X056463Y015834D01*
X056462Y015933D02*
X008330Y015933D01*
X008330Y016031D02*
X056462Y016031D01*
X056461Y016130D02*
X008330Y016130D01*
X008330Y016228D02*
X056460Y016228D01*
X056459Y016327D02*
X008330Y016327D01*
X008330Y016425D02*
X056458Y016425D01*
X056457Y016524D02*
X008330Y016524D01*
X008330Y016622D02*
X056456Y016622D01*
X056455Y016721D02*
X009264Y016721D01*
X009280Y016819D02*
X056454Y016819D01*
X056453Y016918D02*
X009280Y016918D01*
X009280Y017016D02*
X056452Y017016D01*
X056451Y017115D02*
X009280Y017115D01*
X009280Y017213D02*
X056450Y017213D01*
X056449Y017312D02*
X009280Y017312D01*
X009280Y017410D02*
X056448Y017410D01*
X056447Y017509D02*
X009280Y017509D01*
X009237Y017607D02*
X056446Y017607D01*
X056445Y017706D02*
X006455Y017706D01*
X006455Y017804D02*
X056444Y017804D01*
X056444Y017903D02*
X006455Y017903D01*
X006455Y018001D02*
X056443Y018001D01*
X056442Y018100D02*
X010105Y018100D01*
X010169Y018164D02*
X010169Y018386D01*
X010011Y018544D01*
X009789Y018544D01*
X009699Y018455D01*
X008101Y018455D01*
X008011Y018544D01*
X007789Y018544D01*
X007631Y018386D01*
X007631Y018164D01*
X007789Y018006D01*
X008011Y018006D01*
X008101Y018095D01*
X009699Y018095D01*
X009789Y018006D01*
X010011Y018006D01*
X010169Y018164D01*
X010169Y018198D02*
X056441Y018198D01*
X056440Y018297D02*
X010169Y018297D01*
X010160Y018395D02*
X056439Y018395D01*
X056438Y018494D02*
X010062Y018494D01*
X009900Y018275D02*
X007900Y018275D01*
X007695Y018100D02*
X006455Y018100D01*
X006455Y018198D02*
X007631Y018198D01*
X007631Y018297D02*
X006455Y018297D01*
X006455Y018395D02*
X007640Y018395D01*
X007738Y018494D02*
X006455Y018494D01*
X006455Y018592D02*
X056437Y018592D01*
X056436Y018691D02*
X009234Y018691D01*
X009204Y018660D02*
X009280Y018736D01*
X009280Y019564D01*
X009204Y019640D01*
X007096Y019640D01*
X007020Y019564D01*
X007020Y018736D01*
X007096Y018660D01*
X009204Y018660D01*
X009280Y018789D02*
X056435Y018789D01*
X056434Y018888D02*
X009280Y018888D01*
X009280Y018986D02*
X056433Y018986D01*
X056432Y019085D02*
X009280Y019085D01*
X009280Y019183D02*
X056431Y019183D01*
X056430Y019282D02*
X009280Y019282D01*
X009280Y019380D02*
X056429Y019380D01*
X056428Y019479D02*
X009280Y019479D01*
X009267Y019577D02*
X056427Y019577D01*
X056426Y019676D02*
X006455Y019676D01*
X006455Y019774D02*
X056426Y019774D01*
X056425Y019873D02*
X006455Y019873D01*
X006455Y019971D02*
X056424Y019971D01*
X056423Y020070D02*
X006455Y020070D01*
X006473Y020168D02*
X056422Y020168D01*
X056421Y020267D02*
X006571Y020267D01*
X006670Y020365D02*
X056420Y020365D01*
X056419Y020464D02*
X006768Y020464D01*
X006867Y020562D02*
X056418Y020562D01*
X056417Y020661D02*
X011041Y020661D01*
X011140Y020759D02*
X056416Y020759D01*
X056415Y020858D02*
X011169Y020858D01*
X011211Y020956D02*
X056414Y020956D01*
X056413Y021055D02*
X011309Y021055D01*
X011408Y021153D02*
X056412Y021153D01*
X056411Y021252D02*
X011506Y021252D01*
X011605Y021350D02*
X056410Y021350D01*
X056408Y021646D02*
X052400Y021646D01*
X052499Y021744D02*
X056407Y021744D01*
X056406Y021843D02*
X052597Y021843D01*
X052696Y021941D02*
X056405Y021941D01*
X056404Y022040D02*
X052794Y022040D01*
X052893Y022138D02*
X056403Y022138D01*
X056402Y022237D02*
X052991Y022237D01*
X053090Y022335D02*
X056401Y022335D01*
X056387Y023813D02*
X052830Y023813D01*
X052830Y023911D02*
X056386Y023911D01*
X056385Y024010D02*
X052830Y024010D01*
X052830Y024108D02*
X056384Y024108D01*
X056383Y024207D02*
X052830Y024207D01*
X052830Y024305D02*
X056382Y024305D01*
X056381Y024404D02*
X052830Y024404D01*
X052830Y024502D02*
X056380Y024502D01*
X056379Y024601D02*
X052830Y024601D01*
X052830Y024699D02*
X056378Y024699D01*
X056377Y024798D02*
X052830Y024798D01*
X052830Y024896D02*
X056376Y024896D01*
X056375Y024995D02*
X052830Y024995D01*
X052830Y025093D02*
X056374Y025093D01*
X056373Y025192D02*
X052738Y025192D01*
X052650Y025025D02*
X052650Y023025D01*
X051275Y023025D01*
X051275Y025025D01*
X052650Y025025D01*
X052650Y024995D02*
X051275Y024995D01*
X051275Y024896D02*
X052650Y024896D01*
X052650Y024798D02*
X051275Y024798D01*
X051275Y024699D02*
X052650Y024699D01*
X052650Y024601D02*
X051275Y024601D01*
X051275Y024502D02*
X052650Y024502D01*
X052650Y024404D02*
X051275Y024404D01*
X051275Y024305D02*
X052650Y024305D01*
X052650Y024207D02*
X051275Y024207D01*
X051275Y024108D02*
X052650Y024108D01*
X052650Y024010D02*
X051275Y024010D01*
X051275Y023911D02*
X052650Y023911D01*
X052650Y023813D02*
X051275Y023813D01*
X051275Y023714D02*
X052650Y023714D01*
X052650Y023616D02*
X051275Y023616D01*
X051275Y023517D02*
X052650Y023517D01*
X052650Y023419D02*
X051275Y023419D01*
X051275Y023320D02*
X052650Y023320D01*
X052650Y023222D02*
X051275Y023222D01*
X051275Y023123D02*
X052650Y023123D01*
X052830Y023123D02*
X052868Y023123D01*
X052830Y023222D02*
X052967Y023222D01*
X053065Y023320D02*
X052830Y023320D01*
X052830Y023419D02*
X053164Y023419D01*
X053262Y023517D02*
X052830Y023517D01*
X052830Y023616D02*
X053314Y023616D01*
X053373Y023714D02*
X052830Y023714D01*
X053188Y022434D02*
X053486Y022434D01*
X051810Y022125D02*
X051175Y022125D01*
X050900Y022150D01*
X051095Y024404D02*
X038955Y024404D01*
X038955Y024502D02*
X051095Y024502D01*
X051095Y024601D02*
X038955Y024601D01*
X038955Y024699D02*
X051095Y024699D01*
X051095Y024798D02*
X038955Y024798D01*
X038955Y024896D02*
X051095Y024896D01*
X051095Y024995D02*
X038955Y024995D01*
X038955Y025093D02*
X051095Y025093D01*
X051187Y025192D02*
X038955Y025192D01*
X038955Y025290D02*
X056372Y025290D01*
X056372Y025389D02*
X038955Y025389D01*
X038942Y025487D02*
X056371Y025487D01*
X056370Y025586D02*
X025205Y025586D01*
X025205Y025684D02*
X056369Y025684D01*
X056368Y025783D02*
X025205Y025783D01*
X025173Y025881D02*
X056367Y025881D01*
X058372Y024644D02*
X058407Y024727D01*
X058446Y024808D01*
X058489Y024887D01*
X058535Y024964D01*
X058585Y025039D01*
X058637Y025112D01*
X058693Y025182D01*
X058753Y025250D01*
X058815Y025315D01*
X058184Y024173D02*
X058151Y024085D01*
X058123Y023995D01*
X058098Y023905D01*
X058078Y023813D01*
X058062Y023721D01*
X058051Y023627D01*
X058044Y023534D01*
X058041Y023440D01*
X058043Y023346D01*
X058090Y034057D02*
X014186Y034057D01*
X014285Y034155D02*
X057983Y034155D01*
X057890Y034254D02*
X014383Y034254D01*
X014482Y034352D02*
X057849Y034352D01*
X057808Y034451D02*
X014580Y034451D01*
X009227Y036684D02*
X011972Y046750D01*
X013563Y049791D02*
X013900Y050253D01*
X015900Y048733D02*
X017150Y048733D01*
X017150Y048635D02*
X015900Y048635D01*
X015900Y048536D02*
X017150Y048536D01*
X017150Y048438D02*
X015900Y048438D01*
X015900Y048339D02*
X017150Y048339D01*
X017150Y048241D02*
X015900Y048241D01*
X015900Y048142D02*
X017150Y048142D01*
X017150Y048044D02*
X015900Y048044D01*
X015900Y047945D02*
X017150Y047945D01*
X017150Y047847D02*
X015900Y047847D01*
X015900Y047748D02*
X017150Y047748D01*
X017150Y047650D02*
X015900Y047650D01*
X013900Y050253D02*
X014087Y050424D01*
X014283Y050586D01*
X014486Y050739D01*
X014696Y050882D01*
X014912Y051015D01*
X015134Y051138D01*
X015362Y051250D01*
X015594Y051352D01*
X015832Y051442D01*
X016073Y051521D01*
X016317Y051589D01*
X016565Y051646D01*
X016815Y051691D01*
X017066Y051724D01*
X016863Y051491D02*
X020147Y051491D01*
X022546Y048635D02*
X022845Y048635D01*
X022845Y048536D02*
X022644Y048536D01*
X022669Y048438D02*
X022845Y048438D01*
X022835Y048339D02*
X022669Y048339D01*
X022621Y048241D02*
X022736Y048241D01*
X022638Y048142D02*
X022523Y048142D01*
X022450Y048044D02*
X021757Y048044D01*
X021958Y047945D02*
X021384Y047945D01*
X021465Y047847D02*
X021012Y047847D01*
X020973Y047748D02*
X020639Y047748D01*
X020480Y047650D02*
X020267Y047650D01*
X020838Y047354D02*
X054899Y047354D01*
X054889Y047453D02*
X021331Y047453D01*
X021823Y047551D02*
X054879Y047551D01*
X054869Y047650D02*
X022316Y047650D01*
X022277Y048142D02*
X022129Y048142D01*
X022400Y048400D02*
X018240Y047300D01*
X018665Y047157D02*
X019262Y047157D01*
X019065Y047059D02*
X018655Y047059D01*
X019150Y047354D02*
X019656Y047354D01*
X019400Y046525D02*
X018900Y046400D01*
X019125Y046271D02*
X019274Y046271D01*
X013562Y049790D02*
X013341Y049524D01*
X013133Y049247D01*
X012938Y048961D01*
X012756Y048666D01*
X012589Y048363D01*
X012435Y048053D01*
X012297Y047736D01*
X012173Y047412D01*
X012065Y047083D01*
X011972Y046750D01*
X014019Y043611D02*
X014506Y043611D01*
X014506Y043513D02*
X013943Y043513D01*
X014506Y043414D02*
X014664Y043256D01*
X008994Y036150D02*
X008735Y035737D01*
X008202Y035169D02*
X007815Y034893D01*
X007113Y033958D02*
X006694Y033958D01*
X006636Y033860D02*
X006976Y033860D01*
X006878Y033761D02*
X006603Y033761D01*
X006581Y033673D02*
X006581Y033673D01*
X006578Y033663D02*
X006830Y033663D01*
X006789Y033564D02*
X006553Y033564D01*
X006529Y033466D02*
X006766Y033466D01*
X006766Y033367D02*
X006504Y033367D01*
X006480Y033269D02*
X006766Y033269D01*
X006800Y033170D02*
X006455Y033170D01*
X006430Y033072D02*
X006840Y033072D01*
X006904Y032973D02*
X006406Y032973D01*
X006381Y032875D02*
X007002Y032875D01*
X006407Y033802D02*
X006423Y033860D01*
X006443Y033917D01*
X006467Y033973D01*
X006493Y034027D01*
X006523Y034080D01*
X006556Y034130D01*
X006592Y034179D01*
X006631Y034225D01*
X006673Y034269D01*
X006717Y034310D01*
X006764Y034349D01*
X006813Y034384D01*
X006864Y034417D01*
X006916Y034447D01*
X006971Y034473D01*
X006407Y033802D02*
X004412Y025824D01*
X004675Y024875D02*
X004887Y024663D01*
X005301Y024061D02*
X005416Y023801D01*
X005569Y022706D02*
X005408Y021580D01*
X005386Y021471D02*
X003290Y013383D01*
X003490Y010712D02*
X006407Y010712D01*
X006465Y010614D02*
X003507Y010614D01*
X003528Y010515D02*
X006532Y010515D01*
X006608Y010417D02*
X003554Y010417D01*
X003592Y010318D02*
X006696Y010318D01*
X006792Y010220D02*
X003631Y010220D01*
X003672Y010121D02*
X006911Y010121D01*
X007039Y010023D02*
X003726Y010023D01*
X003779Y009924D02*
X007178Y009924D01*
X007318Y009826D02*
X003832Y009826D01*
X003886Y009727D02*
X007458Y009727D01*
X007597Y009629D02*
X003939Y009629D01*
X003995Y009530D02*
X007737Y009530D01*
X007881Y009432D02*
X004071Y009432D01*
X004147Y009333D02*
X008045Y009333D01*
X008063Y009530D02*
X014389Y009530D01*
X014381Y009629D02*
X007909Y009629D01*
X007770Y009727D02*
X014381Y009727D01*
X014445Y009826D02*
X007630Y009826D01*
X007491Y009924D02*
X014669Y009924D01*
X014768Y010023D02*
X007351Y010023D01*
X007212Y010121D02*
X014866Y010121D01*
X014965Y010220D02*
X007076Y010220D01*
X006953Y010318D02*
X015063Y010318D01*
X015162Y010417D02*
X006851Y010417D01*
X006759Y010515D02*
X015260Y010515D01*
X015359Y010614D02*
X006683Y010614D01*
X006616Y010712D02*
X015457Y010712D01*
X015556Y010811D02*
X006557Y010811D01*
X006330Y011697D02*
X007083Y011697D01*
X007010Y011796D02*
X006330Y011796D01*
X006330Y011894D02*
X006651Y011894D01*
X006553Y011993D02*
X006330Y011993D01*
X006330Y012091D02*
X006454Y012091D01*
X006356Y012190D02*
X006330Y012190D01*
X006275Y012525D02*
X006800Y012000D01*
X007435Y012000D01*
X003283Y010703D02*
X003227Y010905D01*
X003180Y011109D01*
X003143Y011314D01*
X003115Y011522D01*
X003096Y011730D01*
X003087Y011939D01*
X003087Y012148D01*
X003098Y012357D01*
X003117Y012566D01*
X003146Y012773D01*
X003185Y012978D01*
X003233Y013182D01*
X003290Y013383D01*
X006275Y012525D02*
X006275Y020225D01*
X007200Y021150D01*
X008150Y021150D01*
X009280Y021153D02*
X010773Y021153D01*
X010674Y021055D02*
X009280Y021055D01*
X009280Y020956D02*
X010631Y020956D01*
X010631Y020858D02*
X009280Y020858D01*
X009280Y020759D02*
X010660Y020759D01*
X010759Y020661D02*
X009204Y020661D01*
X009280Y021252D02*
X010997Y021252D01*
X011095Y021350D02*
X009280Y021350D01*
X009280Y021449D02*
X011194Y021449D01*
X011292Y021547D02*
X009280Y021547D01*
X009189Y022434D02*
X011470Y022434D01*
X011470Y022532D02*
X009847Y022532D01*
X009945Y022631D02*
X011470Y022631D01*
X011470Y022729D02*
X010044Y022729D01*
X010142Y022828D02*
X011470Y022828D01*
X011470Y022926D02*
X010241Y022926D01*
X010310Y023250D02*
X009710Y022650D01*
X010310Y023250D02*
X010286Y023275D01*
X010736Y023320D02*
X011470Y023320D01*
X011470Y023222D02*
X010736Y023222D01*
X010736Y023123D02*
X011470Y023123D01*
X011470Y023025D02*
X010736Y023025D01*
X010736Y023419D02*
X011470Y023419D01*
X011470Y023517D02*
X010700Y023517D01*
X011650Y023525D02*
X011775Y023650D01*
X012650Y023650D01*
X012627Y023419D02*
X011830Y023419D01*
X011830Y023320D02*
X012695Y023320D01*
X012761Y023222D02*
X011830Y023222D01*
X011830Y023123D02*
X012827Y023123D01*
X012892Y023025D02*
X011830Y023025D01*
X011830Y022926D02*
X012958Y022926D01*
X013024Y022828D02*
X011830Y022828D01*
X011830Y022729D02*
X013089Y022729D01*
X013155Y022631D02*
X011830Y022631D01*
X011830Y022532D02*
X013221Y022532D01*
X013286Y022434D02*
X011830Y022434D01*
X011830Y022335D02*
X013346Y022335D01*
X013424Y022237D02*
X011830Y022237D01*
X011830Y022138D02*
X014315Y022138D01*
X015275Y022040D02*
X011830Y022040D01*
X011650Y021650D02*
X011650Y023525D01*
X011650Y021650D02*
X010900Y020900D01*
X009738Y018494D02*
X008062Y018494D01*
X007066Y018691D02*
X006455Y018691D01*
X006455Y018789D02*
X007020Y018789D01*
X007020Y018888D02*
X006455Y018888D01*
X006455Y018986D02*
X007020Y018986D01*
X007020Y019085D02*
X006455Y019085D01*
X006455Y019183D02*
X007020Y019183D01*
X007020Y019282D02*
X006455Y019282D01*
X006455Y019380D02*
X007020Y019380D01*
X007020Y019479D02*
X006455Y019479D01*
X006455Y019577D02*
X007033Y019577D01*
X007096Y020661D02*
X006965Y020661D01*
X005386Y021471D02*
X005399Y021526D01*
X005408Y021581D01*
X005569Y022705D02*
X005580Y022798D01*
X005587Y022891D01*
X005589Y022984D01*
X005587Y023078D01*
X005581Y023171D01*
X005570Y023263D01*
X005555Y023356D01*
X005536Y023447D01*
X005512Y023537D01*
X005484Y023626D01*
X005453Y023714D01*
X005417Y023800D01*
X004675Y024875D02*
X004633Y024919D01*
X004595Y024966D01*
X004559Y025014D01*
X004526Y025065D01*
X004496Y025118D01*
X004470Y025173D01*
X004446Y025229D01*
X004427Y025286D01*
X004411Y025344D01*
X004398Y025404D01*
X004389Y025464D01*
X004384Y025524D01*
X004382Y025585D01*
X004384Y025645D01*
X004390Y025705D01*
X004399Y025765D01*
X004412Y025825D01*
X004887Y024662D02*
X004951Y024596D01*
X005011Y024527D01*
X005068Y024455D01*
X005122Y024380D01*
X005172Y024303D01*
X005218Y024224D01*
X005261Y024143D01*
X005301Y024060D01*
X006455Y017607D02*
X007063Y017607D01*
X006775Y017400D02*
X008150Y017400D01*
X008150Y012900D01*
X006775Y012900D01*
X006775Y017400D01*
X006775Y017312D02*
X008150Y017312D01*
X008150Y017213D02*
X006775Y017213D01*
X006775Y017115D02*
X008150Y017115D01*
X008150Y017016D02*
X006775Y017016D01*
X006775Y016918D02*
X008150Y016918D01*
X008150Y016819D02*
X006775Y016819D01*
X006775Y016721D02*
X008150Y016721D01*
X008150Y016622D02*
X006775Y016622D01*
X006775Y016524D02*
X008150Y016524D01*
X008150Y016425D02*
X006775Y016425D01*
X006775Y016327D02*
X008150Y016327D01*
X008150Y016228D02*
X006775Y016228D01*
X006775Y016130D02*
X008150Y016130D01*
X008150Y016031D02*
X006775Y016031D01*
X006775Y015933D02*
X008150Y015933D01*
X008150Y015834D02*
X006775Y015834D01*
X006775Y015736D02*
X008150Y015736D01*
X008150Y015637D02*
X006775Y015637D01*
X006775Y015539D02*
X008150Y015539D01*
X008150Y015440D02*
X006775Y015440D01*
X006775Y015342D02*
X008150Y015342D01*
X008150Y015243D02*
X006775Y015243D01*
X006775Y015145D02*
X008150Y015145D01*
X008150Y015046D02*
X006775Y015046D01*
X006775Y014948D02*
X008150Y014948D01*
X008150Y014849D02*
X006775Y014849D01*
X006775Y014751D02*
X008150Y014751D01*
X008150Y014652D02*
X006775Y014652D01*
X006775Y014554D02*
X008150Y014554D01*
X008150Y014455D02*
X006775Y014455D01*
X006775Y014357D02*
X008150Y014357D01*
X008150Y014258D02*
X006775Y014258D01*
X006775Y014160D02*
X008150Y014160D01*
X008150Y014061D02*
X006775Y014061D01*
X006775Y013963D02*
X008150Y013963D01*
X008150Y013864D02*
X006775Y013864D01*
X006775Y013766D02*
X008150Y013766D01*
X008150Y013667D02*
X006775Y013667D01*
X006775Y013569D02*
X008150Y013569D01*
X008150Y013470D02*
X006775Y013470D01*
X006775Y013372D02*
X008150Y013372D01*
X008150Y013273D02*
X006775Y013273D01*
X006775Y013175D02*
X008150Y013175D01*
X008150Y013076D02*
X006775Y013076D01*
X006775Y012978D02*
X008150Y012978D01*
X007067Y012288D02*
X006767Y012288D01*
X006865Y012190D02*
X007010Y012190D01*
X006640Y012781D02*
X006455Y012781D01*
X006455Y012879D02*
X006595Y012879D01*
X006595Y012978D02*
X006455Y012978D01*
X006455Y013076D02*
X006595Y013076D01*
X006595Y013175D02*
X006455Y013175D01*
X006455Y013273D02*
X006595Y013273D01*
X006595Y013372D02*
X006455Y013372D01*
X006455Y013470D02*
X006595Y013470D01*
X006595Y013569D02*
X006455Y013569D01*
X006455Y013667D02*
X006595Y013667D01*
X006595Y013766D02*
X006455Y013766D01*
X006455Y013864D02*
X006595Y013864D01*
X006595Y013963D02*
X006455Y013963D01*
X006455Y014061D02*
X006595Y014061D01*
X006595Y014160D02*
X006455Y014160D01*
X006455Y014258D02*
X006595Y014258D01*
X006595Y014357D02*
X006455Y014357D01*
X006455Y014455D02*
X006595Y014455D01*
X006595Y014554D02*
X006455Y014554D01*
X006455Y014652D02*
X006595Y014652D01*
X006595Y014751D02*
X006455Y014751D01*
X006455Y014849D02*
X006595Y014849D01*
X006595Y014948D02*
X006455Y014948D01*
X006455Y015046D02*
X006595Y015046D01*
X006595Y015145D02*
X006455Y015145D01*
X006455Y015243D02*
X006595Y015243D01*
X006595Y015342D02*
X006455Y015342D01*
X006455Y015440D02*
X006595Y015440D01*
X006595Y015539D02*
X006455Y015539D01*
X006455Y015637D02*
X006595Y015637D01*
X006595Y015736D02*
X006455Y015736D01*
X006455Y015834D02*
X006595Y015834D01*
X006595Y015933D02*
X006455Y015933D01*
X006455Y016031D02*
X006595Y016031D01*
X006595Y016130D02*
X006455Y016130D01*
X006455Y016228D02*
X006595Y016228D01*
X006595Y016327D02*
X006455Y016327D01*
X006455Y016425D02*
X006595Y016425D01*
X006595Y016524D02*
X006455Y016524D01*
X006455Y016622D02*
X006595Y016622D01*
X006595Y016721D02*
X006455Y016721D01*
X006455Y016819D02*
X006595Y016819D01*
X006595Y016918D02*
X006455Y016918D01*
X006455Y017016D02*
X006595Y017016D01*
X006595Y017115D02*
X006455Y017115D01*
X006455Y017213D02*
X006595Y017213D01*
X006595Y017312D02*
X006455Y017312D01*
X006455Y017410D02*
X006595Y017410D01*
X006629Y017509D02*
X006455Y017509D01*
X008252Y009432D02*
X014488Y009432D01*
X015336Y009333D02*
X008543Y009333D01*
X008588Y009136D02*
X004299Y009136D01*
X004223Y009235D02*
X008260Y009235D01*
X019387Y023419D02*
X022913Y023419D01*
X023012Y023517D02*
X019288Y023517D01*
X022900Y022900D02*
X023175Y022875D01*
X024185Y022875D01*
X024512Y023517D02*
X023288Y023517D01*
X023650Y023775D02*
X024770Y023775D01*
X025025Y024030D01*
X025025Y025775D01*
X023650Y025775D01*
X023650Y023775D01*
X023650Y023813D02*
X024808Y023813D01*
X024906Y023911D02*
X023650Y023911D01*
X023650Y024010D02*
X025005Y024010D01*
X025025Y024108D02*
X023650Y024108D01*
X023650Y024207D02*
X025025Y024207D01*
X025025Y024305D02*
X023650Y024305D01*
X023650Y024404D02*
X025025Y024404D01*
X025025Y024502D02*
X023650Y024502D01*
X023650Y024601D02*
X025025Y024601D01*
X025025Y024699D02*
X023650Y024699D01*
X023650Y024798D02*
X025025Y024798D01*
X025025Y024896D02*
X023650Y024896D01*
X023650Y024995D02*
X025025Y024995D01*
X025025Y025093D02*
X023650Y025093D01*
X023650Y025192D02*
X025025Y025192D01*
X025025Y025290D02*
X023650Y025290D01*
X023650Y025389D02*
X025025Y025389D01*
X025025Y025487D02*
X023650Y025487D01*
X023650Y025586D02*
X025025Y025586D01*
X025025Y025684D02*
X023650Y025684D01*
X025205Y025487D02*
X037233Y025487D01*
X037220Y025389D02*
X025205Y025389D01*
X025205Y025290D02*
X037220Y025290D01*
X037220Y025192D02*
X025205Y025192D01*
X025205Y025093D02*
X037220Y025093D01*
X037220Y024995D02*
X025205Y024995D01*
X025205Y024896D02*
X037220Y024896D01*
X037220Y024798D02*
X025205Y024798D01*
X025205Y024699D02*
X025695Y024699D01*
X025596Y024601D02*
X025205Y024601D01*
X025205Y024502D02*
X025498Y024502D01*
X025399Y024404D02*
X025205Y024404D01*
X025205Y024305D02*
X025300Y024305D01*
X036807Y023123D02*
X038243Y023123D01*
X038520Y023400D02*
X037400Y023400D01*
X037400Y025400D01*
X038775Y025400D01*
X038775Y023655D01*
X038520Y023400D01*
X038539Y023419D02*
X037400Y023419D01*
X037400Y023517D02*
X038637Y023517D01*
X038736Y023616D02*
X037400Y023616D01*
X037400Y023714D02*
X038775Y023714D01*
X038775Y023813D02*
X037400Y023813D01*
X037400Y023911D02*
X038775Y023911D01*
X038775Y024010D02*
X037400Y024010D01*
X037400Y024108D02*
X038775Y024108D01*
X038775Y024207D02*
X037400Y024207D01*
X037400Y024305D02*
X038775Y024305D01*
X038775Y024404D02*
X037400Y024404D01*
X037400Y024502D02*
X038775Y024502D01*
X038775Y024601D02*
X037400Y024601D01*
X037400Y024699D02*
X038775Y024699D01*
X038775Y024798D02*
X037400Y024798D01*
X037400Y024896D02*
X038775Y024896D01*
X038775Y024995D02*
X037400Y024995D01*
X037400Y025093D02*
X038775Y025093D01*
X038775Y025192D02*
X037400Y025192D01*
X037400Y025290D02*
X038775Y025290D01*
X038775Y025389D02*
X037400Y025389D01*
X038955Y024305D02*
X039425Y024305D01*
X039327Y024207D02*
X038955Y024207D01*
X038955Y024108D02*
X039228Y024108D01*
X039130Y024010D02*
X038955Y024010D01*
X038955Y023911D02*
X039031Y023911D01*
X039865Y023800D02*
X045150Y023150D01*
X045150Y022775D02*
X045525Y022775D01*
X045900Y023150D01*
X045900Y023650D01*
X045682Y023813D02*
X043723Y023813D01*
X044491Y023714D02*
X045631Y023714D01*
X045360Y023616D02*
X045259Y023616D01*
X045525Y023400D02*
X040650Y024025D01*
X040275Y024150D01*
X040650Y023150D02*
X045150Y022775D01*
X043794Y022434D02*
X038938Y022434D01*
X039037Y022532D02*
X041873Y022532D01*
X040514Y022631D02*
X039135Y022631D01*
X037935Y022500D02*
X037550Y022500D01*
X036875Y022550D01*
X033427Y037307D02*
X026955Y037307D01*
X039580Y037800D02*
X039670Y037800D01*
X039580Y037898D02*
X039769Y037898D01*
X039867Y037997D02*
X039580Y037997D01*
X039580Y038095D02*
X039966Y038095D01*
X050150Y037275D02*
X051310Y037250D01*
X052330Y038391D02*
X052386Y038391D01*
X052330Y038489D02*
X052485Y038489D01*
X052583Y038588D02*
X052330Y038588D01*
X052330Y038686D02*
X052682Y038686D01*
X052818Y038785D02*
X052330Y038785D01*
X052150Y038982D02*
X050650Y038982D01*
X050650Y039080D02*
X052150Y039080D01*
X052150Y039179D02*
X050650Y039179D01*
X050650Y039277D02*
X052150Y039277D01*
X052150Y039376D02*
X050650Y039376D01*
X050650Y039474D02*
X052150Y039474D01*
X051931Y039573D02*
X051831Y039573D01*
X051831Y039671D02*
X051931Y039671D01*
X051931Y039770D02*
X051831Y039770D01*
X051831Y039868D02*
X051931Y039868D01*
X051931Y039967D02*
X051831Y039967D01*
X051831Y040065D02*
X050650Y040065D01*
X050650Y039967D02*
X051475Y039967D01*
X051475Y039868D02*
X050650Y039868D01*
X050650Y039770D02*
X051475Y039770D01*
X051481Y039671D02*
X050650Y039671D01*
X050650Y039573D02*
X051563Y039573D01*
X051475Y040075D02*
X051831Y040075D01*
X051831Y040490D01*
X051606Y040490D01*
X051567Y040480D01*
X051533Y040460D01*
X051505Y040432D01*
X051486Y040398D01*
X051475Y040360D01*
X051475Y040075D01*
X051475Y040164D02*
X050650Y040164D01*
X050650Y040262D02*
X051475Y040262D01*
X051476Y040361D02*
X050650Y040361D01*
X050650Y040459D02*
X051532Y040459D01*
X051831Y040459D02*
X051931Y040459D01*
X051931Y040361D02*
X051831Y040361D01*
X051831Y040262D02*
X051931Y040262D01*
X051931Y040164D02*
X051831Y040164D01*
X052150Y040558D02*
X050650Y040558D01*
X050650Y040656D02*
X052150Y040656D01*
X052150Y040755D02*
X050650Y040755D01*
X052800Y038550D02*
X053240Y038550D01*
X058577Y036008D02*
X058650Y035961D01*
X058720Y035910D01*
X058787Y035856D01*
X058852Y035799D01*
X058915Y035739D01*
X058974Y035676D01*
X059031Y035611D01*
X059084Y035543D01*
X059135Y035472D01*
X059182Y035400D01*
X059226Y035325D01*
X059266Y035248D01*
X059302Y035170D01*
X059335Y035090D01*
X059365Y035009D01*
X045401Y051787D02*
X045321Y051787D01*
X045900Y052025D02*
X041115Y051550D01*
X040689Y051590D02*
X040205Y051590D01*
X040205Y051688D02*
X040689Y051688D01*
X040695Y051787D02*
X040205Y051787D01*
X040205Y051885D02*
X042671Y051885D01*
X041680Y051787D02*
X041534Y051787D01*
X041659Y051097D02*
X041707Y051097D01*
X040714Y051294D02*
X040205Y051294D01*
X040205Y051393D02*
X040689Y051393D01*
X040689Y051491D02*
X040205Y051491D01*
X040205Y051984D02*
X043663Y051984D01*
X044522Y055924D02*
X053846Y055924D01*
X053686Y056022D02*
X045143Y056022D01*
X045763Y056121D02*
X053526Y056121D01*
X053366Y056219D02*
X046384Y056219D01*
X046570Y056613D02*
X043916Y056613D01*
X043389Y056515D02*
X045949Y056515D01*
X046023Y057007D02*
X049052Y057007D01*
X048866Y056613D02*
X052726Y056613D01*
X052886Y056515D02*
X048245Y056515D01*
X048431Y056909D02*
X045496Y056909D01*
X046550Y057106D02*
X050111Y057106D01*
X049487Y056712D02*
X052566Y056712D01*
X052406Y056810D02*
X051602Y056810D01*
X051324Y057992D02*
X052533Y057992D01*
X053142Y057894D02*
X050621Y057894D01*
X053046Y056416D02*
X047625Y056416D01*
X047004Y056318D02*
X053206Y056318D01*
X052237Y053954D02*
X051705Y053954D01*
X051705Y053855D02*
X052189Y053855D01*
X052189Y053757D02*
X051705Y053757D01*
X051705Y053658D02*
X052189Y053658D01*
X052189Y053560D02*
X051705Y053560D01*
X051705Y053461D02*
X052189Y053461D01*
X056863Y052844D02*
X056864Y053105D01*
X056853Y053367D01*
X056830Y053627D01*
X056794Y053886D01*
X056746Y054144D01*
X056686Y054398D01*
X056614Y054650D01*
X056529Y054897D01*
X056434Y055141D01*
X056326Y055379D01*
X056208Y055613D01*
X056079Y055840D01*
X055939Y056061D01*
X055788Y056275D01*
X055628Y056482D01*
X055458Y056680D01*
X055278Y056871D01*
X055090Y057053D01*
X054894Y057225D01*
X054689Y057388D01*
X054477Y057542D01*
X054258Y057684D01*
X054032Y057817D01*
X053800Y057938D01*
X053527Y058018D01*
X053251Y058085D01*
X052973Y058140D01*
X052691Y058182D01*
X052409Y058212D01*
X052125Y058228D01*
X051841Y058232D01*
X051557Y058222D01*
X051273Y058200D01*
X050991Y058165D01*
X050711Y058118D01*
X050434Y058057D01*
X050159Y057984D01*
X042264Y056498D02*
X042168Y056481D01*
X042071Y056469D01*
X041973Y056462D01*
X041876Y056459D01*
X041778Y056461D01*
X041680Y056468D01*
X041583Y056480D01*
X041487Y056496D01*
X041392Y056518D01*
X041297Y056543D01*
X041101Y056602D02*
X041009Y056633D01*
X040918Y056667D01*
X040828Y056706D01*
X040741Y056750D01*
X040656Y056798D01*
X040574Y056849D01*
X040494Y056905D01*
X040417Y056964D01*
X040342Y057028D01*
X040271Y057094D01*
X040204Y057164D01*
X040140Y057238D01*
X038785Y050506D02*
X038424Y050506D01*
X038275Y050275D02*
X039185Y050250D01*
X038766Y050014D02*
X038394Y050014D01*
X009228Y036684D02*
X009200Y036590D01*
X009167Y036499D01*
X009130Y036408D01*
X009089Y036320D01*
X009044Y036234D01*
X008994Y036150D01*
X008735Y035737D02*
X008681Y035655D01*
X008623Y035576D01*
X008561Y035500D01*
X008496Y035427D01*
X008427Y035357D01*
X008355Y035291D01*
X008280Y035228D01*
X008201Y035170D01*
X007814Y034893D02*
X007748Y034847D01*
X007679Y034804D01*
X007609Y034764D01*
X007537Y034727D01*
X007464Y034692D01*
D12*
X013310Y034500D03*
X013310Y035800D03*
X015240Y035800D03*
X015240Y034500D03*
X012240Y024550D03*
X012240Y023250D03*
X010310Y023250D03*
X010310Y024550D03*
X009365Y013300D03*
X009365Y012000D03*
X007435Y012000D03*
X007435Y013300D03*
X022435Y011550D03*
X022435Y010250D03*
X024365Y010250D03*
X024365Y011550D03*
X024185Y022875D03*
X024185Y024175D03*
X026115Y024175D03*
X026115Y022875D03*
X037935Y022500D03*
X037935Y023800D03*
X039865Y023800D03*
X039865Y022500D03*
X051810Y022125D03*
X051810Y023425D03*
X053740Y023425D03*
X053740Y022125D03*
X054365Y008425D03*
X054365Y007125D03*
X052435Y007125D03*
X052435Y008425D03*
X039240Y008750D03*
X039240Y010050D03*
X037310Y010050D03*
X037310Y008750D03*
X027865Y035375D03*
X027865Y036675D03*
X025935Y036675D03*
X025935Y035375D03*
X018240Y046000D03*
X018240Y047300D03*
X016310Y047300D03*
X016310Y046000D03*
X027685Y048000D03*
X027685Y049300D03*
X029615Y049300D03*
X029615Y048000D03*
X039185Y050250D03*
X039185Y051550D03*
X041115Y051550D03*
X041115Y050250D03*
X050685Y052375D03*
X050685Y053675D03*
X052615Y053675D03*
X052615Y052375D03*
X053240Y038550D03*
X053240Y037250D03*
X051310Y037250D03*
X051310Y038550D03*
X040490Y037675D03*
X040490Y036375D03*
X038560Y036375D03*
X038560Y037675D03*
D13*
X039131Y038900D03*
X039919Y038900D03*
X051881Y040025D03*
X052669Y040025D03*
X040544Y052650D03*
X039756Y052650D03*
X029044Y050400D03*
X028256Y050400D03*
X017669Y048400D03*
X016881Y048400D03*
X026506Y037900D03*
X027294Y037900D03*
X025544Y025400D03*
X024756Y025400D03*
X014669Y037025D03*
X013881Y037025D03*
X011669Y025775D03*
X010881Y025775D03*
X008794Y014650D03*
X008006Y014650D03*
X023756Y012650D03*
X024544Y012650D03*
X037881Y011025D03*
X038669Y011025D03*
X052381Y024650D03*
X053169Y024650D03*
X039294Y025025D03*
X038506Y025025D03*
X053006Y009525D03*
X053794Y009525D03*
X052044Y054650D03*
X051256Y054650D03*
D14*
X055150Y014650D03*
X055150Y013150D03*
X055150Y011650D03*
X008150Y017150D03*
X008150Y019150D03*
X008150Y021150D03*
D15*
X030025Y009485D03*
X030025Y008815D03*
D16*
X031849Y009650D03*
X032951Y009650D03*
D17*
X027650Y009974D03*
X027650Y011076D03*
D18*
X027650Y011275D03*
X028025Y011275D03*
X027275Y011275D03*
X026150Y011150D03*
X027275Y009775D03*
X027650Y009775D03*
X028025Y009775D03*
X028025Y008900D03*
X027650Y008900D03*
X027650Y008525D03*
X028025Y008525D03*
X027275Y008525D03*
X027275Y008900D03*
X029900Y008650D03*
X029900Y009662D03*
X031275Y009650D03*
X031275Y010025D03*
X031650Y010025D03*
X031650Y009650D03*
X031650Y009275D03*
X031275Y009275D03*
X029900Y006650D03*
X023150Y009650D03*
X022775Y009650D03*
X021800Y011550D03*
X023025Y012025D03*
X023025Y012400D03*
X015775Y010275D03*
X015525Y009525D03*
X014650Y009650D03*
X010150Y012650D03*
X008150Y011400D03*
X007775Y011400D03*
X007900Y014025D03*
X007525Y014025D03*
X007900Y018275D03*
X009900Y018275D03*
X010900Y020900D03*
X010900Y022525D03*
X010525Y022525D03*
X009025Y022650D03*
X009525Y025275D03*
X010775Y025275D03*
X010775Y024900D03*
X013025Y023900D03*
X008150Y028650D03*
X010400Y030400D03*
X011025Y030275D03*
X013650Y033775D03*
X014025Y033775D03*
X016025Y035150D03*
X013900Y036400D03*
X013900Y036775D03*
X011900Y036775D03*
X010150Y035650D03*
X012025Y042400D03*
X013150Y042775D03*
X014775Y043525D03*
X016525Y045275D03*
X016900Y045275D03*
X018900Y046775D03*
X019400Y046525D03*
X016900Y048025D03*
X016525Y048025D03*
X015150Y047150D03*
X019400Y051150D03*
X022400Y048400D03*
X023025Y048900D03*
X026650Y048525D03*
X027900Y047275D03*
X028275Y047275D03*
X030250Y048750D03*
X028275Y049900D03*
X027900Y049900D03*
X028900Y053150D03*
X034150Y049900D03*
X034900Y050525D03*
X038275Y050275D03*
X039400Y049525D03*
X039775Y049525D03*
X041500Y050875D03*
X039775Y052150D03*
X039400Y052150D03*
X041650Y055650D03*
X045900Y052025D03*
X046400Y052650D03*
X049900Y052400D03*
X050900Y051650D03*
X051275Y051650D03*
X051275Y054275D03*
X050900Y054275D03*
X054150Y055650D03*
X055650Y041650D03*
X051900Y039400D03*
X051900Y039025D03*
X052650Y037775D03*
X052025Y036525D03*
X051650Y036525D03*
X050400Y036900D03*
X050150Y037275D03*
X050400Y037650D03*
X046775Y036900D03*
X046275Y037775D03*
X046650Y038150D03*
X045900Y037400D03*
X041125Y037125D03*
X039275Y035650D03*
X038900Y035650D03*
X037650Y036400D03*
X037400Y036775D03*
X037400Y036025D03*
X038775Y038275D03*
X039150Y038275D03*
X033650Y037150D03*
X033275Y036775D03*
X032900Y036400D03*
X033775Y035900D03*
X028650Y036150D03*
X026525Y037400D03*
X026150Y037400D03*
X024650Y035775D03*
X024900Y035400D03*
X024650Y035025D03*
X026275Y034650D03*
X026650Y034650D03*
X020775Y035150D03*
X020150Y035525D03*
X020525Y035900D03*
X020900Y036275D03*
X024775Y024900D03*
X024775Y024525D03*
X023150Y023275D03*
X022900Y022900D03*
X023150Y022525D03*
X024525Y022150D03*
X024900Y022150D03*
X027025Y023400D03*
X031525Y023150D03*
X032025Y023525D03*
X032525Y023900D03*
X032400Y022775D03*
X036650Y022900D03*
X036875Y022550D03*
X036650Y022150D03*
X038275Y021775D03*
X038650Y021775D03*
X040650Y023150D03*
X038525Y024150D03*
X038525Y024525D03*
X045150Y023150D03*
X045525Y023400D03*
X045900Y023650D03*
X045900Y022650D03*
X050650Y022525D03*
X050900Y022150D03*
X050650Y021775D03*
X052150Y021400D03*
X052525Y021400D03*
X053650Y022650D03*
X052400Y023775D03*
X052400Y024150D03*
X056525Y028150D03*
X053150Y013275D03*
X054400Y013150D03*
X054775Y013150D03*
X055150Y013150D03*
X055525Y013150D03*
X055900Y013150D03*
X055900Y011650D03*
X055525Y011650D03*
X055150Y011650D03*
X054775Y011650D03*
X054400Y011650D03*
X054400Y010400D03*
X052900Y009150D03*
X052525Y009150D03*
X053650Y007650D03*
X053025Y006400D03*
X052650Y006400D03*
X051400Y007150D03*
X046150Y007150D03*
X046150Y007650D03*
X046150Y008275D03*
X041175Y009125D03*
X038025Y008025D03*
X037650Y008025D03*
X036400Y009650D03*
X037525Y010650D03*
X037900Y010650D03*
X019025Y022025D03*
X018275Y022525D03*
X018775Y022900D03*
X019150Y023275D03*
D19*
X008900Y019150D03*
X008525Y019150D03*
X008150Y019150D03*
X007775Y019150D03*
X007400Y019150D03*
X007400Y017150D03*
X007775Y017150D03*
X008150Y017150D03*
X008525Y017150D03*
X008900Y017150D03*
X034025Y011900D03*
X034025Y011525D03*
X034025Y011150D03*
X034025Y010775D03*
X034025Y010400D03*
X034025Y010025D03*
X034400Y010025D03*
X034400Y010400D03*
X034775Y010400D03*
X034775Y010775D03*
X034400Y010775D03*
X034400Y011150D03*
X034775Y011150D03*
X034400Y011525D03*
X034775Y008275D03*
X034775Y007900D03*
X034400Y007900D03*
X034400Y007525D03*
X034775Y007525D03*
X034025Y007525D03*
D20*
X033650Y004900D03*
X032650Y003775D03*
X030650Y004025D03*
X029150Y004150D03*
X027650Y004400D03*
X026525Y005900D03*
X024650Y006275D03*
X022900Y006775D03*
X021275Y006900D03*
X019400Y007150D03*
X017650Y007275D03*
X015900Y007400D03*
X014150Y007525D03*
X012275Y007775D03*
X010400Y008025D03*
X008525Y008150D03*
X006650Y008400D03*
X005275Y009275D03*
X004400Y010650D03*
X004150Y012025D03*
X004275Y013525D03*
X004650Y015025D03*
X005150Y016650D03*
X005150Y017150D03*
X005150Y017650D03*
X005650Y017650D03*
X005650Y017150D03*
X005650Y016650D03*
X005650Y018150D03*
X005650Y018650D03*
X035275Y004400D03*
X036650Y005025D03*
X038400Y004900D03*
X040150Y004775D03*
X042025Y004525D03*
X043775Y004400D03*
X045650Y004150D03*
X047400Y003900D03*
X049275Y003775D03*
X051150Y003525D03*
X052900Y003400D03*
X054775Y003400D03*
X056650Y003900D03*
X057525Y005025D03*
X057775Y006775D03*
X057775Y008400D03*
X057775Y009900D03*
X057650Y011150D03*
X057650Y011650D03*
X057650Y012150D03*
X057650Y012650D03*
X057150Y012650D03*
X057150Y012150D03*
X057150Y011650D03*
X057150Y011150D03*
D21*
X030025Y009650D02*
X030025Y009485D01*
X030025Y008815D02*
X029900Y008650D01*
M02*
