%
M48
M72
T01C0.0118
T02C0.0197
T03C0.0236
T04C0.1000
%
T01
X7775Y11400
X8150Y11400
X10150Y12650
X7900Y14025
X7525Y14025
X7900Y18275
X9900Y18275
X10900Y20900
X10900Y22525
X10525Y22525
X9025Y22650
X9525Y25275
X10775Y25275
X10775Y24900
X13025Y23900
X8150Y28650
X10400Y30400
X11025Y30275
X13650Y33775
X14025Y33775
X16025Y35150
X13900Y36400
X13900Y36775
X11900Y36775
X10150Y35650
X12025Y42400
X13150Y42775
X14775Y43525
X16525Y45275
X16900Y45275
X18900Y46775
X19400Y46525
X16900Y48025
X16525Y48025
X15150Y47150
X19400Y51150
X22400Y48400
X23025Y48900
X26650Y48525
X27900Y47275
X28275Y47275
X30250Y48750
X28275Y49900
X27900Y49900
X28900Y53150
X34150Y49900
X34900Y50525
X38275Y50275
X39400Y49525
X39775Y49525
X41500Y50875
X39775Y52150
X39400Y52150
X41650Y55650
X45900Y52025
X46400Y52650
X49900Y52400
X50900Y51650
X51275Y51650
X51275Y54275
X50900Y54275
X54150Y55650
X55650Y41650
X51900Y39400
X51900Y39025
X52650Y37775
X52025Y36525
X51650Y36525
X50400Y36900
X50150Y37275
X50400Y37650
X46775Y36900
X46275Y37775
X46650Y38150
X45900Y37400
X41125Y37125
X39275Y35650
X38900Y35650
X37650Y36400
X37400Y36775
X37400Y36025
X38775Y38275
X39150Y38275
X33650Y37150
X33275Y36775
X32900Y36400
X33775Y35900
X28650Y36150
X26525Y37400
X26150Y37400
X24650Y35775
X24900Y35400
X24650Y35025
X26275Y34650
X26650Y34650
X20775Y35150
X20150Y35525
X20525Y35900
X20900Y36275
X24775Y24900
X24775Y24525
X23150Y23275
X22900Y22900
X23150Y22525
X24525Y22150
X24900Y22150
X27025Y23400
X31525Y23150
X32025Y23525
X32525Y23900
X32400Y22775
X36650Y22900
X36875Y22550
X36650Y22150
X38275Y21775
X38650Y21775
X40650Y23150
X38525Y24150
X38525Y24525
X45150Y23150
X45525Y23400
X45900Y23650
X45900Y22650
X50650Y22525
X50900Y22150
X50650Y21775
X52150Y21400
X52525Y21400
X53650Y22650
X52400Y23775
X52400Y24150
X56525Y28150
X53150Y13275
X54400Y13150
X54775Y13150
X55150Y13150
X55525Y13150
X55900Y13150
X55900Y11650
X55525Y11650
X55150Y11650
X54775Y11650
X54400Y11650
X54400Y10400
X52900Y9150
X52525Y9150
X53650Y7650
X53025Y6400
X52650Y6400
X51400Y7150
X46150Y7150
X46150Y7650
X46150Y8275
X41175Y9125
X38025Y8025
X37650Y8025
X36400Y9650
X37525Y10650
X37900Y10650
X31650Y10025
X31275Y10025
X31275Y9650
X31650Y9650
X31650Y9275
X31275Y9275
X29900Y9662
X29900Y8650
X28025Y8525
X28025Y8900
X27650Y8900
X27650Y8525
X27275Y8525
X27275Y8900
X27275Y9775
X27650Y9775
X28025Y9775
X28025Y11275
X27650Y11275
X27275Y11275
X26150Y11150
X23150Y9650
X22775Y9650
X21800Y11550
X23025Y12025
X23025Y12400
X15775Y10275
X15525Y9525
X14650Y9650
X19025Y22025
X18275Y22525
X18775Y22900
X19150Y23275
X29900Y6650
T02
X34025Y7525
X34400Y7525
X34775Y7525
X34775Y7900
X34775Y8275
X34400Y7900
X34400Y10025
X34400Y10400
X34775Y10400
X34775Y10775
X34400Y10775
X34400Y11150
X34775Y11150
X34400Y11525
X34025Y11525
X34025Y11900
X34025Y11150
X34025Y10775
X34025Y10400
X34025Y10025
X8900Y17150
X8525Y17150
X8150Y17150
X7775Y17150
X7400Y17150
X7400Y19150
X7775Y19150
X8150Y19150
X8525Y19150
X8900Y19150
T03
X6650Y8400
X5275Y9275
X4400Y10650
X4150Y12025
X4275Y13525
X4650Y15025
X5150Y16650
X5150Y17150
X5150Y17650
X5650Y17650
X5650Y17150
X5650Y16650
X5650Y18150
X5650Y18650
X8525Y8150
X10400Y8025
X12275Y7775
X14150Y7525
X15900Y7400
X17650Y7275
X19400Y7150
X21275Y6900
X22900Y6775
X24650Y6275
X26525Y5900
X27650Y4400
X29150Y4150
X30650Y4025
X32650Y3775
X33650Y4900
X35275Y4400
X36650Y5025
X38400Y4900
X40150Y4775
X42025Y4525
X43775Y4400
X45650Y4150
X47400Y3900
X49275Y3775
X51150Y3525
X52900Y3400
X54775Y3400
X56650Y3900
X57525Y5025
X57775Y6775
X57775Y8400
X57775Y9900
X57650Y11150
X57650Y11650
X57650Y12150
X57650Y12650
X57150Y12650
X57150Y12150
X57150Y11650
X57150Y11150
T04
X58744Y26747
X58444Y34613
X38680Y56844
X30947Y55378
X7416Y33380
X5450Y25781
X26281Y4583
X34113Y3716
M30
