G75*
G70*
%OFA0B0*%
%FSLAX24Y24*%
%IPPOS*%
%LPD*%
%AMOC8*
5,1,8,0,0,1.08239X$1,22.5*
%
%ADD10R,0.0591X0.0354*%
%ADD11R,0.0512X0.0630*%
%ADD12R,0.2000X0.1000*%
D10*
X021045Y020110D03*
X021045Y021410D03*
X022975Y021410D03*
X022975Y020110D03*
X023920Y031360D03*
X023920Y032660D03*
X025850Y032660D03*
X025850Y031360D03*
X037795Y030985D03*
X037795Y032285D03*
X039725Y032285D03*
X039725Y030985D03*
X051545Y030610D03*
X051545Y031910D03*
X053475Y031910D03*
X053475Y030610D03*
X065420Y030235D03*
X065420Y031535D03*
X067350Y031535D03*
X067350Y030235D03*
X052850Y018160D03*
X052850Y016860D03*
X050920Y016860D03*
X050920Y018160D03*
X037975Y018360D03*
X037975Y019660D03*
X036045Y019660D03*
X036045Y018360D03*
X028850Y042610D03*
X028850Y043910D03*
X026920Y043910D03*
X026920Y042610D03*
X039545Y043485D03*
X039545Y044785D03*
X041475Y044785D03*
X041475Y043485D03*
X052170Y044485D03*
X052170Y045785D03*
X054100Y045785D03*
X054100Y044485D03*
X064920Y045360D03*
X064920Y046660D03*
X066850Y046660D03*
X066850Y045360D03*
X054725Y058360D03*
X054725Y059660D03*
X052795Y059660D03*
X052795Y058360D03*
X043225Y057410D03*
X043225Y056110D03*
X041295Y056110D03*
X041295Y057410D03*
X031850Y055410D03*
X031850Y054110D03*
X029920Y054110D03*
X029920Y055410D03*
X064295Y060485D03*
X064295Y061785D03*
X066225Y061785D03*
X066225Y060485D03*
X066045Y016535D03*
X066045Y015235D03*
X067975Y015235D03*
X067975Y016535D03*
D11*
X067404Y018010D03*
X066616Y018010D03*
X052279Y019635D03*
X051491Y019635D03*
X037404Y021135D03*
X036616Y021135D03*
X038366Y033760D03*
X039154Y033760D03*
X052116Y033385D03*
X052904Y033385D03*
X065991Y033010D03*
X066779Y033010D03*
X053529Y047260D03*
X052741Y047260D03*
X040904Y046385D03*
X040116Y046385D03*
X031279Y056760D03*
X030491Y056760D03*
X041866Y058760D03*
X042654Y058760D03*
X053366Y061135D03*
X054154Y061135D03*
X064866Y063260D03*
X065654Y063260D03*
X065491Y048135D03*
X066279Y048135D03*
X028279Y045260D03*
X027491Y045260D03*
X025279Y034135D03*
X024491Y034135D03*
X022404Y022885D03*
X021616Y022885D03*
D12*
X021760Y025760D03*
X021760Y027260D03*
X021760Y028760D03*
X068760Y022760D03*
X068760Y021260D03*
X068760Y019760D03*
M02*
