%
M48
M72
T01C0.0197
T02C0.1000
%
T01
X21635Y21885
X21635Y22260
X22635Y21760
X22510Y25510
X22135Y25510
X21760Y25510
X21385Y25510
X21010Y25510
X21010Y26010
X21385Y26010
X21760Y26010
X22135Y26010
X22510Y26010
X22510Y27010
X22135Y27010
X21760Y27010
X21385Y27010
X21010Y27010
X21010Y27510
X21385Y27510
X21760Y27510
X22135Y27510
X22510Y27510
X21885Y31260
X24385Y33135
X24385Y33510
X27510Y44260
X27510Y44635
X40135Y45260
X40135Y45635
X30510Y55760
X30510Y56135
X41885Y57760
X41885Y58135
X53385Y60135
X53385Y60510
X64885Y62260
X64885Y62635
X65510Y47510
X65510Y47135
X52760Y46635
X52760Y46260
X38385Y33135
X38385Y32760
X52135Y32760
X52135Y32385
X66010Y32385
X66010Y32010
X68010Y21510
X68385Y21510
X68760Y21510
X69135Y21510
X69510Y21510
X69510Y21010
X69135Y21010
X68760Y21010
X68385Y21010
X68010Y21010
X68010Y20010
X68385Y20010
X68760Y20010
X69135Y20010
X69510Y20010
X69510Y19510
X69135Y19510
X68760Y19510
X68385Y19510
X68010Y19510
X66635Y17385
X66635Y17010
X51510Y18635
X51510Y19010
X36635Y20135
X36635Y20510
T02
X39891Y12693
X47723Y11826
X72354Y34857
X72054Y42723
X52290Y64954
X44557Y63488
X21026Y41490
X19060Y33891
M30
