G75*
G70*
%OFA0B0*%
%FSLAX24Y24*%
%IPPOS*%
%LPD*%
%AMOC8*
5,1,8,0,0,1.08239X$1,22.5*
%
%ADD10C,0.1080*%
%ADD11R,0.0671X0.0434*%
%ADD12R,0.0592X0.0710*%
%ADD13R,0.2080X0.1080*%
%ADD14OC8,0.0437*%
D10*
X019060Y033891D03*
X021026Y041490D03*
X044557Y063488D03*
X052290Y064954D03*
X072054Y042723D03*
X072354Y034857D03*
X047723Y011826D03*
X039891Y012693D03*
D11*
X021045Y020110D03*
X021045Y021410D03*
X022975Y021410D03*
X022975Y020110D03*
X023920Y031360D03*
X023920Y032660D03*
X025850Y032660D03*
X025850Y031360D03*
X037795Y030985D03*
X037795Y032285D03*
X039725Y032285D03*
X039725Y030985D03*
X051545Y030610D03*
X051545Y031910D03*
X053475Y031910D03*
X053475Y030610D03*
X065420Y030235D03*
X065420Y031535D03*
X067350Y031535D03*
X067350Y030235D03*
X052850Y018160D03*
X052850Y016860D03*
X050920Y016860D03*
X050920Y018160D03*
X037975Y018360D03*
X037975Y019660D03*
X036045Y019660D03*
X036045Y018360D03*
X028850Y042610D03*
X028850Y043910D03*
X026920Y043910D03*
X026920Y042610D03*
X039545Y043485D03*
X039545Y044785D03*
X041475Y044785D03*
X041475Y043485D03*
X052170Y044485D03*
X052170Y045785D03*
X054100Y045785D03*
X054100Y044485D03*
X064920Y045360D03*
X064920Y046660D03*
X066850Y046660D03*
X066850Y045360D03*
X054725Y058360D03*
X054725Y059660D03*
X052795Y059660D03*
X052795Y058360D03*
X043225Y057410D03*
X043225Y056110D03*
X041295Y056110D03*
X041295Y057410D03*
X031850Y055410D03*
X031850Y054110D03*
X029920Y054110D03*
X029920Y055410D03*
X064295Y060485D03*
X064295Y061785D03*
X066225Y061785D03*
X066225Y060485D03*
X066045Y016535D03*
X066045Y015235D03*
X067975Y015235D03*
X067975Y016535D03*
D12*
X067404Y018010D03*
X066616Y018010D03*
X052279Y019635D03*
X051491Y019635D03*
X037404Y021135D03*
X036616Y021135D03*
X038366Y033760D03*
X039154Y033760D03*
X052116Y033385D03*
X052904Y033385D03*
X065991Y033010D03*
X066779Y033010D03*
X053529Y047260D03*
X052741Y047260D03*
X040904Y046385D03*
X040116Y046385D03*
X031279Y056760D03*
X030491Y056760D03*
X041866Y058760D03*
X042654Y058760D03*
X053366Y061135D03*
X054154Y061135D03*
X064866Y063260D03*
X065654Y063260D03*
X065491Y048135D03*
X066279Y048135D03*
X028279Y045260D03*
X027491Y045260D03*
X025279Y034135D03*
X024491Y034135D03*
X022404Y022885D03*
X021616Y022885D03*
D13*
X021760Y025760D03*
X021760Y027260D03*
X021760Y028760D03*
X068760Y022760D03*
X068760Y021260D03*
X068760Y019760D03*
D14*
X068760Y020010D03*
X068385Y020010D03*
X068010Y020010D03*
X068010Y019510D03*
X068385Y019510D03*
X068760Y019510D03*
X069135Y019510D03*
X069510Y019510D03*
X069510Y020010D03*
X069135Y020010D03*
X069135Y021010D03*
X069510Y021010D03*
X069510Y021510D03*
X069135Y021510D03*
X068760Y021510D03*
X068385Y021510D03*
X068010Y021510D03*
X068010Y021010D03*
X068385Y021010D03*
X068760Y021010D03*
X066635Y017385D03*
X066635Y017010D03*
X051510Y018635D03*
X051510Y019010D03*
X036635Y020135D03*
X036635Y020510D03*
X038385Y032760D03*
X038385Y033135D03*
X027510Y044260D03*
X027510Y044635D03*
X024385Y033510D03*
X024385Y033135D03*
X021885Y031260D03*
X021760Y027510D03*
X021385Y027510D03*
X021010Y027510D03*
X021010Y027010D03*
X021385Y027010D03*
X021760Y027010D03*
X022135Y027010D03*
X022510Y027010D03*
X022510Y027510D03*
X022135Y027510D03*
X022135Y026010D03*
X022510Y026010D03*
X022510Y025510D03*
X022135Y025510D03*
X021760Y025510D03*
X021385Y025510D03*
X021010Y025510D03*
X021010Y026010D03*
X021385Y026010D03*
X021760Y026010D03*
X021635Y022260D03*
X021635Y021885D03*
X022635Y021760D03*
X040135Y045260D03*
X040135Y045635D03*
X030510Y055760D03*
X030510Y056135D03*
X041885Y057760D03*
X041885Y058135D03*
X053385Y060135D03*
X053385Y060510D03*
X064885Y062260D03*
X064885Y062635D03*
X065510Y047510D03*
X065510Y047135D03*
X052760Y046635D03*
X052760Y046260D03*
X052135Y032760D03*
X052135Y032385D03*
X066010Y032385D03*
X066010Y032010D03*
M02*
